<?xml version="1.0" encoding="UTF-8"?>
<svg id="Layer_2" xmlns="http://www.w3.org/2000/svg" width="592" height="243" viewBox="0 0 592 243">
  <g id="Layer_1-2" data-name="Layer_1">
    <g>
      <g>
        <path d="M54.93,47.54l-3.43.08-.19-.22v-3.45l.24-.16,3.32.08h1.56v-4.74l.22-.19h3.7l.22.22v4.72h3.83v-4.77l.22-.19h3.78l.22.22v4.74h1l3.86-.08.24.16v3.45l-.19.22-3.91-.08h-1.05c-.19,3.45-.73,5.98-1.89,7.76-1.57,2.51-4.15,4.34-7.04,5.31-.22.05-.35.11-.49.11-.22,0-.35-.08-.57-.27l-3.1-2.51c3.99-1.02,6.23-2.4,7.58-4.61.89-1.48,1.21-2.96,1.32-5.8h-3.8v.3l.11,4.77h-4.37l.13-4.82v-.24h-1.51Z"/>
        <path d="M94.97,51.82h-12.06l-4.02.08-.19-.22v-3.85l.24-.16,3.86.08h12.03l4.15-.08.22.19v3.83l-.19.22-4.05-.08Z"/>
        <path d="M109.92,47.24c2.64-1.24,5.83-2.91,8.66-4.96h.24l2.64,3.18-.03.27c-3.4,2.21-7.34,4.04-11.55,5.61v1.83c0,.75.03,1.16.24,1.43.32.38.89.46,2.02.46,3.05,0,5.56-.19,9.23-.59l.22.13.16,3.94-.16.19c-2.86.24-6.82.46-9.25.46-2.62,0-4.69-.24-5.85-1.7-.76-.92-.81-2.24-.81-4.07l.08-12.48.19-.19h3.8l.19.19-.03,6.31ZM119.17,40.58l1.4-1,.27-.03c1,.84,1.94,1.78,2.75,2.86l-.03.27-1.48,1.05h-.27c-.84-1.1-1.59-1.99-2.67-2.91l.03-.24ZM121.71,38.88l1.38-1,.27-.03c1,.84,1.86,1.7,2.67,2.78l-.03.27-1.4,1.02h-.27c-.84-1.1-1.56-1.89-2.64-2.8l.03-.24Z"/>
        <path d="M148.45,59.07c-1.78-2.35-3.97-4.56-5.99-6.39-2.72,2.94-5.69,4.93-9.25,6.77-.27.13-.46.19-.59.19-.16,0-.27-.08-.43-.19l-3.18-2.45c6.2-2.88,11.63-6.95,14.11-12.56h-6.42l-4.02.08-.19-.22v-3.67l.24-.16,4.05.08h7.64l2.75-.14,1.65,1.62c.19.19.3.32.3.48s-.08.35-.24.65c-1.24,2.4-2.48,4.45-3.72,6.23,2.56,2.13,4.59,3.91,6.82,6.44l-.03.3-3.18,2.96-.3-.03Z"/>
        <path d="M164.67,37.48l2.86-.08.19.19-.08,2.86v3.42l.08,3.02-.22.24-2.86-.08h-4.21v15.34h-3.45l.13-9.16v-12.05l-.08-3.58.16-.19,2.89.08h4.59ZM164.34,41.18v-1.1h-3.91v1.1h3.91ZM160.43,44.46h3.91v-1.13h-3.91v1.13ZM163.67,55.62l-2.35.05-.22-.16v-2.51l.19-.16,2.37.08h.81c.03-.7,0-1.37,0-2.08h-.24l-2.21.05-.22-.16v-2.45l.19-.16,2.24.08h9.09l2.24-.08.19.19v2.43l-.19.16-2.24-.05h-.3v2.08h1l2.24-.08.19.19v2.48l-.19.16-2.24-.05h-1l.13,5.5h-3.59l.13-5.5h-2.21c-.13.81-.32,1.51-.62,2.13-.73,1.56-1.86,2.72-3.72,3.64-.11.05-.22.08-.3.08-.16,0-.3-.08-.41-.22l-1.94-2.21c1.67-.67,2.75-1.35,3.32-2.4.16-.3.3-.65.38-1.02h-.54ZM167.8,50.85c0,.7,0,1.37-.03,2.08h1.94v-2.08h-1.91ZM172.57,47.05l-2.86.08-.22-.24.08-3.02v-3.42l-.08-2.86.19-.19,2.86.08h4.99l2.89-.08.16.19-.08,3.58v10.19l.13,7.71c0,2.4-1.73,3.13-4.56,3.13-.54,0-.65-.13-.76-.4l-1.16-3.15c1,0,1.7-.03,2.48-.11.32-.05.38-.16.38-.81v-10.67h-4.45ZM177.02,41.18v-1.1h-4.1v1.1h4.1ZM172.92,44.46h4.1v-1.13h-4.1v1.13Z"/>
        <path d="M195.43,46.97c-.16,2.56-.57,5.12-1.43,7.52.89.7,1.7,1.4,2.37,2.13l-.03.27-2.19,2.56-.27-.03c-.54-.59-1.08-1.13-1.65-1.67-1.08,1.46-2.51,2.7-4.32,3.88-.13.08-.24.14-.35.14-.14,0-.24-.08-.35-.22l-1.97-2.37c1.81-1,3.21-2.13,4.26-3.61-.35-.22-.67-.43-1-.62l-.24.75-.27.11-2.64-1.02-.11-.24c.89-3.13,1.54-6.09,2.08-9.11l-1.62.03-.19-.19v-2.94l.19-.19,2.13.05c.24-1.7.46-3.45.67-5.28l.19-.19,3.16.46.19.19-.73,4.85h.84l3.24-.08.19.19-.11,3.58c.65-.03,1.27-.03,1.89-.05,1.05-2.97,2.02-6.31,2.67-9.3l.27-.08,3.48,1.02.11.27c-.7,2.4-1.65,5.15-2.7,7.92,1.54-.08,3.08-.19,4.61-.35-.54-.89-1.11-1.78-1.73-2.64l.11-.24,2.54-1.46.27.03c1.67,2.21,3.08,4.42,4.26,6.9l-.08.27-2.89,1.72-.27-.08c-.24-.54-.46-1.08-.7-1.59-3.4.51-7.07.97-10.95,1.32l-.24-.11-.7-2.51ZM190.82,45.38c-.41,2.13-.84,4.26-1.4,6.36.57.24,1.08.54,1.59.84.67-1.91,1.02-4.26,1.19-7.2h-1.38ZM200.42,62.44h-3.83l.13-5.07v-3.23l-.08-3.34.19-.19,3.32.08h5.61l3.32-.08.19.19-.08,3.32v3.05l.13,5.07h-3.99v-1.46h-4.91v1.67ZM205.33,57.56v-3.67h-4.91v3.67h4.91Z"/>
        <path d="M214.35,44.46l-.19-.16v-2.83l.16-.16,3.13.08h5.13l3.21-.08.16.14v2.88l-.16.13-3.21-.08h-5.13l-3.1.08ZM218.82,60.64v1.4h-3.45l.13-4.85v-1.27l-.08-2.7.16-.19,3.1.08h2.75l3.34-.08.19.19-.08,2.7v1.43l.13,4.45h-3.56v-1.16h-2.64ZM215.99,40.45l-.19-.16v-2.64l.16-.16,2.8.08h2.83l2.8-.08.16.14v2.7l-.16.13-2.8-.08h-2.83l-2.78.08ZM215.99,48.29l-.19-.16v-2.64l.16-.16,2.8.08h2.83l2.8-.08.16.13v2.7l-.16.13-2.8-.08h-2.83l-2.78.08ZM215.99,52.12l-.19-.16v-2.64l.16-.16,2.8.08h2.83l2.8-.08.16.13v2.7l-.16.13-2.8-.08h-2.83l-2.78.08ZM221.47,55.92h-2.64v1.91h2.64v-1.91ZM230.69,49.64v7.71c0,1.05.19,1.1,2.54,1.1,2.78,0,3.13-.3,3.29-3.42l3.43,1.13c.27.08.27.19.27.46-.11,2.43-.49,3.59-1.24,4.26-.78.73-1.56,1.16-6.07,1.16-5.29,0-6.02-.46-6.02-3.45l.03-4.88v-4.1l-.05-3.13.16-.19,2.94.08h4.56v-5.36h-4.8l-3.16.05-.19-.22v-2.99l.22-.16,3.26.08h4.86l3.48-.08.22.22-.05,3.32v4.39l.05,3.91-.24.19-3.18-.08h-4.29Z"/>
        <path d="M258.81,37.67c-.11.11-.19.24-.3.35,2.78,2.32,6.15,4.34,11.03,5.77l-2.24,2.97c-.24.35-.43.57-.7.57-.11,0-.22-.03-.38-.11-1.83-.81-3.67-1.86-5.42-3.07v1.32l-.16.13-2.75-.08h-3.43l-2.72.08-.19-.16v-1.08c-1.32.94-2.72,1.75-4.18,2.43l3.72.08h9.95l1.89-.13,1.38,1.35c.16.16.3.3.3.54,0,.13-.05.3-.13.54-.57,1.48-1.48,3.45-2.51,5.39l-3.48-1.59c.73-1.27,1.13-2.02,1.51-3.1h-8.9l-4.07.08-.19-.16v-2.75c-.13.05-.3.13-.43.19-.24.11-.4.13-.54.13-.19,0-.3-.08-.43-.22l-2.37-2.75c5.13-1.75,8.85-4.42,11.6-7.84l.3-.08,3.78.92.08.3ZM249.45,55.19l.11.3c-.54,1.94-1.46,4.1-2.51,5.93l-.27.08-3.24-1.45-.05-.27c.94-1.54,2.05-3.88,2.54-5.53l.24-.13,3.18,1.08ZM254.09,57.86c0,.65.03.7,1.56.7,2.32,0,2.99-.08,3.53-.51.49-.4.59-.67.73-1.99l3.32,1.45c.3.14.35.22.3.54-.16,1.27-.51,2.08-1.27,2.72-.92.81-1.97,1.16-7.01,1.16-4.32,0-5.1-.46-5.1-2.43l.05-2.24v-2.99l.19-.22h3.48l.22.24v3.56ZM255.98,51.36l.27-.03c1.27.86,2.48,1.97,3.45,3.18l-.08.27-2.75,2.08-.27-.08c-.86-1.4-2.02-2.53-3.1-3.48l.05-.27,2.43-1.67ZM258.89,42.71c-.92-.73-1.78-1.51-2.62-2.29-.84.78-1.67,1.56-2.54,2.29l.73.03h3.43l1-.03ZM264.96,53.74l.3.03c1.4,1.19,2.78,2.7,3.86,4.37l-.08.27-2.94,2.13-.27-.05c-1.03-1.86-2.19-3.53-3.51-4.8l.05-.27,2.59-1.67Z"/>
        <path d="M281.23,57.94c0,1.43-1.19,2.59-2.59,2.59s-2.62-1.16-2.62-2.59,1.19-2.61,2.62-2.61,2.59,1.19,2.59,2.61ZM280.75,53.14h-4.23v-14.42h4.23v14.42Z"/>
        <path d="M300.1,53.68c0,.78,0,1.11.13,1.4.11.22.7.4,1.92.4,1.91,0,3.45-.05,5.66-.27l.19.16.11,3.69-.16.19c-1.11.11-3.05.24-6.34.24-3.05,0-4.29-.38-5.21-1.56-.7-.89-.67-2-.67-3.32v-3.53h-3.24l-3.4.08-.19-.22v-3.42l.24-.16,3.37.08h3.21v-3.45h-1.11l-3.56.08-.19-.22v-3.42l.24-.16,3.43.08h8.85l3.72-.08.22.19v3.4l-.19.22-3.67-.08h-3.37v3.45h6.21l3.67-.08.22.19v3.4l-.19.22-3.53-.08h-6.37v2.59Z"/>
        <path d="M332.91,56.94h-13.65l-4.02.08-.19-.22v-3.8l.24-.16,3.86.08h13.62l4.15-.08.22.19v3.77l-.19.22-4.05-.08ZM330.43,46.51h-8.34l-3.88.08-.19-.22v-3.77l.24-.16,3.83.08h8.23l3.61-.08.22.19v3.75l-.19.22-3.53-.08Z"/>
        <path d="M361.62,43.17c.19.22.3.32.3.48,0,.11-.03.24-.14.46-1.27,2.75-2.7,5.2-4.26,7.33.86.73,1.73,1.51,2.56,2.37v.3l-2.62,2.91-.24.03c-.78-.86-1.56-1.64-2.37-2.43-2.46,2.51-5.4,4.58-9.09,6.44-.24.13-.41.19-.51.19-.19,0-.35-.08-.62-.27l-3.16-2.16c4.34-1.86,7.8-4.18,10.39-6.79-.92-.7-1.92-1.4-3.02-2.08v-.27l2.29-2.51.3-.03c1,.59,1.97,1.19,2.89,1.81.94-1.32,1.78-2.78,2.4-4.23l-5.23.03c-1.75,2.43-3.61,4.5-5.5,6.23-.51.38-.65.35-1.13.03l-2.94-1.89c3.59-2.78,6.82-6.68,8.74-11.05l.27-.08,3.67,1.32.05.3c-.3.59-.62,1.16-.94,1.72l3.7-.05,2.21-.16,2.02,2.05Z"/>
        <path d="M383.72,51.82h-12.06l-4.02.08-.19-.22v-3.85l.24-.16,3.86.08h12.03l4.15-.08.22.19v3.83l-.19.22-4.05-.08Z"/>
        <path d="M407.36,41.2l3.1-.57.19.16.57,3.37-.16.22-3.18.4-3.21.49.57,3.18,4.32-.62,3.37-.59.24.14.57,3.37-.13.24-3.24.4-4.45.65.32,1.75,1.27,6.2-4.45.89-.97-6.04-.4-2.16-4.78.7-3.29.59-.24-.11-.67-3.4.16-.24,3.43-.43,4.72-.7-.57-3.18-2.89.43-3.16.57-.27-.14-.65-3.37.16-.24,3.29-.4,2.83-.43-.59-3.26.13-.27,3.86-.62.24.19.62,3.31,3.34-.48Z"/>
        <path d="M422.28,51.66l-3.08.94-.27-.08-.89-2.99.08-.22,3.29-.81.92-.24-1.19-3.69.13-.22,3.18-.92.22.11,1.19,3.77,4.94-1.32,2.1-.67,2.19,1.86c.19.16.27.27.27.43,0,.11-.05.24-.14.4-1.21,2.26-2.18,3.69-3.75,5.5-.3.3-.4.3-.73.16l-2.72-1.19c.92-1.02,1.67-2.02,2.35-3.1l-3.56,1,.75,2.45,2.24,6.82-3.7,1.1-1.94-6.58-.89-2.83-1,.3Z"/>
        <path d="M440.09,44.01l2.62-2.94.27-.05c1.62.81,3.78,2.24,5.48,3.72v.27l-2.8,3.26-.24.03c-1.62-1.56-3.43-2.88-5.29-4.04l-.03-.24ZM461,46.24c.08.22.11.38.11.51,0,.19-.08.3-.27.48-4.8,5.28-10.66,9.22-17.78,12.45l-.27-.05-2.43-3.64.05-.27c6.69-2.56,13.6-7.3,19.1-13.72l1.48,4.23Z"/>
        <path d="M468.75,54.03l-3.16-2.75-.03-.27c2.72-2.78,4.99-5.12,6.18-6.31,1.02-1.02,1.91-1.56,2.64-1.56.92,0,1.89.59,3.16,1.4,4.32,2.78,8.23,5.61,12.14,8.79l.03.3-2.67,3.23-.27.05c-3.59-3.07-7.34-6.09-10.66-8.38-.76-.51-.94-.62-1.3-.62-.32,0-.73.27-1.24.84-1.7,1.91-3.13,3.53-4.59,5.26l-.24.03ZM487.33,42.39c0,1.48-1.24,2.72-2.72,2.72s-2.75-1.24-2.75-2.72,1.24-2.75,2.75-2.75,2.72,1.24,2.72,2.75ZM483.37,42.39c0,.67.57,1.21,1.24,1.21s1.21-.54,1.21-1.21-.54-1.24-1.21-1.24-1.24.54-1.24,1.24Z"/>
        <path d="M510.7,51.82h-12.06l-4.02.08-.19-.22v-3.85l.24-.16,3.86.08h12.03l4.15-.08.22.19v3.83l-.19.22-4.05-.08Z"/>
        <path d="M519.8,44.01l2.62-2.94.27-.05c1.62.81,3.78,2.24,5.48,3.72v.27l-2.8,3.26-.24.03c-1.62-1.56-3.43-2.88-5.29-4.04l-.03-.24ZM540.71,46.24c.08.22.11.38.11.51,0,.19-.08.3-.27.48-4.8,5.28-10.66,9.22-17.78,12.45l-.27-.05-2.43-3.64.05-.27c6.69-2.56,13.6-7.3,19.1-13.72l1.48,4.23Z"/>
      </g>
      <g>
        <g>
          <path d="M223.51,126.68v5.12h-19.94v-5.12h6.4v-19.88l-7.06,2.66v-5.66l10.54-3.93h3.69v26.8h6.36Z"/>
          <path d="M259.82,122.13l6.65-.12.25.2v4.67l-.25.2-6.65-.12h-7.42l.16,8.73h-6.36l.16-8.73h-12.1l-6.6.12-.29-.25v-4.59l.25-.25,6.65.12h.45v-6.15l-.12-4.43.25-.29,4.72.12h6.85v-5.12h-8.53c-1.64,2.62-3.32,4.84-4.88,6.43-.25.25-.45.33-.7.33-.2,0-.41-.08-.66-.25l-4.06-2.7c4.43-4.55,7.06-8.73,8.86-13.98l.33-.04,5.33,2.01.04.45c-.49,1.02-.98,2.01-1.52,2.95h18.62l6.24-.12.25.2v4.63l-.25.21-6.24-.12h-6.89v5.12h4.51l6.24-.12.25.21v4.39l-.25.2-6.24-.12h-4.51v6.19h7.47ZM246.4,115.94h-6.07v6.19h6.07v-6.19Z"/>
          <path d="M283.77,97.99l4.35-.12.29.29-.12,4.67v6.19l.12,4.51-.33.37-4.35-.12h-6.15v22.09h-5.46l.2-13.94v-18.32l-.12-5.45.25-.29,4.39.12h6.93ZM283.07,104.01v-1.76h-5.5v1.76h5.5ZM277.58,109.5h5.5v-1.8h-5.5v1.8ZM286.19,131.64v2.34h-5.37l.2-6.11v-8.4l-.12-3.73.29-.29,4.68.12h7.92l4.47-.12.29.29-.12,3.73v7.99l.2,6.11h-5.5v-1.93h-6.93ZM293.12,119.59h-6.93v2.01h6.93v-2.01ZM293.12,125.41h-6.93v2.05h6.93v-2.05ZM295.79,113.77l-4.35.12-.33-.37.12-4.51v-6.19l-.12-4.67.29-.29,4.35.12h7.51l4.39-.12.25.29-.12,5.45v15.49l.2,11.72c0,3.65-2.3,4.75-6.4,4.75-.82,0-.98-.2-1.15-.62l-1.76-4.79c.94,0,1.85-.04,3.04-.16.49-.08.57-.25.57-1.23v-15h-6.48ZM302.27,104.01v-1.76h-5.74v1.76h5.74ZM296.53,109.5h5.74v-1.8h-5.74v1.8Z"/>
          <path d="M322.25,114.67c1.68-1.6,3.73-2.38,6.36-2.38,6.24,0,10.3,3.81,10.3,9.71,0,6.39-4.51,10.82-11.32,10.82-5.99,0-9.85-2.5-11.65-7.34l6.69-2.3c.53,2.75,2.3,4.59,4.72,4.59,2.75,0,4.39-2.05,4.39-5.25,0-3.44-1.64-5.16-4.68-5.16-1.64,0-3.04.74-4.47,2.34l-5.54-1.72,1.07-17.75h18.99v6.56h-14.36l-.49,7.87Z"/>
          <path d="M371.1,116.19c0,9.96-4.06,16.44-12.06,16.44s-12.14-6.48-12.14-16.44,4.1-16.35,12.14-16.35,12.06,6.48,12.06,16.35ZM363.31,116.19c0-7.71-1.48-11.6-4.27-11.6s-4.43,3.89-4.43,11.6,1.52,11.56,4.43,11.56,4.27-3.81,4.27-11.56Z"/>
          <path d="M385.46,116.64c-4.88,0-6.89-2.7-6.89-8.4s2.01-8.4,6.89-8.4,6.89,2.7,6.89,8.4-2.01,8.4-6.89,8.4ZM406.79,99.83l-23.18,32.79h-2.67l23.18-32.79h2.67ZM385.46,113.36c1.48,0,1.97-1.23,1.97-5.12s-.49-5.12-1.97-5.12-1.97,1.19-1.97,5.12.45,5.12,1.97,5.12ZM408.76,124.22c0,5.7-2.01,8.4-6.89,8.4s-6.89-2.7-6.89-8.4,2.01-8.4,6.89-8.4,6.89,2.7,6.89,8.4ZM403.84,124.22c0-3.93-.49-5.12-1.97-5.12s-1.97,1.19-1.97,5.12.45,5.12,1.97,5.12,1.97-1.23,1.97-5.12Z"/>
          <path d="M424.22,112.01l-5.62.12-.29-.33v-5.25l.37-.25,5.58.12h9.56l-.12-6.19.29-.29h5.87l.33.29.12,6.19h2.26l5.87-.12.37.25v5.25l-.29.33-5.99-.12h-2.13l.29,15.57c.04,3.07-1.07,5.45-8.33,5.66-1.03,0-1.07-.04-1.4-.74l-2.58-5.49c2.5,0,3.94-.04,5.13-.12.41-.04.7-.33.7-1.31l-.04-6.02.16-3.07c-4.39,5.57-9.93,10-14.52,12.66-.61.37-.9.41-1.35.04l-4.27-3.73c6.73-3.93,11.9-8.11,15.96-13.44h-5.91Z"/>
          <path d="M455.48,102.54l6.24.12h21.62l.33.29c-.53,7.46-2.83,14.18-7.3,19.8-3.24,4.14-7.88,7.25-14.11,10-.37.16-.57.25-.78.25-.25,0-.45-.12-.86-.45l-5-4.02c7.02-2.34,11.57-5.16,14.93-9.22,2.63-3.2,4.35-6.68,5.17-10.7h-13.91l-6.28.12-.37-.25v-5.66l.33-.29Z"/>
        </g>
        <g>
          <rect x="52.17" y="101.79" width="126.24" height="30.01"/>
          <g>
            <path d="M85.48,110.41c-.21-.3-.36-.68-.36-1.07,0-1,.82-1.82,1.82-1.82s1.8.82,1.8,1.82-.82,1.8-1.8,1.8c-.32,0-.61-.09-.88-.21-.27,3.09-1.27,5.87-3.14,8.23-1.41,1.8-3.43,3.16-6.14,4.35-.16.07-.25.11-.34.11-.11,0-.2-.05-.37-.2l-2.18-1.75c3.05-1.02,5.04-2.25,6.5-4.01,1.14-1.39,1.89-2.91,2.25-4.66h-6.05l-2.73.05-.16-.11v-2.46l.14-.12,2.71.05h8.93ZM86.13,109.34c0,.45.37.8.82.8s.8-.36.8-.8-.36-.82-.8-.82-.82.36-.82.82Z" style="fill: #fff;"/>
            <path d="M90,115.53v-2.34l.16-.11,2.45.05h6.86l2.5-.05.12.14c-.62,5.66-3.32,8.65-8.29,10.37-.16.05-.28.09-.37.09-.14,0-.25-.05-.41-.2l-2.02-1.68c4.11-1.25,6.79-3.12,7.57-6.19h-5.98l-2.46.05-.12-.14ZM98.01,111.78h-4.12l-2.18.05-.12-.14v-2.3l.16-.11,2.16.05h4.04l2.46-.05.14.12v2.28l-.12.14-2.41-.05Z" style="fill: #fff;"/>
            <path d="M103.96,112.48l1.73-1.94.18-.04c1.07.54,2.5,1.48,3.63,2.46v.18l-1.86,2.16-.16.02c-1.07-1.03-2.27-1.91-3.5-2.68l-.02-.16ZM117.8,113.96c.05.14.07.25.07.34,0,.12-.05.2-.18.32-3.18,3.5-7.05,6.1-11.77,8.24l-.18-.04-1.61-2.41.04-.18c4.43-1.69,9-4.83,12.64-9.08l.98,2.8Z" style="fill: #fff;"/>
            <path d="M121.42,114.96l-1.98.05-.12-.11v-1.94l.11-.11,2,.05h.71v-5.21l.09-.11h2.09l.11.11v5.21h.75l1.7-.05.09.09v1.98l-.09.09-1.7-.05h-.75v1.5l.73-.54h.18c.71.57,1.3,1.3,1.87,2.02l-.02.18-1.46,1.2-.18-.02c-.3-.52-.71-1.11-1.12-1.61v.86l.12,6.12h-2.52l.18-6.58c-.46,1.29-1.11,2.5-1.7,3.41-.07.11-.16.16-.23.16-.09,0-.18-.07-.25-.2l-1.13-1.73c.96-1.32,1.96-2.93,2.7-4.76h-.18ZM120.83,109.02l.18.05c.43.93.7,1.68.96,2.69l-.11.16-1.5.62-.12-.11c-.29-.98-.55-1.89-.91-2.71l.07-.18,1.43-.54ZM127.11,109.5l.07.21c-.25.87-.55,1.68-.95,2.53-.05.12-.11.18-.18.18-.05,0-.12-.02-.2-.05l-1.36-.52c.39-1.14.62-2.02.8-2.94l.2-.05,1.61.64ZM132.02,107.75l.12-.12h2.29l.12.12v8.94l1.2-.34.18.04.37,2.12-.11.14-1.62.39.07,5.62h-2.71l.07-4.96-2.13.54-2.36.62-.16-.05-.43-2.18.11-.14,2.43-.5,2.55-.63v-9.62ZM130.18,116.4l-.18.05c-.84-.68-1.73-1.27-2.59-1.66l-.02-.18,1.23-1.55.18-.05c.93.37,1.8.91,2.57,1.43l.04.18-1.23,1.78ZM130.49,112.41l-.18.02c-.73-.8-1.59-1.45-2.46-1.93v-.18l1.39-1.39.18-.02c.87.46,1.64.91,2.48,1.69v.18l-1.41,1.62Z" style="fill: #fff;"/>
            <path d="M146.62,116.49h2.86l2.54-.05.11.09v2l-.11.09-2.54-.05h-2.86v3.26h2.12l-1.3-.53c.61-1.04.87-1.66,1.25-2.57l.16-.09,2.21.8.05.2c-.48.86-.98,1.61-1.45,2.19h1.38l2.36-.05.11.09v2.02l-.11.09-2.36-.05h-11.18l-2.34.05-.12-.11v-1.98l.11-.11,2.36.05h1.14c-.23-.62-.59-1.48-1.04-2.21l.05-.16,1.88-.7.2.07c.45.61.87,1.45,1.2,2.16l-.05.18-1.66.66h2.5v-3.26h-2.73l-2.52.05-.12-.11v-1.96l.11-.11,2.54.05h2.73v-1.25h-.57l-1.98.05-.12-.11v-.82c-.75.52-1.54,1.02-2.37,1.48-.14.07-.25.11-.34.11-.11,0-.2-.05-.3-.16l-1.61-1.61c3.36-1.62,5.75-3.62,7.47-6.62l.2-.05,2.54.68.05.18c-.09.14-.18.28-.29.43,1.96,2.03,4.36,3.73,7.5,4.76l-1.55,1.8c-.2.23-.36.34-.52.34-.09,0-.18-.04-.28-.09-.82-.45-1.62-.91-2.43-1.41v1l-.11.09-2-.05h-.73v1.25ZM147.98,113.18c-.96-.73-1.82-1.55-2.63-2.46-.71.89-1.54,1.73-2.41,2.46l.57.02h3.84l.63-.02Z" style="fill: #fff;"/>
          </g>
        </g>
      </g>
      <g>
        <g>
          <path d="M203.6,169.52c.98-4.67,4.84-8.24,11.28-8.24,5.87,0,10.21,2.83,10.21,8.07,0,2.58-1.68,5.82-6.28,7.09,4.59.82,7.47,3.48,7.47,8.4,0,5.37-4.43,9.43-11.73,9.43-6.15,0-9.93-2.34-12.14-7.58l7.38-2.79c.33,3.03,1.8,5.21,4.55,5.21s3.65-1.97,3.65-4.02c0-3.28-2.42-4.71-5.62-4.71h-2.83l1.27-5.94h2.05c2.83,0,4.68-1.84,4.68-4.51,0-2.42-1.64-3.61-3.45-3.61-2.05,0-3.36,1.35-3.98,4.67l-6.52-1.48Z"/>
          <path d="M249.34,166.24c-.04,2.01-.12,4.06-.33,6.07h8.29l7.14-.12.33.29c-.12,6.43-.29,11.68-.86,16.72-.61,5.33-3.57,7.54-8.29,7.54h-2.75c-.7,0-.94-.25-1.19-.78l-2.42-5.45c2.22.12,3.57.12,5.13.08,2.13-.04,3.12-.82,3.45-4.06.33-3.4.41-6.48.45-9.14h-9.8c-.66,4.14-1.6,7.13-2.91,9.43-2.63,4.55-5.09,7.21-9.68,9.96-.2.12-.37.21-.49.21-.16,0-.29-.08-.45-.25l-4.43-3.98c4.8-2.46,7.47-5.29,9.31-8.73,1.8-3.32,2.75-7.99,3.08-17.79h-4.72l-6.81.12-.29-.29v-4.92l.29-.29,6.81.12h24.16l6.77-.12.29.29v4.92l-.29.29-6.77-.12h-13Z"/>
          <path d="M282.89,180.71v16.48h-6.11l.2-12.91v-17.5l-.12-5.49.29-.29,6.93.12h18.62l6.93-.12.29.29-.12,5.49v13.4l.16,11.48c0,3.57-1.23,5.16-6.15,5.16h-2.71c-.82,0-.9-.08-1.07-.49l-1.89-5.16c1.19,0,3.73-.04,4.8-.12.62-.04.74-.33.74-1.31v-9.02h-20.8ZM290.23,166.2h-7.34v9.43h7.34v-9.43ZM303.69,175.62v-9.43h-7.55v9.43h7.55Z"/>
          <path d="M324.44,180.34l-.29-.29v-2.13c-.9.94-1.8,1.84-2.79,2.75-.16.16-.29.25-.41.25-.2,0-.37-.16-.62-.45l-3.81-4.02c5.25-3.89,8.78-9.14,10.91-15.7l.33-.2,5.46,1.84.16.41c-1.72,4.8-3.9,8.69-6.65,12.17l3.82.04h12.1l3.69-.04c-3.49-4.3-5.87-8.69-7.79-13.94l.2-.37,5-1.64.37.16c2.5,6.02,6.4,11.6,12.06,16.03l-4.14,4.8c-.16.2-.33.33-.49.33-.12,0-.29-.12-.53-.33-.7-.66-1.35-1.31-1.97-2.01-.04,6.39-.2,10-.66,13.12-.62,4.22-2.22,5.9-9.43,5.9-.78,0-.9-.12-1.11-.66l-2.01-5.37c2.05.04,2.87.04,3.94,0,1.48-.04,2.17-.37,2.42-1.97.41-2.62.45-5.94.41-8.77h-5.74c-1.07,8.52-4.76,14.18-14.44,16.97-.41.12-.74,0-.98-.33l-3.16-4.22c8.24-2.21,11.24-5.12,12.22-12.42l-6.07.08Z"/>
          <path d="M393.07,172.43l5.46-.12.25.2v4.47l-.25.2-5.46-.12v5.62l5.09-.08.25.2v4.43l-.25.25-6.11-.16h-24.74l-6.07.16-.29-.29v-4.34l.25-.25,4.68.08v-5.62l-5.46.12-.29-.29v-4.3l.25-.29,5.5.12v-3.16c-.78.74-1.52,1.39-2.26,1.97-.21.2-.37.29-.53.29-.2,0-.37-.2-.61-.45l-3-3.32c3.53-2.58,6.4-5.66,8.41-9.26l.37-.08,4.59,1.64.12.41c-.45.78-.94,1.56-1.52,2.34h19.98l6.11-.12.25.25v4.39l-.25.2-4.47-.08v5ZM360.91,195.13l-.16-.37c1.72-2.21,2.83-4.43,3.86-6.89l.33-.12,4.47,1.6.04.45c-.82,2.7-2.22,5.57-3.77,7.75l-.45.08-4.31-2.5ZM373.38,197.3l-.41-.16c-.41-2.58-1.19-5.33-2.01-7.42l.25-.33,4.47-1.11.41.25c1.11,2.13,2.01,5.08,2.42,7.17l-.2.37-4.92,1.23ZM371.16,167.38v5.04h2.22v-5.04h-2.22ZM373.38,182.71v-5.66h-2.22v5.66h2.22ZM378.38,167.38v5.04h2.09v-5.04h-2.09ZM380.48,182.71v-5.66h-2.09v5.66h2.09ZM383.35,197.22l-.41-.12c-.82-2.54-1.97-5.04-3.08-6.97l.16-.37,4.27-1.76.45.16c1.35,1.93,2.71,4.67,3.4,6.68l-.12.41-4.68,1.97ZM385.48,167.38v5.04h2.13v-5.04h-2.13ZM387.61,182.71v-5.66h-2.13v5.66h2.13ZM394.26,197.47l-.45-.08c-1.27-2.42-2.91-4.84-4.68-6.84l.04-.37,4.02-2.5.41.16c2.13,2.13,3.73,4.14,5.13,6.48l-.08.37-4.39,2.79Z"/>
          <path d="M408.25,175.46l-4.55.12-.29-.25v-4.47l.25-.25,4.59.12h1.64v-11.97l.2-.25h4.8l.25.25v11.97h1.72l3.9-.12.21.21v4.55l-.21.2-3.9-.12h-1.72v3.44l1.68-1.23h.41c1.64,1.31,2.99,2.99,4.31,4.63l-.04.41-3.36,2.75-.41-.04c-.7-1.19-1.64-2.54-2.58-3.69v1.97l.29,14.06h-5.78l.41-15.12c-1.07,2.95-2.54,5.74-3.9,7.83-.16.25-.37.37-.53.37-.2,0-.41-.16-.57-.45l-2.58-3.98c2.22-3.03,4.51-6.72,6.19-10.94h-.41ZM406.89,161.81l.41.12c.98,2.13,1.6,3.85,2.22,6.19l-.25.37-3.45,1.43-.29-.25c-.66-2.25-1.27-4.35-2.09-6.23l.16-.41,3.28-1.23ZM421.33,162.92l.16.49c-.57,2.01-1.27,3.85-2.17,5.82-.12.29-.25.41-.41.41-.12,0-.29-.04-.45-.12l-3.12-1.19c.9-2.62,1.44-4.63,1.85-6.76l.45-.12,3.69,1.48ZM432.61,158.9l.29-.29h5.25l.29.29v20.53l2.75-.78.41.08.86,4.88-.25.33-3.73.9.16,12.91h-6.24l.16-11.39-4.88,1.23-5.42,1.43-.37-.12-.98-5,.25-.33,5.58-1.15,5.87-1.43v-22.09ZM428.39,178.78l-.41.12c-1.93-1.56-3.98-2.91-5.95-3.81l-.04-.41,2.83-3.57.41-.12c2.13.86,4.14,2.09,5.91,3.28l.08.41-2.83,4.1ZM429.08,169.6l-.41.04c-1.68-1.84-3.65-3.32-5.66-4.43v-.41l3.2-3.2.41-.04c2.01,1.06,3.77,2.09,5.7,3.89v.41l-3.24,3.73Z"/>
        </g>
        <g>
          <rect x="52.17" y="163.65" width="126.24" height="30.01"/>
          <g>
            <path d="M63.57,176.9l-2.45.05-.12-.14v-2.28l.16-.11,2.43.05h4.16l-.05-2.69.12-.12h2.55l.14.12.05,2.69h.98l2.55-.05.16.11v2.28l-.12.14-2.61-.05h-.93l.12,6.78c.02,1.34-.46,2.37-3.62,2.46-.45,0-.46-.02-.61-.32l-1.12-2.39c1.09,0,1.71-.02,2.23-.05.18-.02.3-.14.3-.57l-.02-2.62.07-1.34c-1.91,2.43-4.32,4.35-6.32,5.51-.27.16-.39.18-.59.02l-1.86-1.62c2.93-1.71,5.18-3.53,6.95-5.85h-2.57Z" style="fill: #fff;"/>
            <path d="M87.92,173.05c-.21-.3-.36-.68-.36-1.07,0-1,.82-1.82,1.82-1.82s1.8.82,1.8,1.82-.82,1.8-1.8,1.8c-.32,0-.61-.09-.88-.21-.27,3.09-1.27,5.87-3.14,8.23-1.41,1.8-3.43,3.16-6.14,4.35-.16.07-.25.11-.34.11-.11,0-.2-.05-.37-.2l-2.18-1.75c3.05-1.02,5.04-2.25,6.5-4.01,1.14-1.39,1.89-2.91,2.25-4.66h-6.05l-2.73.05-.16-.11v-2.46l.14-.12,2.71.05h8.93ZM88.57,171.98c0,.45.37.8.82.8s.8-.36.8-.8-.36-.82-.8-.82-.82.36-.82.82Z" style="fill: #fff;"/>
            <path d="M92.26,178.67l.96-2.21.16-.07c1.09.55,2.32.93,3.66,1.2l.09.14-.73,2.37-.16.09c-1.43-.25-2.57-.62-3.93-1.36l-.05-.16ZM106.85,177.47c.04.12.05.21.05.29,0,.12-.05.21-.2.37-2.7,3.1-7.23,5.91-11.75,7.58l-.2-.04-1.52-2.41.05-.2c4.89-1.59,9.32-4.34,12.75-8.46l.8,2.85ZM94.1,174.3l1.45-1.93.21-.04c1.18.48,2.27,1.09,3.41,1.91l.04.2-1.48,2.03-.2.04c-1.25-.96-2.12-1.46-3.39-2.03l-.04-.18Z" style="fill: #fff;"/>
            <path d="M117.63,178.56v4.73l.05,1.91-.12.14-2-.05h-4.55l-1.93.05-.12-.14v-1.91l.16-.11,1.75.05h4.37v-1.3h-3.96l-1.91.05-.12-.14v-1.87l.16-.11,1.91.05h3.93v-1.2h-4.14l-2,.05-.12-.14v-1.89l.16-.11,1.93.05h4.46l2.02-.05.14.12-.05,1.8Z" style="fill: #fff;"/>
            <path d="M120.36,175.12l1.73-1.94.18-.04c1.07.54,2.5,1.48,3.63,2.46v.18l-1.86,2.16-.16.02c-1.07-1.03-2.27-1.91-3.5-2.68l-.02-.16ZM134.19,176.6c.05.14.07.25.07.34,0,.12-.05.2-.18.32-3.18,3.5-7.05,6.1-11.77,8.24l-.18-.04-1.61-2.41.04-.18c4.43-1.69,9-4.83,12.64-9.08l.98,2.8Z" style="fill: #fff;"/>
            <path d="M137.81,177.6l-1.98.05-.12-.11v-1.94l.11-.11,2,.05h.71v-5.21l.09-.11h2.09l.11.11v5.21h.75l1.7-.05.09.09v1.98l-.09.09-1.7-.05h-.75v1.5l.73-.54h.18c.71.57,1.3,1.3,1.87,2.02l-.02.18-1.46,1.2-.18-.02c-.3-.52-.71-1.11-1.12-1.61v.86l.12,6.12h-2.52l.18-6.58c-.46,1.29-1.11,2.5-1.7,3.41-.07.11-.16.16-.23.16-.09,0-.18-.07-.25-.2l-1.13-1.73c.96-1.32,1.96-2.93,2.7-4.76h-.18ZM137.22,171.66l.18.05c.43.93.7,1.68.96,2.69l-.11.16-1.5.62-.12-.11c-.29-.98-.55-1.89-.91-2.71l.07-.18,1.43-.54ZM143.51,172.14l.07.21c-.25.87-.55,1.68-.95,2.53-.05.12-.11.18-.18.18-.05,0-.12-.02-.2-.05l-1.36-.52c.39-1.14.62-2.02.8-2.94l.2-.05,1.61.64ZM148.42,170.39l.12-.12h2.29l.12.12v8.94l1.2-.34.18.04.37,2.12-.11.14-1.62.39.07,5.62h-2.71l.07-4.96-2.13.54-2.36.62-.16-.05-.43-2.18.11-.14,2.43-.5,2.55-.63v-9.62ZM146.58,179.04l-.18.05c-.84-.68-1.73-1.27-2.59-1.66l-.02-.18,1.23-1.55.18-.05c.93.37,1.8.91,2.57,1.43l.04.18-1.23,1.78ZM146.89,175.05l-.18.02c-.73-.8-1.59-1.45-2.46-1.93v-.18l1.39-1.39.18-.02c.87.46,1.64.91,2.48,1.69v.18l-1.41,1.62Z" style="fill: #fff;"/>
            <path d="M163.02,179.13h2.86l2.54-.05.11.09v2l-.11.09-2.54-.05h-2.86v3.26h2.12l-1.3-.53c.61-1.04.87-1.66,1.25-2.57l.16-.09,2.21.8.05.2c-.48.86-.98,1.61-1.45,2.19h1.38l2.36-.05.11.09v2.02l-.11.09-2.36-.05h-11.18l-2.34.05-.12-.11v-1.98l.11-.11,2.36.05h1.14c-.23-.62-.59-1.48-1.04-2.21l.05-.16,1.88-.7.2.07c.45.61.87,1.45,1.2,2.16l-.05.18-1.66.66h2.5v-3.26h-2.73l-2.52.05-.12-.11v-1.96l.11-.11,2.54.05h2.73v-1.25h-.57l-1.98.05-.12-.11v-.82c-.75.52-1.54,1.02-2.37,1.48-.14.07-.25.11-.34.11-.11,0-.2-.05-.3-.16l-1.61-1.61c3.36-1.62,5.75-3.62,7.47-6.62l.2-.05,2.54.68.05.18c-.09.14-.18.28-.29.43,1.96,2.03,4.36,3.73,7.5,4.76l-1.55,1.8c-.2.23-.36.34-.52.34-.09,0-.18-.04-.28-.09-.82-.45-1.62-.91-2.43-1.41v1l-.11.09-2-.05h-.73v1.25ZM164.38,175.81c-.96-.73-1.82-1.55-2.63-2.46-.71.89-1.54,1.73-2.41,2.46l.57.02h3.84l.63-.02Z" style="fill: #fff;"/>
          </g>
        </g>
      </g>
      <g>
        <ellipse cx="512.93" cy="173.14" rx="38.06" ry="38.03" style="fill: #ff1364;"/>
        <path d="M508.47,162.56c1.38-1.31,3.07-1.95,5.23-1.95,5.12,0,8.46,3.13,8.46,7.98,0,5.25-3.71,8.89-9.31,8.89-4.92,0-8.09-2.05-9.58-6.03l5.5-1.89c.44,2.26,1.89,3.77,3.88,3.77,2.26,0,3.61-1.68,3.61-4.31,0-2.83-1.35-4.24-3.84-4.24-1.35,0-2.49.61-3.67,1.92l-4.55-1.41.88-14.59h15.61v5.39h-11.8l-.41,6.47Z" style="fill: #fff;"/>
        <g>
          <path d="M490.74,191.57c1.77-.45,3.17-1,4.29-1.72-.41-.35-.82-.64-1.3-.95v-.09l.88-.86h.13c.47.26.98.58,1.49.98.55-.52,1.03-1.1,1.43-1.74h-2.82c-.8.94-1.71,1.68-2.83,2.34-.04.03-.09.04-.12.04-.07,0-.11-.04-.16-.1l-.85-1.01c1.66-.89,2.99-2.19,3.86-3.7l.11-.03,1.3.42.04.1c-.12.22-.26.43-.39.63h2.26l1.02-.04.64.61s.06.07.06.1c0,.06-.02.11-.07.2-.83,1.65-1.85,2.84-3.13,3.76h2.57l1.37-.03.08.08-.03,1.22v1.14l.06,2.34h-1.71v-.5h-3.59v.58h-1.66l.06-2.47v-.72c-.58.27-1.2.5-1.86.7-.04.01-.08.02-.11.02-.06,0-.1-.03-.16-.11l-.86-1.16ZM498.93,191.77h-3.59v1.65h3.59v-1.65Z" style="fill: #fff;"/>
          <path d="M502.57,188.27l-.08-.07v-1.21l.07-.07,1.2.03v-2.07l.05-.07h1.31l.07.07v2.06l.95-.02.06.06v1.23l-.06.06-.95-.02v1.02l.3-.23h.11c.28.27.52.55.75.87v-.42l.08-.07,1.45.03h.89v-.42h-.42l-1.45.03-.08-.07v-.98l.08-.07,1.45.02h.42v-.42h-.82l-1.51.02-.08-.07v-1.03l.08-.08,1.32.03c-.18-.35-.35-.63-.58-.93v-.11l1.19-.45h.12c.3.35.54.69.77,1.09v.11s-.79.3-.79.3h1.38c.22-.5.41-1,.58-1.51l.11-.03,1.32.33.07.09c-.18.38-.39.78-.59,1.12h.03l1.45-.03.08.08v1.03l-.08.07-1.45-.02h-1.09v.42h.5l1.45-.02.08.07v.98l-.08.07-1.45-.03h-.5v.42h1.22l1.45-.03.08.07v1.06l-.08.07-1.45-.03h-1.22v.53c.16.21.31.41.48.6.29-.28.57-.59.85-.95h.11l1.03.86v.11c-.42.35-.75.62-1.12.88.44.39.95.74,1.57,1.13l-.84,1c-.07.09-.11.12-.17.12-.04,0-.09-.02-.16-.08-.65-.52-1.27-1.15-1.76-1.87l.04,1.19c0,.96-.3,1.35-1.84,1.35-.22,0-.23-.02-.29-.13l-.58-1.25c.33,0,.66-.02.85-.04.23-.02.3-.09.3-.35v-3.08h-.89l-1.45.03-.08-.07-.55.5h-.11c-.14-.25-.31-.52-.5-.79v1.02l.08,4.11h-1.57l.08-3.74c-.13.38-.29.74-.51,1.14-.03.07-.09.1-.13.1-.06,0-.12-.04-.17-.12l-.68-1.11c.62-.9,1.04-1.95,1.41-3.42l-1.12.03ZM505.6,193.4c.74-.22,1.97-.69,2.9-1.18l.06,1.12c.01.14,0,.16-.19.28-.59.37-1.3.7-2.14,1.1l-.1-.02-.58-1.19.04-.1ZM507.54,192.58h-.1c-.33-.43-.7-.8-1.1-1.1v-.1l.89-.68.12-.02c.47.28.85.64,1.14.98v.1l-.95.82Z" style="fill: #fff;"/>
          <path d="M516.05,191.01l.08,4.34h-1.6l.08-4.34v-4.11l-.03-1.66.08-.08,1.43.03h1.09l.68-.03.52.56c.06.06.08.17.04.35-.2.99-.45,1.84-.78,2.8.62.99.84,1.6.84,2.56,0,1.18-.71,1.83-1.7,1.83-.17,0-.21-.03-.27-.17l-.4-1.25c.75.01.91-.11.91-.7,0-.43-.1-1.02-.75-2.08-.02-.04-.03-.09-.03-.13s.01-.09.02-.13c.22-.78.42-1.48.54-2.24h-.75v4.44ZM521.75,194.06c0,.2-.04.27-.23.33-.92.33-2.21.67-3.6.99l-.1-.06-.44-1.27.06-.1c.42-.07.83-.13,1.24-.21v-6.86l-.03-1.43.08-.07,1.44.03h2.31l1.42-.03.09.09-.03,1.35v1.94l.03,1.58-.1.08-1.3-.03h-.39c.1.41.23.81.4,1.2.37-.33.69-.69.98-1.04h.11l1.01.93v.11c-.5.42-.98.79-1.46,1.1.42.53.98.96,1.65,1.36l-.96,1.06c-.09.1-.14.14-.2.14s-.12-.03-.2-.1c-.72-.52-1.31-1.23-1.75-2.02v.92ZM522.45,186.62h-2.32v.68h2.32v-.68ZM520.14,188.47v.72h2.32v-.72h-2.32ZM521.58,192.8c-.37-.73-.62-1.55-.81-2.4h-.63v3.03c.52-.12,1.04-.25,1.54-.43l-.1-.2Z" style="fill: #fff;"/>
          <path d="M530.32,189.34h-.8l-1.45.03-.08-.06v-1.25l.07-.08,1.46.03h2.98l1.43-.03.09.07v1.25l-.05.07-1.46-.03h-.59v1.21h1.15l1.43-.03.09.07v1.3l-.06.07-1.46-.03h-1.15v1.66c.32.01.69.02,1.09.02.82,0,1.83-.02,3.23-.13l-.62,1.48c-.04.1-.08.1-.2.11-.92.04-1.95.04-2.82.03-.72-.01-1.52-.11-2.16-.25-.74-.17-1.42-.55-1.95-1.09-.33.58-.74,1.09-1.26,1.51-.08.07-.13.09-.19.09-.07,0-.12-.02-.19-.08l-1.09-.85c1.46-1.13,2.04-2.46,2.14-4.25l.1-.07,1.37.25.09.09c-.05.68-.19,1.36-.41,2.03.36.37.79.68,1.27.84v-3.96ZM530.15,184.89l.08-.08h1.49l.08.08v1.11h2.46l1.54-.03.09.08-.03.84v.32l.06,1.55h-1.61v-1.43h-6.57v1.43h-1.61l.06-1.44v-.33l-.03-.94.1-.08,1.81.03h2.11v-1.11Z" style="fill: #fff;"/>
        </g>
      </g>
      <rect width="592" height="243" style="fill: none;"/>
    </g>
  </g>
</svg>