<?xml version="1.0" encoding="UTF-8"?>
<svg id="Layer_2" xmlns="http://www.w3.org/2000/svg" width="592.36" height="243.36" viewBox="0 0 592.36 243.36">
  <g id="Layer_1-2" data-name="Layer_1">
    <g>
      <g>
        <rect width="592.36" height="243.36" style="fill: #fff24e;"/>
        <polygon points="592.36 161.99 592.36 238.63 589.95 243.36 550.83 243.36 592.36 161.99" style="fill: #ffe148;"/>
        <polygon points="592.36 21.54 592.36 98.18 518.27 243.36 479.15 243.36 592.36 21.54" style="fill: #ffe148;"/>
        <polygon points="570.79 0 446.59 243.36 407.47 243.36 531.68 0 570.79 0" style="fill: #ffe148;"/>
        <polygon points="499.11 0 374.91 243.36 335.79 243.36 460 0 499.11 0" style="fill: #ffe148;"/>
        <polygon points="427.42 0 303.22 243.36 264.11 243.36 388.32 0 427.42 0" style="fill: #ffe148;"/>
        <polygon points="355.74 0 231.54 243.36 192.43 243.36 316.63 0 355.74 0" style="fill: #ffe148;"/>
        <polygon points="284.06 0 159.86 243.36 120.75 243.36 244.95 0 284.06 0" style="fill: #ffe148;"/>
        <polygon points="212.38 0 88.18 243.36 49.06 243.36 173.27 0 212.38 0" style="fill: #ffe148;"/>
        <polygon points="140.7 0 16.5 243.36 0 243.36 0 199.05 101.59 0 140.7 0" style="fill: #ffe148;"/>
        <polygon points="69.02 0 0 135.23 0 58.6 29.91 0 69.02 0" style="fill: #ffe148;"/>
      </g>
      <g>
        <path d="M54.96,47.61l-3.43.08-.19-.22v-3.46l.24-.16,3.32.08h1.57v-4.75l.22-.19h3.7l.22.22v4.72h3.83v-4.78l.22-.19h3.78l.22.22v4.75h1l3.86-.08.24.16v3.46l-.19.22-3.91-.08h-1.05c-.19,3.46-.73,5.99-1.89,7.77-1.57,2.51-4.16,4.35-7.05,5.32-.22.05-.35.11-.49.11-.22,0-.35-.08-.57-.27l-3.1-2.51c4-1.03,6.24-2.4,7.58-4.62.89-1.48,1.21-2.97,1.32-5.8h-3.81v.3l.11,4.78h-4.37l.13-4.83v-.24h-1.51Z"/>
        <path d="M95.02,51.9h-12.07l-4.02.08-.19-.22v-3.86l.24-.16,3.86.08h12.04l4.16-.08.22.19v3.83l-.19.22-4.05-.08Z"/>
        <path d="M109.98,47.31c2.65-1.24,5.83-2.92,8.67-4.97h.24l2.64,3.18-.03.27c-3.4,2.21-7.34,4.05-11.55,5.61v1.83c0,.76.03,1.16.24,1.43.32.38.89.46,2.02.46,3.05,0,5.56-.19,9.23-.59l.22.13.16,3.94-.16.19c-2.86.24-6.83.46-9.26.46-2.62,0-4.7-.24-5.86-1.7-.76-.92-.81-2.24-.81-4.08l.08-12.5.19-.19h3.81l.19.19-.03,6.32ZM119.24,40.64l1.4-1,.27-.03c1,.84,1.94,1.78,2.75,2.86l-.03.27-1.48,1.05h-.27c-.84-1.11-1.59-2-2.67-2.92l.03-.24ZM121.78,38.94l1.38-1,.27-.03c1,.84,1.86,1.7,2.67,2.78l-.03.27-1.4,1.03h-.27c-.84-1.11-1.57-1.89-2.64-2.81l.03-.24Z"/>
        <path d="M148.54,59.16c-1.78-2.35-3.97-4.56-5.99-6.4-2.73,2.94-5.7,4.94-9.26,6.78-.27.13-.46.19-.59.19-.16,0-.27-.08-.43-.19l-3.18-2.46c6.21-2.89,11.63-6.96,14.12-12.58h-6.42l-4.02.08-.19-.22v-3.67l.24-.16,4.05.08h7.64l2.75-.14,1.65,1.62c.19.19.3.32.3.49s-.08.35-.24.65c-1.24,2.4-2.48,4.45-3.72,6.24,2.56,2.13,4.59,3.91,6.83,6.45l-.03.3-3.18,2.97-.3-.03Z"/>
        <path d="M164.77,37.54l2.86-.08.19.19-.08,2.86v3.43l.08,3.02-.22.24-2.86-.08h-4.21v15.36h-3.46l.13-9.18v-12.07l-.08-3.59.16-.19,2.89.08h4.59ZM164.44,41.24v-1.11h-3.91v1.11h3.91ZM160.53,44.53h3.91v-1.13h-3.91v1.13ZM163.77,55.71l-2.35.05-.22-.16v-2.51l.19-.16,2.38.08h.81c.03-.7,0-1.38,0-2.08h-.24l-2.21.05-.22-.16v-2.46l.19-.16,2.24.08h9.1l2.24-.08.19.19v2.43l-.19.16-2.24-.05h-.3v2.08h1l2.24-.08.19.19v2.48l-.19.16-2.24-.05h-1l.13,5.51h-3.59l.13-5.51h-2.21c-.13.81-.32,1.51-.62,2.13-.73,1.57-1.86,2.73-3.72,3.64-.11.05-.22.08-.3.08-.16,0-.3-.08-.41-.22l-1.94-2.21c1.67-.67,2.75-1.35,3.32-2.4.16-.3.3-.65.38-1.03h-.54ZM167.9,50.93c0,.7,0,1.38-.03,2.08h1.94v-2.08h-1.92ZM172.68,47.12l-2.86.08-.22-.24.08-3.02v-3.43l-.08-2.86.19-.19,2.86.08h4.99l2.89-.08.16.19-.08,3.59v10.2l.13,7.72c0,2.4-1.73,3.13-4.56,3.13-.54,0-.65-.13-.76-.41l-1.16-3.16c1,0,1.7-.03,2.48-.11.32-.05.38-.16.38-.81v-10.69h-4.45ZM177.13,41.24v-1.11h-4.1v1.11h4.1ZM173.03,44.53h4.1v-1.13h-4.1v1.13Z"/>
        <path d="M195.55,47.04c-.16,2.56-.57,5.13-1.43,7.53.89.7,1.7,1.4,2.38,2.13l-.03.27-2.19,2.56-.27-.03c-.54-.59-1.08-1.13-1.65-1.67-1.08,1.46-2.51,2.7-4.32,3.89-.13.08-.24.14-.35.14-.14,0-.24-.08-.35-.22l-1.97-2.38c1.81-1,3.21-2.13,4.26-3.62-.35-.22-.67-.43-1-.62l-.24.76-.27.11-2.65-1.03-.11-.24c.89-3.13,1.54-6.1,2.08-9.12l-1.62.03-.19-.19v-2.94l.19-.19,2.13.05c.24-1.7.46-3.46.67-5.29l.19-.19,3.16.46.19.19-.73,4.86h.84l3.24-.08.19.19-.11,3.59c.65-.03,1.27-.03,1.89-.05,1.05-2.97,2.02-6.32,2.67-9.31l.27-.08,3.48,1.03.11.27c-.7,2.4-1.65,5.16-2.7,7.94,1.54-.08,3.08-.19,4.62-.35-.54-.89-1.11-1.78-1.73-2.65l.11-.24,2.54-1.46.27.03c1.67,2.21,3.08,4.43,4.26,6.91l-.08.27-2.89,1.73-.27-.08c-.24-.54-.46-1.08-.7-1.59-3.4.51-7.07.97-10.96,1.32l-.24-.11-.7-2.51ZM190.93,45.45c-.41,2.13-.84,4.26-1.4,6.37.57.24,1.08.54,1.59.84.67-1.92,1.03-4.26,1.19-7.21h-1.38ZM200.54,62.53h-3.83l.13-5.08v-3.24l-.08-3.35.19-.19,3.32.08h5.61l3.32-.08.19.19-.08,3.32v3.05l.13,5.08h-4v-1.46h-4.91v1.67ZM205.45,57.65v-3.67h-4.91v3.67h4.91Z"/>
        <path d="M214.48,44.53l-.19-.16v-2.83l.16-.16,3.13.08h5.13l3.21-.08.16.14v2.89l-.16.13-3.21-.08h-5.13l-3.1.08ZM218.96,60.73v1.4h-3.46l.13-4.86v-1.27l-.08-2.7.16-.19,3.1.08h2.75l3.35-.08.19.19-.08,2.7v1.43l.13,4.45h-3.56v-1.16h-2.64ZM216.12,40.51l-.19-.16v-2.65l.16-.16,2.81.08h2.83l2.81-.08.16.14v2.7l-.16.13-2.81-.08h-2.83l-2.78.08ZM216.12,48.36l-.19-.16v-2.65l.16-.16,2.81.08h2.83l2.81-.08.16.13v2.7l-.16.13-2.81-.08h-2.83l-2.78.08ZM216.12,52.2l-.19-.16v-2.65l.16-.16,2.81.08h2.83l2.81-.08.16.13v2.7l-.16.13-2.81-.08h-2.83l-2.78.08ZM221.6,56h-2.64v1.92h2.64v-1.92ZM230.83,49.71v7.72c0,1.05.19,1.11,2.54,1.11,2.78,0,3.13-.3,3.29-3.43l3.43,1.13c.27.08.27.19.27.46-.11,2.43-.49,3.59-1.24,4.27-.78.73-1.57,1.16-6.07,1.16-5.29,0-6.02-.46-6.02-3.46l.03-4.89v-4.1l-.05-3.13.16-.19,2.94.08h4.56v-5.37h-4.8l-3.16.05-.19-.22v-3l.22-.16,3.27.08h4.86l3.48-.08.22.22-.05,3.32v4.4l.05,3.91-.24.19-3.19-.08h-4.29Z"/>
        <path d="M258.97,37.73c-.11.11-.19.24-.3.35,2.78,2.32,6.15,4.35,11.04,5.78l-2.24,2.97c-.24.35-.43.57-.7.57-.11,0-.22-.03-.38-.11-1.83-.81-3.67-1.86-5.42-3.08v1.32l-.16.13-2.75-.08h-3.43l-2.73.08-.19-.16v-1.08c-1.32.94-2.73,1.75-4.18,2.43l3.72.08h9.96l1.89-.13,1.38,1.35c.16.16.3.3.3.54,0,.13-.05.3-.13.54-.57,1.48-1.49,3.46-2.51,5.4l-3.48-1.59c.73-1.27,1.13-2.02,1.51-3.1h-8.91l-4.08.08-.19-.16v-2.75c-.13.05-.3.13-.43.19-.24.11-.4.13-.54.13-.19,0-.3-.08-.43-.22l-2.38-2.75c5.13-1.75,8.85-4.43,11.61-7.85l.3-.08,3.78.92.08.3ZM249.6,55.27l.11.3c-.54,1.94-1.46,4.1-2.51,5.94l-.27.08-3.24-1.46-.05-.27c.95-1.54,2.05-3.89,2.54-5.53l.24-.13,3.19,1.08ZM254.24,57.95c0,.65.03.7,1.57.7,2.32,0,3-.08,3.54-.51.49-.4.59-.67.73-2l3.32,1.46c.3.14.35.22.3.54-.16,1.27-.51,2.08-1.27,2.73-.92.81-1.97,1.16-7.02,1.16-4.32,0-5.1-.46-5.1-2.43l.05-2.24v-3l.19-.22h3.48l.22.24v3.56ZM256.13,51.44l.27-.03c1.27.86,2.48,1.97,3.46,3.18l-.08.27-2.75,2.08-.27-.08c-.86-1.4-2.02-2.54-3.1-3.48l.05-.27,2.43-1.67ZM259.05,42.78c-.92-.73-1.78-1.51-2.62-2.29-.84.78-1.67,1.57-2.54,2.29l.73.03h3.43l1-.03ZM265.12,53.82l.3.03c1.4,1.19,2.78,2.7,3.86,4.37l-.08.27-2.94,2.13-.27-.05c-1.03-1.86-2.19-3.54-3.51-4.8l.05-.27,2.59-1.67Z"/>
        <path d="M281.41,58.03c0,1.43-1.19,2.59-2.59,2.59s-2.62-1.16-2.62-2.59,1.19-2.62,2.62-2.62,2.59,1.19,2.59,2.62ZM280.92,53.22h-4.24v-14.44h4.24v14.44Z"/>
        <path d="M300.28,53.76c0,.78,0,1.11.13,1.4.11.22.7.4,1.92.4,1.92,0,3.46-.05,5.67-.27l.19.16.11,3.7-.16.19c-1.11.11-3.05.24-6.34.24-3.05,0-4.29-.38-5.21-1.57-.7-.89-.67-2-.67-3.32v-3.54h-3.24l-3.4.08-.19-.22v-3.43l.24-.16,3.37.08h3.21v-3.46h-1.11l-3.56.08-.19-.22v-3.43l.24-.16,3.43.08h8.85l3.73-.08.22.19v3.4l-.19.22-3.67-.08h-3.37v3.46h6.21l3.67-.08.22.19v3.4l-.19.22-3.54-.08h-6.37v2.59Z"/>
        <path d="M333.11,57.03h-13.66l-4.02.08-.19-.22v-3.81l.24-.16,3.86.08h13.63l4.16-.08.22.19v3.78l-.19.22-4.05-.08ZM330.63,46.58h-8.34l-3.89.08-.19-.22v-3.78l.24-.16,3.83.08h8.23l3.62-.08.22.19v3.75l-.19.22-3.54-.08Z"/>
        <path d="M361.84,43.23c.19.22.3.32.3.49,0,.11-.03.24-.14.46-1.27,2.75-2.7,5.21-4.26,7.34.86.73,1.73,1.51,2.56,2.38v.3l-2.62,2.92-.24.03c-.78-.86-1.57-1.65-2.38-2.43-2.46,2.51-5.4,4.59-9.1,6.45-.24.13-.41.19-.51.19-.19,0-.35-.08-.62-.27l-3.16-2.16c4.35-1.86,7.8-4.18,10.39-6.8-.92-.7-1.92-1.4-3.02-2.08v-.27l2.29-2.51.3-.03c1,.59,1.97,1.19,2.89,1.81.94-1.32,1.78-2.78,2.4-4.24l-5.24.03c-1.75,2.43-3.62,4.51-5.51,6.24-.51.38-.65.35-1.13.03l-2.94-1.89c3.59-2.78,6.83-6.69,8.75-11.07l.27-.08,3.67,1.32.05.3c-.3.59-.62,1.16-.95,1.73l3.7-.05,2.21-.16,2.03,2.05Z"/>
        <path d="M383.95,51.9h-12.07l-4.02.08-.19-.22v-3.86l.24-.16,3.86.08h12.04l4.16-.08.22.19v3.83l-.19.22-4.05-.08Z"/>
        <path d="M407.6,41.26l3.1-.57.19.16.57,3.37-.16.22-3.19.41-3.21.49.57,3.18,4.32-.62,3.37-.59.24.14.57,3.37-.13.24-3.24.41-4.45.65.32,1.75,1.27,6.21-4.45.89-.97-6.05-.4-2.16-4.78.7-3.29.59-.24-.11-.67-3.4.16-.24,3.43-.43,4.72-.7-.57-3.19-2.89.43-3.16.57-.27-.14-.65-3.37.16-.24,3.29-.41,2.83-.43-.59-3.27.13-.27,3.86-.62.24.19.62,3.32,3.35-.49Z"/>
        <path d="M422.54,51.74l-3.08.95-.27-.08-.89-3,.08-.22,3.29-.81.92-.24-1.19-3.7.13-.22,3.19-.92.22.11,1.19,3.78,4.94-1.32,2.11-.67,2.19,1.86c.19.16.27.27.27.43,0,.11-.05.24-.14.41-1.21,2.27-2.19,3.7-3.75,5.51-.3.3-.4.3-.73.16l-2.73-1.19c.92-1.03,1.67-2.02,2.35-3.1l-3.56,1,.75,2.46,2.24,6.83-3.7,1.11-1.94-6.59-.89-2.83-1,.3Z"/>
        <path d="M440.36,44.07l2.62-2.94.27-.05c1.62.81,3.78,2.24,5.48,3.73v.27l-2.81,3.27-.24.03c-1.62-1.57-3.43-2.89-5.29-4.05l-.03-.24ZM461.28,46.31c.08.22.11.38.11.51,0,.19-.08.3-.27.49-4.8,5.29-10.66,9.23-17.79,12.47l-.27-.05-2.43-3.64.05-.27c6.69-2.56,13.6-7.31,19.11-13.74l1.48,4.24Z"/>
        <path d="M469.03,54.11l-3.16-2.75-.03-.27c2.73-2.78,4.99-5.13,6.18-6.32,1.03-1.03,1.92-1.57,2.65-1.57.92,0,1.89.59,3.16,1.4,4.32,2.78,8.23,5.62,12.15,8.8l.03.3-2.67,3.24-.27.05c-3.59-3.08-7.34-6.1-10.66-8.39-.76-.51-.95-.62-1.3-.62-.32,0-.73.27-1.24.84-1.7,1.92-3.13,3.54-4.59,5.26l-.24.03ZM487.63,42.45c0,1.48-1.24,2.73-2.73,2.73s-2.75-1.24-2.75-2.73,1.24-2.75,2.75-2.75,2.73,1.24,2.73,2.75ZM483.66,42.45c0,.67.57,1.21,1.24,1.21s1.21-.54,1.21-1.21-.54-1.24-1.21-1.24-1.24.54-1.24,1.24Z"/>
        <path d="M511.01,51.9h-12.07l-4.02.08-.19-.22v-3.86l.24-.16,3.86.08h12.04l4.16-.08.22.19v3.83l-.19.22-4.05-.08Z"/>
        <path d="M520.12,44.07l2.62-2.94.27-.05c1.62.81,3.78,2.24,5.48,3.73v.27l-2.81,3.27-.24.03c-1.62-1.57-3.43-2.89-5.29-4.05l-.03-.24ZM541.04,46.31c.08.22.11.38.11.51,0,.19-.08.3-.27.49-4.8,5.29-10.66,9.23-17.79,12.47l-.27-.05-2.43-3.64.05-.27c6.69-2.56,13.6-7.31,19.11-13.74l1.48,4.24Z"/>
      </g>
      <g>
        <g>
          <path d="M223.65,126.87v5.13h-19.95v-5.13h6.4v-19.91l-7.06,2.67v-5.66l10.55-3.94h3.69v26.84h6.36Z"/>
          <path d="M259.97,122.31l6.65-.12.25.21v4.68l-.25.21-6.65-.12h-7.43l.16,8.74h-6.36l.16-8.74h-12.11l-6.61.12-.29-.25v-4.6l.25-.25,6.65.12h.45v-6.16l-.12-4.43.25-.29,4.72.12h6.85v-5.13h-8.54c-1.64,2.63-3.33,4.84-4.88,6.44-.25.25-.45.33-.7.33-.21,0-.41-.08-.66-.25l-4.06-2.71c4.43-4.56,7.06-8.74,8.87-14l.33-.04,5.34,2.01.04.45c-.49,1.03-.99,2.01-1.52,2.96h18.63l6.24-.12.25.21v4.64l-.25.21-6.24-.12h-6.9v5.13h4.51l6.24-.12.25.21v4.39l-.25.21-6.24-.12h-4.51v6.2h7.47ZM246.55,116.11h-6.07v6.2h6.07v-6.2Z"/>
          <path d="M283.94,98.13l4.35-.12.29.29-.12,4.68v6.2l.12,4.51-.33.37-4.35-.12h-6.16v22.12h-5.46l.21-13.96v-18.35l-.12-5.46.25-.29,4.39.12h6.94ZM283.25,104.17v-1.77h-5.5v1.77h5.5ZM277.75,109.67h5.5v-1.81h-5.5v1.81ZM286.37,131.83v2.34h-5.38l.21-6.12v-8.41l-.12-3.74.29-.29,4.68.12h7.92l4.47-.12.29.29-.12,3.74v8l.21,6.12h-5.5v-1.93h-6.94ZM293.3,119.76h-6.94v2.01h6.94v-2.01ZM293.3,125.59h-6.94v2.05h6.94v-2.05ZM295.97,113.94l-4.35.12-.33-.37.12-4.51v-6.2l-.12-4.68.29-.29,4.35.12h7.51l4.39-.12.25.29-.12,5.46v15.51l.21,11.74c0,3.65-2.3,4.76-6.4,4.76-.82,0-.98-.21-1.15-.62l-1.77-4.8c.94,0,1.85-.04,3.04-.16.49-.08.58-.25.58-1.23v-15.02h-6.49ZM302.46,104.17v-1.77h-5.75v1.77h5.75ZM296.71,109.67h5.75v-1.81h-5.75v1.81Z"/>
          <path d="M322.45,114.84c1.68-1.6,3.73-2.38,6.36-2.38,6.24,0,10.3,3.82,10.3,9.73,0,6.4-4.51,10.84-11.33,10.84-5.99,0-9.85-2.5-11.66-7.35l6.69-2.3c.53,2.75,2.3,4.6,4.72,4.6,2.75,0,4.39-2.05,4.39-5.25,0-3.45-1.64-5.17-4.68-5.17-1.64,0-3.04.74-4.47,2.34l-5.54-1.72,1.07-17.77h19v6.57h-14.37l-.49,7.88Z"/>
          <path d="M371.33,116.36c0,9.97-4.06,16.46-12.07,16.46s-12.15-6.49-12.15-16.46,4.11-16.38,12.15-16.38,12.07,6.49,12.07,16.38ZM363.53,116.36c0-7.72-1.48-11.62-4.27-11.62s-4.43,3.9-4.43,11.62,1.52,11.58,4.43,11.58,4.27-3.82,4.27-11.58Z"/>
          <path d="M385.69,116.81c-4.88,0-6.9-2.71-6.9-8.41s2.01-8.41,6.9-8.41,6.9,2.71,6.9,8.41-2.01,8.41-6.9,8.41ZM407.04,99.98l-23.19,32.84h-2.67l23.19-32.84h2.67ZM385.69,113.53c1.48,0,1.97-1.23,1.97-5.13s-.49-5.13-1.97-5.13-1.97,1.19-1.97,5.13.45,5.13,1.97,5.13ZM409.01,124.4c0,5.71-2.01,8.42-6.9,8.42s-6.9-2.71-6.9-8.42,2.01-8.41,6.9-8.41,6.9,2.71,6.9,8.41ZM404.08,124.4c0-3.94-.49-5.13-1.97-5.13s-1.97,1.19-1.97,5.13.45,5.13,1.97,5.13,1.97-1.23,1.97-5.13Z"/>
          <path d="M424.48,112.17l-5.62.12-.29-.33v-5.25l.37-.25,5.58.12h9.56l-.12-6.2.29-.29h5.87l.33.29.12,6.2h2.26l5.87-.12.37.25v5.25l-.29.33-5.99-.12h-2.13l.29,15.6c.04,3.08-1.07,5.46-8.33,5.66-1.03,0-1.07-.04-1.4-.74l-2.59-5.5c2.5,0,3.94-.04,5.13-.12.41-.04.7-.33.7-1.31l-.04-6.03.16-3.08c-4.39,5.58-9.93,10.02-14.53,12.68-.62.37-.9.41-1.35.04l-4.27-3.74c6.73-3.94,11.9-8.13,15.97-13.46h-5.91Z"/>
          <path d="M455.76,102.69l6.24.12h21.63l.33.29c-.53,7.47-2.83,14.2-7.31,19.83-3.24,4.15-7.88,7.27-14.12,10.02-.37.16-.57.25-.78.25-.25,0-.45-.12-.86-.45l-5.01-4.02c7.02-2.34,11.58-5.17,14.94-9.24,2.63-3.2,4.35-6.69,5.17-10.71h-13.92l-6.28.12-.37-.25v-5.66l.33-.29Z"/>
        </g>
        <g>
          <rect x="52.2" y="101.94" width="126.32" height="30.05"/>
          <g>
            <path d="M85.54,110.57c-.21-.3-.36-.68-.36-1.07,0-1,.82-1.82,1.82-1.82s1.8.82,1.8,1.82-.82,1.8-1.8,1.8c-.32,0-.61-.09-.88-.21-.27,3.09-1.27,5.88-3.14,8.24-1.41,1.8-3.43,3.16-6.15,4.36-.16.07-.25.11-.34.11-.11,0-.2-.05-.38-.2l-2.18-1.75c3.05-1.02,5.04-2.25,6.5-4.02,1.14-1.39,1.89-2.91,2.25-4.66h-6.06l-2.73.05-.16-.11v-2.47l.14-.12,2.72.05h8.93ZM86.18,109.5c0,.45.38.8.82.8s.8-.36.8-.8-.36-.82-.8-.82-.82.36-.82.82Z" style="fill: #fff;"/>
            <path d="M90.05,115.7v-2.34l.16-.11,2.45.05h6.86l2.5-.05.12.14c-.62,5.67-3.32,8.67-8.29,10.38-.16.05-.29.09-.38.09-.14,0-.25-.05-.41-.2l-2.02-1.68c4.11-1.25,6.79-3.13,7.58-6.2h-5.99l-2.47.05-.12-.14ZM98.07,111.95h-4.13l-2.18.05-.12-.14v-2.3l.16-.11,2.16.05h4.04l2.47-.05.14.12v2.29l-.12.14-2.41-.05Z" style="fill: #fff;"/>
            <path d="M104.02,112.65l1.73-1.95.18-.04c1.07.54,2.5,1.48,3.63,2.47v.18l-1.86,2.16-.16.02c-1.07-1.04-2.27-1.91-3.5-2.68l-.02-.16ZM117.87,114.13c.05.14.07.25.07.34,0,.12-.05.2-.18.32-3.18,3.5-7.06,6.11-11.78,8.25l-.18-.04-1.61-2.41.04-.18c4.43-1.7,9.01-4.84,12.65-9.09l.98,2.81Z" style="fill: #fff;"/>
            <path d="M121.49,115.13l-1.98.05-.12-.11v-1.95l.11-.11,2,.05h.71v-5.22l.09-.11h2.09l.11.11v5.22h.75l1.7-.05.09.09v1.98l-.09.09-1.7-.05h-.75v1.5l.73-.54h.18c.71.57,1.3,1.3,1.88,2.02l-.02.18-1.47,1.2-.18-.02c-.3-.52-.71-1.11-1.12-1.61v.86l.12,6.13h-2.52l.18-6.59c-.46,1.29-1.11,2.5-1.7,3.41-.07.11-.16.16-.23.16-.09,0-.18-.07-.25-.2l-1.13-1.73c.96-1.32,1.97-2.93,2.7-4.77h-.18ZM120.9,109.18l.18.05c.43.93.7,1.68.96,2.7l-.11.16-1.5.62-.12-.11c-.29-.98-.55-1.89-.91-2.72l.07-.18,1.43-.54ZM127.19,109.66l.07.21c-.25.88-.55,1.68-.95,2.54-.05.12-.11.18-.18.18-.05,0-.12-.02-.2-.05l-1.36-.52c.39-1.14.62-2.02.8-2.95l.2-.05,1.61.64ZM132.1,107.91l.12-.12h2.29l.12.12v8.95l1.2-.34.18.04.38,2.13-.11.14-1.63.39.07,5.63h-2.72l.07-4.97-2.13.54-2.36.62-.16-.05-.43-2.18.11-.14,2.43-.5,2.55-.63v-9.63ZM130.26,116.58l-.18.05c-.84-.68-1.73-1.27-2.59-1.66l-.02-.18,1.23-1.55.18-.05c.93.38,1.8.91,2.57,1.43l.04.18-1.23,1.79ZM130.57,112.58l-.18.02c-.73-.8-1.59-1.45-2.47-1.93v-.18l1.39-1.39.18-.02c.88.46,1.64.91,2.48,1.7v.18l-1.41,1.63Z" style="fill: #fff;"/>
            <path d="M146.71,116.67h2.86l2.54-.05.11.09v2l-.11.09-2.54-.05h-2.86v3.27h2.13l-1.3-.54c.61-1.04.88-1.66,1.25-2.57l.16-.09,2.22.8.05.2c-.48.86-.98,1.61-1.45,2.2h1.38l2.36-.05.11.09v2.02l-.11.09-2.36-.05h-11.19l-2.34.05-.12-.11v-1.98l.11-.11,2.36.05h1.14c-.23-.62-.59-1.48-1.04-2.21l.05-.16,1.88-.7.2.07c.45.61.88,1.45,1.2,2.16l-.05.18-1.66.66h2.5v-3.27h-2.73l-2.52.05-.12-.11v-1.96l.11-.11,2.54.05h2.73v-1.25h-.57l-1.98.05-.12-.11v-.82c-.75.52-1.54,1.02-2.38,1.48-.14.07-.25.11-.34.11-.11,0-.2-.05-.3-.16l-1.61-1.61c3.36-1.63,5.75-3.63,7.47-6.63l.2-.05,2.54.68.05.18c-.09.14-.18.29-.29.43,1.97,2.04,4.36,3.73,7.5,4.77l-1.55,1.8c-.2.23-.36.34-.52.34-.09,0-.18-.04-.29-.09-.82-.45-1.63-.91-2.43-1.41v1l-.11.09-2-.05h-.73v1.25ZM148.07,113.34c-.96-.73-1.82-1.55-2.63-2.46-.71.89-1.54,1.73-2.41,2.46l.57.02h3.84l.63-.02Z" style="fill: #fff;"/>
          </g>
        </g>
      </g>
      <g>
        <g>
          <path d="M203.72,169.77c.99-4.68,4.84-8.25,11.29-8.25,5.87,0,10.22,2.83,10.22,8.09,0,2.59-1.68,5.83-6.28,7.1,4.6.82,7.47,3.49,7.47,8.41,0,5.38-4.43,9.44-11.74,9.44-6.16,0-9.93-2.34-12.15-7.59l7.39-2.79c.33,3.04,1.81,5.21,4.56,5.21s3.65-1.97,3.65-4.02c0-3.28-2.42-4.72-5.62-4.72h-2.83l1.27-5.95h2.05c2.83,0,4.68-1.85,4.68-4.51,0-2.42-1.64-3.61-3.45-3.61-2.05,0-3.37,1.35-3.98,4.68l-6.53-1.48Z"/>
          <path d="M249.49,166.48c-.04,2.01-.12,4.06-.33,6.08h8.29l7.14-.12.33.29c-.12,6.44-.29,11.7-.86,16.75-.62,5.34-3.57,7.55-8.29,7.55h-2.75c-.7,0-.94-.25-1.19-.78l-2.42-5.46c2.22.12,3.57.12,5.13.08,2.13-.04,3.12-.82,3.45-4.06.33-3.41.41-6.49.45-9.15h-9.81c-.66,4.15-1.6,7.14-2.91,9.44-2.63,4.56-5.09,7.22-9.69,9.97-.21.12-.37.21-.49.21-.16,0-.29-.08-.45-.25l-4.43-3.98c4.8-2.46,7.47-5.29,9.32-8.74,1.81-3.33,2.75-8,3.08-17.81h-4.72l-6.81.12-.29-.29v-4.93l.29-.29,6.81.12h24.18l6.77-.12.29.29v4.93l-.29.29-6.77-.12h-13.01Z"/>
          <path d="M283.06,180.97v16.5h-6.12l.21-12.93v-17.53l-.12-5.5.29-.29,6.94.12h18.63l6.94-.12.29.29-.12,5.5v13.42l.16,11.49c0,3.57-1.23,5.17-6.16,5.17h-2.71c-.82,0-.9-.08-1.07-.49l-1.89-5.17c1.19,0,3.74-.04,4.8-.12.62-.04.74-.33.74-1.31v-9.03h-20.81ZM290.41,166.44h-7.35v9.44h7.35v-9.44ZM303.87,175.88v-9.44h-7.55v9.44h7.55Z"/>
          <path d="M324.64,180.6l-.29-.29v-2.13c-.9.94-1.81,1.85-2.79,2.75-.16.16-.29.25-.41.25-.21,0-.37-.16-.62-.45l-3.82-4.02c5.25-3.9,8.78-9.15,10.92-15.72l.33-.21,5.46,1.85.16.41c-1.72,4.8-3.9,8.7-6.65,12.19l3.82.04h12.11l3.69-.04c-3.49-4.31-5.87-8.7-7.8-13.96l.21-.37,5.01-1.64.37.16c2.5,6.03,6.4,11.62,12.07,16.05l-4.15,4.8c-.17.21-.33.33-.49.33-.12,0-.29-.12-.53-.33-.7-.66-1.35-1.31-1.97-2.01-.04,6.4-.21,10.02-.66,13.13-.62,4.23-2.22,5.91-9.44,5.91-.78,0-.9-.12-1.11-.66l-2.01-5.38c2.05.04,2.87.04,3.94,0,1.48-.04,2.18-.37,2.42-1.97.41-2.63.45-5.95.41-8.78h-5.75c-1.07,8.54-4.76,14.2-14.45,16.99-.41.12-.74,0-.99-.33l-3.16-4.23c8.25-2.22,11.25-5.13,12.23-12.44l-6.07.08Z"/>
          <path d="M393.31,172.68l5.46-.12.25.21v4.47l-.25.21-5.46-.12v5.62l5.09-.08.25.21v4.43l-.25.25-6.12-.16h-24.75l-6.07.16-.29-.29v-4.35l.25-.25,4.68.08v-5.62l-5.46.12-.29-.29v-4.31l.25-.29,5.5.12v-3.16c-.78.74-1.52,1.4-2.26,1.97-.21.21-.37.29-.53.29-.21,0-.37-.21-.62-.45l-3-3.33c3.53-2.59,6.4-5.66,8.42-9.28l.37-.08,4.6,1.64.12.41c-.45.78-.94,1.56-1.52,2.34h19.99l6.12-.12.25.25v4.39l-.25.21-4.47-.08v5.01ZM361.13,195.42l-.17-.37c1.72-2.22,2.83-4.43,3.86-6.9l.33-.12,4.47,1.6.04.45c-.82,2.71-2.22,5.58-3.78,7.76l-.45.08-4.31-2.5ZM373.61,197.6l-.41-.16c-.41-2.59-1.19-5.34-2.01-7.43l.25-.33,4.47-1.11.41.25c1.11,2.13,2.01,5.09,2.42,7.18l-.21.37-4.93,1.23ZM371.39,167.63v5.05h2.22v-5.05h-2.22ZM373.61,182.98v-5.67h-2.22v5.67h2.22ZM378.61,167.63v5.05h2.09v-5.05h-2.09ZM380.71,182.98v-5.67h-2.09v5.67h2.09ZM383.58,197.51l-.41-.12c-.82-2.54-1.97-5.05-3.08-6.98l.16-.37,4.27-1.76.45.16c1.35,1.93,2.71,4.68,3.41,6.69l-.12.41-4.68,1.97ZM385.71,167.63v5.05h2.13v-5.05h-2.13ZM387.85,182.98v-5.67h-2.13v5.67h2.13ZM394.5,197.76l-.45-.08c-1.27-2.42-2.92-4.84-4.68-6.85l.04-.37,4.02-2.5.41.17c2.13,2.13,3.74,4.15,5.13,6.49l-.08.37-4.39,2.79Z"/>
          <path d="M408.49,175.72l-4.56.12-.29-.25v-4.47l.25-.25,4.6.12h1.64v-11.99l.21-.25h4.8l.25.25v11.99h1.72l3.9-.12.21.21v4.56l-.21.21-3.9-.12h-1.72v3.45l1.68-1.23h.41c1.64,1.31,3,3,4.31,4.64l-.04.41-3.37,2.75-.41-.04c-.7-1.19-1.64-2.54-2.59-3.69v1.97l.29,14.08h-5.79l.41-15.15c-1.07,2.96-2.54,5.75-3.9,7.84-.16.25-.37.37-.53.37-.21,0-.41-.16-.58-.45l-2.59-3.98c2.22-3.04,4.52-6.73,6.2-10.96h-.41ZM407.14,162.05l.41.12c.99,2.13,1.6,3.86,2.22,6.2l-.25.37-3.45,1.44-.29-.25c-.66-2.26-1.27-4.35-2.09-6.24l.16-.41,3.28-1.23ZM421.59,163.16l.16.49c-.58,2.01-1.27,3.86-2.18,5.83-.12.29-.25.41-.41.41-.12,0-.29-.04-.45-.12l-3.12-1.19c.9-2.63,1.44-4.64,1.85-6.77l.45-.12,3.69,1.48ZM432.87,159.14l.29-.29h5.25l.29.29v20.56l2.75-.78.41.08.86,4.88-.25.33-3.74.9.16,12.93h-6.24l.16-11.41-4.88,1.23-5.42,1.44-.37-.12-.99-5.01.25-.33,5.58-1.15,5.87-1.44v-22.12ZM428.65,179.04l-.41.12c-1.93-1.56-3.98-2.91-5.95-3.82l-.04-.41,2.83-3.57.41-.12c2.13.86,4.15,2.09,5.91,3.28l.08.41-2.83,4.1ZM429.35,169.85l-.41.04c-1.68-1.85-3.65-3.33-5.66-4.43v-.41l3.2-3.2.41-.04c2.01,1.07,3.78,2.09,5.71,3.9v.41l-3.24,3.74Z"/>
        </g>
        <g>
          <rect x="52.2" y="163.89" width="126.32" height="30.05"/>
          <g>
            <path d="M63.61,177.17l-2.45.05-.12-.14v-2.29l.16-.11,2.43.05h4.16l-.05-2.7.12-.12h2.56l.14.12.05,2.7h.98l2.56-.05.16.11v2.29l-.12.14-2.61-.05h-.93l.12,6.79c.02,1.34-.46,2.38-3.63,2.47-.45,0-.46-.02-.61-.32l-1.12-2.39c1.09,0,1.71-.02,2.23-.05.18-.02.3-.14.3-.57l-.02-2.63.07-1.34c-1.91,2.43-4.32,4.36-6.33,5.52-.27.16-.39.18-.59.02l-1.86-1.63c2.93-1.72,5.18-3.54,6.95-5.86h-2.57Z" style="fill: #fff;"/>
            <path d="M87.98,173.31c-.21-.3-.36-.68-.36-1.07,0-1,.82-1.82,1.82-1.82s1.8.82,1.8,1.82-.82,1.8-1.8,1.8c-.32,0-.61-.09-.88-.21-.27,3.09-1.27,5.88-3.14,8.24-1.41,1.8-3.43,3.16-6.15,4.36-.16.07-.25.11-.34.11-.11,0-.2-.05-.38-.2l-2.18-1.75c3.06-1.02,5.04-2.25,6.5-4.02,1.14-1.39,1.89-2.91,2.25-4.66h-6.06l-2.73.05-.16-.11v-2.47l.14-.12,2.72.05h8.93ZM88.62,172.23c0,.45.38.8.82.8s.8-.36.8-.8-.36-.82-.8-.82-.82.36-.82.82Z" style="fill: #fff;"/>
            <path d="M92.31,178.93l.96-2.22.16-.07c1.09.55,2.32.93,3.66,1.2l.09.14-.73,2.38-.16.09c-1.43-.25-2.57-.62-3.93-1.36l-.05-.16ZM106.91,177.74c.04.12.05.21.05.29,0,.12-.05.21-.2.38-2.7,3.11-7.24,5.91-11.76,7.59l-.2-.04-1.52-2.41.05-.2c4.9-1.59,9.33-4.34,12.76-8.47l.8,2.86ZM94.15,174.56l1.45-1.93.21-.04c1.18.48,2.27,1.09,3.41,1.91l.04.2-1.48,2.04-.2.04c-1.25-.96-2.13-1.46-3.39-2.04l-.04-.18Z" style="fill: #fff;"/>
            <path d="M117.7,178.83v4.74l.05,1.91-.12.14-2-.05h-4.56l-1.93.05-.12-.14v-1.91l.16-.11,1.75.05h4.38v-1.3h-3.97l-1.91.05-.12-.14v-1.88l.16-.11,1.91.05h3.93v-1.2h-4.14l-2,.05-.12-.14v-1.89l.16-.11,1.93.05h4.47l2.02-.05.14.12-.05,1.8Z" style="fill: #fff;"/>
            <path d="M120.43,175.38l1.73-1.95.18-.04c1.07.54,2.5,1.48,3.63,2.47v.18l-1.86,2.16-.16.02c-1.07-1.04-2.27-1.91-3.5-2.68l-.02-.16ZM134.28,176.86c.05.14.07.25.07.34,0,.12-.05.2-.18.32-3.18,3.5-7.06,6.11-11.78,8.25l-.18-.04-1.61-2.41.04-.18c4.43-1.7,9.01-4.84,12.65-9.09l.98,2.81Z" style="fill: #fff;"/>
            <path d="M137.9,177.86l-1.98.05-.12-.11v-1.95l.11-.11,2,.05h.71v-5.22l.09-.11h2.09l.11.11v5.22h.75l1.7-.05.09.09v1.98l-.09.09-1.7-.05h-.75v1.5l.73-.54h.18c.71.57,1.3,1.3,1.88,2.02l-.02.18-1.47,1.2-.18-.02c-.3-.52-.71-1.11-1.12-1.61v.86l.12,6.13h-2.52l.18-6.59c-.46,1.29-1.11,2.5-1.7,3.41-.07.11-.16.16-.23.16-.09,0-.18-.07-.25-.2l-1.13-1.73c.96-1.32,1.97-2.93,2.7-4.77h-.18ZM137.31,171.91l.18.05c.43.93.7,1.68.96,2.7l-.11.16-1.5.62-.12-.11c-.29-.98-.55-1.89-.91-2.72l.07-.18,1.43-.54ZM143.6,172.39l.07.21c-.25.88-.55,1.68-.95,2.54-.05.12-.11.18-.18.18-.05,0-.12-.02-.2-.05l-1.36-.52c.39-1.14.62-2.02.8-2.95l.2-.05,1.61.64ZM148.51,170.64l.12-.12h2.29l.12.12v8.95l1.2-.34.18.04.38,2.13-.11.14-1.63.39.07,5.63h-2.72l.07-4.97-2.13.54-2.36.62-.16-.05-.43-2.18.11-.14,2.43-.5,2.55-.63v-9.63ZM146.67,179.31l-.18.05c-.84-.68-1.73-1.27-2.59-1.66l-.02-.18,1.23-1.55.18-.05c.93.38,1.8.91,2.57,1.43l.04.18-1.23,1.79ZM146.97,175.31l-.18.02c-.73-.8-1.59-1.45-2.47-1.93v-.18l1.39-1.39.18-.02c.88.46,1.64.91,2.48,1.7v.18l-1.41,1.63Z" style="fill: #fff;"/>
            <path d="M163.12,179.4h2.86l2.54-.05.11.09v2l-.11.09-2.54-.05h-2.86v3.27h2.13l-1.3-.54c.61-1.04.88-1.66,1.25-2.57l.16-.09,2.22.8.05.2c-.48.86-.98,1.61-1.45,2.2h1.38l2.36-.05.11.09v2.02l-.11.09-2.36-.05h-11.19l-2.34.05-.12-.11v-1.98l.11-.11,2.36.05h1.14c-.23-.62-.59-1.48-1.04-2.21l.05-.16,1.88-.7.2.07c.45.61.88,1.45,1.2,2.16l-.05.18-1.66.66h2.5v-3.27h-2.73l-2.52.05-.12-.11v-1.96l.11-.11,2.54.05h2.73v-1.25h-.57l-1.98.05-.12-.11v-.82c-.75.52-1.54,1.02-2.38,1.48-.14.07-.25.11-.34.11-.11,0-.2-.05-.3-.16l-1.61-1.61c3.36-1.63,5.75-3.63,7.47-6.63l.2-.05,2.54.68.05.18c-.09.14-.18.29-.29.43,1.97,2.04,4.36,3.73,7.5,4.77l-1.55,1.8c-.2.23-.36.34-.52.34-.09,0-.18-.04-.29-.09-.82-.45-1.63-.91-2.43-1.41v1l-.11.09-2-.05h-.73v1.25ZM164.48,176.08c-.96-.73-1.82-1.55-2.63-2.46-.71.89-1.54,1.73-2.41,2.46l.57.02h3.84l.63-.02Z" style="fill: #fff;"/>
          </g>
        </g>
      </g>
      <g>
        <circle cx="513.25" cy="173.39" r="38.08" style="fill: #ff1364;"/>
        <path d="M508.78,162.8c1.38-1.32,3.07-1.96,5.23-1.96,5.13,0,8.47,3.14,8.47,8,0,5.26-3.71,8.91-9.31,8.91-4.92,0-8.1-2.06-9.58-6.04l5.5-1.89c.44,2.26,1.89,3.78,3.88,3.78,2.26,0,3.61-1.69,3.61-4.32,0-2.83-1.35-4.25-3.85-4.25-1.35,0-2.5.61-3.68,1.92l-4.55-1.42.88-14.61h15.62v5.4h-11.81l-.41,6.48Z" style="fill: #fff;"/>
        <g>
          <path d="M491.04,191.85c1.77-.46,3.17-1,4.29-1.72-.41-.35-.82-.64-1.3-.95v-.09l.88-.87h.13c.47.26.98.58,1.49.98.55-.52,1.03-1.1,1.43-1.74h-2.82c-.8.94-1.71,1.69-2.83,2.34-.04.03-.09.04-.12.04-.07,0-.11-.04-.16-.1l-.85-1.01c1.66-.89,3-2.2,3.86-3.71l.11-.03,1.3.42.04.1c-.12.22-.26.43-.39.63h2.26l1.02-.04.64.61s.06.07.06.1c0,.06-.02.11-.07.2-.83,1.65-1.85,2.84-3.13,3.76h2.57l1.38-.03.08.08-.03,1.22v1.14l.06,2.34h-1.71v-.5h-3.59v.58h-1.66l.06-2.47v-.72c-.58.27-1.2.5-1.86.7-.04.01-.08.02-.11.02-.06,0-.1-.03-.16-.11l-.87-1.17ZM499.23,192.05h-3.59v1.65h3.59v-1.65Z" style="fill: #fff;"/>
          <path d="M502.88,188.55l-.08-.07v-1.21l.07-.07,1.2.03v-2.07l.05-.07h1.31l.07.07v2.06l.95-.02.06.06v1.23l-.06.06-.95-.02v1.02l.3-.23h.11c.28.27.52.55.75.88v-.42l.08-.07,1.45.03h.89v-.42h-.42l-1.45.03-.08-.07v-.99l.08-.07,1.45.02h.42v-.42h-.82l-1.51.02-.08-.07v-1.03l.08-.08,1.32.03c-.18-.35-.35-.63-.58-.93v-.11l1.19-.45h.12c.3.35.54.69.77,1.09v.11s-.79.3-.79.3h1.38c.22-.5.41-1,.58-1.51l.11-.03,1.32.33.07.09c-.18.38-.39.78-.59,1.12h.03l1.45-.03.08.08v1.03l-.08.07-1.45-.02h-1.09v.42h.5l1.45-.02.08.07v.99l-.08.07-1.45-.03h-.5v.42h1.22l1.45-.03.08.07v1.07l-.08.07-1.45-.03h-1.22v.53c.16.21.31.41.48.6.29-.28.57-.59.85-.95h.11l1.03.87v.11c-.42.36-.75.62-1.12.88.44.39.95.74,1.58,1.13l-.84,1c-.07.09-.11.12-.17.12-.04,0-.09-.02-.16-.08-.65-.52-1.28-1.15-1.76-1.88l.04,1.19c0,.96-.3,1.35-1.84,1.35-.22,0-.23-.02-.29-.13l-.58-1.25c.33,0,.67-.02.85-.04.23-.02.3-.09.3-.35v-3.08h-.89l-1.45.03-.08-.07-.55.5h-.11c-.14-.25-.31-.52-.5-.79v1.02l.08,4.12h-1.58l.08-3.75c-.13.38-.29.74-.51,1.14-.03.07-.09.1-.13.1-.06,0-.12-.04-.17-.12l-.68-1.11c.62-.9,1.04-1.95,1.41-3.43l-1.12.03ZM505.9,193.68c.74-.22,1.97-.69,2.91-1.19l.06,1.12c.01.14,0,.16-.19.28-.59.37-1.3.7-2.14,1.1l-.1-.02-.58-1.19.04-.1ZM507.85,192.86h-.1c-.33-.43-.7-.8-1.1-1.1v-.1l.89-.68.12-.02c.47.28.85.64,1.14.98v.1l-.95.82Z" style="fill: #fff;"/>
          <path d="M516.36,191.3l.08,4.35h-1.6l.08-4.35v-4.12l-.03-1.66.08-.08,1.43.03h1.09l.68-.03.52.57c.06.06.08.17.04.36-.2.99-.45,1.84-.78,2.81.62.99.84,1.6.84,2.56,0,1.19-.71,1.83-1.7,1.83-.17,0-.21-.03-.27-.17l-.4-1.25c.75.01.91-.11.91-.7,0-.43-.1-1.02-.75-2.09-.02-.04-.03-.09-.03-.13s.01-.09.02-.13c.22-.78.42-1.49.54-2.24h-.75v4.45ZM522.07,194.35c0,.2-.04.27-.23.33-.92.33-2.21.68-3.6.99l-.1-.06-.44-1.28.06-.1c.42-.07.83-.13,1.24-.21v-6.87l-.03-1.43.08-.07,1.44.03h2.31l1.42-.03.09.09-.03,1.35v1.94l.03,1.59-.1.08-1.3-.03h-.39c.1.41.23.81.4,1.2.37-.33.69-.69.98-1.04h.11l1.01.93v.11c-.5.42-.98.79-1.46,1.1.42.53.98.96,1.65,1.36l-.96,1.07c-.09.1-.14.14-.2.14s-.12-.03-.2-.1c-.72-.52-1.31-1.23-1.75-2.02v.92ZM522.77,186.89h-2.32v.68h2.32v-.68ZM520.45,188.75v.72h2.32v-.72h-2.32ZM521.89,193.08c-.37-.73-.62-1.55-.81-2.41h-.63v3.04c.52-.12,1.04-.25,1.54-.43l-.1-.2Z" style="fill: #fff;"/>
          <path d="M530.64,189.62h-.8l-1.45.03-.08-.06v-1.25l.07-.08,1.46.03h2.98l1.43-.03.09.07v1.25l-.05.07-1.46-.03h-.59v1.21h1.15l1.43-.03.09.07v1.3l-.06.07-1.46-.03h-1.15v1.66c.32.01.69.02,1.09.02.82,0,1.83-.02,3.23-.13l-.62,1.49c-.04.1-.08.1-.2.11-.92.04-1.95.04-2.82.03-.72-.01-1.52-.11-2.16-.25-.74-.17-1.42-.55-1.95-1.09-.33.58-.74,1.09-1.26,1.51-.08.07-.13.09-.19.09-.07,0-.12-.02-.19-.08l-1.09-.85c1.46-1.13,2.04-2.46,2.14-4.26l.1-.07,1.38.25.09.09c-.05.68-.19,1.36-.41,2.03.36.37.79.68,1.28.84v-3.97ZM530.47,185.16l.08-.08h1.49l.08.08v1.11h2.46l1.54-.03.09.08-.03.84v.32l.06,1.55h-1.61v-1.43h-6.58v1.43h-1.61l.06-1.44v-.33l-.03-.94.1-.08,1.81.03h2.11v-1.11Z" style="fill: #fff;"/>
        </g>
      </g>
    </g>
  </g>
</svg>