<?xml version="1.0" encoding="UTF-8"?>
<svg id="Layer_2" xmlns="http://www.w3.org/2000/svg" width="599.36" height="198.23" xmlns:xlink="http://www.w3.org/1999/xlink" viewBox="0 0 599.36 198.23">
  <defs>
    <clipPath id="clippath">
      <rect x="3.5" y="3.5" width="592.36" height="191.23" style="fill: none;"/>
    </clipPath>
  </defs>
  <g id="Layer_1-2" data-name="Layer_1">
    <g>
      <g style="clip-path: url(#clippath);">
        <g>
          <rect x="3.5" y="-22.57" width="592.36" height="243.36" style="fill: #fff24e;"/>
          <polygon points="595.86 139.42 595.86 216.06 593.45 220.79 554.33 220.79 595.86 139.42" style="fill: #ffe148;"/>
          <polygon points="595.86 -1.03 595.86 75.61 521.77 220.79 482.65 220.79 595.86 -1.03" style="fill: #ffe148;"/>
          <polygon points="574.29 -22.57 450.09 220.79 410.97 220.79 535.18 -22.57 574.29 -22.57" style="fill: #ffe148;"/>
          <polygon points="502.61 -22.57 378.41 220.79 339.29 220.79 463.5 -22.57 502.61 -22.57" style="fill: #ffe148;"/>
          <polygon points="430.92 -22.57 306.72 220.79 267.61 220.79 391.82 -22.57 430.92 -22.57" style="fill: #ffe148;"/>
          <polygon points="359.24 -22.57 235.04 220.79 195.93 220.79 320.13 -22.57 359.24 -22.57" style="fill: #ffe148;"/>
          <polygon points="287.56 -22.57 163.36 220.79 124.25 220.79 248.45 -22.57 287.56 -22.57" style="fill: #ffe148;"/>
          <polygon points="215.88 -22.57 91.68 220.79 52.56 220.79 176.77 -22.57 215.88 -22.57" style="fill: #ffe148;"/>
          <polygon points="144.2 -22.57 20 220.79 3.5 220.79 3.5 176.48 105.09 -22.57 144.2 -22.57" style="fill: #ffe148;"/>
          <polygon points="72.52 -22.57 3.5 112.66 3.5 36.03 33.41 -22.57 72.52 -22.57" style="fill: #ffe148;"/>
        </g>
      </g>
      <path d="M599.36,198.23H0V0h599.36v198.23ZM7,191.23h585.36V7H7v184.23Z"/>
      <g>
        <g>
          <path d="M66.91,151.83v3.75h-14.58v-3.75h4.68v-14.55l-5.16,1.95v-4.14l7.71-2.88h2.7v19.62h4.65Z"/>
          <path d="M93.46,148.5l4.86-.09.18.15v3.42l-.18.15-4.86-.09h-5.43l.12,6.39h-4.65l.12-6.39h-8.85l-4.83.09-.21-.18v-3.36l.18-.18,4.86.09h.33v-4.5l-.09-3.24.18-.21,3.45.09h5.01v-3.75h-6.24c-1.2,1.92-2.43,3.54-3.57,4.71-.18.18-.33.24-.51.24-.15,0-.3-.06-.48-.18l-2.97-1.98c3.24-3.33,5.16-6.39,6.48-10.23l.24-.03,3.9,1.47.03.33c-.36.75-.72,1.47-1.11,2.16h13.62l4.56-.09.18.15v3.39l-.18.15-4.56-.09h-5.04v3.75h3.3l4.56-.09.18.15v3.21l-.18.15-4.56-.09h-3.3v4.53h5.46ZM83.65,143.97h-4.44v4.53h4.44v-4.53Z"/>
          <path d="M110.98,130.83l3.18-.09.21.21-.09,3.42v4.53l.09,3.3-.24.27-3.18-.09h-4.5v16.17h-3.99l.15-10.2v-13.41l-.09-3.99.18-.21,3.21.09h5.07ZM110.47,135.25v-1.29h-4.02v1.29h4.02ZM106.45,139.26h4.02v-1.32h-4.02v1.32ZM112.75,155.46v1.71h-3.93l.15-4.47v-6.15l-.09-2.73.21-.21,3.42.09h5.79l3.27-.09.21.21-.09,2.73v5.85l.15,4.47h-4.02v-1.41h-5.07ZM117.82,146.64h-5.07v1.47h5.07v-1.47ZM117.82,150.9h-5.07v1.5h5.07v-1.5ZM119.77,142.38l-3.18.09-.24-.27.09-3.3v-4.53l-.09-3.42.21-.21,3.18.09h5.49l3.21-.09.18.21-.09,3.99v11.34l.15,8.58c0,2.67-1.68,3.48-4.68,3.48-.6,0-.72-.15-.84-.45l-1.29-3.51c.69,0,1.35-.03,2.22-.12.36-.06.42-.18.42-.9v-10.98h-4.74ZM124.51,135.25v-1.29h-4.2v1.29h4.2ZM120.31,139.26h4.2v-1.32h-4.2v1.32Z"/>
          <path d="M139.12,143.04c1.23-1.17,2.73-1.74,4.65-1.74,4.56,0,7.53,2.79,7.53,7.11,0,4.68-3.3,7.92-8.28,7.92-4.38,0-7.2-1.83-8.52-5.37l4.89-1.68c.39,2.01,1.68,3.36,3.45,3.36,2.01,0,3.21-1.5,3.21-3.84,0-2.52-1.2-3.78-3.42-3.78-1.2,0-2.22.54-3.27,1.71l-4.05-1.26.78-12.99h13.89v4.8h-10.5l-.36,5.76Z"/>
          <path d="M174.85,144.15c0,7.29-2.97,12.03-8.82,12.03s-8.88-4.74-8.88-12.03,3-11.97,8.88-11.97,8.82,4.74,8.82,11.97ZM169.15,144.15c0-5.64-1.08-8.49-3.12-8.49s-3.24,2.85-3.24,8.49,1.11,8.46,3.24,8.46,3.12-2.79,3.12-8.46Z"/>
          <path d="M185.35,144.48c-3.57,0-5.04-1.98-5.04-6.15s1.47-6.15,5.04-6.15,5.04,1.98,5.04,6.15-1.47,6.15-5.04,6.15ZM200.95,132.18l-16.95,24h-1.95l16.95-24h1.95ZM185.35,142.08c1.08,0,1.44-.9,1.44-3.75s-.36-3.75-1.44-3.75-1.44.87-1.44,3.75.33,3.75,1.44,3.75ZM202.39,150.03c0,4.17-1.47,6.15-5.04,6.15s-5.04-1.98-5.04-6.15,1.47-6.15,5.04-6.15,5.04,1.98,5.04,6.15ZM198.79,150.03c0-2.88-.36-3.75-1.44-3.75s-1.44.87-1.44,3.75.33,3.75,1.44,3.75,1.44-.9,1.44-3.75Z"/>
          <path d="M213.7,141.09l-4.11.09-.21-.24v-3.84l.27-.18,4.08.09h6.99l-.09-4.53.21-.21h4.29l.24.21.09,4.53h1.65l4.29-.09.27.18v3.84l-.21.24-4.38-.09h-1.56l.21,11.4c.03,2.25-.78,3.99-6.09,4.14-.75,0-.78-.03-1.02-.54l-1.89-4.02c1.83,0,2.88-.03,3.75-.09.3-.03.51-.24.51-.96l-.03-4.41.12-2.25c-3.21,4.08-7.26,7.32-10.62,9.27-.45.27-.66.3-.99.03l-3.12-2.73c4.92-2.88,8.7-5.94,11.67-9.84h-4.32Z"/>
          <path d="M236.56,134.17l4.56.09h15.81l.24.21c-.39,5.46-2.07,10.38-5.34,14.49-2.37,3.03-5.76,5.31-10.32,7.32-.27.12-.42.18-.57.18-.18,0-.33-.09-.63-.33l-3.66-2.94c5.13-1.71,8.46-3.78,10.92-6.75,1.92-2.34,3.18-4.89,3.78-7.83h-10.17l-4.59.09-.27-.18v-4.14l.24-.21Z"/>
        </g>
        <g>
          <rect x="38.31" y="80.8" width="233.16" height="30.05"/>
          <g>
            <path d="M125.07,89.42c-.21-.3-.36-.68-.36-1.07,0-1,.82-1.82,1.82-1.82s1.8.82,1.8,1.82-.82,1.8-1.8,1.8c-.32,0-.61-.09-.88-.21-.27,3.09-1.27,5.88-3.14,8.24-1.41,1.8-3.43,3.16-6.15,4.36-.16.07-.25.11-.34.11-.11,0-.2-.05-.38-.2l-2.18-1.75c3.05-1.02,5.04-2.25,6.5-4.02,1.14-1.39,1.89-2.91,2.25-4.66h-6.06l-2.73.05-.16-.11v-2.47l.14-.12,2.72.05h8.93ZM125.71,88.35c0,.45.38.8.82.8s.8-.36.8-.8-.36-.82-.8-.82-.82.36-.82.82Z" style="fill: #fff;"/>
            <path d="M129.58,94.55v-2.34l.16-.11,2.45.05h6.86l2.5-.05.12.14c-.62,5.67-3.32,8.67-8.29,10.38-.16.05-.29.09-.38.09-.14,0-.25-.05-.41-.2l-2.02-1.68c4.11-1.25,6.79-3.13,7.58-6.2h-5.99l-2.47.05-.12-.14ZM137.61,90.8h-4.13l-2.18.05-.12-.14v-2.3l.16-.11,2.16.05h4.04l2.47-.05.14.12v2.29l-.12.14-2.41-.05Z" style="fill: #fff;"/>
            <path d="M143.55,91.5l1.73-1.95.18-.04c1.07.54,2.5,1.48,3.63,2.47v.18l-1.86,2.16-.16.02c-1.07-1.04-2.27-1.91-3.5-2.68l-.02-.16ZM157.4,92.98c.05.14.07.25.07.34,0,.12-.05.2-.18.32-3.18,3.5-7.06,6.11-11.78,8.25l-.18-.04-1.61-2.41.04-.18c4.43-1.7,9.01-4.84,12.65-9.09l.98,2.81Z" style="fill: #fff;"/>
            <path d="M161.02,93.98l-1.98.05-.12-.11v-1.95l.11-.11,2,.05h.71v-5.22l.09-.11h2.09l.11.11v5.22h.75l1.7-.05.09.09v1.98l-.09.09-1.7-.05h-.75v1.5l.73-.54h.18c.71.57,1.3,1.3,1.88,2.02l-.02.18-1.47,1.2-.18-.02c-.3-.52-.71-1.11-1.12-1.61v.86l.12,6.13h-2.52l.18-6.59c-.46,1.29-1.11,2.5-1.7,3.41-.07.11-.16.16-.23.16-.09,0-.18-.07-.25-.2l-1.13-1.73c.96-1.32,1.97-2.93,2.7-4.77h-.18ZM160.43,88.03l.18.05c.43.93.7,1.68.96,2.7l-.11.16-1.5.62-.12-.11c-.29-.98-.55-1.89-.91-2.72l.07-.18,1.43-.54ZM166.72,88.51l.07.21c-.25.88-.55,1.68-.95,2.54-.05.12-.11.18-.18.18-.05,0-.12-.02-.2-.05l-1.36-.52c.39-1.14.62-2.02.8-2.95l.2-.05,1.61.64ZM171.63,86.76l.12-.12h2.29l.12.12v8.95l1.2-.34.18.04.38,2.13-.11.14-1.63.39.07,5.63h-2.72l.07-4.97-2.13.54-2.36.62-.16-.05-.43-2.18.11-.14,2.43-.5,2.55-.63v-9.63ZM169.79,95.43l-.18.05c-.84-.68-1.73-1.27-2.59-1.66l-.02-.18,1.23-1.55.18-.05c.93.38,1.8.91,2.57,1.43l.04.18-1.23,1.79ZM170.1,91.43l-.18.02c-.73-.8-1.59-1.45-2.47-1.93v-.18l1.39-1.39.18-.02c.88.46,1.64.91,2.48,1.7v.18l-1.41,1.63Z" style="fill: #fff;"/>
            <path d="M186.24,95.52h2.86l2.54-.05.11.09v2l-.11.09-2.54-.05h-2.86v3.27h2.13l-1.3-.54c.61-1.04.88-1.66,1.25-2.57l.16-.09,2.22.8.05.2c-.48.86-.98,1.61-1.45,2.2h1.38l2.36-.05.11.09v2.02l-.11.09-2.36-.05h-11.19l-2.34.05-.12-.11v-1.98l.11-.11,2.36.05h1.14c-.23-.62-.59-1.48-1.04-2.21l.05-.16,1.88-.7.2.07c.45.61.88,1.45,1.2,2.16l-.05.18-1.66.66h2.5v-3.27h-2.73l-2.52.05-.12-.11v-1.96l.11-.11,2.54.05h2.73v-1.25h-.57l-1.98.05-.12-.11v-.82c-.75.52-1.54,1.02-2.38,1.48-.14.07-.25.11-.34.11-.11,0-.2-.05-.3-.16l-1.61-1.61c3.36-1.63,5.75-3.63,7.47-6.63l.2-.05,2.54.68.05.18c-.09.14-.18.29-.29.43,1.97,2.04,4.36,3.73,7.5,4.77l-1.55,1.8c-.2.23-.36.34-.52.34-.09,0-.18-.04-.29-.09-.82-.45-1.63-.91-2.43-1.41v1l-.11.09-2-.05h-.73v1.25ZM187.6,92.19c-.96-.73-1.82-1.55-2.63-2.46-.71.89-1.54,1.73-2.41,2.46l.57.02h3.84l.63-.02Z" style="fill: #fff;"/>
          </g>
        </g>
      </g>
      <g>
        <g>
          <path d="M357.41,137.92c.72-3.42,3.54-6.03,8.25-6.03,4.29,0,7.47,2.07,7.47,5.91,0,1.89-1.23,4.26-4.59,5.19,3.36.6,5.46,2.55,5.46,6.15,0,3.93-3.24,6.9-8.58,6.9-4.5,0-7.26-1.71-8.88-5.55l5.4-2.04c.24,2.22,1.32,3.81,3.33,3.81s2.67-1.44,2.67-2.94c0-2.4-1.77-3.45-4.11-3.45h-2.07l.93-4.35h1.5c2.07,0,3.42-1.35,3.42-3.3,0-1.77-1.2-2.64-2.52-2.64-1.5,0-2.46.99-2.91,3.42l-4.77-1.08Z"/>
          <path d="M390.86,135.51c-.03,1.47-.09,2.97-.24,4.44h6.06l5.22-.09.24.21c-.09,4.71-.21,8.55-.63,12.24-.45,3.9-2.61,5.52-6.06,5.52h-2.01c-.51,0-.69-.18-.87-.57l-1.77-3.99c1.62.09,2.61.09,3.75.06,1.56-.03,2.28-.6,2.52-2.97.24-2.49.3-4.74.33-6.69h-7.17c-.48,3.03-1.17,5.22-2.13,6.9-1.92,3.33-3.72,5.28-7.08,7.29-.15.09-.27.15-.36.15-.12,0-.21-.06-.33-.18l-3.24-2.91c3.51-1.8,5.46-3.87,6.81-6.39,1.32-2.43,2.01-5.85,2.25-13.02h-3.45l-4.98.09-.21-.21v-3.6l.21-.21,4.98.09h17.67l4.95-.09.21.21v3.6l-.21.21-4.95-.09h-9.51Z"/>
          <path d="M415.4,146.1v12.06h-4.47l.15-9.45v-12.81l-.09-4.02.21-.21,5.07.09h13.62l5.07-.09.21.21-.09,4.02v9.81l.12,8.4c0,2.61-.9,3.78-4.5,3.78h-1.98c-.6,0-.66-.06-.78-.36l-1.38-3.78c.87,0,2.73-.03,3.51-.09.45-.03.54-.24.54-.96v-6.6h-15.21ZM420.77,135.48h-5.37v6.9h5.37v-6.9ZM430.61,142.38v-6.9h-5.52v6.9h5.52Z"/>
          <path d="M445.79,145.83l-.21-.21v-1.56c-.66.69-1.32,1.35-2.04,2.01-.12.12-.21.18-.3.18-.15,0-.27-.12-.45-.33l-2.79-2.94c3.84-2.85,6.42-6.69,7.98-11.49l.24-.15,3.99,1.35.12.3c-1.26,3.51-2.85,6.36-4.86,8.91l2.79.03h8.85l2.7-.03c-2.55-3.15-4.29-6.36-5.7-10.2l.15-.27,3.66-1.2.27.12c1.83,4.41,4.68,8.49,8.82,11.73l-3.03,3.51c-.12.15-.24.24-.36.24-.09,0-.21-.09-.39-.24-.51-.48-.99-.96-1.44-1.47-.03,4.68-.15,7.32-.48,9.6-.45,3.09-1.62,4.32-6.9,4.32-.57,0-.66-.09-.81-.48l-1.47-3.93c1.5.03,2.1.03,2.88,0,1.08-.03,1.59-.27,1.77-1.44.3-1.92.33-4.35.3-6.42h-4.2c-.78,6.24-3.48,10.38-10.56,12.42-.3.09-.54,0-.72-.24l-2.31-3.09c6.03-1.62,8.22-3.75,8.94-9.09l-4.44.06Z"/>
          <path d="M495.98,140.04l3.99-.09.18.15v3.27l-.18.15-3.99-.09v4.11l3.72-.06.18.15v3.24l-.18.18-4.47-.12h-18.09l-4.44.12-.21-.21v-3.18l.18-.18,3.42.06v-4.11l-3.99.09-.21-.21v-3.15l.18-.21,4.02.09v-2.31c-.57.54-1.11,1.02-1.65,1.44-.15.15-.27.21-.39.21-.15,0-.27-.15-.45-.33l-2.19-2.43c2.58-1.89,4.68-4.14,6.15-6.78l.27-.06,3.36,1.2.09.3c-.33.57-.69,1.14-1.11,1.71h14.61l4.47-.09.18.18v3.21l-.18.15-3.27-.06v3.66ZM472.46,156.66l-.12-.27c1.26-1.62,2.07-3.24,2.82-5.04l.24-.09,3.27,1.17.03.33c-.6,1.98-1.62,4.08-2.76,5.67l-.33.06-3.15-1.83ZM481.58,158.25l-.3-.12c-.3-1.89-.87-3.9-1.47-5.43l.18-.24,3.27-.81.3.18c.81,1.56,1.47,3.72,1.77,5.25l-.15.27-3.6.9ZM479.96,136.35v3.69h1.62v-3.69h-1.62ZM481.58,147.57v-4.14h-1.62v4.14h1.62ZM485.24,136.35v3.69h1.53v-3.69h-1.53ZM486.77,147.57v-4.14h-1.53v4.14h1.53ZM488.87,158.19l-.3-.09c-.6-1.86-1.44-3.69-2.25-5.1l.12-.27,3.12-1.29.33.12c.99,1.41,1.98,3.42,2.49,4.89l-.09.3-3.42,1.44ZM490.43,136.35v3.69h1.56v-3.69h-1.56ZM491.99,147.57v-4.14h-1.56v4.14h1.56ZM496.85,158.37l-.33-.06c-.93-1.77-2.13-3.54-3.42-5.01l.03-.27,2.94-1.83.3.12c1.56,1.56,2.73,3.03,3.75,4.74l-.06.27-3.21,2.04Z"/>
          <path d="M507.08,142.26l-3.33.09-.21-.18v-3.27l.18-.18,3.36.09h1.2v-8.76l.15-.18h3.51l.18.18v8.76h1.26l2.85-.09.15.15v3.33l-.15.15-2.85-.09h-1.26v2.52l1.23-.9h.3c1.2.96,2.19,2.19,3.15,3.39l-.03.3-2.46,2.01-.3-.03c-.51-.87-1.2-1.86-1.89-2.7v1.44l.21,10.29h-4.23l.3-11.07c-.78,2.16-1.86,4.2-2.85,5.73-.12.18-.27.27-.39.27-.15,0-.3-.12-.42-.33l-1.89-2.91c1.62-2.22,3.3-4.92,4.53-8.01h-.3ZM506.09,132.28l.3.09c.72,1.56,1.17,2.82,1.62,4.53l-.18.27-2.52,1.05-.21-.18c-.48-1.65-.93-3.18-1.53-4.56l.12-.3,2.4-.9ZM516.65,133.08l.12.36c-.42,1.47-.93,2.82-1.59,4.26-.09.21-.18.3-.3.3-.09,0-.21-.03-.33-.09l-2.28-.87c.66-1.92,1.05-3.39,1.35-4.95l.33-.09,2.7,1.08ZM524.9,130.15l.21-.21h3.84l.21.21v15.03l2.01-.57.3.06.63,3.57-.18.24-2.73.66.12,9.45h-4.56l.12-8.34-3.57.9-3.96,1.05-.27-.09-.72-3.66.18-.24,4.08-.84,4.29-1.05v-16.17ZM521.81,144.69l-.3.09c-1.41-1.14-2.91-2.13-4.35-2.79l-.03-.3,2.07-2.61.3-.09c1.56.63,3.03,1.53,4.32,2.4l.06.3-2.07,3ZM522.32,137.97l-.3.03c-1.23-1.35-2.67-2.43-4.14-3.24v-.3l2.34-2.34.3-.03c1.47.78,2.76,1.53,4.17,2.85v.3l-2.37,2.73Z"/>
        </g>
        <g>
          <rect x="327.47" y="80.8" width="233.59" height="30.05"/>
          <g>
            <path d="M392.52,94.07l-2.45.05-.12-.14v-2.29l.16-.11,2.43.05h4.16l-.05-2.7.12-.12h2.55l.14.12.05,2.7h.98l2.55-.05.16.11v2.29l-.12.14-2.61-.05h-.93l.12,6.79c.02,1.34-.46,2.38-3.63,2.47-.45,0-.46-.02-.61-.32l-1.12-2.39c1.09,0,1.71-.02,2.23-.05.18-.02.3-.14.3-.57l-.02-2.63.07-1.34c-1.91,2.43-4.32,4.36-6.32,5.52-.27.16-.39.18-.59.02l-1.86-1.63c2.93-1.72,5.18-3.54,6.95-5.86h-2.57Z" style="fill: #fff;"/>
            <path d="M416.88,90.21c-.21-.3-.36-.68-.36-1.07,0-1,.82-1.82,1.82-1.82s1.8.82,1.8,1.82-.82,1.8-1.8,1.8c-.32,0-.61-.09-.88-.21-.27,3.09-1.27,5.88-3.14,8.24-1.41,1.8-3.43,3.16-6.15,4.36-.16.07-.25.11-.34.11-.11,0-.2-.05-.38-.2l-2.18-1.75c3.05-1.02,5.04-2.25,6.5-4.02,1.14-1.39,1.89-2.91,2.25-4.66h-6.06l-2.73.05-.16-.11v-2.47l.14-.12,2.71.05h8.93ZM417.53,89.14c0,.45.38.8.82.8s.8-.36.8-.8-.36-.82-.8-.82-.82.36-.82.82Z" style="fill: #fff;"/>
            <path d="M421.22,95.84l.96-2.22.16-.07c1.09.55,2.32.93,3.66,1.2l.09.14-.73,2.38-.16.09c-1.43-.25-2.57-.62-3.93-1.36l-.05-.16ZM435.81,94.64c.04.12.05.21.05.29,0,.12-.05.21-.2.38-2.7,3.11-7.24,5.91-11.76,7.59l-.2-.04-1.52-2.41.05-.2c4.89-1.59,9.33-4.34,12.76-8.47l.8,2.86ZM423.06,91.46l1.45-1.93.21-.04c1.18.48,2.27,1.09,3.41,1.91l.04.2-1.48,2.04-.2.04c-1.25-.96-2.13-1.46-3.39-2.04l-.04-.18Z" style="fill: #fff;"/>
            <path d="M446.6,95.73v4.74l.05,1.91-.12.14-2-.05h-4.56l-1.93.05-.12-.14v-1.91l.16-.11,1.75.05h4.38v-1.3h-3.97l-1.91.05-.12-.14v-1.88l.16-.11,1.91.05h3.93v-1.2h-4.14l-2,.05-.12-.14v-1.89l.16-.11,1.93.05h4.47l2.02-.05.14.12-.05,1.8Z" style="fill: #fff;"/>
            <path d="M449.33,92.28l1.73-1.95.18-.04c1.07.54,2.5,1.48,3.63,2.47v.18l-1.86,2.16-.16.02c-1.07-1.04-2.27-1.91-3.5-2.68l-.02-.16ZM463.18,93.77c.05.14.07.25.07.34,0,.12-.05.2-.18.32-3.18,3.5-7.06,6.11-11.78,8.25l-.18-.04-1.61-2.41.04-.18c4.43-1.7,9.01-4.84,12.65-9.09l.98,2.81Z" style="fill: #fff;"/>
            <path d="M466.8,94.77l-1.98.05-.12-.11v-1.95l.11-.11,2,.05h.71v-5.22l.09-.11h2.09l.11.11v5.22h.75l1.7-.05.09.09v1.98l-.09.09-1.7-.05h-.75v1.5l.73-.54h.18c.71.57,1.3,1.3,1.88,2.02l-.02.18-1.46,1.2-.18-.02c-.3-.52-.71-1.11-1.12-1.61v.86l.12,6.13h-2.52l.18-6.59c-.46,1.29-1.11,2.5-1.7,3.41-.07.11-.16.16-.23.16-.09,0-.18-.07-.25-.2l-1.13-1.73c.96-1.32,1.97-2.93,2.7-4.77h-.18ZM466.21,88.82l.18.05c.43.93.7,1.68.96,2.7l-.11.16-1.5.62-.12-.11c-.29-.98-.55-1.89-.91-2.72l.07-.18,1.43-.54ZM472.5,89.3l.07.21c-.25.88-.55,1.68-.95,2.54-.05.12-.11.18-.18.18-.05,0-.12-.02-.2-.05l-1.36-.52c.39-1.14.62-2.02.8-2.95l.2-.05,1.61.64ZM477.41,87.55l.12-.12h2.29l.12.12v8.95l1.2-.34.18.04.38,2.13-.11.14-1.62.39.07,5.63h-2.71l.07-4.97-2.13.54-2.36.62-.16-.05-.43-2.18.11-.14,2.43-.5,2.55-.63v-9.63ZM475.57,96.21l-.18.05c-.84-.68-1.73-1.27-2.59-1.66l-.02-.18,1.23-1.55.18-.05c.93.38,1.8.91,2.57,1.43l.04.18-1.23,1.79ZM475.88,92.21l-.18.02c-.73-.8-1.59-1.45-2.46-1.93v-.18l1.39-1.39.18-.02c.88.46,1.64.91,2.48,1.7v.18l-1.41,1.63Z" style="fill: #fff;"/>
            <path d="M492.02,96.3h2.86l2.54-.05.11.09v2l-.11.09-2.54-.05h-2.86v3.27h2.13l-1.3-.54c.61-1.04.88-1.66,1.25-2.57l.16-.09,2.21.8.05.2c-.48.86-.98,1.61-1.45,2.2h1.38l2.36-.05.11.09v2.02l-.11.09-2.36-.05h-11.19l-2.34.05-.12-.11v-1.98l.11-.11,2.36.05h1.14c-.23-.62-.59-1.48-1.04-2.21l.05-.16,1.88-.7.2.07c.45.61.88,1.45,1.2,2.16l-.05.18-1.66.66h2.5v-3.27h-2.73l-2.52.05-.12-.11v-1.96l.11-.11,2.54.05h2.73v-1.25h-.57l-1.98.05-.12-.11v-.82c-.75.52-1.54,1.02-2.38,1.48-.14.07-.25.11-.34.11-.11,0-.2-.05-.3-.16l-1.61-1.61c3.36-1.63,5.75-3.63,7.47-6.63l.2-.05,2.54.68.05.18c-.09.14-.18.29-.29.43,1.97,2.04,4.36,3.73,7.51,4.77l-1.55,1.8c-.2.23-.36.34-.52.34-.09,0-.18-.04-.29-.09-.82-.45-1.62-.91-2.43-1.41v1l-.11.09-2-.05h-.73v1.25ZM493.38,92.98c-.96-.73-1.82-1.55-2.63-2.46-.71.89-1.54,1.73-2.41,2.46l.57.02h3.84l.63-.02Z" style="fill: #fff;"/>
          </g>
        </g>
      </g>
      <g>
        <path d="M41.34,46.63l-3.05.07-.17-.19v-3.07l.22-.14,2.95.07h1.39v-4.22l.19-.17h3.29l.19.19v4.2h3.41v-4.25l.19-.17h3.36l.19.19v4.22h.89l3.43-.07.22.14v3.07l-.17.19-3.48-.07h-.94c-.17,3.07-.65,5.33-1.68,6.91-1.39,2.23-3.7,3.86-6.26,4.73-.19.05-.31.1-.43.1-.19,0-.31-.07-.5-.24l-2.76-2.23c3.55-.91,5.54-2.14,6.74-4.1.79-1.32,1.08-2.64,1.18-5.16h-3.38v.26l.1,4.25h-3.89l.12-4.3v-.22h-1.34Z"/>
        <path d="M77.44,50.44h-10.73l-3.58.07-.17-.19v-3.43l.22-.14,3.43.07h10.71l3.7-.07.19.17v3.41l-.17.19-3.6-.07Z"/>
        <path d="M91.22,46.36c2.35-1.1,5.18-2.59,7.7-4.42h.22l2.35,2.83-.02.24c-3.02,1.97-6.53,3.6-10.27,4.99v1.63c0,.67.02,1.03.22,1.27.29.34.79.41,1.8.41,2.71,0,4.94-.17,8.21-.53l.19.12.14,3.5-.14.17c-2.54.22-6.07.41-8.23.41-2.33,0-4.18-.22-5.21-1.51-.67-.82-.72-1.99-.72-3.62l.07-11.11.17-.17h3.38l.17.17-.02,5.62ZM99.45,40.43l1.25-.89.24-.02c.89.74,1.73,1.58,2.45,2.54l-.02.24-1.32.94h-.24c-.74-.98-1.42-1.78-2.38-2.59l.02-.22ZM101.7,38.92l1.22-.89.24-.02c.89.74,1.66,1.51,2.38,2.47l-.02.24-1.25.91h-.24c-.74-.98-1.39-1.68-2.35-2.5l.02-.22Z"/>
        <path d="M125.97,56.9c-1.58-2.09-3.53-4.06-5.33-5.69-2.42,2.62-5.06,4.39-8.23,6.02-.24.12-.41.17-.53.17-.14,0-.24-.07-.38-.17l-2.83-2.18c5.52-2.57,10.35-6.19,12.55-11.19h-5.71l-3.58.07-.17-.19v-3.26l.22-.14,3.6.07h6.79l2.45-.12,1.46,1.44c.17.17.26.29.26.43s-.07.31-.22.58c-1.1,2.14-2.21,3.96-3.31,5.54,2.28,1.9,4.08,3.48,6.07,5.74l-.02.26-2.83,2.64-.26-.02Z"/>
        <path d="M140.87,37.67l2.54-.07.17.17-.07,2.54v3.05l.07,2.69-.19.22-2.54-.07h-3.74v13.66h-3.07l.12-8.16v-10.73l-.07-3.19.14-.17,2.57.07h4.08ZM140.58,40.96v-.98h-3.48v.98h3.48ZM137.1,43.89h3.48v-1.01h-3.48v1.01ZM139.98,53.83l-2.09.05-.19-.14v-2.23l.17-.14,2.11.07h.72c.02-.62,0-1.22,0-1.85h-.22l-1.97.05-.19-.14v-2.18l.17-.14,1.99.07h8.09l1.99-.07.17.17v2.16l-.17.14-1.99-.05h-.26v1.85h.89l1.99-.07.17.17v2.21l-.17.14-1.99-.05h-.89l.12,4.9h-3.19l.12-4.9h-1.97c-.12.72-.29,1.34-.55,1.9-.65,1.39-1.66,2.42-3.31,3.24-.1.05-.19.07-.26.07-.14,0-.26-.07-.36-.19l-1.73-1.97c1.49-.6,2.45-1.2,2.95-2.14.14-.26.26-.58.34-.91h-.48ZM143.66,49.58c0,.62,0,1.22-.02,1.85h1.73v-1.85h-1.7ZM147.9,46.19l-2.54.07-.19-.22.07-2.69v-3.05l-.07-2.54.17-.17,2.54.07h4.44l2.57-.07.14.17-.07,3.19v9.07l.12,6.86c0,2.14-1.54,2.78-4.06,2.78-.48,0-.58-.12-.67-.36l-1.03-2.81c.89,0,1.51-.02,2.21-.1.29-.05.34-.14.34-.72v-9.5h-3.96ZM151.87,40.96v-.98h-3.65v.98h3.65ZM148.22,43.89h3.65v-1.01h-3.65v1.01Z"/>
        <path d="M168.71,46.12c-.14,2.28-.5,4.56-1.27,6.7.79.62,1.51,1.25,2.11,1.9l-.02.24-1.94,2.28-.24-.02c-.48-.53-.96-1.01-1.46-1.49-.96,1.3-2.23,2.4-3.84,3.46-.12.07-.22.12-.31.12-.12,0-.22-.07-.31-.19l-1.75-2.11c1.61-.89,2.86-1.9,3.79-3.22-.31-.19-.6-.38-.89-.55l-.22.67-.24.1-2.35-.91-.1-.22c.79-2.78,1.37-5.42,1.85-8.11l-1.44.02-.17-.17v-2.62l.17-.17,1.9.05c.22-1.51.41-3.07.6-4.7l.17-.17,2.81.41.17.17-.65,4.32h.74l2.88-.07.17.17-.1,3.19c.58-.02,1.13-.02,1.68-.05.94-2.64,1.8-5.62,2.38-8.28l.24-.07,3.1.91.1.24c-.62,2.14-1.46,4.58-2.4,7.06,1.37-.07,2.74-.17,4.1-.31-.48-.79-.98-1.58-1.54-2.35l.1-.22,2.26-1.3.24.02c1.49,1.97,2.74,3.94,3.79,6.14l-.07.24-2.57,1.54-.24-.07c-.22-.48-.41-.96-.62-1.42-3.02.46-6.29.86-9.75,1.18l-.22-.1-.62-2.23ZM164.61,44.71c-.36,1.9-.74,3.79-1.25,5.67.5.22.96.48,1.42.74.6-1.7.91-3.79,1.06-6.41h-1.22ZM173.15,59.9h-3.41l.12-4.51v-2.88l-.07-2.98.17-.17,2.95.07h4.99l2.95-.07.17.17-.07,2.95v2.71l.12,4.51h-3.55v-1.3h-4.37v1.49ZM177.52,55.55v-3.26h-4.37v3.26h4.37Z"/>
        <path d="M186.02,43.89l-.17-.14v-2.52l.14-.14,2.78.07h4.56l2.86-.07.14.12v2.57l-.14.12-2.86-.07h-4.56l-2.76.07ZM190,58.29v1.25h-3.07l.12-4.32v-1.13l-.07-2.4.14-.17,2.76.07h2.45l2.98-.07.17.17-.07,2.4v1.27l.12,3.96h-3.17v-1.03h-2.35ZM187.48,40.31l-.17-.14v-2.35l.14-.14,2.5.07h2.52l2.5-.07.14.12v2.4l-.14.12-2.5-.07h-2.52l-2.47.07ZM187.48,47.3l-.17-.14v-2.35l.14-.14,2.5.07h2.52l2.5-.07.14.12v2.4l-.14.12-2.5-.07h-2.52l-2.47.07ZM187.48,50.71l-.17-.14v-2.35l.14-.14,2.5.07h2.52l2.5-.07.14.12v2.4l-.14.12-2.5-.07h-2.52l-2.47.07ZM192.35,54.09h-2.35v1.71h2.35v-1.71ZM200.56,48.5v6.86c0,.94.17.98,2.26.98,2.47,0,2.78-.26,2.93-3.05l3.05,1.01c.24.07.24.17.24.41-.1,2.16-.43,3.19-1.1,3.79-.7.65-1.39,1.03-5.4,1.03-4.7,0-5.35-.41-5.35-3.07l.02-4.34v-3.65l-.05-2.78.14-.17,2.62.07h4.06v-4.78h-4.27l-2.81.05-.17-.19v-2.66l.19-.14,2.9.07h4.32l3.1-.07.19.19-.05,2.95v3.91l.05,3.48-.22.17-2.83-.07h-3.82Z"/>
        <path d="M226.05,37.84c-.1.1-.17.22-.26.31,2.47,2.06,5.47,3.86,9.82,5.14l-1.99,2.64c-.22.31-.38.5-.62.5-.1,0-.19-.02-.34-.1-1.63-.72-3.26-1.66-4.82-2.74v1.18l-.14.12-2.45-.07h-3.05l-2.42.07-.17-.14v-.96c-1.18.84-2.42,1.56-3.72,2.16l3.31.07h8.86l1.68-.12,1.22,1.2c.14.14.26.26.26.48,0,.12-.05.26-.12.48-.5,1.32-1.32,3.07-2.23,4.8l-3.1-1.42c.65-1.13,1.01-1.8,1.34-2.76h-7.92l-3.62.07-.17-.14v-2.45c-.12.05-.26.12-.38.17-.22.1-.36.12-.48.12-.17,0-.26-.07-.38-.19l-2.11-2.45c4.56-1.56,7.87-3.94,10.32-6.98l.26-.07,3.36.82.07.26ZM217.72,53.44l.1.26c-.48,1.73-1.3,3.65-2.23,5.28l-.24.07-2.88-1.3-.05-.24c.84-1.37,1.82-3.46,2.26-4.92l.22-.12,2.83.96ZM221.85,55.82c0,.58.02.62,1.39.62,2.06,0,2.67-.07,3.14-.46.43-.36.53-.6.65-1.78l2.95,1.3c.26.12.31.19.26.48-.14,1.13-.46,1.85-1.13,2.42-.82.72-1.75,1.03-6.24,1.03-3.84,0-4.54-.41-4.54-2.16l.05-1.99v-2.66l.17-.19h3.1l.19.22v3.17ZM223.53,50.03l.24-.02c1.13.77,2.21,1.75,3.07,2.83l-.07.24-2.45,1.85-.24-.07c-.77-1.25-1.8-2.26-2.76-3.1l.05-.24,2.16-1.49ZM226.12,42.33c-.82-.65-1.58-1.34-2.33-2.04-.74.7-1.49,1.39-2.26,2.04l.65.02h3.05l.89-.02ZM231.52,52.15l.26.02c1.25,1.06,2.47,2.4,3.43,3.89l-.07.24-2.62,1.9-.24-.05c-.91-1.66-1.94-3.14-3.12-4.27l.05-.24,2.3-1.49Z"/>
        <path d="M246.47,55.89c0,1.27-1.06,2.3-2.3,2.3s-2.33-1.03-2.33-2.3,1.06-2.33,2.33-2.33,2.3,1.06,2.3,2.33ZM246.04,51.62h-3.77v-12.84h3.77v12.84Z"/>
        <path d="M263.73,52.1c0,.7,0,.98.12,1.25.1.19.62.36,1.7.36,1.7,0,3.07-.05,5.04-.24l.17.14.1,3.29-.14.17c-.98.1-2.71.22-5.64.22-2.71,0-3.82-.34-4.63-1.39-.62-.79-.6-1.78-.6-2.95v-3.14h-2.88l-3.02.07-.17-.19v-3.05l.22-.14,3,.07h2.86v-3.07h-.98l-3.17.07-.17-.19v-3.05l.22-.14,3.05.07h7.87l3.31-.07.19.17v3.02l-.17.19-3.26-.07h-3v3.07h5.52l3.26-.07.19.17v3.02l-.17.19-3.14-.07h-5.66v2.3Z"/>
        <path d="M293.39,55h-12.15l-3.58.07-.17-.19v-3.38l.22-.14,3.43.07h12.12l3.7-.07.19.17v3.36l-.17.19-3.6-.07ZM291.19,45.71h-7.42l-3.46.07-.17-.19v-3.36l.22-.14,3.41.07h7.32l3.22-.07.19.17v3.34l-.17.19-3.14-.07Z"/>
        <path d="M319.41,42.74c.17.19.26.29.26.43,0,.1-.02.22-.12.41-1.13,2.45-2.4,4.63-3.79,6.53.77.65,1.54,1.34,2.28,2.11v.26l-2.33,2.59-.22.02c-.7-.77-1.39-1.46-2.11-2.16-2.18,2.23-4.8,4.08-8.09,5.74-.22.12-.36.17-.46.17-.17,0-.31-.07-.55-.24l-2.81-1.92c3.86-1.66,6.94-3.72,9.24-6.05-.82-.62-1.7-1.25-2.69-1.85v-.24l2.04-2.23.26-.02c.89.53,1.75,1.06,2.57,1.61.84-1.18,1.58-2.47,2.14-3.77l-4.66.02c-1.56,2.16-3.22,4.01-4.9,5.54-.46.34-.58.31-1.01.02l-2.62-1.68c3.19-2.47,6.07-5.95,7.78-9.84l.24-.07,3.26,1.18.05.26c-.26.53-.55,1.03-.84,1.54l3.29-.05,1.97-.14,1.8,1.82Z"/>
        <path d="M339.55,50.44h-10.73l-3.58.07-.17-.19v-3.43l.22-.14,3.43.07h10.71l3.7-.07.19.17v3.41l-.17.19-3.6-.07Z"/>
        <path d="M361.05,40.99l2.76-.5.17.14.5,3-.14.19-2.83.36-2.86.43.5,2.83,3.84-.55,3-.53.22.12.5,3-.12.22-2.88.36-3.96.58.29,1.56,1.13,5.52-3.96.79-.86-5.38-.36-1.92-4.25.62-2.93.53-.22-.1-.6-3.02.14-.22,3.05-.38,4.2-.62-.5-2.83-2.57.38-2.81.5-.24-.12-.58-3,.14-.22,2.93-.36,2.52-.38-.53-2.9.12-.24,3.43-.55.22.17.55,2.95,2.98-.43Z"/>
        <path d="M374.8,50.3l-2.74.84-.24-.07-.79-2.67.07-.19,2.93-.72.82-.22-1.06-3.29.12-.19,2.83-.82.19.1,1.06,3.36,4.39-1.18,1.87-.6,1.94,1.66c.17.14.24.24.24.38,0,.1-.05.22-.12.36-1.08,2.02-1.94,3.29-3.34,4.9-.26.26-.36.26-.65.14l-2.42-1.06c.82-.91,1.49-1.8,2.09-2.76l-3.17.89.67,2.18,1.99,6.07-3.29.98-1.73-5.86-.79-2.52-.89.26Z"/>
        <path d="M391.12,43.48l2.33-2.62.24-.05c1.44.72,3.36,1.99,4.87,3.31v.24l-2.5,2.9-.22.02c-1.44-1.39-3.05-2.57-4.7-3.6l-.02-.22ZM409.72,45.47c.07.19.1.34.1.46,0,.17-.07.26-.24.43-4.27,4.71-9.48,8.21-15.82,11.09l-.24-.05-2.16-3.24.05-.24c5.95-2.28,12.1-6.5,16.99-12.22l1.32,3.77Z"/>
        <path d="M417.09,52.41l-2.81-2.45-.02-.24c2.42-2.47,4.44-4.56,5.5-5.62.91-.91,1.7-1.39,2.35-1.39.82,0,1.68.53,2.81,1.25,3.84,2.47,7.32,4.99,10.8,7.82l.02.26-2.38,2.88-.24.05c-3.19-2.74-6.53-5.42-9.48-7.46-.67-.46-.84-.55-1.15-.55-.29,0-.65.24-1.1.74-1.51,1.7-2.78,3.14-4.08,4.68l-.22.02ZM433.63,42.04c0,1.32-1.1,2.42-2.42,2.42s-2.45-1.1-2.45-2.42,1.1-2.45,2.45-2.45,2.42,1.1,2.42,2.45ZM430.1,42.04c0,.6.5,1.08,1.1,1.08s1.08-.48,1.08-1.08-.48-1.1-1.08-1.1-1.1.48-1.1,1.1Z"/>
        <path d="M454.89,50.44h-10.73l-3.58.07-.17-.19v-3.43l.22-.14,3.43.07h10.71l3.7-.07.19.17v3.41l-.17.19-3.6-.07Z"/>
        <path d="M463.46,43.48l2.33-2.62.24-.05c1.44.72,3.36,1.99,4.87,3.31v.24l-2.5,2.9-.22.02c-1.44-1.39-3.05-2.57-4.7-3.6l-.02-.22ZM482.06,45.47c.07.19.1.34.1.46,0,.17-.07.26-.24.43-4.27,4.71-9.48,8.21-15.82,11.09l-.24-.05-2.16-3.24.05-.24c5.95-2.28,12.1-6.5,16.99-12.22l1.32,3.77Z"/>
        <path d="M492.83,46.05l-3.36.07-.17-.17v-1.25h-2.38l.12-3.02v-.43l-.07-2.02.17-.17,3.98.07h4.54v-2.11l.17-.17h3.22l.17.17v2.11h4.94l3.96-.07.19.17-.07,1.8v.65l.12,3.02h-2.47v1.25l-.17.17-3.38-.07h-3.07c0,.41-.02.79-.02,1.2h2.45l3.74-.07.17.17v2.42l-.17.17-3.74-.07h-2.62c-.05.41-.1.84-.17,1.25h5.83l3.74-.07.17.17v2.47l-.17.17-3.74-.07h-4.46c2.06,1.68,4.82,2.5,8.78,2.93l-1.75,2.69c-.19.29-.38.31-.7.26-4.01-.65-6.84-2.06-9.02-4.58-1.54,2.42-4.46,4.06-8.95,4.71-.36.05-.5.05-.67-.22l-1.7-2.57c4.25-.53,6.86-1.37,8.21-3.22h-3.91l-3.75.07-.17-.17v-2.47l.17-.17,3.75.07h4.94c.07-.41.14-.84.19-1.25h-2.3l-3.74.07-.17-.17v-2.42l.17-.17,3.74.07h2.47c0-.41.02-.79.02-1.2h-3.05ZM502.34,43.53l2.57-.05v-1.68h-14.62v1.68l2.54.05h3.05v-1.1l.17-.17h3.1l.17.17v1.1h3.02Z"/>
        <path d="M531.38,46.1l2.93-.84.17.12c.05,6.12-.05,7.15-.77,8.02-.24.29-.5.48-.86.62l2.5,1.15c.26.12.38.24.34.53-.17,1.3-.41,2.18-1.2,2.83-.89.74-1.94.89-6.58.89s-4.9-.5-4.9-2.59l.07-4.25v-1.46l-.84.24-.17-.05-.58-2.45.1-.19,1.49-.38v-1.92l-.14.17c-.12.14-.22.22-.31.22s-.22-.07-.41-.22l-2.02-1.7c.22-.26.43-.5.62-.77l-2.3-.05h-1.01v1.94h1.8l2.04-.05.14.14c-.05,8.21-.1,11.18-1.13,12.48-.53.67-1.27,1.01-3,1.01-.26,0-.36-.07-.46-.31l-.86-2.54c-.36.96-.82,1.87-1.34,2.78-.07.1-.12.14-.19.14s-.14-.05-.22-.1l-2.14-1.78c1.92-3.5,2.35-6.22,2.35-12.36v-1.34l-1.66.05-.17-.14v-2.74l.14-.14,2.83.07v-3.94l.17-.17h2.76l.17.17v3.94l2.69-.07.14.12v1.87c1.3-1.87,2.11-3.82,2.57-6.05l.22-.1,2.88.91.07.24c-.17.58-.34,1.13-.53,1.68h5.02l3.24-.07.19.17v2.66l-.19.17-3.24-.07h-6.26c-.36.72-.79,1.42-1.22,2.11h1.58l.19.17v2.64l1.2-.34v-3.82l.17-.17h2.54l.14.17v3.07l1.22-.34ZM517.43,48.81c-.14,2.57-.38,5.11-1.27,7.54.38.02.74.02,1.03-.02.41-.05.58-.07.74-.38.31-.67.48-2.83.53-7.13h-1.03ZM530.27,55.48h-3.1l.12-3.89v-1.7l-1.2.34v5.62c0,.62.12.74,1.73.74,2.98,0,3.86-.05,4.25-.38.41-.34.58-.82.67-2.16-.38.14-.86.19-1.49.19-.26,0-.36-.07-.43-.29l-.67-2.11.12,3.65ZM530.15,51.52c.26,0,.6-.02.82-.05.26-.02.36-.1.43-.29.12-.38.17-1.39.14-2.5l-1.39.38v2.45Z"/>
        <path d="M543.88,51.5v1.42h-3.55l.12-5.76v-2.74l-.07-2.88.17-.17,3.58.07h4.37v-4.34l.17-.17h3.22l.17.17v4.34h4.68l3.58-.05.17.17-.05,2.86v2.66l.12,5.64h-3.65v-1.22h-4.85v1.34l.12,7.01h-3.79l.12-7.01v-1.34h-4.61ZM548.49,44.32h-4.61v4.3h4.61v-4.3ZM556.89,48.62v-4.3h-4.85v4.3h4.85Z"/>
      </g>
    </g>
  </g>
</svg>