<?xml version="1.0" encoding="UTF-8"?>
<svg id="Layer_2" xmlns="http://www.w3.org/2000/svg" width="599.36" height="198.23" xmlns:xlink="http://www.w3.org/1999/xlink" viewBox="0 0 599.36 198.23">
  <defs>
    <clipPath id="clippath">
      <rect x="3.5" y="3.5" width="592.36" height="191.23" style="fill: none;"/>
    </clipPath>
  </defs>
  <g id="Layer_1-2" data-name="Layer_1">
    <g>
      <g style="clip-path: url(#clippath);">
        <g>
          <rect x="3.5" y="-22.57" width="592.36" height="243.36" style="fill: #fff24e;"/>
          <polygon points="595.86 139.42 595.86 216.06 593.45 220.79 554.33 220.79 595.86 139.42" style="fill: #ffe148;"/>
          <polygon points="595.86 -1.03 595.86 75.61 521.77 220.79 482.65 220.79 595.86 -1.03" style="fill: #ffe148;"/>
          <polygon points="574.29 -22.57 450.09 220.79 410.97 220.79 535.18 -22.57 574.29 -22.57" style="fill: #ffe148;"/>
          <polygon points="502.61 -22.57 378.41 220.79 339.29 220.79 463.5 -22.57 502.61 -22.57" style="fill: #ffe148;"/>
          <polygon points="430.92 -22.57 306.72 220.79 267.61 220.79 391.82 -22.57 430.92 -22.57" style="fill: #ffe148;"/>
          <polygon points="359.24 -22.57 235.04 220.79 195.93 220.79 320.13 -22.57 359.24 -22.57" style="fill: #ffe148;"/>
          <polygon points="287.56 -22.57 163.36 220.79 124.25 220.79 248.45 -22.57 287.56 -22.57" style="fill: #ffe148;"/>
          <polygon points="215.88 -22.57 91.68 220.79 52.56 220.79 176.77 -22.57 215.88 -22.57" style="fill: #ffe148;"/>
          <polygon points="144.2 -22.57 20 220.79 3.5 220.79 3.5 176.48 105.09 -22.57 144.2 -22.57" style="fill: #ffe148;"/>
          <polygon points="72.52 -22.57 3.5 112.66 3.5 36.03 33.41 -22.57 72.52 -22.57" style="fill: #ffe148;"/>
        </g>
      </g>
      <path d="M599.36,198.23H0V0h599.36v198.23ZM7,191.23h585.36V7H7v184.23Z"/>
      <g>
        <g>
          <path d="M58.15,152.77v3.5h-13.61v-3.5h4.37v-13.58l-4.82,1.82v-3.86l7.2-2.69h2.52v18.31h4.34Z"/>
          <path d="M82.93,149.66l4.54-.08.17.14v3.19l-.17.14-4.54-.08h-5.07l.11,5.96h-4.34l.11-5.96h-8.26l-4.51.08-.2-.17v-3.14l.17-.17,4.54.08h.31v-4.2l-.08-3.02.17-.2,3.22.08h4.68v-3.5h-5.82c-1.12,1.79-2.27,3.3-3.33,4.4-.17.17-.31.22-.48.22-.14,0-.28-.06-.45-.17l-2.77-1.85c3.02-3.11,4.82-5.96,6.05-9.55l.22-.03,3.64,1.37.03.31c-.34.7-.67,1.37-1.04,2.02h12.71l4.26-.08.17.14v3.16l-.17.14-4.26-.08h-4.7v3.5h3.08l4.26-.08.17.14v3l-.17.14-4.26-.08h-3.08v4.23h5.1ZM73.77,145.44h-4.14v4.23h4.14v-4.23Z"/>
          <path d="M99.28,133.17l2.97-.08.2.2-.08,3.19v4.23l.08,3.08-.22.25-2.97-.08h-4.2v15.09h-3.72l.14-9.52v-12.52l-.08-3.72.17-.2,3,.08h4.73ZM98.8,137.29v-1.2h-3.75v1.2h3.75ZM95.05,141.04h3.75v-1.23h-3.75v1.23ZM100.93,156.16v1.6h-3.67l.14-4.17v-5.74l-.08-2.55.2-.2,3.19.08h5.4l3.05-.08.2.2-.08,2.55v5.46l.14,4.17h-3.75v-1.32h-4.73ZM105.66,147.93h-4.73v1.37h4.73v-1.37ZM105.66,151.9h-4.73v1.4h4.73v-1.4ZM107.48,143.95l-2.97.08-.22-.25.08-3.08v-4.23l-.08-3.19.2-.2,2.97.08h5.12l3-.08.17.2-.08,3.72v10.58l.14,8.01c0,2.49-1.57,3.25-4.37,3.25-.56,0-.67-.14-.78-.42l-1.2-3.28c.64,0,1.26-.03,2.07-.11.34-.06.39-.17.39-.84v-10.25h-4.42ZM111.9,137.29v-1.2h-3.92v1.2h3.92ZM107.98,141.04h3.92v-1.23h-3.92v1.23Z"/>
          <path d="M125.54,144.57c1.15-1.09,2.55-1.62,4.34-1.62,4.26,0,7.03,2.6,7.03,6.64,0,4.37-3.08,7.39-7.73,7.39-4.09,0-6.72-1.71-7.95-5.01l4.56-1.57c.36,1.88,1.57,3.14,3.22,3.14,1.88,0,3-1.4,3-3.58,0-2.35-1.12-3.53-3.19-3.53-1.12,0-2.07.5-3.05,1.6l-3.78-1.18.73-12.12h12.96v4.48h-9.8l-.34,5.38Z"/>
          <path d="M158.89,145.6c0,6.8-2.77,11.23-8.23,11.23s-8.29-4.42-8.29-11.23,2.8-11.17,8.29-11.17,8.23,4.42,8.23,11.17ZM153.57,145.6c0-5.26-1.01-7.92-2.91-7.92s-3.02,2.66-3.02,7.92,1.04,7.9,3.02,7.9,2.91-2.6,2.91-7.9Z"/>
          <path d="M168.69,145.91c-3.33,0-4.7-1.85-4.7-5.74s1.37-5.74,4.7-5.74,4.7,1.85,4.7,5.74-1.37,5.74-4.7,5.74ZM183.25,134.43l-15.82,22.4h-1.82l15.82-22.4h1.82ZM168.69,143.67c1.01,0,1.34-.84,1.34-3.5s-.34-3.5-1.34-3.5-1.34.81-1.34,3.5.31,3.5,1.34,3.5ZM184.59,151.09c0,3.89-1.37,5.74-4.7,5.74s-4.7-1.85-4.7-5.74,1.37-5.74,4.7-5.74,4.7,1.85,4.7,5.74ZM181.23,151.09c0-2.69-.34-3.5-1.34-3.5s-1.34.81-1.34,3.5.31,3.5,1.34,3.5,1.34-.84,1.34-3.5Z"/>
          <path d="M195.15,142.75l-3.84.08-.2-.22v-3.58l.25-.17,3.81.08h6.52l-.08-4.23.2-.2h4l.22.2.08,4.23h1.54l4-.08.25.17v3.58l-.2.22-4.09-.08h-1.46l.2,10.64c.03,2.1-.73,3.72-5.68,3.86-.7,0-.73-.03-.95-.5l-1.76-3.75c1.71,0,2.69-.03,3.5-.08.28-.03.48-.22.48-.9l-.03-4.12.11-2.1c-3,3.81-6.78,6.83-9.91,8.65-.42.25-.62.28-.92.03l-2.91-2.55c4.59-2.69,8.12-5.54,10.89-9.18h-4.03Z"/>
          <path d="M216.49,136.28l4.26.08h14.76l.22.2c-.36,5.1-1.93,9.69-4.98,13.52-2.21,2.83-5.38,4.96-9.63,6.83-.25.11-.39.17-.53.17-.17,0-.31-.08-.59-.31l-3.42-2.74c4.79-1.6,7.9-3.53,10.19-6.3,1.79-2.18,2.97-4.56,3.53-7.31h-9.49l-4.28.08-.25-.17v-3.86l.22-.2Z"/>
        </g>
        <rect x="36.93" y="81.48" width="206.66" height="30.05"/>
        <g>
          <path d="M110.4,90.11c-.21-.3-.36-.68-.36-1.07,0-1,.82-1.82,1.82-1.82s1.8.82,1.8,1.82-.82,1.8-1.8,1.8c-.32,0-.61-.09-.88-.21-.27,3.09-1.27,5.88-3.14,8.24-1.41,1.8-3.43,3.16-6.15,4.36-.16.07-.25.11-.34.11-.11,0-.2-.05-.38-.2l-2.18-1.75c3.05-1.02,5.04-2.25,6.5-4.02,1.14-1.39,1.89-2.91,2.25-4.66h-6.06l-2.73.05-.16-.11v-2.47l.14-.12,2.72.05h8.93ZM111.04,89.04c0,.45.38.8.82.8s.8-.36.8-.8-.36-.82-.8-.82-.82.36-.82.82Z" style="fill: #fff;"/>
          <path d="M115.81,95.24v-2.34l.16-.11,2.45.05h6.86l2.5-.05.12.14c-.62,5.67-3.32,8.67-8.29,10.38-.16.05-.29.09-.38.09-.14,0-.25-.05-.41-.2l-2.02-1.68c4.11-1.25,6.79-3.13,7.58-6.2h-5.99l-2.47.05-.12-.14ZM123.83,91.49h-4.13l-2.18.05-.12-.14v-2.3l.16-.11,2.16.05h4.04l2.47-.05.14.12v2.29l-.12.14-2.41-.05Z" style="fill: #fff;"/>
          <path d="M130.67,92.19l1.73-1.95.18-.04c1.07.54,2.5,1.48,3.63,2.47v.18l-1.86,2.16-.16.02c-1.07-1.04-2.27-1.91-3.5-2.68l-.02-.16ZM144.51,93.67c.05.14.07.25.07.34,0,.12-.05.2-.18.32-3.18,3.5-7.06,6.11-11.78,8.25l-.18-.04-1.61-2.41.04-.18c4.43-1.7,9.01-4.84,12.65-9.09l.98,2.81Z" style="fill: #fff;"/>
          <path d="M149.03,94.67l-1.98.05-.12-.11v-1.95l.11-.11,2,.05h.71v-5.22l.09-.11h2.09l.11.11v5.22h.75l1.7-.05.09.09v1.98l-.09.09-1.7-.05h-.75v1.5l.73-.54h.18c.71.57,1.3,1.3,1.88,2.02l-.02.18-1.47,1.2-.18-.02c-.3-.52-.71-1.11-1.12-1.61v.86l.12,6.13h-2.52l.18-6.59c-.46,1.29-1.11,2.5-1.7,3.41-.07.11-.16.16-.23.16-.09,0-.18-.07-.25-.2l-1.13-1.73c.96-1.32,1.97-2.93,2.7-4.77h-.18ZM148.44,88.72l.18.05c.43.93.7,1.68.96,2.7l-.11.16-1.5.62-.12-.11c-.29-.98-.55-1.89-.91-2.72l.07-.18,1.43-.54ZM154.73,89.2l.07.21c-.25.88-.55,1.68-.95,2.54-.05.12-.11.18-.18.18-.05,0-.12-.02-.2-.05l-1.36-.52c.39-1.14.62-2.02.8-2.95l.2-.05,1.61.64ZM159.64,87.45l.12-.12h2.29l.12.12v8.95l1.2-.34.18.04.38,2.13-.11.14-1.63.39.07,5.63h-2.72l.07-4.97-2.13.54-2.36.62-.16-.05-.43-2.18.11-.14,2.43-.5,2.55-.63v-9.63ZM157.8,96.12l-.18.05c-.84-.68-1.73-1.27-2.59-1.66l-.02-.18,1.23-1.55.18-.05c.93.38,1.8.91,2.57,1.43l.04.18-1.23,1.79ZM158.11,92.12l-.18.02c-.73-.8-1.59-1.45-2.47-1.93v-.18l1.39-1.39.18-.02c.88.46,1.64.91,2.48,1.7v.18l-1.41,1.63Z" style="fill: #fff;"/>
          <path d="M175.14,96.21h2.86l2.54-.05.11.09v2l-.11.09-2.54-.05h-2.86v3.27h2.13l-1.3-.54c.61-1.04.88-1.66,1.25-2.57l.16-.09,2.22.8.05.2c-.48.86-.98,1.61-1.45,2.2h1.38l2.36-.05.11.09v2.02l-.11.09-2.36-.05h-11.19l-2.34.05-.12-.11v-1.98l.11-.11,2.36.05h1.14c-.23-.62-.59-1.48-1.04-2.21l.05-.16,1.88-.7.2.07c.45.61.88,1.45,1.2,2.16l-.05.18-1.66.66h2.5v-3.27h-2.73l-2.52.05-.12-.11v-1.96l.11-.11,2.54.05h2.73v-1.25h-.57l-1.98.05-.12-.11v-.82c-.75.52-1.54,1.02-2.38,1.48-.14.07-.25.11-.34.11-.11,0-.2-.05-.3-.16l-1.61-1.61c3.36-1.63,5.75-3.63,7.47-6.63l.2-.05,2.54.68.05.18c-.09.14-.18.29-.29.43,1.97,2.04,4.36,3.73,7.5,4.77l-1.55,1.8c-.2.23-.36.34-.52.34-.09,0-.18-.04-.29-.09-.82-.45-1.63-.91-2.43-1.41v1l-.11.09-2-.05h-.73v1.25ZM176.5,92.88c-.96-.73-1.82-1.55-2.63-2.46-.71.89-1.54,1.73-2.41,2.46l.57.02h3.84l.63-.02Z" style="fill: #fff;"/>
        </g>
      </g>
      <g>
        <g>
          <path d="M279.92,139.78c.67-3.19,3.3-5.63,7.7-5.63,4,0,6.97,1.93,6.97,5.52,0,1.76-1.15,3.98-4.28,4.84,3.14.56,5.1,2.38,5.1,5.74,0,3.67-3.02,6.44-8.01,6.44-4.2,0-6.78-1.6-8.29-5.18l5.04-1.9c.22,2.07,1.23,3.56,3.11,3.56s2.49-1.34,2.49-2.74c0-2.24-1.65-3.22-3.84-3.22h-1.93l.87-4.06h1.4c1.93,0,3.19-1.26,3.19-3.08,0-1.65-1.12-2.46-2.35-2.46-1.4,0-2.3.92-2.72,3.19l-4.45-1.01Z"/>
          <path d="M311.13,137.54c-.03,1.37-.08,2.77-.22,4.14h5.66l4.87-.08.22.2c-.08,4.4-.2,7.98-.59,11.42-.42,3.64-2.44,5.15-5.66,5.15h-1.88c-.48,0-.64-.17-.81-.53l-1.65-3.72c1.51.08,2.44.08,3.5.06,1.46-.03,2.13-.56,2.35-2.77.22-2.32.28-4.42.31-6.24h-6.69c-.45,2.83-1.09,4.87-1.99,6.44-1.79,3.11-3.47,4.93-6.61,6.8-.14.08-.25.14-.34.14-.11,0-.2-.06-.31-.17l-3.02-2.72c3.28-1.68,5.1-3.61,6.36-5.96,1.23-2.27,1.88-5.46,2.1-12.15h-3.22l-4.65.08-.2-.2v-3.36l.2-.2,4.65.08h16.49l4.62-.08.2.2v3.36l-.2.2-4.62-.08h-8.88Z"/>
          <path d="M334.04,147.42v11.26h-4.17l.14-8.82v-11.96l-.08-3.75.2-.2,4.73.08h12.71l4.73-.08.2.2-.08,3.75v9.16l.11,7.84c0,2.44-.84,3.53-4.2,3.53h-1.85c-.56,0-.62-.06-.73-.34l-1.29-3.53c.81,0,2.55-.03,3.28-.08.42-.03.5-.22.5-.9v-6.16h-14.2ZM339.05,137.51h-5.01v6.44h5.01v-6.44ZM348.23,143.95v-6.44h-5.15v6.44h5.15Z"/>
          <path d="M362.4,147.17l-.2-.2v-1.46c-.62.64-1.23,1.26-1.9,1.88-.11.11-.2.17-.28.17-.14,0-.25-.11-.42-.31l-2.6-2.74c3.58-2.66,5.99-6.24,7.45-10.72l.22-.14,3.72,1.26.11.28c-1.18,3.28-2.66,5.94-4.54,8.32l2.6.03h8.26l2.52-.03c-2.38-2.94-4-5.94-5.32-9.52l.14-.25,3.42-1.12.25.11c1.71,4.12,4.37,7.92,8.23,10.95l-2.83,3.28c-.11.14-.22.22-.34.22-.08,0-.2-.08-.36-.22-.48-.45-.92-.9-1.34-1.37-.03,4.37-.14,6.83-.45,8.96-.42,2.88-1.51,4.03-6.44,4.03-.53,0-.62-.08-.76-.45l-1.37-3.67c1.4.03,1.96.03,2.69,0,1.01-.03,1.48-.25,1.65-1.34.28-1.79.31-4.06.28-5.99h-3.92c-.73,5.82-3.25,9.69-9.86,11.59-.28.08-.5,0-.67-.22l-2.16-2.88c5.63-1.51,7.67-3.5,8.34-8.48l-4.14.06Z"/>
          <path d="M409.25,141.77l3.72-.08.17.14v3.05l-.17.14-3.72-.08v3.84l3.47-.06.17.14v3.02l-.17.17-4.17-.11h-16.88l-4.14.11-.2-.2v-2.97l.17-.17,3.19.06v-3.84l-3.72.08-.2-.2v-2.94l.17-.2,3.75.08v-2.16c-.53.5-1.04.95-1.54,1.34-.14.14-.25.2-.36.2-.14,0-.25-.14-.42-.31l-2.04-2.27c2.41-1.76,4.37-3.86,5.74-6.33l.25-.06,3.14,1.12.08.28c-.31.53-.64,1.06-1.04,1.6h13.64l4.17-.08.17.17v3l-.17.14-3.05-.06v3.42ZM387.29,157.28l-.11-.25c1.18-1.51,1.93-3.02,2.63-4.7l.22-.08,3.05,1.09.03.31c-.56,1.85-1.51,3.81-2.58,5.29l-.31.06-2.94-1.71ZM395.81,158.76l-.28-.11c-.28-1.76-.81-3.64-1.37-5.07l.17-.22,3.05-.76.28.17c.76,1.46,1.37,3.47,1.65,4.9l-.14.25-3.36.84ZM394.29,138.32v3.44h1.51v-3.44h-1.51ZM395.81,148.8v-3.86h-1.51v3.86h1.51ZM399.22,138.32v3.44h1.43v-3.44h-1.43ZM400.65,148.8v-3.86h-1.43v3.86h1.43ZM402.61,158.71l-.28-.08c-.56-1.74-1.34-3.44-2.1-4.76l.11-.25,2.91-1.2.31.11c.92,1.32,1.85,3.19,2.32,4.56l-.08.28-3.19,1.34ZM404.07,138.32v3.44h1.46v-3.44h-1.46ZM405.52,148.8v-3.86h-1.46v3.86h1.46ZM410.06,158.88l-.31-.06c-.87-1.65-1.99-3.3-3.19-4.68l.03-.25,2.74-1.71.28.11c1.46,1.46,2.55,2.83,3.5,4.42l-.06.25-3,1.9Z"/>
          <path d="M419.61,143.84l-3.11.08-.2-.17v-3.05l.17-.17,3.14.08h1.12v-8.18l.14-.17h3.28l.17.17v8.18h1.18l2.66-.08.14.14v3.11l-.14.14-2.66-.08h-1.18v2.35l1.15-.84h.28c1.12.9,2.04,2.04,2.94,3.16l-.03.28-2.3,1.88-.28-.03c-.48-.81-1.12-1.74-1.76-2.52v1.34l.2,9.6h-3.95l.28-10.33c-.73,2.02-1.74,3.92-2.66,5.35-.11.17-.25.25-.36.25-.14,0-.28-.11-.39-.31l-1.76-2.72c1.51-2.07,3.08-4.59,4.23-7.48h-.28ZM418.68,134.52l.28.08c.67,1.46,1.09,2.63,1.51,4.23l-.17.25-2.35.98-.2-.17c-.45-1.54-.87-2.97-1.43-4.26l.11-.28,2.24-.84ZM428.54,135.27l.11.34c-.39,1.37-.87,2.63-1.48,3.98-.08.2-.17.28-.28.28-.08,0-.2-.03-.31-.08l-2.13-.81c.62-1.79.98-3.16,1.26-4.62l.31-.08,2.52,1.01ZM436.24,132.53l.2-.2h3.58l.2.2v14.03l1.88-.53.28.06.59,3.33-.17.22-2.55.62.11,8.82h-4.26l.11-7.78-3.33.84-3.7.98-.25-.08-.67-3.42.17-.22,3.81-.78,4-.98v-15.09ZM433.35,146.11l-.28.08c-1.32-1.06-2.72-1.99-4.06-2.6l-.03-.28,1.93-2.44.28-.08c1.46.59,2.83,1.43,4.03,2.24l.06.28-1.93,2.8ZM433.83,139.84l-.28.03c-1.15-1.26-2.49-2.27-3.86-3.02v-.28l2.18-2.18.28-.03c1.37.73,2.58,1.43,3.89,2.66v.28l-2.21,2.55Z"/>
        </g>
        <rect x="257.55" y="81.48" width="206.85" height="30.05"/>
        <g>
          <path d="M306.99,94.76l-2.45.05-.12-.14v-2.29l.16-.11,2.43.05h4.16l-.05-2.7.12-.12h2.56l.14.12.05,2.7h.98l2.56-.05.16.11v2.29l-.12.14-2.61-.05h-.93l.12,6.79c.02,1.34-.46,2.38-3.63,2.47-.45,0-.46-.02-.61-.32l-1.12-2.39c1.09,0,1.71-.02,2.23-.05.18-.02.3-.14.3-.57l-.02-2.63.07-1.34c-1.91,2.43-4.32,4.36-6.33,5.52-.27.16-.39.18-.59.02l-1.86-1.63c2.93-1.72,5.18-3.54,6.95-5.86h-2.57Z" style="fill: #fff;"/>
          <path d="M332.25,90.9c-.21-.3-.36-.68-.36-1.07,0-1,.82-1.82,1.82-1.82s1.8.82,1.8,1.82-.82,1.8-1.8,1.8c-.32,0-.61-.09-.88-.21-.27,3.09-1.27,5.88-3.14,8.24-1.41,1.8-3.43,3.16-6.15,4.36-.16.07-.25.11-.34.11-.11,0-.2-.05-.38-.2l-2.18-1.75c3.06-1.02,5.04-2.25,6.5-4.02,1.14-1.39,1.89-2.91,2.25-4.66h-6.06l-2.73.05-.16-.11v-2.47l.14-.12,2.72.05h8.93ZM332.89,89.83c0,.45.38.8.82.8s.8-.36.8-.8-.36-.82-.8-.82-.82.36-.82.82Z" style="fill: #fff;"/>
          <path d="M337.48,96.53l.96-2.22.16-.07c1.09.55,2.32.93,3.66,1.2l.09.14-.73,2.38-.16.09c-1.43-.25-2.57-.62-3.93-1.36l-.05-.16ZM352.08,95.33c.04.12.05.21.05.29,0,.12-.05.21-.2.38-2.7,3.11-7.24,5.91-11.76,7.59l-.2-.04-1.52-2.41.05-.2c4.9-1.59,9.33-4.34,12.76-8.47l.8,2.86ZM339.32,92.15l1.45-1.93.21-.04c1.18.48,2.27,1.09,3.41,1.91l.04.2-1.48,2.04-.2.04c-1.25-.96-2.13-1.46-3.39-2.04l-.04-.18Z" style="fill: #fff;"/>
          <path d="M363.76,96.42v4.74l.05,1.91-.12.14-2-.05h-4.56l-1.93.05-.12-.14v-1.91l.16-.11,1.75.05h4.38v-1.3h-3.97l-1.91.05-.12-.14v-1.88l.16-.11,1.91.05h3.93v-1.2h-4.14l-2,.05-.12-.14v-1.89l.16-.11,1.93.05h4.47l2.02-.05.14.12-.05,1.8Z" style="fill: #fff;"/>
          <path d="M367.38,92.97l1.73-1.95.18-.04c1.07.54,2.5,1.48,3.63,2.47v.18l-1.86,2.16-.16.02c-1.07-1.04-2.27-1.91-3.5-2.68l-.02-.16ZM381.23,94.46c.05.14.07.25.07.34,0,.12-.05.2-.18.32-3.18,3.5-7.06,6.11-11.78,8.25l-.18-.04-1.61-2.41.04-.18c4.43-1.7,9.01-4.84,12.65-9.09l.98,2.81Z" style="fill: #fff;"/>
          <path d="M385.74,95.46l-1.98.05-.12-.11v-1.95l.11-.11,2,.05h.71v-5.22l.09-.11h2.09l.11.11v5.22h.75l1.7-.05.09.09v1.98l-.09.09-1.7-.05h-.75v1.5l.73-.54h.18c.71.57,1.3,1.3,1.88,2.02l-.02.18-1.47,1.2-.18-.02c-.3-.52-.71-1.11-1.12-1.61v.86l.12,6.13h-2.52l.18-6.59c-.46,1.29-1.11,2.5-1.7,3.41-.07.11-.16.16-.23.16-.09,0-.18-.07-.25-.2l-1.13-1.73c.96-1.32,1.97-2.93,2.7-4.77h-.18ZM385.15,89.51l.18.05c.43.93.7,1.68.96,2.7l-.11.16-1.5.62-.12-.11c-.29-.98-.55-1.89-.91-2.72l.07-.18,1.43-.54ZM391.44,89.99l.07.21c-.25.88-.55,1.68-.95,2.54-.05.12-.11.18-.18.18-.05,0-.12-.02-.2-.05l-1.36-.52c.39-1.14.62-2.02.8-2.95l.2-.05,1.61.64ZM396.35,88.24l.12-.12h2.29l.12.12v8.95l1.2-.34.18.04.38,2.13-.11.14-1.63.39.07,5.63h-2.72l.07-4.97-2.13.54-2.36.62-.16-.05-.43-2.18.11-.14,2.43-.5,2.55-.63v-9.63ZM394.51,96.9l-.18.05c-.84-.68-1.73-1.27-2.59-1.66l-.02-.18,1.23-1.55.18-.05c.93.38,1.8.91,2.57,1.43l.04.18-1.23,1.79ZM394.82,92.9l-.18.02c-.73-.8-1.59-1.45-2.47-1.93v-.18l1.39-1.39.18-.02c.88.46,1.64.91,2.48,1.7v.18l-1.41,1.63Z" style="fill: #fff;"/>
          <path d="M411.86,96.99h2.86l2.54-.05.11.09v2l-.11.09-2.54-.05h-2.86v3.27h2.13l-1.3-.54c.61-1.04.88-1.66,1.25-2.57l.16-.09,2.22.8.05.2c-.48.86-.98,1.61-1.45,2.2h1.38l2.36-.05.11.09v2.02l-.11.09-2.36-.05h-11.19l-2.34.05-.12-.11v-1.98l.11-.11,2.36.05h1.14c-.23-.62-.59-1.48-1.04-2.21l.05-.16,1.88-.7.2.07c.45.61.88,1.45,1.2,2.16l-.05.18-1.66.66h2.5v-3.27h-2.73l-2.52.05-.12-.11v-1.96l.11-.11,2.54.05h2.73v-1.25h-.57l-1.98.05-.12-.11v-.82c-.75.52-1.54,1.02-2.38,1.48-.14.07-.25.11-.34.11-.11,0-.2-.05-.3-.16l-1.61-1.61c3.36-1.63,5.75-3.63,7.47-6.63l.2-.05,2.54.68.05.18c-.09.14-.18.29-.29.43,1.97,2.04,4.36,3.73,7.5,4.77l-1.55,1.8c-.2.23-.36.34-.52.34-.09,0-.18-.04-.29-.09-.82-.45-1.63-.91-2.43-1.41v1l-.11.09-2-.05h-.73v1.25ZM413.22,93.67c-.96-.73-1.82-1.55-2.63-2.46-.71.89-1.54,1.73-2.41,2.46l.57.02h3.84l.63-.02Z" style="fill: #fff;"/>
        </g>
      </g>
      <g>
        <path d="M41.34,46.62l-3.05.07-.17-.19v-3.07l.22-.14,2.95.07h1.39v-4.22l.19-.17h3.29l.19.19v4.2h3.41v-4.25l.19-.17h3.36l.19.19v4.22h.89l3.43-.07.22.14v3.07l-.17.19-3.48-.07h-.94c-.17,3.07-.65,5.33-1.68,6.91-1.39,2.23-3.7,3.86-6.26,4.73-.19.05-.31.1-.43.1-.19,0-.31-.07-.5-.24l-2.76-2.23c3.55-.91,5.54-2.14,6.74-4.1.79-1.32,1.08-2.64,1.18-5.16h-3.38v.26l.1,4.25h-3.89l.12-4.3v-.22h-1.34Z"/>
        <path d="M77.44,50.44h-10.73l-3.58.07-.17-.19v-3.43l.22-.14,3.43.07h10.71l3.7-.07.19.17v3.41l-.17.19-3.6-.07Z"/>
        <path d="M91.22,46.36c2.35-1.1,5.18-2.59,7.7-4.42h.22l2.35,2.83-.02.24c-3.02,1.97-6.53,3.6-10.27,4.99v1.63c0,.67.02,1.03.22,1.27.29.34.79.41,1.8.41,2.71,0,4.94-.17,8.21-.53l.19.12.14,3.5-.14.17c-2.54.22-6.07.41-8.23.41-2.33,0-4.18-.22-5.21-1.51-.67-.82-.72-1.99-.72-3.62l.07-11.11.17-.17h3.38l.17.17-.02,5.62ZM99.45,40.43l1.25-.89.24-.02c.89.74,1.73,1.58,2.45,2.54l-.02.24-1.32.94h-.24c-.74-.98-1.42-1.78-2.38-2.59l.02-.22ZM101.7,38.92l1.22-.89.24-.02c.89.74,1.66,1.51,2.38,2.47l-.02.24-1.25.91h-.24c-.74-.98-1.39-1.68-2.35-2.5l.02-.22Z"/>
        <path d="M125.97,56.9c-1.58-2.09-3.53-4.06-5.33-5.69-2.42,2.62-5.06,4.39-8.23,6.02-.24.12-.41.17-.53.17-.14,0-.24-.07-.38-.17l-2.83-2.18c5.52-2.57,10.35-6.19,12.55-11.19h-5.71l-3.58.07-.17-.19v-3.26l.22-.14,3.6.07h6.79l2.45-.12,1.46,1.44c.17.17.26.29.26.43s-.07.31-.22.58c-1.1,2.14-2.21,3.96-3.31,5.54,2.28,1.9,4.08,3.48,6.07,5.74l-.02.26-2.83,2.64-.26-.02Z"/>
        <path d="M140.87,37.67l2.54-.07.17.17-.07,2.54v3.05l.07,2.69-.19.22-2.54-.07h-3.74v13.66h-3.07l.12-8.16v-10.73l-.07-3.19.14-.17,2.57.07h4.08ZM140.58,40.96v-.98h-3.48v.98h3.48ZM137.1,43.89h3.48v-1.01h-3.48v1.01ZM139.98,53.83l-2.09.05-.19-.14v-2.23l.17-.14,2.11.07h.72c.02-.62,0-1.22,0-1.85h-.22l-1.97.05-.19-.14v-2.18l.17-.14,1.99.07h8.09l1.99-.07.17.17v2.16l-.17.14-1.99-.05h-.26v1.85h.89l1.99-.07.17.17v2.21l-.17.14-1.99-.05h-.89l.12,4.9h-3.19l.12-4.9h-1.97c-.12.72-.29,1.34-.55,1.9-.65,1.39-1.66,2.42-3.31,3.24-.1.05-.19.07-.26.07-.14,0-.26-.07-.36-.19l-1.73-1.97c1.49-.6,2.45-1.2,2.95-2.14.14-.26.26-.58.34-.91h-.48ZM143.66,49.58c0,.62,0,1.22-.02,1.85h1.73v-1.85h-1.7ZM147.9,46.19l-2.54.07-.19-.22.07-2.69v-3.05l-.07-2.54.17-.17,2.54.07h4.44l2.57-.07.14.17-.07,3.19v9.07l.12,6.86c0,2.14-1.54,2.78-4.06,2.78-.48,0-.58-.12-.67-.36l-1.03-2.81c.89,0,1.51-.02,2.21-.1.29-.05.34-.14.34-.72v-9.5h-3.96ZM151.87,40.96v-.98h-3.65v.98h3.65ZM148.22,43.89h3.65v-1.01h-3.65v1.01Z"/>
        <path d="M168.71,46.12c-.14,2.28-.5,4.56-1.27,6.7.79.62,1.51,1.25,2.11,1.9l-.02.24-1.94,2.28-.24-.02c-.48-.53-.96-1.01-1.46-1.49-.96,1.3-2.23,2.4-3.84,3.46-.12.07-.22.12-.31.12-.12,0-.22-.07-.31-.19l-1.75-2.11c1.61-.89,2.86-1.9,3.79-3.22-.31-.19-.6-.38-.89-.55l-.22.67-.24.1-2.35-.91-.1-.22c.79-2.78,1.37-5.42,1.85-8.11l-1.44.02-.17-.17v-2.62l.17-.17,1.9.05c.22-1.51.41-3.07.6-4.7l.17-.17,2.81.41.17.17-.65,4.32h.74l2.88-.07.17.17-.1,3.19c.58-.02,1.13-.02,1.68-.05.94-2.64,1.8-5.62,2.38-8.28l.24-.07,3.1.91.1.24c-.62,2.14-1.46,4.58-2.4,7.06,1.37-.07,2.74-.17,4.1-.31-.48-.79-.98-1.58-1.54-2.35l.1-.22,2.26-1.3.24.02c1.49,1.97,2.74,3.94,3.79,6.14l-.07.24-2.57,1.54-.24-.07c-.22-.48-.41-.96-.62-1.42-3.02.46-6.29.86-9.75,1.18l-.22-.1-.62-2.23ZM164.61,44.7c-.36,1.9-.74,3.79-1.25,5.67.5.22.96.48,1.42.74.6-1.7.91-3.79,1.06-6.41h-1.22ZM173.15,59.9h-3.41l.12-4.51v-2.88l-.07-2.98.17-.17,2.95.07h4.99l2.95-.07.17.17-.07,2.95v2.71l.12,4.51h-3.55v-1.3h-4.37v1.49ZM177.52,55.55v-3.26h-4.37v3.26h4.37Z"/>
        <path d="M186.02,43.89l-.17-.14v-2.52l.14-.14,2.78.07h4.56l2.86-.07.14.12v2.57l-.14.12-2.86-.07h-4.56l-2.76.07ZM190,58.29v1.25h-3.07l.12-4.32v-1.13l-.07-2.4.14-.17,2.76.07h2.45l2.98-.07.17.17-.07,2.4v1.27l.12,3.96h-3.17v-1.03h-2.35ZM187.48,40.31l-.17-.14v-2.35l.14-.14,2.5.07h2.52l2.5-.07.14.12v2.4l-.14.12-2.5-.07h-2.52l-2.47.07ZM187.48,47.3l-.17-.14v-2.35l.14-.14,2.5.07h2.52l2.5-.07.14.12v2.4l-.14.12-2.5-.07h-2.52l-2.47.07ZM187.48,50.71l-.17-.14v-2.35l.14-.14,2.5.07h2.52l2.5-.07.14.12v2.4l-.14.12-2.5-.07h-2.52l-2.47.07ZM192.35,54.09h-2.35v1.71h2.35v-1.71ZM200.56,48.5v6.86c0,.94.17.98,2.26.98,2.47,0,2.78-.26,2.93-3.05l3.05,1.01c.24.07.24.17.24.41-.1,2.16-.43,3.19-1.1,3.79-.7.65-1.39,1.03-5.4,1.03-4.7,0-5.35-.41-5.35-3.07l.02-4.34v-3.65l-.05-2.78.14-.17,2.62.07h4.06v-4.78h-4.27l-2.81.05-.17-.19v-2.66l.19-.14,2.9.07h4.32l3.1-.07.19.19-.05,2.95v3.91l.05,3.48-.22.17-2.83-.07h-3.82Z"/>
        <path d="M226.05,37.84c-.1.1-.17.22-.26.31,2.47,2.06,5.47,3.86,9.82,5.14l-1.99,2.64c-.22.31-.38.5-.62.5-.1,0-.19-.02-.34-.1-1.63-.72-3.26-1.66-4.82-2.74v1.18l-.14.12-2.45-.07h-3.05l-2.42.07-.17-.14v-.96c-1.18.84-2.42,1.56-3.72,2.16l3.31.07h8.86l1.68-.12,1.22,1.2c.14.14.26.26.26.48,0,.12-.05.26-.12.48-.5,1.32-1.32,3.07-2.23,4.8l-3.1-1.42c.65-1.13,1.01-1.8,1.34-2.76h-7.92l-3.62.07-.17-.14v-2.45c-.12.05-.26.12-.38.17-.22.1-.36.12-.48.12-.17,0-.26-.07-.38-.19l-2.11-2.45c4.56-1.56,7.87-3.94,10.32-6.98l.26-.07,3.36.82.07.26ZM217.72,53.44l.1.26c-.48,1.73-1.3,3.65-2.23,5.28l-.24.07-2.88-1.3-.05-.24c.84-1.37,1.82-3.46,2.26-4.92l.22-.12,2.83.96ZM221.85,55.82c0,.58.02.62,1.39.62,2.06,0,2.67-.07,3.14-.46.43-.36.53-.6.65-1.78l2.95,1.3c.26.12.31.19.26.48-.14,1.13-.46,1.85-1.13,2.42-.82.72-1.75,1.03-6.24,1.03-3.84,0-4.54-.41-4.54-2.16l.05-1.99v-2.66l.17-.19h3.1l.19.22v3.17ZM223.53,50.03l.24-.02c1.13.77,2.21,1.75,3.07,2.83l-.07.24-2.45,1.85-.24-.07c-.77-1.25-1.8-2.26-2.76-3.1l.05-.24,2.16-1.49ZM226.12,42.33c-.82-.65-1.58-1.34-2.33-2.04-.74.7-1.49,1.39-2.26,2.04l.65.02h3.05l.89-.02ZM231.52,52.15l.26.02c1.25,1.06,2.47,2.4,3.43,3.89l-.07.24-2.62,1.9-.24-.05c-.91-1.66-1.94-3.14-3.12-4.27l.05-.24,2.3-1.49Z"/>
        <path d="M246.47,55.89c0,1.27-1.06,2.3-2.3,2.3s-2.33-1.03-2.33-2.3,1.06-2.33,2.33-2.33,2.3,1.06,2.3,2.33ZM246.04,51.62h-3.77v-12.84h3.77v12.84Z"/>
        <path d="M263.73,52.1c0,.7,0,.98.12,1.25.1.19.62.36,1.7.36,1.7,0,3.07-.05,5.04-.24l.17.14.1,3.29-.14.17c-.98.1-2.71.22-5.64.22-2.71,0-3.82-.34-4.63-1.39-.62-.79-.6-1.78-.6-2.95v-3.14h-2.88l-3.02.07-.17-.19v-3.05l.22-.14,3,.07h2.86v-3.07h-.98l-3.17.07-.17-.19v-3.05l.22-.14,3.05.07h7.87l3.31-.07.19.17v3.02l-.17.19-3.26-.07h-3v3.07h5.52l3.26-.07.19.17v3.02l-.17.19-3.14-.07h-5.66v2.3Z"/>
        <path d="M293.39,55h-12.15l-3.58.07-.17-.19v-3.38l.22-.14,3.43.07h12.12l3.7-.07.19.17v3.36l-.17.19-3.6-.07ZM291.19,45.71h-7.42l-3.46.07-.17-.19v-3.36l.22-.14,3.41.07h7.32l3.22-.07.19.17v3.34l-.17.19-3.14-.07Z"/>
        <path d="M319.41,42.74c.17.19.26.29.26.43,0,.1-.02.22-.12.41-1.13,2.45-2.4,4.63-3.79,6.53.77.65,1.54,1.34,2.28,2.11v.26l-2.33,2.59-.22.02c-.7-.77-1.39-1.46-2.11-2.16-2.18,2.23-4.8,4.08-8.09,5.74-.22.12-.36.17-.46.17-.17,0-.31-.07-.55-.24l-2.81-1.92c3.86-1.66,6.94-3.72,9.24-6.05-.82-.62-1.7-1.25-2.69-1.85v-.24l2.04-2.23.26-.02c.89.53,1.75,1.06,2.57,1.61.84-1.18,1.58-2.47,2.14-3.77l-4.66.02c-1.56,2.16-3.22,4.01-4.9,5.54-.46.34-.58.31-1.01.02l-2.62-1.68c3.19-2.47,6.07-5.95,7.78-9.84l.24-.07,3.26,1.18.05.26c-.26.53-.55,1.03-.84,1.54l3.29-.05,1.97-.14,1.8,1.82Z"/>
        <path d="M339.55,50.44h-10.73l-3.58.07-.17-.19v-3.43l.22-.14,3.43.07h10.71l3.7-.07.19.17v3.41l-.17.19-3.6-.07Z"/>
        <path d="M361.05,40.98l2.76-.5.17.14.5,3-.14.19-2.83.36-2.86.43.5,2.83,3.84-.55,3-.53.22.12.5,3-.12.22-2.88.36-3.96.58.29,1.56,1.13,5.52-3.96.79-.86-5.38-.36-1.92-4.25.62-2.93.53-.22-.1-.6-3.02.14-.22,3.05-.38,4.2-.62-.5-2.83-2.57.38-2.81.5-.24-.12-.58-3,.14-.22,2.93-.36,2.52-.38-.53-2.9.12-.24,3.43-.55.22.17.55,2.95,2.98-.43Z"/>
        <path d="M374.8,50.3l-2.74.84-.24-.07-.79-2.67.07-.19,2.93-.72.82-.22-1.06-3.29.12-.19,2.83-.82.19.1,1.06,3.36,4.39-1.18,1.87-.6,1.94,1.66c.17.14.24.24.24.38,0,.1-.05.22-.12.36-1.08,2.02-1.94,3.29-3.34,4.9-.26.26-.36.26-.65.14l-2.42-1.06c.82-.91,1.49-1.8,2.09-2.76l-3.17.89.67,2.18,1.99,6.07-3.29.98-1.73-5.86-.79-2.52-.89.26Z"/>
        <path d="M391.12,43.48l2.33-2.62.24-.05c1.44.72,3.36,1.99,4.87,3.31v.24l-2.5,2.9-.22.02c-1.44-1.39-3.05-2.57-4.7-3.6l-.02-.22ZM409.72,45.47c.07.19.1.34.1.46,0,.17-.07.26-.24.43-4.27,4.71-9.48,8.21-15.82,11.09l-.24-.05-2.16-3.24.05-.24c5.95-2.28,12.1-6.5,16.99-12.22l1.32,3.77Z"/>
        <path d="M417.09,52.41l-2.81-2.45-.02-.24c2.42-2.47,4.44-4.56,5.5-5.62.91-.91,1.7-1.39,2.35-1.39.82,0,1.68.53,2.81,1.25,3.84,2.47,7.32,4.99,10.8,7.82l.02.26-2.38,2.88-.24.05c-3.19-2.74-6.53-5.42-9.48-7.46-.67-.46-.84-.55-1.15-.55-.29,0-.65.24-1.1.74-1.51,1.7-2.78,3.14-4.08,4.68l-.22.02ZM433.63,42.04c0,1.32-1.1,2.42-2.42,2.42s-2.45-1.1-2.45-2.42,1.1-2.45,2.45-2.45,2.42,1.1,2.42,2.45ZM430.1,42.04c0,.6.5,1.08,1.1,1.08s1.08-.48,1.08-1.08-.48-1.1-1.08-1.1-1.1.48-1.1,1.1Z"/>
        <path d="M454.89,50.44h-10.73l-3.58.07-.17-.19v-3.43l.22-.14,3.43.07h10.71l3.7-.07.19.17v3.41l-.17.19-3.6-.07Z"/>
        <path d="M463.46,43.48l2.33-2.62.24-.05c1.44.72,3.36,1.99,4.87,3.31v.24l-2.5,2.9-.22.02c-1.44-1.39-3.05-2.57-4.7-3.6l-.02-.22ZM482.06,45.47c.07.19.1.34.1.46,0,.17-.07.26-.24.43-4.27,4.71-9.48,8.21-15.82,11.09l-.24-.05-2.16-3.24.05-.24c5.95-2.28,12.1-6.5,16.99-12.22l1.32,3.77Z"/>
        <path d="M492.83,46.05l-3.36.07-.17-.17v-1.25h-2.38l.12-3.02v-.43l-.07-2.02.17-.17,3.98.07h4.54v-2.11l.17-.17h3.22l.17.17v2.11h4.94l3.96-.07.19.17-.07,1.8v.65l.12,3.02h-2.47v1.25l-.17.17-3.38-.07h-3.07c0,.41-.02.79-.02,1.2h2.45l3.74-.07.17.17v2.42l-.17.17-3.74-.07h-2.62c-.05.41-.1.84-.17,1.25h5.83l3.74-.07.17.17v2.47l-.17.17-3.74-.07h-4.46c2.06,1.68,4.82,2.5,8.78,2.93l-1.75,2.69c-.19.29-.38.31-.7.26-4.01-.65-6.84-2.06-9.02-4.58-1.54,2.42-4.46,4.06-8.95,4.71-.36.05-.5.05-.67-.22l-1.7-2.57c4.25-.53,6.86-1.37,8.21-3.22h-3.91l-3.75.07-.17-.17v-2.47l.17-.17,3.75.07h4.94c.07-.41.14-.84.19-1.25h-2.3l-3.74.07-.17-.17v-2.42l.17-.17,3.74.07h2.47c0-.41.02-.79.02-1.2h-3.05ZM502.34,43.53l2.57-.05v-1.68h-14.62v1.68l2.54.05h3.05v-1.1l.17-.17h3.1l.17.17v1.1h3.02Z"/>
        <path d="M531.38,46.1l2.93-.84.17.12c.05,6.12-.05,7.15-.77,8.02-.24.29-.5.48-.86.62l2.5,1.15c.26.12.38.24.34.53-.17,1.3-.41,2.18-1.2,2.83-.89.74-1.94.89-6.58.89s-4.9-.5-4.9-2.59l.07-4.25v-1.46l-.84.24-.17-.05-.58-2.45.1-.19,1.49-.38v-1.92l-.14.17c-.12.14-.22.22-.31.22s-.22-.07-.41-.22l-2.02-1.7c.22-.26.43-.5.62-.77l-2.3-.05h-1.01v1.94h1.8l2.04-.05.14.14c-.05,8.21-.1,11.18-1.13,12.48-.53.67-1.27,1.01-3,1.01-.26,0-.36-.07-.46-.31l-.86-2.54c-.36.96-.82,1.87-1.34,2.78-.07.1-.12.14-.19.14s-.14-.05-.22-.1l-2.14-1.78c1.92-3.5,2.35-6.22,2.35-12.36v-1.34l-1.66.05-.17-.14v-2.74l.14-.14,2.83.07v-3.94l.17-.17h2.76l.17.17v3.94l2.69-.07.14.12v1.87c1.3-1.87,2.11-3.82,2.57-6.05l.22-.1,2.88.91.07.24c-.17.58-.34,1.13-.53,1.68h5.02l3.24-.07.19.17v2.66l-.19.17-3.24-.07h-6.26c-.36.72-.79,1.42-1.22,2.11h1.58l.19.17v2.64l1.2-.34v-3.82l.17-.17h2.54l.14.17v3.07l1.22-.34ZM517.43,48.81c-.14,2.57-.38,5.11-1.27,7.54.38.02.74.02,1.03-.02.41-.05.58-.07.74-.38.31-.67.48-2.83.53-7.13h-1.03ZM530.27,55.48h-3.1l.12-3.89v-1.7l-1.2.34v5.62c0,.62.12.74,1.73.74,2.98,0,3.86-.05,4.25-.38.41-.34.58-.82.67-2.16-.38.14-.86.19-1.49.19-.26,0-.36-.07-.43-.29l-.67-2.11.12,3.65ZM530.15,51.52c.26,0,.6-.02.82-.05.26-.02.36-.1.43-.29.12-.38.17-1.39.14-2.5l-1.39.38v2.45Z"/>
        <path d="M543.88,51.5v1.42h-3.55l.12-5.76v-2.74l-.07-2.88.17-.17,3.58.07h4.37v-4.34l.17-.17h3.22l.17.17v4.34h4.68l3.58-.05.17.17-.05,2.86v2.66l.12,5.64h-3.65v-1.22h-4.85v1.34l.12,7.01h-3.79l.12-7.01v-1.34h-4.61ZM548.49,44.32h-4.61v4.3h4.61v-4.3ZM556.89,48.62v-4.3h-4.85v4.3h4.85Z"/>
      </g>
      <g>
        <circle cx="519.33" cy="124" r="40.4" style="fill: #ff1364;"/>
        <path d="M514.59,112.77c1.47-1.4,3.26-2.08,5.55-2.08,5.44,0,8.98,3.33,8.98,8.48,0,5.58-3.94,9.45-9.88,9.45-5.22,0-8.59-2.18-10.16-6.41l5.83-2c.46,2.4,2,4.01,4.12,4.01,2.4,0,3.83-1.79,3.83-4.58,0-3.01-1.43-4.51-4.08-4.51-1.43,0-2.65.64-3.9,2.04l-4.83-1.5.93-15.49h16.57v5.73h-12.52l-.43,6.87Z" style="fill: #fff;"/>
        <g>
          <path d="M495.77,143.58c1.88-.48,3.36-1.06,4.55-1.82-.44-.38-.87-.68-1.38-1.01v-.09l.93-.92h.14c.49.27,1.04.61,1.58,1.04.59-.55,1.09-1.16,1.52-1.85h-2.99c-.85,1-1.81,1.79-3,2.48-.05.04-.09.05-.13.05-.07,0-.12-.05-.17-.11l-.91-1.07c1.76-.94,3.18-2.33,4.09-3.93l.12-.04,1.38.45.05.11c-.13.24-.27.46-.41.67h2.4l1.08-.05.68.65s.06.07.06.11c0,.06-.02.12-.07.21-.88,1.75-1.96,3.01-3.32,3.99h2.73l1.46-.04.08.08-.04,1.29v1.21l.06,2.48h-1.81v-.53h-3.81v.61h-1.76l.06-2.62v-.76c-.61.28-1.27.53-1.98.74-.05.01-.08.02-.12.02-.06,0-.11-.04-.17-.12l-.92-1.24ZM504.46,143.79h-3.81v1.75h3.81v-1.75Z" style="fill: #fff;"/>
          <path d="M508.33,140.07l-.08-.07v-1.28l.07-.07,1.27.04v-2.2l.06-.07h1.39l.07.07v2.19l1.01-.02.06.06v1.31l-.06.06-1.01-.02v1.08l.32-.25h.12c.29.28.55.59.8.93v-.45l.08-.07,1.54.04h.94v-.45h-.45l-1.54.04-.08-.07v-1.05l.08-.07,1.54.02h.45v-.45h-.87l-1.6.02-.08-.07v-1.09l.08-.08,1.4.04c-.19-.38-.38-.67-.61-.99v-.12l1.26-.48h.13c.32.38.58.73.81,1.15v.12s-.83.32-.83.32h1.46c.24-.53.44-1.06.61-1.6l.12-.04,1.4.35.07.09c-.19.4-.41.82-.62,1.19h.04l1.54-.04.08.08v1.09l-.08.07-1.54-.02h-1.15v.45h.53l1.54-.02.08.07v1.05l-.08.07-1.54-.04h-.53v.45h1.29l1.54-.04.08.07v1.13l-.08.07-1.54-.04h-1.29v.56c.17.22.33.44.51.64.31-.29.6-.62.91-1.01h.12l1.09.92v.12c-.45.38-.8.66-1.19.93.47.41,1.01.79,1.67,1.2l-.89,1.06c-.07.09-.12.13-.18.13-.05,0-.09-.02-.16-.08-.69-.55-1.35-1.22-1.87-1.99l.05,1.26c0,1.02-.32,1.44-1.95,1.44-.24,0-.25-.02-.31-.14l-.61-1.33c.35,0,.71-.02.91-.05.25-.02.32-.09.32-.38v-3.27h-.94l-1.54.04-.08-.07-.59.53h-.12c-.15-.27-.33-.55-.53-.83v1.08l.08,4.37h-1.67l.08-3.98c-.14.4-.31.79-.54,1.21-.04.07-.09.11-.14.11-.06,0-.13-.05-.18-.13l-.72-1.18c.66-.95,1.11-2.07,1.49-3.64l-1.19.04ZM511.54,145.52c.79-.24,2.09-.73,3.08-1.26l.06,1.19c.01.15,0,.16-.2.29-.62.39-1.38.74-2.27,1.17l-.11-.02-.61-1.26.05-.11ZM513.6,144.65h-.11c-.35-.46-.74-.85-1.16-1.17v-.11l.94-.72.13-.02c.49.29.91.68,1.21,1.04v.11l-1.01.87Z" style="fill: #fff;"/>
          <path d="M522.63,142.99l.08,4.61h-1.69l.08-4.61v-4.36l-.04-1.76.08-.08,1.52.04h1.15l.72-.04.55.6c.06.06.08.18.05.38-.21,1.05-.48,1.95-.82,2.98.66,1.05.89,1.69.89,2.72,0,1.26-.75,1.94-1.8,1.94-.18,0-.22-.04-.28-.18l-.42-1.33c.8.01.96-.12.96-.74,0-.46-.11-1.08-.8-2.21-.02-.05-.04-.09-.04-.14s.01-.09.02-.14c.24-.82.45-1.58.58-2.38h-.8v4.72ZM528.69,146.23c0,.21-.05.28-.25.35-.98.35-2.34.72-3.82,1.05l-.11-.06-.47-1.35.06-.11c.45-.07.88-.14,1.32-.22v-7.28l-.04-1.52.08-.07,1.53.04h2.45l1.51-.04.09.09-.04,1.43v2.06l.04,1.68-.11.08-1.38-.04h-.41c.11.44.25.86.42,1.27.39-.35.73-.73,1.04-1.11h.12l1.07.99v.12c-.53.45-1.04.84-1.55,1.17.45.56,1.04,1.02,1.75,1.45l-1.02,1.13c-.09.11-.15.15-.21.15s-.13-.04-.21-.11c-.76-.55-1.39-1.31-1.86-2.14v.98ZM529.43,138.32h-2.46v.72h2.46v-.72ZM526.97,140.29v.76h2.46v-.76h-2.46ZM528.5,144.89c-.39-.78-.66-1.65-.86-2.55h-.67v3.22c.55-.13,1.11-.27,1.63-.46l-.11-.21Z" style="fill: #fff;"/>
          <path d="M537.78,141.22h-.85l-1.54.04-.08-.06v-1.33l.07-.08,1.55.04h3.17l1.52-.04.09.07v1.33l-.06.07-1.55-.04h-.62v1.28h1.22l1.52-.04.09.07v1.38l-.06.07-1.55-.04h-1.22v1.76c.34.01.73.02,1.15.02.87,0,1.94-.02,3.42-.14l-.66,1.58c-.05.11-.08.11-.21.12-.98.05-2.07.05-2.99.04-.76-.01-1.61-.12-2.29-.27-.79-.18-1.51-.59-2.07-1.15-.35.61-.79,1.15-1.34,1.6-.08.07-.14.09-.2.09-.07,0-.13-.02-.2-.08l-1.15-.91c1.55-1.2,2.17-2.61,2.27-4.52l.11-.07,1.46.27.09.09c-.06.72-.2,1.45-.44,2.15.38.39.83.72,1.35.89v-4.21ZM537.6,136.49l.08-.08h1.58l.08.08v1.18h2.61l1.64-.04.09.08-.04.89v.34l.06,1.65h-1.71v-1.52h-6.98v1.52h-1.71l.06-1.53v-.35l-.04-1,.11-.08,1.92.04h2.24v-1.18Z" style="fill: #fff;"/>
        </g>
      </g>
    </g>
  </g>
</svg>