<?xml version="1.0" encoding="UTF-8"?>
<svg id="Layer_2" data-name="Layer 2" xmlns="http://www.w3.org/2000/svg" width="949.85" height="463.64" xmlns:xlink="http://www.w3.org/1999/xlink" viewBox="0 0 949.85 463.64">
  <defs>
    <linearGradient id="linear-gradient" x1="337.65" y1="169.78" x2="399.55" y2="124.27" gradientUnits="userSpaceOnUse">
      <stop offset="0" stop-color="#1454dd"/>
      <stop offset="1" stop-color="#00c3ee"/>
    </linearGradient>
  </defs>
  <g id="Layer_1-2" data-name="Layer 1">
    <g>
      <path d="M0,418.39c0,.94,1.07,1.69,2.41,1.69h945.03c1.33,0,2.41-.75,2.41-1.69s-1.07-1.69-2.41-1.69H2.41c-1.33,0-2.41.75-2.41,1.69Z" style="fill: #2f2e43; stroke-width: 0px;"/>
      <path d="M789.19,420.78H162.66V17.31c0-9.54,7.76-17.31,17.31-17.31h591.91c9.54,0,17.31,7.76,17.31,17.31v403.47Z" style="fill: #2f2e41; stroke-width: 0px;"/>
      <path d="M841.34,463.64H108.95c-2.53,0-4.6-1.57-5.29-4.01-.68-2.43.27-4.86,2.43-6.17l57.09-34.83h626.22l.18.11,54.72,34.77c2.11,1.34,3.03,3.76,2.33,6.17-.7,2.4-2.77,3.96-5.27,3.96h-.02Z" style="fill: #dfdfdf; stroke-width: 0px;"/>
      <rect x="179.09" y="25.72" width="592.95" height="368.63" style="fill: #fff; stroke-width: 0px;"/>
      <polygon points="794.9 441.5 159.09 441.5 190.52 416 764.9 416 794.9 441.5" style="fill: #2f2e41; stroke-width: 0px;"/>
      <polygon points="626.31 458.64 324.83 458.64 336.26 441.5 614.88 441.5 626.31 458.64" style="fill: #2f2e41; stroke-width: 0px;"/>
      <polygon points="838.74 152.18 824.02 157.02 824.02 135.82 837.38 135.82 838.74 152.18" style="fill: #f2a7aa; stroke-width: 0px;"/>
      <circle cx="825.84" cy="127.02" r="14.67" style="fill: #f2a7aa; stroke-width: 0px;"/>
      <path d="M829.87,125.57c-2.46-.07-4.07-2.56-5.02-4.82-.95-2.27-1.94-4.87-4.21-5.81-1.86-.77-5.15,4.4-6.62,3.03-1.53-1.43-.04-8.81,1.59-10.13s3.85-1.58,5.95-1.68c5.11-.24,10.26.18,15.27,1.22,3.1.65,6.29,1.62,8.53,3.86,2.83,2.84,3.56,7.13,3.76,11.14.21,4.1-.03,8.4-2.02,11.98-1.99,3.59-6.17,6.24-10.17,5.32-.4-2.18,0-4.41.16-6.62.15-2.21,0-4.59-1.35-6.35s-4.23-2.45-5.8-.89" style="fill: #36344e; stroke-width: 0px;"/>
      <path d="M847.92,130.65c1.47-1.08,3.22-1.97,5.03-1.75,1.95.24,3.6,1.85,4.1,3.75s-.06,4-1.27,5.55-3,2.58-4.9,3.1c-1.1.3-2.3.42-3.35-.03-1.54-.66-2.37-2.64-1.77-4.2" style="fill: #36344e; stroke-width: 0px;"/>
      <rect x="820.09" y="388" width="13.79" height="19.56" style="fill: #f2a7aa; stroke-width: 0px;"/>
      <path d="M806.66,419.41c-1.45,0-2.74-.04-3.71-.13-3.66-.34-7.16-3.04-8.92-4.62-.79-.71-1.04-1.84-.63-2.82h0c.29-.7.88-1.22,1.61-1.43l9.68-2.77,15.67-10.58.17.31c.07.12,1.6,2.89,2.12,4.76.2.71.14,1.31-.15,1.77-.21.32-.49.5-.73.61.28.3,1.17.9,3.91,1.34,3.99.64,4.84-3.51,4.87-3.68l.03-.14.12-.08c1.9-1.23,3.07-1.78,3.48-1.66.25.08.67.2,1.81,11.49.11.35.91,2.95.37,5.43-.59,2.7-12.39,1.77-14.75,1.56-.07,0-8.9.64-14.96.64h.01Z" style="fill: #36344e; stroke-width: 0px;"/>
      <rect x="865.57" y="374.78" width="13.79" height="19.56" transform="translate(-71.33 519.95) rotate(-31.95)" style="fill: #f2a7aa; stroke-width: 0px;"/>
      <path d="M857.61,416.73c-1.62,0-3.11-.19-4.17-.38-1.04-.18-1.86-1.01-2.03-2.06h0c-.12-.75.1-1.5.61-2.07l6.75-7.47,7.7-17.27.31.17c.12.06,2.89,1.6,4.32,2.92.54.5.81,1.03.8,1.58,0,.38-.15.69-.29.9.4.1,1.47.14,4.03-.94,3.73-1.57,2.25-5.54,2.19-5.71l-.05-.13.06-.13c.97-2.05,1.66-3.14,2.07-3.25.25-.07.68-.18,7.61,8.79.28.24,2.33,2.02,3.19,4.42.93,2.6-9.58,8.06-11.69,9.13-.07.05-11.06,8.04-15.57,10.31-1.79.9-3.91,1.18-5.84,1.18h0Z" style="fill: #36344e; stroke-width: 0px;"/>
      <path d="M844.04,224.38h-38.61l-3.5,35.92,15.33,132.71h19.71l-7.88-76.65,31.97,69.2,17.52-12.26-24.97-64.6s8.92-56.28,1.91-70.3-11.48-14.02-11.48-14.02h0Z" style="fill: #36344e; stroke-width: 0px;"/>
      <polygon points="863.24 226.57 801.92 226.57 820.32 147.3 847.03 147.3 863.24 226.57" style="fill: #1075e2; stroke-width: 0px;"/>
      <path id="uuid-52db3307-ec3e-496d-a5d4-9d1f33ffc652-45-45-44-44-115" d="M786.69,145.73c-.98-4.82.81-9.23,4-9.84s6.56,2.8,7.54,7.63c.42,1.92.35,3.91-.19,5.81l3.88,20.49-10.02,1.58-2.76-20.36c-1.24-1.55-2.08-3.37-2.45-5.31h0Z" style="fill: #f2a7aa; stroke-width: 0px;"/>
      <path d="M846.38,147.3h-23.56l-15.88,31.77-5.99-23.8-13.16,1.4s3.11,46.51,16.73,44.94c13.61-1.57,45.36-43.48,41.87-54.3h-.01Z" style="fill: #1075e2; stroke-width: 0px;"/>
      <path id="uuid-2800d917-a06e-4fc6-b661-0f9df9cadefc-46-46-45-45-116" d="M872.7,268.11c.98,4.82-.81,9.23-4,9.84s-6.56-2.8-7.54-7.63c-.42-1.92-.35-3.91.19-5.81l-3.88-20.49,10.02-1.58,2.76,20.36c1.24,1.55,2.08,3.37,2.45,5.31h0Z" style="fill: #f2a7aa; stroke-width: 0px;"/>
      <path d="M832.95,147.3s13.39-.57,14.08,0c3.65,2.99,25.09,110.66,25.09,110.66h-13.58l-25.6-110.66h0Z" style="fill: #1075e2; stroke-width: 0px;"/>
      <g>
        <path d="M415.93,138.64c-1.68-2.05-4.27-3.09-7.76-3.09-1.87,0-3.55.47-5.05,1.42-1.5.97-2.71,2.35-3.62,4.19-.73-1.91-1.86-3.32-3.37-4.25-1.52-.91-3.46-1.37-5.84-1.37-1.59,0-3.05.35-4.39,1.04-1.34.7-2.46,1.72-3.37,3.05l-.39-3.42h-9.71v28.08h10.28v-14.94c0-1.53.36-2.65,1.09-3.37.71-.7,1.8-1.04,3.25-.95.73.04,1.32.25,1.8.61.48.37.84.91,1.09,1.6.25.7.36,1.58.36,2.67v14.37h10.28v-14.94c0-1.53.37-2.65,1.09-3.37.73-.7,1.82-1.04,3.27-.95.71.04,1.32.25,1.78.61.48.37.84.91,1.09,1.6.25.7.37,1.58.37,2.67v14.37h10.28v-16.06c0-4.34-.84-7.55-2.52-9.6ZM365.85,141.73c-1.14-1.95-2.8-3.46-4.96-4.55-2.18-1.09-4.78-1.63-7.84-1.63-1.98,0-3.78.3-5.39.93-1.62.61-3.03,1.47-4.23,2.6-1.2,1.12-2.2,2.46-3,4l8.96,2.81c.43-.6.95-1.12,1.55-1.58.61-.46,1.39-.67,2.34-.67,1.37,0,2.36.3,2.96.9.61.6,1,1.42,1.14,2.47.04.25.05.53.09.77h-7.17c-3.3,0-5.89.7-7.73,2.11-1.86,1.4-2.77,3.58-2.77,6.49s.91,4.9,2.77,6.37c1.84,1.49,4.43,2.23,7.73,2.23s5.62-1,7.37-2.98c.05-.05.07-.12.13-.18l.11,2.47h9.66v-15.78c0-2.58-.57-4.84-1.71-6.79ZM357.05,155.86c-.37.65-.91,1.16-1.59,1.51-.7.35-1.52.53-2.46.53-.87,0-1.57-.14-2.05-.44-.5-.3-.75-.74-.75-1.3,0-.82.36-1.46,1.09-1.91.71-.44,1.75-.67,3.09-.67h3.25c0,.86-.2,1.61-.57,2.28ZM325.24,124.98v24.99c0,1.28-.21,2.33-.62,3.18-.43.84-1,1.47-1.75,1.88-.75.42-1.61.61-2.61.61-1.32,0-2.43-.44-3.3-1.33-.87-.91-1.53-2.26-1.95-4.11l-9.32,2.81c0,1.12.29,2.39.86,3.76.57,1.39,1.45,2.74,2.64,4.02,1.18,1.3,2.68,2.35,4.5,3.18,1.84.82,3.98,1.23,6.46,1.23s4.62-.3,6.57-.91c1.95-.63,3.59-1.49,4.94-2.62,1.34-1.12,2.37-2.46,3.07-4.02.71-1.54,1.07-3.25,1.07-5.09v-27.57h-10.57Z" style="fill: url(#linear-gradient); stroke-width: 0px;"/>
        <g>
          <path d="M437.29,164.3v-39.31h27.36v9.55h-16.79v5.73h13.14v9.55h-13.14v14.49h-10.57Z" style="fill: #314156; stroke-width: 0px;"/>
          <path d="M477.16,164.98c-3.31,0-5.89-.74-7.74-2.22s-2.77-3.6-2.77-6.38c0-2.92.92-5.08,2.77-6.49s4.43-2.11,7.74-2.11h8.4v5.79h-4.34c-1.33,0-2.36.22-3.08.67s-1.08,1.09-1.08,1.91c0,.56.25.99.74,1.29s1.18.45,2.06.45c.95,0,1.77-.18,2.46-.53.68-.35,1.22-.86,1.6-1.52.38-.65.57-1.41.57-2.27h2.68c0,3.63-.88,6.44-2.63,8.42-1.75,1.98-4.21,2.98-7.37,2.98ZM484.75,164.3l-.29-6.46v-7.3c0-1.31-.08-2.49-.23-3.54-.15-1.05-.53-1.87-1.14-2.47-.61-.6-1.6-.9-2.97-.9-.95,0-1.73.22-2.34.67s-1.12.97-1.54,1.57l-8.97-2.81c.8-1.53,1.8-2.86,3-3.99,1.2-1.12,2.61-1.99,4.23-2.61,1.62-.62,3.42-.93,5.4-.93,3.05,0,5.65.54,7.82,1.63,2.17,1.09,3.83,2.6,4.97,4.55s1.71,4.21,1.71,6.8v15.78h-9.65Z" style="fill: #314156; stroke-width: 0px;"/>
          <path d="M513.94,164.98c-3.12,0-5.9-.63-8.34-1.88-2.44-1.25-4.34-3-5.71-5.22-1.37-2.23-2.06-4.76-2.06-7.61s.68-5.43,2.06-7.64c1.37-2.21,3.26-3.94,5.65-5.2,2.4-1.25,5.16-1.88,8.28-1.88s5.77.77,8.28,2.3c2.51,1.54,4.3,3.76,5.37,6.68l-9.82,3.15c-.31-.75-.87-1.37-1.69-1.85-.82-.49-1.72-.73-2.71-.73s-1.79.22-2.51.65c-.72.43-1.3,1.04-1.71,1.83-.42.79-.63,1.68-.63,2.7s.21,1.9.63,2.67c.42.77,1.01,1.38,1.77,1.83s1.62.67,2.57.67,1.83-.24,2.63-.73c.8-.49,1.37-1.1,1.71-1.85l9.82,3.09c-1.07,2.92-2.85,5.16-5.34,6.71-2.49,1.55-5.25,2.33-8.25,2.33Z" style="fill: #314156; stroke-width: 0px;"/>
          <path d="M528.67,144.64v-8.42h20.45v8.42h-20.45ZM543.41,164.98c-3.54,0-6.17-.82-7.88-2.47-1.71-1.65-2.57-4.01-2.57-7.08v-27.97h10.28v25.22c0,1.05.15,1.8.46,2.25.31.45.82.67,1.54.67.3,0,.68-.09,1.14-.28.46-.19.82-.37,1.08-.56l3.48,7.3c-.88.75-2.02,1.42-3.43,2.02-1.41.6-2.78.9-4.11.9Z" style="fill: #314156; stroke-width: 0px;"/>
          <path d="M568.25,164.98c-3.05,0-5.74-.63-8.08-1.88s-4.18-2.99-5.51-5.2-2-4.75-2-7.64.66-5.43,1.97-7.64c1.31-2.21,3.14-3.94,5.48-5.2,2.34-1.25,5.02-1.88,8.02-1.88s5.74.63,8.08,1.88c2.34,1.25,4.17,2.99,5.48,5.2,1.31,2.21,1.97,4.76,1.97,7.64s-.66,5.43-1.97,7.64c-1.31,2.21-3.13,3.94-5.45,5.2s-4.99,1.88-8,1.88ZM568.25,155.65c.95,0,1.79-.23,2.51-.7.72-.47,1.29-1.1,1.71-1.91.42-.8.63-1.73.63-2.78s-.21-1.97-.63-2.78c-.42-.8-1-1.44-1.74-1.91-.74-.47-1.61-.7-2.6-.7s-1.8.23-2.54.7c-.74.47-1.32,1.1-1.74,1.91-.42.81-.63,1.73-.63,2.78s.21,1.98.63,2.78c.42.81,1.01,1.44,1.77,1.91.76.47,1.64.7,2.63.7Z" style="fill: #314156; stroke-width: 0px;"/>
          <path d="M587.38,164.3v-28.08h10.28v28.08h-10.28ZM595.26,149.98c0-3.03.62-5.58,1.86-7.64,1.24-2.06,2.81-3.61,4.71-4.66,1.9-1.05,3.88-1.57,5.94-1.57v9.88c-1.79,0-3.45.16-5,.48-1.54.32-2.78.8-3.71,1.43-.93.64-1.4,1.4-1.4,2.3l-2.4-.22Z" style="fill: #314156; stroke-width: 0px;"/>
          <path d="M622.33,164.3l-13.71-28.08h11.42l8.51,20.78,3.48,7.3h-9.71ZM619.82,176.21c-1.33,0-2.74-.25-4.23-.76s-2.66-1.04-3.54-1.6l3.83-8.14c.42.34.87.61,1.34.81.48.2.92.31,1.34.31.61,0,1.19-.15,1.74-.45.55-.3.98-.81,1.29-1.52l3.43-7.86,7.71-20.78h11.42l-12.28,29.09c-.88,2.1-1.79,3.97-2.74,5.62-.95,1.65-2.14,2.94-3.57,3.88-1.43.94-3.34,1.4-5.74,1.4Z" style="fill: #314156; stroke-width: 0px;"/>
        </g>
        <g>
          <path d="M312.59,189.69c-1.65-.82-3.44-1.52-5.35-2.11l.87-2.19c.89.27,1.82.59,2.78.97s1.85.77,2.66,1.18l-.96,2.16ZM308.15,193.15c2.06-.29,3.81-.78,5.27-1.47,1.45-.68,2.7-1.63,3.75-2.84,1.05-1.21,1.98-2.76,2.78-4.66l2.21,1.4c-.86,1.98-1.88,3.64-3.07,5-1.19,1.36-2.62,2.45-4.3,3.29-1.68.84-3.67,1.43-5.98,1.78l-.66-2.51ZM313.91,185.23c-1.49-.78-3.22-1.47-5.19-2.07l.89-2.14c1.87.55,3.64,1.26,5.32,2.12l-1.02,2.09ZM319.52,184.21c-.64-1.15-1.23-2.09-1.75-2.83l1.34-.65c.77,1.12,1.36,2.07,1.77,2.83l-1.36.65ZM321.64,183.21c-.64-1.13-1.23-2.08-1.77-2.83l1.34-.67c.69.98,1.27,1.92,1.73,2.83l-1.3.67Z" style="fill: #314156; stroke-width: 0px;"/>
          <path d="M338.99,185.02l.48,1.9c-.27,1.03-.72,1.96-1.34,2.8s-1.46,1.64-2.53,2.41l-1.37-1.63c.81-.52,1.46-1.02,1.96-1.52.5-.5.87-1.02,1.11-1.57l-4.64,1,1.46,7.34-2.07.44-1.44-7.34-3.44.74-.43-2.04,3.48-.72-.59-3,2.05-.39.59,2.97,6.73-1.39Z" style="fill: #314156; stroke-width: 0px;"/>
          <path d="M356.73,195.36c-.21-.6-.45-1.19-.7-1.79-3.61.42-7.67.78-12.19,1.07l-.18-2.3c.38-.01.96-.04,1.75-.09,1.63-3.71,3-7.47,4.1-11.29l2.37.65c-1.19,3.92-2.4,7.4-3.64,10.44,2.15-.14,4.43-.35,6.84-.63-.77-1.6-1.51-2.96-2.21-4.07l2.16-1.02c.71,1.16,1.41,2.42,2.08,3.79.67,1.37,1.28,2.76,1.83,4.18l-2.21,1.05Z" style="fill: #314156; stroke-width: 0px;"/>
          <path d="M375.26,181.9c.02,2.54-.28,4.71-.91,6.5-.63,1.8-1.64,3.28-3.04,4.44-1.4,1.16-3.25,2.02-5.54,2.57l-1.11-2.26c1.87-.43,3.37-1.04,4.51-1.81s1.98-1.74,2.53-2.9.9-2.58,1.03-4.27h-10.62v-2.28h13.15Z" style="fill: #314156; stroke-width: 0px;"/>
          <path d="M380.81,184.78h11.92v1.84c-.36.91-.92,1.78-1.68,2.59-.76.81-1.69,1.54-2.78,2.18l-1.05-1.53v.25c0,1.44-.37,2.65-1.12,3.63s-1.93,1.81-3.53,2.5l-1.12-1.93c.9-.35,1.62-.72,2.14-1.1.52-.38.91-.83,1.15-1.34.24-.51.37-1.15.37-1.89v-2.18h2.12v1.76c.82-.42,1.5-.86,2.03-1.31.53-.45.95-.94,1.26-1.47h-9.69v-2Z" style="fill: #314156; stroke-width: 0px;"/>
          <path d="M410.68,182.86c-.08,2.16-.55,4.11-1.41,5.84-.86,1.73-2.06,3.19-3.62,4.38-1.56,1.19-3.42,2.07-5.59,2.64l-1.12-2.25c2.62-.67,4.66-1.71,6.11-3.12,1.46-1.41,2.43-3.17,2.92-5.29h-5.59c-.52.76-1.1,1.45-1.73,2.08-.63.63-1.42,1.28-2.36,1.96l-1.53-1.91c1.27-.87,2.34-1.85,3.19-2.95.86-1.1,1.55-2.33,2.07-3.69l2.36.63c-.25.62-.51,1.18-.77,1.67h7.07Z" style="fill: #314156; stroke-width: 0px;"/>
          <path d="M426.57,191.29c-1.17-.62-2.39-1.2-3.67-1.75-1.28-.54-2.41-.99-3.38-1.32v7.37h-2.46v-14.66h2.46v4.7c1.11.39,2.4.9,3.88,1.53s2.91,1.29,4.27,1.98l-1.11,2.14Z" style="fill: #314156; stroke-width: 0px;"/>
          <path d="M434.8,189.22h-2.48v-8.04h2.48v8.04ZM434.57,193.23c1.63-.36,2.89-.8,3.78-1.32s1.52-1.19,1.89-2.04.57-1.97.58-3.39l.02-5.41h2.46v5.39c0,1.81-.25,3.31-.75,4.48-.5,1.17-1.31,2.12-2.43,2.86-1.12.74-2.64,1.33-4.55,1.79l-1-2.37Z" style="fill: #314156; stroke-width: 0px;"/>
          <path d="M463.91,189.44h-14.28v-2.46h14.28v2.46Z" style="fill: #314156; stroke-width: 0px;"/>
        </g>
      </g>
      <text transform="translate(359.35 260.23)" style="fill: #000; font-family: IBMPlexSansJP-Bold, &apos;IBM Plex Sans JP&apos;; font-size: 17px; font-weight: 700;"><tspan x="0" y="0" style="letter-spacing: .1em;">個</tspan><tspan x="18.7" y="0" style="letter-spacing: -.14em;">人・</tspan><tspan x="47.94" y="0" style="letter-spacing: .1em;">小規模事業者様</tspan><tspan x="178.84" y="0" style="letter-spacing: .09em;">向</tspan><tspan x="197.37" y="0" style="letter-spacing: .09em;">け</tspan><tspan x="215.98" y="0" style="letter-spacing: .11em;">の</tspan><tspan x="-36.63" y="30" style="letter-spacing: .04em;">サ</tspan><tspan x="-18.96" y="30" style="letter-spacing: .04em;">ブ</tspan><tspan x="-1.23" y="30" style="letter-spacing: 0em;">ス</tspan><tspan x="15.85" y="30" style="letter-spacing: .07em;">ク</tspan><tspan x="33.96" y="30" style="letter-spacing: .09em;">型ホ</tspan><tspan x="71.12" y="30" style="letter-spacing: .03em;">ー</tspan><tspan x="88.63" y="30" style="letter-spacing: .05em;">ム</tspan><tspan x="106.48" y="30" style="letter-spacing: .12em;">ペ</tspan><tspan x="125.44" y="30" style="letter-spacing: .09em;">ー</tspan><tspan x="143.97" y="30" style="letter-spacing: .08em;">ジ</tspan><tspan x="162.32" y="30" style="letter-spacing: .1em;">制</tspan><tspan x="181.02" y="30" style="letter-spacing: .1em;">作サ</tspan><tspan x="218.26" y="30" style="letter-spacing: .06em;">ー</tspan><tspan x="236.24" y="30" style="letter-spacing: 0em;">ビ</tspan><tspan x="253.29" y="30" style="letter-spacing: .06em;">ス</tspan></text>
    </g>
  </g>
</svg>