<?xml version="1.0" encoding="UTF-8"?>
<svg id="Layer_2" data-name="Layer 2" xmlns="http://www.w3.org/2000/svg" width="949.85" height="463.64" xmlns:xlink="http://www.w3.org/1999/xlink" viewBox="0 0 949.85 463.64">
  <defs>
    <linearGradient id="linear-gradient" x1="303.98" y1="221.49" x2="381.35" y2="164.62" gradientUnits="userSpaceOnUse">
      <stop offset="0" stop-color="#1454dd"/>
      <stop offset="1" stop-color="#00c3ee"/>
    </linearGradient>
  </defs>
  <g id="Layer_1-2" data-name="Layer 1">
    <g>
      <path d="M0,418.39c0,.94,1.07,1.69,2.41,1.69h945.03c1.33,0,2.41-.75,2.41-1.69s-1.07-1.69-2.41-1.69H2.41c-1.33,0-2.41.75-2.41,1.69Z" style="fill: #2f2e43; stroke-width: 0px;"/>
      <path d="M789.19,420.78H162.66V17.31c0-9.54,7.76-17.31,17.31-17.31h591.91c9.54,0,17.31,7.76,17.31,17.31v403.47Z" style="fill: #2f2e41; stroke-width: 0px;"/>
      <path d="M841.34,463.64H108.95c-2.53,0-4.6-1.57-5.29-4.01-.68-2.43.27-4.86,2.43-6.17l57.09-34.83h626.22l.18.11,54.72,34.77c2.11,1.34,3.03,3.76,2.33,6.17-.7,2.4-2.77,3.96-5.27,3.96h-.02Z" style="fill: #dfdfdf; stroke-width: 0px;"/>
      <rect x="179.09" y="25.72" width="592.95" height="368.63" style="fill: #fff; stroke-width: 0px;"/>
      <polygon points="794.9 441.5 159.09 441.5 190.52 416 764.9 416 794.9 441.5" style="fill: #2f2e41; stroke-width: 0px;"/>
      <polygon points="626.31 458.64 324.83 458.64 336.26 441.5 614.88 441.5 626.31 458.64" style="fill: #2f2e41; stroke-width: 0px;"/>
      <polygon points="838.74 152.18 824.02 157.02 824.02 135.82 837.38 135.82 838.74 152.18" style="fill: #f2a7aa; stroke-width: 0px;"/>
      <circle cx="825.84" cy="127.02" r="14.67" style="fill: #f2a7aa; stroke-width: 0px;"/>
      <path d="M829.87,125.57c-2.46-.07-4.07-2.56-5.02-4.82-.95-2.27-1.94-4.87-4.21-5.81-1.86-.77-5.15,4.4-6.62,3.03-1.53-1.43-.04-8.81,1.59-10.13s3.85-1.58,5.95-1.68c5.11-.24,10.26.18,15.27,1.22,3.1.65,6.29,1.62,8.53,3.86,2.83,2.84,3.56,7.13,3.76,11.14.21,4.1-.03,8.4-2.02,11.98-1.99,3.59-6.17,6.24-10.17,5.32-.4-2.18,0-4.41.16-6.62.15-2.21,0-4.59-1.35-6.35s-4.23-2.45-5.8-.89" style="fill: #36344e; stroke-width: 0px;"/>
      <path d="M847.92,130.65c1.47-1.08,3.22-1.97,5.03-1.75,1.95.24,3.6,1.85,4.1,3.75s-.06,4-1.27,5.55-3,2.58-4.9,3.1c-1.1.3-2.3.42-3.35-.03-1.54-.66-2.37-2.64-1.77-4.2" style="fill: #36344e; stroke-width: 0px;"/>
      <rect x="820.09" y="388" width="13.79" height="19.56" style="fill: #f2a7aa; stroke-width: 0px;"/>
      <path d="M806.66,419.41c-1.45,0-2.74-.04-3.71-.13-3.66-.34-7.16-3.04-8.92-4.62-.79-.71-1.04-1.84-.63-2.82h0c.29-.7.88-1.22,1.61-1.43l9.68-2.77,15.67-10.58.17.31c.07.12,1.6,2.89,2.12,4.76.2.71.14,1.31-.15,1.77-.21.32-.49.5-.73.61.28.3,1.17.9,3.91,1.34,3.99.64,4.84-3.51,4.87-3.68l.03-.14.12-.08c1.9-1.23,3.07-1.78,3.48-1.66.25.08.67.2,1.81,11.49.11.35.91,2.95.37,5.43-.59,2.7-12.39,1.77-14.75,1.56-.07,0-8.9.64-14.96.64h.01Z" style="fill: #36344e; stroke-width: 0px;"/>
      <rect x="865.57" y="374.78" width="13.79" height="19.56" transform="translate(-71.33 519.95) rotate(-31.95)" style="fill: #f2a7aa; stroke-width: 0px;"/>
      <path d="M857.61,416.73c-1.62,0-3.11-.19-4.17-.38-1.04-.18-1.86-1.01-2.03-2.06h0c-.12-.75.1-1.5.61-2.07l6.75-7.47,7.7-17.27.31.17c.12.06,2.89,1.6,4.32,2.92.54.5.81,1.03.8,1.58,0,.38-.15.69-.29.9.4.1,1.47.14,4.03-.94,3.73-1.57,2.25-5.54,2.19-5.71l-.05-.13.06-.13c.97-2.05,1.66-3.14,2.07-3.25.25-.07.68-.18,7.61,8.79.28.24,2.33,2.02,3.19,4.42.93,2.6-9.58,8.06-11.69,9.13-.07.05-11.06,8.04-15.57,10.31-1.79.9-3.91,1.18-5.84,1.18h0Z" style="fill: #36344e; stroke-width: 0px;"/>
      <path d="M844.04,224.38h-38.61l-3.5,35.92,15.33,132.71h19.71l-7.88-76.65,31.97,69.2,17.52-12.26-24.97-64.6s8.92-56.28,1.91-70.3-11.48-14.02-11.48-14.02h0Z" style="fill: #36344e; stroke-width: 0px;"/>
      <polygon points="863.24 226.57 801.92 226.57 820.32 147.3 847.03 147.3 863.24 226.57" style="fill: #1075e2; stroke-width: 0px;"/>
      <path id="uuid-52db3307-ec3e-496d-a5d4-9d1f33ffc652-45-45-44-44-115" d="M786.69,145.73c-.98-4.82.81-9.23,4-9.84s6.56,2.8,7.54,7.63c.42,1.92.35,3.91-.19,5.81l3.88,20.49-10.02,1.58-2.76-20.36c-1.24-1.55-2.08-3.37-2.45-5.31h0Z" style="fill: #f2a7aa; stroke-width: 0px;"/>
      <path d="M846.38,147.3h-23.56l-15.88,31.77-5.99-23.8-13.16,1.4s3.11,46.51,16.73,44.94c13.61-1.57,45.36-43.48,41.87-54.3h-.01Z" style="fill: #1075e2; stroke-width: 0px;"/>
      <path id="uuid-2800d917-a06e-4fc6-b661-0f9df9cadefc-46-46-45-45-116" d="M872.7,268.11c.98,4.82-.81,9.23-4,9.84s-6.56-2.8-7.54-7.63c-.42-1.92-.35-3.91.19-5.81l-3.88-20.49,10.02-1.58,2.76,20.36c1.24,1.55,2.08,3.37,2.45,5.31h0Z" style="fill: #f2a7aa; stroke-width: 0px;"/>
      <path d="M832.95,147.3s13.39-.57,14.08,0c3.65,2.99,25.09,110.66,25.09,110.66h-13.58l-25.6-110.66h0Z" style="fill: #1075e2; stroke-width: 0px;"/>
      <g>
        <path d="M401.82,182.57c-2.1-2.57-5.33-3.86-9.7-3.86-2.34,0-4.44.59-6.31,1.78-1.87,1.21-3.39,2.94-4.53,5.24-.91-2.39-2.32-4.15-4.22-5.31-1.9-1.14-4.33-1.71-7.29-1.71-1.99,0-3.81.44-5.49,1.29-1.67.88-3.08,2.15-4.22,3.82l-.49-4.28h-12.14v35.1h12.85v-18.67c0-1.91.45-3.31,1.36-4.21.89-.88,2.25-1.29,4.06-1.18.91.04,1.65.31,2.25.77.6.46,1.05,1.14,1.36,2,.31.88.45,1.97.45,3.33v17.97h12.85v-18.67c0-1.91.47-3.31,1.36-4.21.91-.88,2.28-1.29,4.08-1.18.89.04,1.65.31,2.23.77.6.46,1.05,1.14,1.36,2,.31.88.47,1.97.47,3.33v17.97h12.85v-20.07c0-5.42-1.05-9.43-3.15-12ZM339.22,186.43c-1.43-2.44-3.5-4.32-6.2-5.68-2.72-1.36-5.98-2.04-9.79-2.04-2.48,0-4.73.37-6.74,1.16-2.03.77-3.79,1.84-5.29,3.25-1.49,1.4-2.74,3.07-3.75,5l11.2,3.51c.54-.75,1.18-1.4,1.94-1.97.76-.57,1.74-.83,2.92-.83,1.72,0,2.94.37,3.7,1.12.76.75,1.25,1.78,1.43,3.09.04.31.07.66.11.97h-8.97c-4.13,0-7.36.88-9.66,2.63-2.32,1.75-3.46,4.48-3.46,8.12s1.14,6.12,3.46,7.96c2.3,1.86,5.53,2.79,9.66,2.79s7.03-1.25,9.21-3.73c.07-.07.09-.15.16-.22l.13,3.09h12.07v-19.72c0-3.22-.71-6.05-2.14-8.49ZM328.23,204.09c-.47.81-1.14,1.45-1.99,1.89-.87.44-1.9.66-3.08.66-1.09,0-1.96-.18-2.57-.55-.62-.37-.94-.92-.94-1.62,0-1.03.45-1.82,1.36-2.39.89-.55,2.19-.83,3.86-.83h4.06c0,1.07-.25,2.02-.71,2.85ZM288.47,165.5v31.24c0,1.6-.27,2.92-.78,3.97-.54,1.05-1.25,1.84-2.19,2.35-.94.53-2.01.77-3.26.77-1.65,0-3.03-.55-4.13-1.67-1.09-1.14-1.92-2.83-2.43-5.13l-11.64,3.51c0,1.4.36,2.98,1.07,4.69.71,1.73,1.81,3.42,3.3,5.02,1.47,1.62,3.35,2.94,5.62,3.97,2.3,1.03,4.97,1.54,8.08,1.54s5.78-.37,8.21-1.14c2.43-.79,4.48-1.86,6.18-3.27,1.67-1.4,2.97-3.07,3.84-5.02.89-1.93,1.34-4.06,1.34-6.36v-34.46h-13.21Z" style="fill: url(#linear-gradient); stroke-width: 0px;"/>
        <g>
          <path d="M428.52,214.65v-49.14h34.19v11.93h-20.99v7.16h16.42v11.93h-16.42v18.11h-13.21Z" style="fill: #314156; stroke-width: 0px;"/>
          <path d="M478.35,215.49c-4.14,0-7.36-.92-9.67-2.77s-3.46-4.5-3.46-7.97c0-3.65,1.15-6.35,3.46-8.11s5.53-2.63,9.67-2.63h10.49v7.23h-5.43c-1.67,0-2.95.28-3.85.84-.9.56-1.36,1.36-1.36,2.39,0,.7.31,1.24.93,1.62s1.47.56,2.57.56c1.19,0,2.21-.22,3.07-.67.86-.44,1.52-1.08,2-1.89.47-.82.71-1.77.71-2.84h3.35c0,4.54-1.09,8.05-3.28,10.53-2.19,2.48-5.26,3.72-9.21,3.72ZM487.85,214.65l-.36-8.07v-9.13c0-1.64-.1-3.11-.29-4.42-.19-1.31-.67-2.34-1.43-3.09-.76-.75-2-1.12-3.71-1.12-1.19,0-2.17.28-2.93.84s-1.4,1.22-1.93,1.97l-11.21-3.51c1-1.92,2.25-3.58,3.75-4.98,1.5-1.4,3.26-2.49,5.28-3.26,2.02-.77,4.27-1.16,6.75-1.16,3.81,0,7.07.68,9.78,2.04,2.71,1.36,4.78,3.25,6.21,5.69,1.43,2.43,2.14,5.26,2.14,8.49v19.73h-12.06Z" style="fill: #314156; stroke-width: 0px;"/>
          <path d="M524.33,215.49c-3.9,0-7.38-.78-10.42-2.35-3.05-1.57-5.43-3.74-7.14-6.53-1.71-2.78-2.57-5.95-2.57-9.51s.86-6.78,2.57-9.55c1.71-2.76,4.07-4.93,7.07-6.49,3-1.57,6.45-2.35,10.35-2.35s7.21.96,10.35,2.88c3.14,1.92,5.38,4.7,6.71,8.35l-12.28,3.93c-.38-.94-1.08-1.71-2.11-2.32-1.02-.61-2.15-.91-3.39-.91s-2.24.27-3.14.81c-.91.54-1.62,1.3-2.14,2.28-.53.98-.79,2.11-.79,3.37s.26,2.38.79,3.33c.52.96,1.26,1.72,2.21,2.28s2.02.84,3.21.84,2.28-.3,3.28-.91c1-.61,1.71-1.38,2.14-2.32l12.28,3.86c-1.33,3.65-3.56,6.45-6.67,8.39-3.12,1.94-6.56,2.91-10.32,2.91Z" style="fill: #314156; stroke-width: 0px;"/>
          <path d="M542.74,190.08v-10.53h25.56v10.53h-25.56ZM561.16,215.49c-4.43,0-7.71-1.03-9.85-3.09-2.14-2.06-3.21-5.01-3.21-8.85v-34.96h12.85v31.52c0,1.31.19,2.25.57,2.81.38.56,1.02.84,1.93.84.38,0,.86-.12,1.43-.35.57-.23,1.02-.47,1.36-.7l4.35,9.13c-1.09.94-2.52,1.78-4.28,2.53-1.76.75-3.47,1.12-5.14,1.12Z" style="fill: #314156; stroke-width: 0px;"/>
          <path d="M592.21,215.49c-3.81,0-7.17-.78-10.1-2.35s-5.22-3.73-6.89-6.49-2.5-5.94-2.5-9.55.82-6.78,2.46-9.55c1.64-2.76,3.93-4.93,6.85-6.49,2.93-1.57,6.27-2.35,10.03-2.35s7.17.78,10.1,2.35c2.93,1.57,5.21,3.73,6.85,6.49,1.64,2.76,2.46,5.94,2.46,9.55s-.82,6.79-2.46,9.55c-1.64,2.76-3.91,4.93-6.82,6.49s-6.24,2.35-9.99,2.35ZM592.21,203.84c1.19,0,2.24-.29,3.14-.88.9-.58,1.62-1.38,2.14-2.39.52-1.01.79-2.16.79-3.47s-.26-2.47-.79-3.47c-.53-1.01-1.25-1.8-2.18-2.39-.93-.58-2.01-.88-3.25-.88s-2.25.29-3.18.88c-.93.59-1.65,1.38-2.18,2.39-.53,1.01-.79,2.16-.79,3.47s.26,2.47.79,3.47c.52,1.01,1.26,1.8,2.21,2.39.95.59,2.05.88,3.28.88Z" style="fill: #314156; stroke-width: 0px;"/>
          <path d="M616.13,214.65v-35.1h12.85v35.1h-12.85ZM625.98,196.75c0-3.79.77-6.97,2.32-9.55,1.55-2.57,3.51-4.52,5.89-5.83,2.38-1.31,4.85-1.97,7.42-1.97v12.36c-2.24,0-4.32.2-6.25.6-1.93.4-3.47,1-4.64,1.79-1.17.8-1.75,1.76-1.75,2.88l-3-.28Z" style="fill: #314156; stroke-width: 0px;"/>
          <path d="M659.82,214.65l-17.13-35.1h14.28l10.64,25.97,4.35,9.13h-12.14ZM656.67,229.53c-1.67,0-3.43-.32-5.28-.95s-3.33-1.3-4.43-2l4.78-10.18c.52.42,1.08.76,1.68,1.02.59.26,1.15.39,1.68.39.76,0,1.49-.19,2.18-.56.69-.37,1.22-1.01,1.61-1.9l4.28-9.83,9.64-25.97h14.28l-15.35,36.36c-1.09,2.62-2.24,4.96-3.43,7.02-1.19,2.06-2.68,3.67-4.46,4.84-1.78,1.17-4.18,1.76-7.17,1.76Z" style="fill: #314156; stroke-width: 0px;"/>
        </g>
        <g>
          <path d="M272.66,246.38c-2.07-1.02-4.3-1.9-6.69-2.63l1.09-2.74c1.12.34,2.28.74,3.48,1.21s2.31.96,3.32,1.47l-1.2,2.7ZM267.11,250.7c2.57-.37,4.77-.98,6.58-1.83,1.81-.85,3.38-2.04,4.68-3.55,1.31-1.51,2.47-3.46,3.48-5.83l2.77,1.76c-1.07,2.47-2.35,4.56-3.84,6.25-1.49,1.7-3.28,3.07-5.38,4.11-2.1,1.05-4.59,1.79-7.47,2.23l-.83-3.14ZM274.31,240.81c-1.86-.98-4.02-1.84-6.49-2.59l1.12-2.68c2.34.69,4.55,1.57,6.65,2.65l-1.27,2.61ZM281.32,239.54c-.8-1.43-1.53-2.61-2.19-3.53l1.67-.81c.97,1.4,1.7,2.58,2.21,3.53l-1.69.81ZM283.97,238.29c-.8-1.42-1.54-2.6-2.21-3.53l1.67-.83c.86,1.23,1.58,2.41,2.16,3.53l-1.63.83Z" style="fill: #314156; stroke-width: 0px;"/>
          <path d="M305.66,240.55l.6,2.37c-.34,1.29-.9,2.45-1.67,3.5s-1.83,2.05-3.17,3.02l-1.72-2.04c1.01-.64,1.83-1.28,2.45-1.9.62-.62,1.08-1.28,1.38-1.96l-5.8,1.25,1.83,9.17-2.59.55-1.81-9.17-4.31.92-.54-2.55,4.35-.9-.74-3.75,2.57-.48.74,3.71,8.41-1.73Z" style="fill: #314156; stroke-width: 0px;"/>
          <path d="M327.83,253.47c-.27-.75-.56-1.49-.87-2.24-4.51.53-9.59.97-15.24,1.34l-.22-2.87c.48-.01,1.2-.05,2.19-.11,2.04-4.64,3.75-9.34,5.13-14.11l2.97.81c-1.49,4.9-3,9.25-4.55,13.05,2.69-.18,5.54-.44,8.54-.79-.97-2-1.89-3.7-2.77-5.09l2.7-1.27c.89,1.45,1.76,3.03,2.6,4.74.84,1.71,1.6,3.45,2.29,5.22l-2.77,1.32Z" style="fill: #314156; stroke-width: 0px;"/>
          <path d="M350.99,236.64c.03,3.17-.35,5.88-1.14,8.13-.79,2.25-2.06,4.1-3.8,5.55-1.75,1.46-4.06,2.53-6.93,3.21l-1.38-2.83c2.33-.54,4.21-1.29,5.63-2.26s2.48-2.17,3.17-3.62,1.12-3.23,1.28-5.33h-13.27v-2.85h16.44Z" style="fill: #314156; stroke-width: 0px;"/>
          <path d="M357.93,240.24h14.9v2.3c-.45,1.14-1.15,2.22-2.1,3.24-.95,1.02-2.11,1.93-3.48,2.73l-1.32-1.91v.31c0,1.8-.47,3.31-1.41,4.53s-2.41,2.26-4.42,3.13l-1.41-2.41c1.13-.44,2.02-.9,2.68-1.37.65-.47,1.13-1.03,1.44-1.68.3-.64.46-1.43.46-2.37v-2.72h2.65v2.19c1.03-.53,1.87-1.07,2.53-1.63.66-.56,1.19-1.17,1.57-1.83h-12.11v-2.5Z" style="fill: #314156; stroke-width: 0px;"/>
          <path d="M395.27,237.85c-.1,2.71-.69,5.14-1.76,7.31-1.07,2.16-2.58,3.99-4.53,5.47-1.95,1.48-4.28,2.58-6.98,3.3l-1.41-2.81c3.27-.83,5.82-2.13,7.64-3.89,1.82-1.76,3.04-3.97,3.65-6.61h-6.98c-.65.95-1.38,1.82-2.16,2.6-.79.78-1.77,1.6-2.94,2.45l-1.92-2.39c1.59-1.08,2.92-2.31,3.99-3.69,1.07-1.37,1.93-2.91,2.59-4.61l2.95.79c-.31.77-.63,1.47-.96,2.08h8.83Z" style="fill: #314156; stroke-width: 0px;"/>
          <path d="M415.12,248.38c-1.46-.78-2.99-1.5-4.58-2.18-1.6-.68-3.01-1.23-4.23-1.66v9.21h-3.08v-18.32h3.08v5.88c1.38.48,3,1.12,4.85,1.91,1.85.79,3.63,1.62,5.34,2.48l-1.38,2.68Z" style="fill: #314156; stroke-width: 0px;"/>
          <path d="M425.41,245.79h-3.1v-10.05h3.1v10.05ZM425.12,250.81c2.04-.45,3.61-1,4.72-1.65s1.9-1.49,2.36-2.55.71-2.46.72-4.23l.02-6.76h3.08v6.73c0,2.27-.31,4.13-.94,5.59-.63,1.46-1.64,2.66-3.03,3.58-1.4.92-3.3,1.67-5.69,2.24l-1.25-2.96Z" style="fill: #314156; stroke-width: 0px;"/>
          <path d="M461.79,246.08h-17.85v-3.07h17.85v3.07Z" style="fill: #314156; stroke-width: 0px;"/>
        </g>
      </g>
    </g>
  </g>
</svg>