<?xml version="1.0" encoding="UTF-8"?>
<svg xmlns="http://www.w3.org/2000/svg" width="600" height="600" xmlns:xlink="http://www.w3.org/1999/xlink" viewBox="0 0 600 600">
  <defs>
    <clipPath id="clippath">
      <rect width="600" height="600" style="fill: none; stroke-width: 0px;"/>
    </clipPath>
  </defs>
  <g style="isolation: isolate;">
    <g id="Layer_2" data-name="Layer 2">
      <g id="OBJECTS">
        <g style="clip-path: url(#clippath);">
          <g>
            <path d="M463.98,256.09v-5.11c0-2.69-2.18-4.87-4.87-4.87h-5.41c-1.78,0-3.32-1.22-3.74-2.95-.98-4.04-2.54-7.84-4.58-11.33-.89-1.52-.65-3.43.59-4.68l3.52-3.52c1.9-1.9,1.9-4.99,0-6.89l-3.62-3.62c-1.9-1.9-4.99-1.9-6.89,0l-3.39,3.39c-1.26,1.26-3.21,1.49-4.73.56-3.57-2.18-7.5-3.85-11.67-4.9-1.71-.43-2.91-1.97-2.91-3.73v-4.42c0-2.69-2.18-4.87-4.87-4.87h-5.11c-2.69,0-4.87,2.18-4.87,4.87v4.41c0,1.77-1.21,3.31-2.93,3.74-4.22,1.06-8.19,2.76-11.79,4.98-1.53.94-3.5.73-4.77-.54l-2.98-2.98c-1.9-1.9-4.98-1.9-6.89,0l-3.62,3.62c-1.9,1.9-1.9,4.99,0,6.89l5.36,5.36c-2.9,4.28-5.03,9.12-6.2,14.33-.4,1.76-1.95,3.01-3.75,3.01h-4.51c-2.69,0-4.87,2.18-4.87,4.87v5.11c0,2.69,2.18,4.87,4.87,4.87h5.05c1.73,0,3.24,1.15,3.71,2.82,1.12,4.02,2.82,7.81,5,11.25.97,1.53.76,3.52-.52,4.8l-3.62,3.62c-1.9,1.9-1.9,4.98,0,6.89l3.62,3.62c1.9,1.9,4.99,1.9,6.89,0l4.03-4.03c1.23-1.23,3.11-1.48,4.62-.62,3.42,1.93,7.13,3.4,11.06,4.32,1.75.41,2.99,1.96,2.99,3.75v5.68c0,2.69,2.18,4.87,4.87,4.87h5.11c2.69,0,4.87-2.18,4.87-4.87v-6.05c0-1.75,1.17-3.26,2.86-3.72,3.82-1.03,7.43-2.58,10.74-4.57,1.52-.92,3.47-.69,4.73.57l4.16,4.16c1.9,1.9,4.98,1.9,6.89,0l3.62-3.62c1.9-1.9,1.9-4.99,0-6.89l-4.2-4.2c-1.25-1.25-1.48-3.18-.58-4.7,2-3.36,3.54-7.02,4.55-10.9.44-1.7,1.97-2.89,3.73-2.89h5.6c2.69,0,4.87-2.18,4.87-4.87ZM411.55,279.23c-16.56,1.64-30.37-12.17-28.73-28.73,1.21-12.26,11.13-22.17,23.39-23.39,16.56-1.64,30.37,12.17,28.73,28.73-1.21,12.26-11.13,22.17-23.39,23.39Z" style="fill: #fff; stroke-width: 0px;"/>
            <path d="M189.64,327.27v-3.62c0-1.9-1.54-3.44-3.44-3.44h-3.83c-1.26,0-2.35-.86-2.65-2.09-.69-2.85-1.79-5.55-3.24-8.01-.63-1.07-.46-2.43.42-3.31l2.49-2.49c1.34-1.34,1.34-3.52,0-4.87l-2.56-2.56c-1.34-1.34-3.52-1.34-4.87,0l-2.39,2.39c-.89.89-2.27,1.05-3.35.39-2.53-1.54-5.3-2.72-8.25-3.46-1.21-.3-2.06-1.39-2.06-2.64v-3.12c0-1.9-1.54-3.44-3.44-3.44h-3.62c-1.9,0-3.44,1.54-3.44,3.44v3.12c0,1.25-.86,2.34-2.07,2.64-2.98.75-5.79,1.95-8.34,3.52-1.08.67-2.48.52-3.38-.38l-2.11-2.11c-1.34-1.34-3.52-1.34-4.87,0l-2.56,2.56c-1.34,1.34-1.34,3.52,0,4.87l3.79,3.79c-2.05,3.03-3.56,6.45-4.39,10.13-.28,1.24-1.38,2.13-2.65,2.13h-3.19c-1.9,0-3.44,1.54-3.44,3.44v3.62c0,1.9,1.54,3.44,3.44,3.44h3.57c1.22,0,2.29.81,2.62,1.99.79,2.85,1.99,5.52,3.53,7.96.68,1.08.54,2.49-.37,3.39l-2.56,2.56c-1.34,1.34-1.34,3.52,0,4.87l2.56,2.56c1.34,1.34,3.52,1.34,4.87,0l2.85-2.85c.87-.87,2.2-1.04,3.27-.44,2.42,1.36,5.04,2.4,7.82,3.05,1.24.29,2.11,1.38,2.11,2.65v4.02c0,1.9,1.54,3.44,3.44,3.44h3.62c1.9,0,3.44-1.54,3.44-3.44v-4.28c0-1.23.83-2.31,2.02-2.63,2.7-.73,5.25-1.82,7.59-3.23,1.08-.65,2.45-.49,3.34.4l2.94,2.94c1.34,1.34,3.52,1.34,4.87,0l2.56-2.56c1.34-1.34,1.34-3.53,0-4.87l-2.97-2.97c-.88-.88-1.05-2.25-.41-3.33,1.41-2.38,2.51-4.97,3.22-7.71.31-1.2,1.39-2.04,2.64-2.04h3.96c1.9,0,3.44-1.54,3.44-3.44ZM152.56,343.63c-11.71,1.16-21.48-8.6-20.32-20.32.86-8.67,7.87-15.68,16.54-16.54,11.71-1.16,21.48,8.6,20.32,20.32-.86,8.67-7.87,15.68-16.54,16.54Z" style="fill: #fff; opacity: .51; stroke-width: 0px;"/>
            <path d="M510.65,327.72l.67-3.22c.35-1.7-.73-3.36-2.43-3.71l-3.41-.71c-1.12-.23-1.93-1.21-1.97-2.35-.09-2.67-.57-5.28-1.4-7.75-.36-1.07.04-2.25.99-2.87l2.69-1.76c1.45-.95,1.86-2.89.91-4.34l-1.8-2.76c-.95-1.45-2.89-1.86-4.34-.91l-2.58,1.69c-.96.63-2.22.51-3.06-.27-1.97-1.85-4.22-3.41-6.71-4.62-1.02-.5-1.58-1.62-1.34-2.74l.58-2.79c.35-1.7-.73-3.36-2.43-3.71l-3.22-.67c-1.7-.35-3.36.73-3.71,2.43l-.58,2.78c-.23,1.12-1.2,1.92-2.34,1.97-2.8.11-5.52.66-8.09,1.59-1.09.39-2.3,0-2.94-.97l-1.49-2.27c-.95-1.45-2.89-1.86-4.34-.91l-2.76,1.8c-1.45.95-1.86,2.89-.91,4.34l2.68,4.09c-2.39,2.32-4.37,5.09-5.8,8.22-.48,1.06-1.63,1.64-2.76,1.4l-2.84-.59c-1.7-.35-3.36.73-3.71,2.43l-.67,3.22c-.35,1.7.73,3.36,2.43,3.71l3.19.66c1.09.23,1.89,1.15,1.97,2.26.17,2.68.75,5.29,1.67,7.75.41,1.09.02,2.32-.96,2.96l-2.76,1.81c-1.45.95-1.86,2.89-.91,4.34l1.8,2.76c.95,1.45,2.89,1.86,4.34.91l3.07-2.01c.93-.61,2.16-.52,3,.21,1.9,1.67,4.05,3.08,6.41,4.18,1.05.49,1.63,1.63,1.39,2.76l-.75,3.58c-.35,1.7.73,3.36,2.43,3.71l3.22.67c1.7.35,3.36-.73,3.71-2.43l.8-3.81c.23-1.1,1.17-1.9,2.29-1.97,2.55-.15,5.02-.65,7.37-1.47,1.08-.38,2.28.02,2.91.98l2.08,3.17c.95,1.45,2.89,1.86,4.34.91l2.76-1.8c1.45-.95,1.86-2.89.91-4.34l-2.1-3.2c-.62-.95-.51-2.2.26-3.04,1.7-1.86,3.16-3.96,4.31-6.28.5-1.01,1.62-1.56,2.73-1.33l3.53.74c1.7.35,3.36-.73,3.71-2.43ZM474.54,335.41c-10.66-1.15-17.55-11.67-14.34-21.9,2.38-7.57,9.94-12.52,17.83-11.67,10.66,1.15,17.55,11.67,14.34,21.9-2.38,7.57-9.94,12.52-17.83,11.67Z" style="fill: #153159; opacity: .73; stroke-width: 0px;"/>
            <path d="M420.03,164.08c.33-1.24.51-2.54.51-3.88,0-8.28-6.71-14.99-14.99-14.99-6.08,0-11.31,3.62-13.66,8.81-1.96-1.39-4.35-2.21-6.93-2.21-6.56,0-11.89,5.27-12,11.81-4.43,1.39-7.64,5.53-7.64,10.41,0,6.03,4.89,10.91,10.91,10.91h39.33c6.03,0,10.91-4.89,10.91-10.91,0-4.43-2.65-8.24-6.45-9.95Z" style="fill: none; stroke: #e4f6fe; stroke-miterlimit: 10;"/>
            <path d="M143.32,404.14c.33-1.24.51-2.54.51-3.88,0-8.28-6.71-14.99-14.99-14.99-6.08,0-11.31,3.62-13.66,8.81-1.96-1.39-4.35-2.21-6.93-2.21-6.56,0-11.89,5.27-12,11.81-4.43,1.39-7.64,5.53-7.64,10.41,0,6.03,4.89,10.91,10.91,10.91h39.33c6.03,0,10.91-4.89,10.91-10.91,0-4.43-2.65-8.24-6.45-9.95Z" style="fill: none; stroke: #e4f6fe; stroke-miterlimit: 10;"/>
            <g>
              <g>
                <path d="M165.42,253.1h242.5c1.79,0,3.24,1.45,3.24,3.24v156.24h-248.98v-156.24c0-1.79,1.45-3.24,3.24-3.24Z" style="fill: #153159; stroke-width: 0px;"/>
                <path d="M176.93,262.93h219.47c1.79,0,3.24,1.45,3.24,3.24v130.81c0,1.79-1.45,3.24-3.24,3.24h-219.47c-1.79,0-3.24-1.45-3.24-3.24v-130.81c0-1.79,1.45-3.24,3.24-3.24Z" style="fill: #daebf5; stroke-width: 0px;"/>
                <path d="M223.89,400.23h-47.04c-1.74,0-3.16-1.41-3.16-3.16v-130.98c0-1.74,1.41-3.16,3.16-3.16h214.53" style="fill: #eef9ff; stroke-width: 0px;"/>
                <path d="M288.26,257.9c0,.88-.71,1.59-1.59,1.59s-1.59-.71-1.59-1.59.71-1.59,1.59-1.59,1.59.71,1.59,1.59Z" style="fill: #1482dd; stroke-width: 0px;"/>
                <g>
                  <g>
                    <rect x="194.83" y="280.74" width="82.36" height="4.19" style="fill: #153159; stroke-width: 0px;"/>
                    <rect x="194.83" y="303.06" width="82.36" height="4.19" style="fill: #153159; stroke-width: 0px;"/>
                    <rect x="194.83" y="288.18" width="48.03" height="4.19" style="fill: #153159; stroke-width: 0px;"/>
                    <g>
                      <rect x="194.83" y="295.62" width="92.21" height="4.19" style="fill: #153159; stroke-width: 0px;"/>
                      <rect x="288.57" y="295.62" width="14.9" height="4.19" style="fill: #153159; stroke-width: 0px;"/>
                      <rect x="305.83" y="295.62" width="8.07" height="4.19" style="fill: #153159; stroke-width: 0px;"/>
                    </g>
                    <g>
                      <rect x="194.83" y="310.51" width="52.54" height="4.19" style="fill: #153159; stroke-width: 0px;"/>
                      <rect x="248.24" y="310.51" width="8.49" height="4.19" style="fill: #153159; stroke-width: 0px;"/>
                      <rect x="258.07" y="310.51" width="4.6" height="4.19" style="fill: #153159; stroke-width: 0px;"/>
                    </g>
                  </g>
                  <g>
                    <rect x="194.63" y="368.1" width="30.26" height="4.19" style="fill: #153159; stroke-width: 0px;"/>
                    <rect x="194.63" y="375.54" width="17.64" height="4.19" style="fill: #153159; stroke-width: 0px;"/>
                  </g>
                  <g>
                    <rect x="328.93" y="368.47" width="56.52" height="4.19" transform="translate(714.39 741.13) rotate(180)" style="fill: #153159; stroke-width: 0px;"/>
                    <rect x="352.49" y="375.91" width="32.96" height="4.19" transform="translate(737.95 756.01) rotate(180)" style="fill: #153159; stroke-width: 0px;"/>
                    <g>
                      <rect x="322.18" y="383.35" width="63.28" height="4.19" transform="translate(707.63 770.89) rotate(180)" style="fill: #153159; stroke-width: 0px;"/>
                      <rect x="310.9" y="383.35" width="10.22" height="4.19" transform="translate(632.03 770.89) rotate(180)" style="fill: #153159; stroke-width: 0px;"/>
                      <rect x="303.75" y="383.35" width="5.54" height="4.19" transform="translate(613.03 770.89) rotate(180)" style="fill: #153159; stroke-width: 0px;"/>
                    </g>
                  </g>
                  <rect x="194.83" y="319.28" width="1.12" height="44.77" style="fill: #153159; stroke-width: 0px;"/>
                </g>
              </g>
              <path d="M162.18,412.58h248.98v8.04c0,5.49-4.45,9.94-9.94,9.94h-229.11c-5.49,0-9.94-4.45-9.94-9.94v-8.04h0Z" style="fill: #c2c4c6; stroke-width: 0px;"/>
              <polygon points="331.24 449.59 242.1 449.59 252.9 430.56 320.44 430.56 331.24 449.59" style="fill: #c2c4c6; stroke-width: 0px;"/>
              <path d="M232.32,447.89h108.69c2.92,0,5.28,2.37,5.28,5.28v1.61h-119.26v-1.61c0-2.92,2.37-5.28,5.28-5.28Z" style="fill: #c2c4c6; stroke-width: 0px;"/>
              <polygon points="252.9 430.56 247.5 440.07 325.84 440.07 320.44 430.56 252.9 430.56" style="fill: #c2c4c6; mix-blend-mode: multiply; opacity: .43; stroke-width: 0px;"/>
            </g>
            <g>
              <rect x="371.32" y="288.7" width="79.67" height="73.89" rx="2.63" ry="2.63" style="fill: #146edd; stroke-width: 0px;"/>
              <rect x="374.83" y="299.43" width="72.67" height="58.08" rx="1.9" ry="1.9" style="fill: #fff; stroke-width: 0px;"/>
              <text transform="translate(385.88 337.99)" style="fill: #147fdd; font-family: Lato-Black, Lato; font-size: 30.81px; font-weight: 800;"><tspan x="0" y="0">&lt;/&gt;</tspan></text>
              <g>
                <path d="M380.24,294.05c0,1.14-.92,2.07-2.07,2.07s-2.07-.92-2.07-2.07.92-2.07,2.07-2.07,2.07.92,2.07,2.07Z" style="fill: #147fdd; stroke-width: 0px;"/>
                <circle cx="385.2" cy="294.05" r="2.07" style="fill: #147fdd; stroke-width: 0px;"/>
                <circle cx="392.23" cy="294.05" r="2.07" style="fill: #147fdd; stroke-width: 0px;"/>
              </g>
            </g>
            <g>
              <rect x="262" y="168.49" width="89.67" height="73.89" rx="2.63" ry="2.63" style="fill: #1458dd; stroke-width: 0px;"/>
              <rect x="265.5" y="179.22" width="82.67" height="58.08" rx="1.9" ry="1.9" style="fill: #fff; stroke-width: 0px;"/>
              <text transform="translate(272.56 217.77)" style="fill: #1482dd; font-family: Lato-Black, Lato; font-size: 30.81px; font-weight: 800;"><tspan x="0" y="0">CMS</tspan></text>
              <g>
                <path d="M270.91,173.84c0,1.14-.92,2.07-2.07,2.07s-2.07-.92-2.07-2.07.92-2.07,2.07-2.07,2.07.92,2.07,2.07Z" style="fill: #eef9ff; stroke-width: 0px;"/>
                <circle cx="275.88" cy="173.84" r="2.07" style="fill: #eef9ff; stroke-width: 0px;"/>
                <circle cx="282.91" cy="173.84" r="2.07" style="fill: #eef9ff; stroke-width: 0px;"/>
              </g>
            </g>
            <g>
              <g>
                <path d="M462.32,430.59h-41.76c-2.23,0-4.03-2.01-4.03-4.48v-54.24c0-2.48,1.81-4.48,4.03-4.48h35.78l10.01,12.74v45.99c0,2.48-1.81,4.48-4.03,4.48Z" style="fill: #f4f4f4; stroke-width: 0px;"/>
                <path d="M456.34,367.38v9.52c0,1.82,1.34,3.3,2.98,3.28l7.03-.07-10.01-12.74Z" style="fill: #dbeaf1; stroke-width: 0px;"/>
              </g>
              <g>
                <rect x="426.53" y="385.4" width="29.84" height="2.59" style="fill: #147fdd; mix-blend-mode: multiply; opacity: .18; stroke-width: 0px;"/>
                <rect x="426.53" y="391.55" width="29.84" height="2.59" style="fill: #147fdd; mix-blend-mode: multiply; opacity: .18; stroke-width: 0px;"/>
                <rect x="426.53" y="397.69" width="29.84" height="2.59" style="fill: #147fdd; mix-blend-mode: multiply; opacity: .18; stroke-width: 0px;"/>
                <rect x="426.53" y="403.84" width="29.84" height="2.59" style="fill: #147fdd; mix-blend-mode: multiply; opacity: .18; stroke-width: 0px;"/>
                <rect x="426.53" y="409.99" width="29.84" height="2.59" style="fill: #147fdd; mix-blend-mode: multiply; opacity: .18; stroke-width: 0px;"/>
              </g>
            </g>
            <path d="M212.07,242.12c2.98-6.42,1.76-13.83-2.52-19.66-.58-.79-1.79-.71-2.25.16l-5.55,10.35c-1.49,2.78-4.89,3.92-7.75,2.59l-5.87-2.72c-2.86-1.33-4.19-4.66-3.03-7.59l4.32-10.92c.36-.91-.35-1.89-1.33-1.82-7.22.5-13.66,4.35-16.64,10.77-3.9,8.41-.61,18.51,7.35,24.55.5.38.65,1.07.37,1.63l-35.77,72.32c-1.53,3.2-.15,7.03,3.06,8.52h0c3.22,1.49,7.03.07,8.48-3.16l32.14-74.01c.25-.58.87-.91,1.49-.77,9.75,2.18,19.59-1.83,23.5-10.24ZM148.6,325.71c-1.44-.67-2.07-2.38-1.4-3.82.67-1.44,4.33-6.26,5.77-5.59,1.44.67.12,6.57-.55,8.02-.67,1.44-2.38,2.07-3.82,1.4Z" style="fill: #c2c4c6; stroke-width: 0px;"/>
            <g>
              <g>
                <rect x="103.32" y="220.31" width="47.61" height="44.16" rx="2.63" ry="2.63" style="fill: #146edd; stroke-width: 0px;"/>
                <path d="M107.31,226.72h39.62c1.05,0,1.9.85,1.9,1.9v30.9c0,1.05-.85,1.9-1.9,1.9h-39.62c-1.05,0-1.9-.85-1.9-1.9v-30.9c0-1.05.85-1.9,1.9-1.9Z" style="fill: #153159; stroke-width: 0px;"/>
                <g>
                  <path d="M108.64,223.5c0,.68-.55,1.23-1.23,1.23s-1.23-.55-1.23-1.23.55-1.23,1.23-1.23,1.23.55,1.23,1.23Z" style="fill: #147fdd; stroke-width: 0px;"/>
                  <path d="M112.84,223.5c0,.68-.55,1.23-1.23,1.23s-1.23-.55-1.23-1.23.55-1.23,1.23-1.23,1.23.55,1.23,1.23Z" style="fill: #147fdd; stroke-width: 0px;"/>
                  <path d="M117.05,223.5c0,.68-.55,1.23-1.23,1.23s-1.23-.55-1.23-1.23.55-1.23,1.23-1.23,1.23.55,1.23,1.23Z" style="fill: #147fdd; stroke-width: 0px;"/>
                </g>
              </g>
              <path d="M127.27,230.43c3.47,0,6.29,2.82,6.29,6.29,0,3.47-2.82,6.29-6.29,6.29s-6.29-2.82-6.29-6.29c0-3.47,2.82-6.29,6.29-6.29Z" style="fill: #fff; stroke-width: 0px;"/>
              <path d="M138.88,261.42h-23.22v-4.39c0-6.41,5.2-11.61,11.61-11.61h0c6.41,0,11.61,5.2,11.61,11.61v4.39Z" style="fill: #fff; stroke-width: 0px;"/>
            </g>
            <g>
              <g>
                <path d="M242.53,172.69h-60.51c-3.34,0-6.06-2.71-6.06-6.06h0c0-3.34,2.71-6.06,6.06-6.06h60.51c3.34,0,6.06,2.71,6.06,6.06h0c0,3.34-2.71,6.06-6.06,6.06Z" style="fill: #eef9ff; stroke-width: 0px;"/>
                <path d="M184.78,172.69h-2.76c-3.34,0-6.06-2.71-6.06-6.06h0c0-3.34,2.71-6.06,6.06-6.06h2.76c3.34,0,6.06,2.71,6.06,6.06h0c0,3.34-2.71,6.06-6.06,6.06Z" style="fill: #146edd; stroke-width: 0px;"/>
                <path d="M242.53,188.87h-60.51c-3.34,0-6.06-2.71-6.06-6.06h0c0-3.34,2.71-6.06,6.06-6.06h60.51c3.34,0,6.06,2.71,6.06,6.06h0c0,3.34-2.71,6.06-6.06,6.06Z" style="fill: #eef9ff; stroke-width: 0px;"/>
                <path d="M184.78,188.87h-2.76c-3.34,0-6.06-2.71-6.06-6.06h0c0-3.34,2.71-6.06,6.06-6.06h2.76c3.34,0,6.06,2.71,6.06,6.06h0c0,3.34-2.71,6.06-6.06,6.06Z" style="fill: #146edd; stroke-width: 0px;"/>
                <path d="M242.53,205.05h-60.51c-3.34,0-6.06-2.71-6.06-6.06h0c0-3.34,2.71-6.06,6.06-6.06h60.51c3.34,0,6.06,2.71,6.06,6.06h0c0,3.34-2.71,6.06-6.06,6.06Z" style="fill: #eef9ff; stroke-width: 0px;"/>
                <path d="M184.78,205.05h-2.76c-3.34,0-6.06-2.71-6.06-6.06h0c0-3.34,2.71-6.06,6.06-6.06h2.76c3.34,0,6.06,2.71,6.06,6.06h0c0,3.34-2.71,6.06-6.06,6.06Z" style="fill: #146edd; stroke-width: 0px;"/>
              </g>
              <g>
                <rect x="194.83" y="165.08" width="46.1" height="3.41" style="fill: #daebf5; stroke-width: 0px;"/>
                <rect x="194.83" y="181.11" width="46.1" height="3.41" style="fill: #daebf5; stroke-width: 0px;"/>
                <rect x="194.83" y="197.13" width="46.1" height="3.41" style="fill: #daebf5; stroke-width: 0px;"/>
              </g>
            </g>
          </g>
        </g>
      </g>
    </g>
  </g>
</svg>