<?xml version="1.0" encoding="UTF-8"?>
<svg id="Layer_1" data-name="Layer 1" xmlns="http://www.w3.org/2000/svg" width="926.62" height="600.08" viewBox="0 0 926.62 600.08">
  <path d="M602.84,472.19l6.63-24.62c12.89-3.6,26.47-4,39.56-1.16-21.25,10.71-25.3,39.56-41.89,56.62-10.56,10.7-25.42,16.02-40.37,14.45l-17.1,5.87c1-24.23,12.55-46.81,31.63-61.79,5.33-4.1,11.15-7.51,17.33-10.16,1.49,10.31,4.22,20.78,4.22,20.78Z" style="fill: #f2f2f2; stroke-width: 0px;"/>
  <path d="M292.97,437.19l-11.19-41.54c-21.76-6.08-44.68-6.75-66.76-1.96,35.87,18.08,42.71,66.76,70.7,95.57,17.83,18.06,42.9,27.04,68.14,24.39l28.86,9.91c-1.68-40.9-21.19-79.01-53.38-104.29-8.99-6.92-18.82-12.68-29.25-17.14-2.52,17.4-7.12,35.07-7.12,35.07Z" style="fill: #f2f2f2; stroke-width: 0px;"/>
  <path d="M581.87,182.45h0v-67.46c0-21.56-17.48-39.05-39.05-39.05h-142.93c-21.56,0-39.05,17.48-39.05,39.05v370.11c0,21.56,17.48,39.05,39.05,39.05h142.93c21.56,0,39.05-17.48,39.05-39.05v-254.62h0c1.36,0,2.46-1.1,2.46-2.46h0v-43.1c0-1.36-1.1-2.46-2.46-2.46Z" style="fill: #3f3d56; stroke-width: 0px;"/>
  <path d="M573.56,115.26v369.57c0,15.98-12.86,28.98-28.84,29.14-.11.01-.21.02-.32.01h-143.63c-16.1,0-29.15-13.05-29.16-29.16V115.26c0-16.1,13.05-29.15,29.16-29.16h17.43c-2.89,7.09.52,15.18,7.61,18.07,1.66.67,3.43,1.02,5.22,1.02h81.88c7.66-.02,13.86-6.25,13.84-13.91,0-1.78-.35-3.53-1.02-5.18h18.67c16.1,0,29.15,13.05,29.16,29.16Z" style="fill: #fff; stroke-width: 0px;"/>
  <path d="M361.64,220.19c-1.83,0-3.32-1.49-3.32-3.32v-22.6c0-1.84,1.49-3.32,3.33-3.32,1.83,0,3.31,1.49,3.32,3.32v22.6c0,1.83-1.49,3.32-3.32,3.32Z" style="fill: #3f3d56; stroke-width: 0px;"/>
  <path d="M360.97,176.32c-1.83,0-3.32-1.49-3.32-3.32v-22.6c0-1.84,1.49-3.32,3.33-3.32,1.83,0,3.31,1.49,3.32,3.32v22.6c0,1.83-1.49,3.32-3.32,3.32Z" style="fill: #3f3d56; stroke-width: 0px;"/>
  <path d="M449.38,89.9c0-1.83,1.49-3.32,3.32-3.32h22.6c1.84,0,3.32,1.49,3.32,3.33,0,1.83-1.49,3.32-3.32,3.32h-22.6c-1.83,0-3.32-1.49-3.32-3.32Z" style="fill: #fff; stroke-width: 0px;"/>
  <path d="M361.64,258.75c-1.83,0-3.32-1.49-3.32-3.32v-22.6c0-1.84,1.49-3.32,3.33-3.32,1.83,0,3.31,1.49,3.32,3.32v22.6c0,1.83-1.49,3.32-3.32,3.32Z" style="fill: #3f3d56; stroke-width: 0px;"/>
  <circle cx="487.94" cy="89.9" r="3.32" style="fill: #fff; stroke-width: 0px;"/>
  <polygon points="456.99 499.65 465.93 499.65 470.19 465.15 456.98 465.15 456.99 499.65" style="fill: #9e616a; stroke-width: 0px;"/>
  <path d="M454.7,496.73h2.52s9.83-4,9.83-4l5.27,4h0c6.2,0,11.23,5.03,11.23,11.23v.36h-28.84s0-11.59,0-11.59Z" style="fill: #2f2e41; stroke-width: 0px;"/>
  <polygon points="498.54 499.65 507.49 499.65 511.75 465.15 498.54 465.15 498.54 499.65" style="fill: #9e616a; stroke-width: 0px;"/>
  <path d="M496.26,496.73h2.52s9.83-4,9.83-4l5.27,4h0c6.2,0,11.23,5.03,11.23,11.23v.36h-28.84s0-11.59,0-11.59Z" style="fill: #2f2e41; stroke-width: 0px;"/>
  <path d="M505.7,310.83l-70.28,1.83,1.22,34.23s-1.22,9.17,1.22,11.61,3.67,2.44,2.44,6.72,5.24,11.27,4.45,12.05-2.62,5.06-2.62,5.06l6.11,34.84s4.28,60.51,5.5,61.73,2.44,0,1.22,3.06-2.44,1.83-1.22,3.06c1.08,1.17,2.1,2.39,3.06,3.67h14.78s1.11-6.11,1.11-6.72,1.22-4.28,1.22-4.89-1.08-1.69-1.08-1.69c-.37-1.24-.63-2.52-.75-3.81,0-1.22-3.67-48.28-3.67-48.28l7.33-61.12,17.72,59.89s0,52.56,1.22,53.78,1.22.61.61,3.06-3.06,1.83-1.22,3.67,2.44-1.22,1.83,1.83l-.61,3.06,18.34.26s2.44-5.15,1.22-6.99-1.15-1.33.34-4.33,2.1-3.61,1.49-4.22-.61-3.86-.61-3.86l-3.06-58.48s-.61-61.73-.61-63.56c-.05-.94.13-1.88.51-2.75v-2.49l-2.34-8.82-4.89-21.39Z" style="fill: #2f2e41; stroke-width: 0px;"/>
  <circle cx="450.71" cy="173.56" r="18.95" style="fill: #ffb9b9; stroke-width: 0px;"/>
  <path d="M442.1,186.45l-.77-.61s-1.47-1.17-2.86-.96c-.64.11-1.21.48-1.55,1.03-.2.31-.56.46-.92.39-1.8-.28-5.06-5.62-6.7-10.98-1.01-3.3-2.2-9.29,1.08-12.48.25-1.44,2.87-14.46,14.39-14.83,11.85-.38,19.73,2.02,21.64,6.55.32.77.65,1.68.97,2.7.33,1.01.05,2.13-.72,2.87-.7.68-1.69.96-2.64.75-.06.58-.21,1.15-.45,1.68-1.04,2.24-3.64,3.71-6.64,3.73-1.78-.03-3.53-.37-5.19-1l4.79,3.69-11.46-1.43,3.75,2.01-.75.36c-4.8,2.13-7.56,7.22-6.72,12.4l.73,4.13Z" style="fill: #2f2e41; stroke-width: 0px;"/>
  <path d="M502.24,301.77c2.67-4.6.13-11.25.13-11.25,0,0,6.9-10.2,5.2-14.55l-8.12-62.93s-2.54-6.77-8.46-10.15c-1.63-.93-10.16-.56-12.03-.55l-6.08-2.6c-.35,1.29-6.98-12.15-7.02-10.81-4.23,0-6.96.58-13.54,1.69-11.43,1.93-5.67,12.25-4.95,13.47-.29.02-.58.06-.87.12-1.49.28-6.57,4.67-6.57,4.67l-9.08,8.06c-13.68,10.74-10.62,27.49-10.62,27.49l19.95,20.08-8.74,40.29s3.71,5.98,1.79,8.67,16.92,1.91,16.92,1.91c13.01,5.8,58.83.9,58.83.9-.63-1.66-6.77-14.51-6.77-14.51Z" style="fill: #e6e6e6; stroke-width: 0px;"/>
  <path d="M541.94,504.96c0,3.83-.12,7.63-.36,11.39-.11.01-.21.02-.32.01h-143.62c-13.37,0-25.03-9.09-28.28-22.06-.28-1.1-.49-2.22-.63-3.34-.16-1.25-.24-2.5-.24-3.76v-164.7c11.05.55,22.03,2.1,32.8,4.63,1.05.24,2.1.5,3.14.77.07.01.13.04.2.05,1.05.27,2.1.55,3.14.83,22.2,6.1,43.04,16.36,61.42,30.24,1.05.79,2.1,1.6,3.14,2.42l.2.15c1.74,1.37,3.46,2.78,5.14,4.22.38.32.75.64,1.12.97.91.78,1.81,1.58,2.7,2.38,19.59,17.63,35.14,39.29,45.59,63.49.35.79.68,1.59,1.01,2.38.13.32.27.65.4.97.13.3.24.59.36.89,8.67,21.63,13.12,44.73,13.09,68.04Z" style="fill: #3f3d56; stroke-width: 0px;"/>
  <path d="M475.67,488.59c0-29.02,23.52-52.54,52.53-52.55h.29c-.13-.32-.27-.65-.4-.97-.33-.8-.66-1.59-1.01-2.38h-51.41v-65.87h3.12c-.37-.33-.75-.66-1.12-.97-1.69-1.44-3.4-2.85-5.14-4.22l-.2-.15v1.99h-64.56v-34.65c-1.04-.29-2.09-.57-3.14-.83-.07-.01-.13-.04-.2-.05v35.54h-32.8v3.36h32.8v65.87h-32.8v3.36h32.8v52.55h-32.56c.14,1.13.35,2.24.63,3.34h31.93v22.06h3.34v-22.06h64.56v22.06h3.34v-22.06h56.33v-3.34h-56.33ZM472.33,488.59h-64.56v-52.55h64.56v52.55ZM472.33,432.68h-64.56v-1.31c0-35.65,28.9-64.56,64.56-64.56v65.87Z" style="fill: #000; isolation: isolate; opacity: .2; stroke-width: 0px;"/>
  <path d="M436.87,346.6c-2.51-2.81-2.26-7.13.56-9.64.3-.27.62-.51.97-.72l-8.61-33.84,11.77,4.51,6.54,31.95c1.77,3.35.48,7.5-2.87,9.27-2.81,1.48-6.26.84-8.35-1.54Z" style="fill: #ffb9b9; stroke-width: 0px;"/>
  <path d="M421.03,238.01l-1.06,13.51s-1.32,14.85-.98,17.59.99,19.51.99,19.51l11.2,22.16,12.69-3.38-.76-10.4.76,9.55,1.69-8.46-4.23-14.39,2.54-5.08-1.28-17.04-21.57-23.57Z" style="fill: #e6e6e6; stroke-width: 0px;"/>
  <path d="M712.91,329.18c-1.49-1.77-3.61-2.9-5.92-3.15-.33-.04-.66-.05-.99-.05l-170.13-.16c-2.49,0-4.87,1.01-6.58,2.82-1.63,1.77-2.52,4.1-2.49,6.5l-.03,27.64c-.01,5.01,1.07,9.96,3.18,14.5-1.18,4.46-3.14,8.67-5.8,12.43-2.43,3.5-1.56,8.31,1.94,10.74,1.43,1,3.16,1.48,4.91,1.36,1.79-.11,3.58-.31,5.35-.61,5.16-.81,10.08-2.72,14.42-5.62,3.34,1.05,6.83,1.59,10.33,1.59l119.63.11c9.11.03,17.86-3.59,24.28-10.06,6.48-6.61,10.07-15.51,10.01-24.77l.03-27.13c.04-2.24-.72-4.42-2.14-6.15Z" style="fill: #1075e2; stroke-width: 0px;"/>
  <path d="M668.46,350.89l-95.09-.09c-1.14,0-2.07-.93-2.07-2.07,0-1.14.93-2.07,2.07-2.07l95.09.09c1.14,0,2.07.93,2.07,2.07,0,1.14-.93,2.07-2.07,2.07Z" style="fill: #fff; stroke-width: 0px;"/>
  <path d="M668.45,363.59l-95.09-.09c-1.14,0-2.07-.93-2.07-2.07,0-1.14.93-2.07,2.07-2.07l95.09.09c1.14,0,2.07.93,2.07,2.07,0,1.14-.93,2.07-2.07,2.07h0Z" style="fill: #fff; stroke-width: 0px;"/>
  <path d="M584.43,376.21h-11.08c-1.14-.01-2.07-.94-2.07-2.08,0-1.14.93-2.07,2.07-2.07h11.08c1.14.01,2.07.94,2.07,2.08,0,1.14-.93,2.07-2.07,2.07Z" style="fill: #fff; stroke-width: 0px;"/>
  <path d="M213.71,222.21c1.49-1.77,3.61-2.9,5.92-3.15.33-.04.66-.05.99-.05l170.13-.16c2.49,0,4.87,1.01,6.58,2.82,1.63,1.77,2.52,4.1,2.49,6.5l.03,27.64c.01,5.01-1.07,9.96-3.18,14.5,1.18,4.46,3.14,8.67,5.8,12.43,2.43,3.5,1.56,8.31-1.94,10.74-1.43,1-3.16,1.48-4.91,1.36-1.79-.11-3.58-.31-5.35-.61-5.16-.81-10.08-2.72-14.42-5.62-3.34,1.05-6.83,1.59-10.33,1.59l-119.63.11c-9.11.03-17.86-3.59-24.28-10.06-6.48-6.61-10.07-15.51-10.01-24.77l-.03-27.13c-.04-2.24.72-4.42,2.14-6.15Z" style="fill: #1075e2; stroke-width: 0px;"/>
  <path d="M256.09,241.86c0-1.14.92-2.07,2.07-2.07l95.09-.09c1.14,0,2.07.93,2.06,2.07,0,1.14-.92,2.06-2.06,2.06l-95.09.09c-1.14,0-2.07-.92-2.07-2.07Z" style="fill: #fff; stroke-width: 0px;"/>
  <path d="M256.11,254.56c0-1.14.92-2.07,2.07-2.07l95.09-.09c1.14,0,2.07.92,2.07,2.07,0,1.14-.92,2.07-2.07,2.07l-95.09.09c-1.14,0-2.07-.92-2.07-2.07Z" style="fill: #fff; stroke-width: 0px;"/>
  <path d="M340.12,267.18c0-1.14.92-2.07,2.07-2.07h11.08c1.14-.01,2.07.91,2.07,2.06,0,1.14-.92,2.07-2.07,2.07h-11.08c-1.14,0-2.07-.91-2.07-2.06Z" style="fill: #fff; stroke-width: 0px;"/>
  <path d="M556.37,158.24c-3.58,1.79-5.03,6.15-3.24,9.73.19.38.42.75.67,1.09l-14.47,21.33,13.39.17,11.68-20.28c3.06-2.62,3.42-7.22.81-10.28-2.19-2.56-5.85-3.29-8.85-1.76h0Z" style="fill: #ffb9b9; stroke-width: 0px;"/>
  <path d="M560.96,178.36l-22.28,40.98h-.2c-.16.02-7.25.49-15.91.96-1.46.08-2.32,2.67-3.85,2.75-1.05.05-4.92,4.92-5.98,4.97-9.44.45-14.85,4.76-18.44,4.43-4.87-.41-11.35-13.8-14.89-17.17l-.08-.09v-.12c-.52-5.06,2.55-9.8,7.38-11.4,11.34-3.69,23.38-4.7,35.17-2.94l6.71,1.01,20.36-27.35,12.02,3.96Z" style="fill: #e6e6e6; stroke-width: 0px;"/>
  <path d="M681.19,99.01c-1.49-1.77-3.61-2.9-5.92-3.15-.33-.04-.66-.05-.99-.05l-170.13-.16c-2.49,0-4.87,1.01-6.58,2.82-1.63,1.77-2.52,4.1-2.49,6.5l-.03,27.64c-.01,5.01,1.07,9.96,3.18,14.5-1.18,4.46-3.14,8.67-5.8,12.43-2.43,3.5-1.56,8.31,1.94,10.74,1.43,1,3.16,1.48,4.91,1.36,1.79-.11,3.58-.31,5.35-.61,5.16-.81,10.08-2.72,14.42-5.62,3.34,1.05,6.83,1.59,10.33,1.59l119.63.11c9.11.03,17.86-3.59,24.28-10.06,6.48-6.61,10.07-15.51,10.01-24.77l.03-27.13c.04-2.24-.72-4.42-2.14-6.15Z" style="fill: #1075e2; stroke-width: 0px;"/>
  <path d="M636.73,120.72l-95.09-.09c-1.14,0-2.07-.93-2.07-2.07s.93-2.07,2.07-2.07c0,0,0,0,0,0l95.09.09c1.14,0,2.07.93,2.06,2.07,0,1.14-.93,2.06-2.07,2.06Z" style="fill: #fff; stroke-width: 0px;"/>
  <path d="M636.72,133.42l-95.09-.09c-1.14,0-2.07-.93-2.07-2.07,0-1.14.93-2.07,2.07-2.07l95.09.09c1.14,0,2.07.93,2.06,2.07,0,1.14-.93,2.06-2.07,2.06h0Z" style="fill: #fff; stroke-width: 0px;"/>
  <path d="M552.71,146.04h-11.08c-1.14,0-2.07-.93-2.07-2.08,0-1.14.92-2.07,2.07-2.07,0,0,0,0,0,0h11.08c1.14.01,2.07.94,2.06,2.09,0,1.14-.93,2.06-2.07,2.06h0Z" style="fill: #fff; stroke-width: 0px;"/>
</svg>