<?xml version="1.0" encoding="UTF-8"?>
<svg id="Layer_1" data-name="Layer 1" xmlns="http://www.w3.org/2000/svg" width="926.62" height="600.08" viewBox="0 0 926.62 600.08">
  <path d="M534.89,512.07l-11.54-4.86-7.92-57.87h-105.46l-8.58,57.63-10.33,5.16c-1.21.61-1.7,2.08-1.1,3.29.42.83,1.26,1.36,2.19,1.36h141.79c1.35,0,2.45-1.1,2.45-2.45,0-.99-.59-1.88-1.5-2.26Z" style="fill: #e6e6e6; stroke-width: 0px;"/>
  <path d="M722.3,457.04H204.25c-5.66-.01-10.24-4.6-10.24-10.26v-73.05h538.53v73.05c0,5.66-4.58,10.25-10.24,10.26Z" style="fill: #ccc; stroke-width: 0px;"/>
  <path d="M733.08,408.25H193.54V95.68c0-6.83,5.54-12.36,12.37-12.37h514.79c6.83,0,12.36,5.54,12.37,12.37v312.57Z" style="fill: #3f3d56; stroke-width: 0px;"/>
  <path d="M700.86,379.91H225.77c-5.27,0-9.53-4.27-9.54-9.54V109.88c0-5.27,4.27-9.53,9.54-9.54h475.09c5.27,0,9.53,4.27,9.54,9.54v260.49c0,5.27-4.27,9.53-9.54,9.54Z" style="fill: #fff; stroke-width: 0px;"/>
  <path d="M656.22,353.19h-385.83c-.67,0-1.21-.54-1.21-1.21v-184.93c0-.67.54-1.21,1.21-1.21s1.21.54,1.21,1.21v183.72h384.62c.67,0,1.21.54,1.21,1.21s-.54,1.21-1.21,1.21Z" style="fill: #3f3d56; stroke-width: 0px;"/>
  <path d="M352.83,339.91h-35.09c-1.98,0-3.58-1.61-3.58-3.58v-48.37c0-1.98,1.61-3.58,3.58-3.58h35.09c1.98,0,3.58,1.61,3.58,3.58v48.37c0,1.98-1.61,3.58-3.58,3.58Z" style="fill: #1075e2; stroke-width: 0px;"/>
  <path d="M416.83,339.91h-35.09c-1.98,0-3.58-.88-3.58-1.96v-51.62c0-1.08,1.61-1.96,3.58-1.96h35.09c1.98,0,3.58.88,3.58,1.96v51.62c0,1.08-1.61,1.96-3.58,1.96Z" style="fill: #1075e2; stroke-width: 0px;"/>
  <path d="M480.82,339.91h-35.09c-1.98,0-3.58-1.61-3.58-3.58v-48.37c0-1.98,1.61-3.58,3.58-3.58h35.09c1.98,0,3.58,1.61,3.58,3.58v48.37c0,1.98-1.61,3.58-3.58,3.58Z" style="fill: #1075e2; stroke-width: 0px;"/>
  <path d="M544.82,339.91h-35.09c-1.93.02-3.54-.69-3.58-1.59v-52.36c.05-.9,1.65-1.61,3.58-1.59h35.09c1.93-.02,3.54.69,3.58,1.59v52.36c-.05.9-1.65,1.61-3.58,1.59Z" style="fill: #1075e2; stroke-width: 0px;"/>
  <path d="M608.81,339.91h-35.09c-1.98,0-3.58-.59-3.58-1.31v-52.93c0-.72,1.61-1.31,3.58-1.31h35.09c1.98,0,3.58.59,3.58,1.31v52.93c0,.72-1.61,1.31-3.58,1.31Z" style="fill: #1075e2; stroke-width: 0px;"/>
  <g>
    <circle cx="335.29" cy="267.83" r="7.24" style="fill: #3f3d56; stroke-width: 0px;"/>
    <circle cx="399.28" cy="267.83" r="7.24" style="fill: #3f3d56; stroke-width: 0px;"/>
    <circle cx="463.28" cy="267.83" r="7.24" style="fill: #3f3d56; stroke-width: 0px;"/>
    <circle cx="527.27" cy="267.83" r="7.24" style="fill: #3f3d56; stroke-width: 0px;"/>
    <circle cx="591.27" cy="267.83" r="7.24" style="fill: #3f3d56; stroke-width: 0px;"/>
    <line x1="335.29" y1="267.83" x2="591.27" y2="267.83" style="fill: none; stroke: #3f3d56; stroke-miterlimit: 10; stroke-width: 2px;"/>
  </g>
</svg>