<?xml version="1.0" encoding="UTF-8"?>
<svg id="Layer_1" data-name="Layer 1" xmlns="http://www.w3.org/2000/svg" width="926.62" height="600.08" viewBox="0 0 926.62 600.08">
  <path d="M726.79,478.64H200.02c-7.49,0-13.55-6.08-13.56-13.56V140.26c0-5.49,4.45-9.93,9.94-9.94h533.86c5.58,0,10.1,4.53,10.11,10.11v324.65c0,7.49-6.08,13.55-13.56,13.56Z" style="fill: #f2f2f2; stroke-width: 0px;"/>
  <path d="M709.76,461.52H218.82c-7.2,0-13.05-5.48-13.05-12.22V166.44c0-5,4.34-9.06,9.67-9.06h497.54c5.42,0,9.83,4.13,9.83,9.21v282.71c0,6.74-5.86,12.22-13.05,12.22Z" style="fill: #fff; stroke-width: 0px;"/>
  <path d="M740.17,141.95H186.26v-6.91c.01-7.51,6.1-13.6,13.61-13.6h526.68c7.51,0,13.6,6.09,13.61,13.6v6.91Z" style="fill: #3f3d56; stroke-width: 0px;"/>
  <circle cx="211" cy="131.72" r="3.52" style="fill: #fff; stroke-width: 0px;"/>
  <circle cx="224.37" cy="131.72" r="3.52" style="fill: #fff; stroke-width: 0px;"/>
  <circle cx="237.73" cy="131.72" r="3.52" style="fill: #fff; stroke-width: 0px;"/>
  <path d="M452.64,219.22h-96.02c-2.98,0-5.4-2.42-5.39-5.4,0-2.98,2.42-5.39,5.39-5.39h96.02c2.98,0,5.4,2.41,5.4,5.39s-2.41,5.4-5.39,5.4h0Z" style="fill: #ccc; stroke-width: 0px;"/>
  <path d="M571.96,219.22h-96.02c-2.98,0-5.4-2.42-5.39-5.4,0-2.98,2.42-5.39,5.39-5.39h96.02c2.98,0,5.4,2.41,5.4,5.39s-2.41,5.4-5.39,5.4h0Z" style="fill: #ccc; stroke-width: 0px;"/>
  <path d="M571.96,239.68h-167.04c-2.98,0-5.4-2.42-5.4-5.4s2.42-5.4,5.4-5.4h167.04c2.98,0,5.4,2.42,5.4,5.4s-2.42,5.4-5.4,5.4Z" style="fill: #ccc; stroke-width: 0px;"/>
  <path d="M452.64,198.49h-96.02c-2.98,0-5.39-2.43-5.39-5.41,0-2.97,2.41-5.38,5.39-5.39h96.02c2.98,0,5.4,2.41,5.41,5.39s-2.41,5.4-5.39,5.41c0,0-.01,0-.02,0Z" style="fill: #ccc; stroke-width: 0px;"/>
  <path d="M505.48,198.77h-27.27c-2.98,0-5.4-2.42-5.39-5.4,0-2.98,2.42-5.39,5.39-5.39h27.27c2.98,0,5.4,2.41,5.4,5.39,0,2.98-2.41,5.4-5.39,5.4h0Z" style="fill: #ccc; stroke-width: 0px;"/>
  <path d="M383.9,239.68h-27.27c-2.98,0-5.39-2.43-5.39-5.41,0-2.97,2.41-5.38,5.39-5.39h27.27c2.98,0,5.4,2.41,5.41,5.39s-2.41,5.4-5.39,5.41h-.02Z" style="fill: #ccc; stroke-width: 0px;"/>
  <path d="M452.64,410.75h-96.02c-2.98,0-5.4-2.42-5.4-5.4s2.42-5.4,5.4-5.4h96.02c2.98,0,5.4,2.42,5.4,5.4s-2.42,5.4-5.4,5.4h0Z" style="fill: #ccc; stroke-width: 0px;"/>
  <path d="M571.96,410.75h-96.02c-2.98,0-5.4-2.42-5.4-5.4s2.42-5.4,5.4-5.4h96.02c2.98,0,5.4,2.42,5.4,5.4s-2.42,5.4-5.4,5.4Z" style="fill: #ccc; stroke-width: 0px;"/>
  <path d="M571.96,431.21h-167.04c-2.98,0-5.4-2.42-5.4-5.4s2.42-5.4,5.4-5.4h167.04c2.98,0,5.4,2.41,5.41,5.39,0,2.98-2.41,5.4-5.39,5.41h-.02Z" style="fill: #ccc; stroke-width: 0px;"/>
  <path d="M452.64,390.01h-96.02c-2.98,0-5.4-2.42-5.4-5.4s2.42-5.4,5.4-5.4h96.02c2.98,0,5.4,2.42,5.4,5.4s-2.42,5.4-5.4,5.4Z" style="fill: #ccc; stroke-width: 0px;"/>
  <path d="M505.48,390.3h-27.27c-2.98,0-5.4-2.42-5.4-5.4s2.42-5.4,5.4-5.4h27.27c2.98,0,5.4,2.42,5.4,5.4s-2.42,5.4-5.4,5.4Z" style="fill: #ccc; stroke-width: 0px;"/>
  <path d="M383.9,431.21h-27.27c-2.98,0-5.4-2.42-5.4-5.4s2.42-5.4,5.4-5.4h27.27c2.98,0,5.4,2.41,5.41,5.39,0,2.98-2.41,5.4-5.39,5.41h-.02Z" style="fill: #ccc; stroke-width: 0px;"/>
  <path d="M427.57,352.81c-2.04,0-3.99-.8-5.44-2.23l-36.09-35.64c-2.96-2.92-2.99-7.68-.07-10.64.02-.02.04-.04.07-.07l35.95-35.5c3.12-3.06,8.12-3.05,11.22.04h0c3.1,3.11,3.09,8.14,0,11.25l-26.71,26.71c-1.73,1.74-1.73,4.55,0,6.29l26.57,26.57c3.03,3.02,3.03,7.92.01,10.95-1.46,1.46-3.43,2.28-5.49,2.27h0Z" style="fill: #1075e2; stroke-width: 0px;"/>
  <path d="M485.08,352.81c-4.28,0-7.75-3.45-7.75-7.73,0-2.06.82-4.04,2.27-5.49l26.57-26.57c1.73-1.74,1.73-4.55,0-6.29l-26.71-26.71c-3.11-3.1-3.12-8.14-.01-11.25,0,0,0,0,.01,0h0c3.1-3.08,8.1-3.1,11.22-.04l35.95,35.5c2.96,2.92,2.99,7.68.07,10.64-.02.02-.04.04-.07.07l-36.09,35.64c-1.45,1.43-3.41,2.23-5.44,2.23Z" style="fill: #1075e2; stroke-width: 0px;"/>
</svg>