<?xml version="1.0" encoding="UTF-8"?>
<svg id="Layer_1" data-name="Layer 1" xmlns="http://www.w3.org/2000/svg" width="926.62" height="600.08" viewBox="0 0 926.62 600.08">
  <path d="M140.59,416.87c-21.54-7.83-40.23-26.57-42.6-49.37,20.91,13.56,45.94,19.29,70.66,16.18,9.53-1.24,20-3.6,28.16,1.48,5.08,3.16,8.23,8.78,9.67,14.58,1.45,5.8,1.38,11.86,1.31,17.84l.67,1.33c-22.5,4.37-46.33,5.78-67.87-2.05Z" style="fill: #3f3d56; stroke-width: 0px;"/>
  <path d="M98.46,367.39c10.97,15.47,26.54,27.09,44.5,33.21,3.84,1.39,7.88,2.16,11.96,2.29,3.98,0,7.89-1.07,11.32-3.1,3.23-1.82,6.33-4.06,9.95-5.07,3.76-.98,7.77-.32,11.01,1.84,4.06,2.55,6.96,6.41,9.67,10.28,3.01,4.3,6.06,8.81,10.75,11.42.57.32.04,1.18-.52.86-8.16-4.54-11.19-14.16-18.14-20.02-3.24-2.73-7.33-4.5-11.61-3.62-3.75.77-6.94,3.08-10.2,4.95-3.31,2.02-7.07,3.2-10.95,3.44-4.08.08-8.13-.54-12-1.82-8.76-2.75-17.03-6.86-24.51-12.17-8.57-6.02-16.05-13.46-22.11-22.01-.37-.53.52-1.01.89-.48h0Z" style="fill: #fff; stroke-width: 0px;"/>
  <path d="M137.06,398.97c-2.96,5.93-9.79,8.85-16.13,6.88-.62-.19-.35-1.17.27-.97,5.9,1.84,12.26-.89,14.99-6.43.29-.58,1.15-.06.86.52h0Z" style="fill: #fff; stroke-width: 0px;"/>
  <path d="M164.71,400.93c-2.02-6.25-6.32-11.5-12.05-14.72-.57-.32-.04-1.18.52-.86,5.95,3.36,10.42,8.83,12.51,15.34.2.62-.78.86-.98.24h0Z" style="fill: #fff; stroke-width: 0px;"/>
  <path d="M112.25,383.16c1.6-2.02,2.07-4.71,1.26-7.16-.21-.62.78-.85.98-.24.88,2.71.37,5.68-1.38,7.93-.15.23-.45.31-.69.17-.24-.15-.31-.45-.17-.69h0Z" style="fill: #fff; stroke-width: 0px;"/>
  <path d="M152.34,312.14c.14.38.28.76.43,1.15,1.91,5.12,4.23,10.08,6.94,14.83.2.37.42.74.63,1.11,6.65,11.37,15.36,21.4,25.68,29.59,4.11,3.25,8.46,6.19,13.01,8.79,6.29,3.58,13.39,6.97,18,12.26.49.55.94,1.12,1.35,1.73l-8.34,36.42c-.06.07-.11.15-.17.22l-.27,1.47c-.24-.12-.49-.24-.74-.36-.14-.07-.28-.14-.42-.21-.09-.05-.19-.1-.28-.13-.03-.02-.06-.03-.09-.05-.09-.04-.16-.08-.24-.12-1.4-.71-2.8-1.42-4.2-2.15t-.01-.01c-10.71-5.45-20.73-12.15-29.87-19.96-.27-.24-.55-.47-.81-.73-4.02-3.57-7.73-7.46-11.12-11.63-1.84-2.29-3.57-4.67-5.18-7.14-4.13-6.38-7.23-13.37-9.19-20.71-3.9-14.64-3.08-30.37,4.33-43.36.19-.33.38-.66.58-.99Z" style="fill: #3f3d56; stroke-width: 0px;"/>
  <path d="M152.79,312.33c-.55,18.96,4.88,37.61,15.54,53.31,2.23,3.42,4.99,6.47,8.17,9.03,3.18,2.39,6.94,3.89,10.9,4.34,3.68.49,7.5.57,11,1.95,3.6,1.48,6.39,4.43,7.68,8.1,1.71,4.48,1.7,9.31,1.53,14.03-.19,5.24-.46,10.68,1.71,15.59.26.59-.67.97-.94.38-3.79-8.54-.4-18.04-2.43-26.9-.94-4.13-3.14-8.01-7.09-9.88-3.46-1.64-7.4-1.72-11.13-2.19-3.86-.38-7.58-1.7-10.81-3.85-3.3-2.39-6.17-5.32-8.49-8.68-5.34-7.47-9.47-15.73-12.24-24.48-3.22-9.97-4.71-20.41-4.4-30.88.02-.65,1.02-.49,1,.15h0Z" style="fill: #fff; stroke-width: 0px;"/>
  <path d="M164.6,360.78c-5.94,2.95-13.14,1.17-17.02-4.22-.38-.53.43-1.14.8-.61,3.6,5.02,10.32,6.67,15.84,3.89.58-.29.95.65.38.94h0Z" style="fill: #fff; stroke-width: 0px;"/>
  <path d="M185.5,378.99c2.15-6.2,1.87-12.99-.76-19-.26-.6.68-.97.94-.38,2.73,6.26,3,13.32.75,19.78-.21.61-1.14.21-.93-.4Z" style="fill: #fff; stroke-width: 0px;"/>
  <path d="M154.31,333.22c2.49-.65,4.49-2.52,5.32-4.96.21-.62,1.13-.22.93.4-.93,2.69-3.12,4.75-5.87,5.5-.26.09-.55-.03-.66-.28-.1-.26.02-.55.28-.66h0Z" style="fill: #fff; stroke-width: 0px;"/>
  <path d="M792.41,416.12c20.41-10.42,36.66-31.32,36.21-54.23-19.08,16.03-43.22,24.79-68.14,24.74-9.61-.05-20.29-1.12-27.76,4.93-4.65,3.76-7.08,9.72-7.81,15.66-.72,5.94.09,11.94.9,17.87l-.5,1.41c22.86,1.57,46.69.04,67.1-10.38Z" style="fill: #3f3d56; stroke-width: 0px;"/>
  <path d="M828.14,361.84c-8.99,16.7-23.01,30.15-40.08,38.43-3.64,1.85-7.55,3.11-11.59,3.74-3.95.49-7.96-.09-11.61-1.68-3.43-1.41-6.78-3.25-10.5-3.8-3.86-.51-7.75.64-10.7,3.18-3.72,3.03-6.12,7.21-8.33,11.39-2.45,4.63-4.93,9.49-9.27,12.65-.53.38.1,1.18.63.79,7.54-5.51,9.36-15.43,15.54-22.09,2.88-3.11,6.72-5.37,11.08-5.02,3.81.31,7.27,2.2,10.73,3.66,3.54,1.6,7.41,2.31,11.29,2.07,4.05-.42,8.01-1.53,11.69-3.28,8.35-3.8,16.06-8.9,22.83-15.09,7.77-7.03,14.27-15.33,19.24-24.56.31-.57-.64-.94-.94-.37h0Z" style="fill: #fff; stroke-width: 0px;"/>
  <path d="M793.71,397.92c3.67,5.52,10.8,7.58,16.85,4.85.59-.27.2-1.2-.39-.93-5.63,2.55-12.27.63-15.66-4.54-.36-.54-1.15.09-.79.63Z" style="fill: #fff; stroke-width: 0px;"/>
  <path d="M766.51,403.27c1.24-6.45,4.86-12.19,10.15-16.08.52-.39-.1-1.18-.63-.79-5.49,4.06-9.25,10.05-10.53,16.76-.12.64.88.76,1,.12h0Z" style="fill: #fff; stroke-width: 0px;"/>
  <path d="M816.39,379.18c-1.84-1.81-2.64-4.42-2.13-6.95.13-.64-.87-.75-1-.12-.54,2.8.33,5.68,2.34,7.7.18.21.49.25.71.08.22-.17.26-.49.08-.71h0Z" style="fill: #fff; stroke-width: 0px;"/>
  <path d="M767.87,313.62c-.09.4-.18.79-.28,1.19-1.26,5.32-2.96,10.53-5.06,15.57-.16.39-.32.79-.49,1.18-5.21,12.1-12.61,23.13-21.84,32.52-3.68,3.73-7.63,7.18-11.83,10.32-5.8,4.33-12.43,8.56-16.35,14.38-.42.6-.79,1.23-1.13,1.88l12.75,35.12c.07.07.13.13.2.2l.45,1.43c.23-.15.46-.3.69-.45.13-.08.26-.18.39-.26.09-.06.17-.12.26-.17.03-.02.06-.04.08-.06.08-.05.15-.1.23-.15,1.31-.87,2.61-1.76,3.91-2.65t.01-.01c9.96-6.72,19.08-14.6,27.19-23.48.24-.27.48-.54.72-.82,3.55-4.03,6.76-8.35,9.6-12.91,1.55-2.5,2.97-5.08,4.26-7.72,3.32-6.84,5.54-14.16,6.58-21.69,2.08-15.01-.67-30.52-9.62-42.5-.23-.31-.46-.61-.69-.91Z" style="fill: #3f3d56; stroke-width: 0px;"/>
  <path d="M767.46,313.86c2.88,18.75-.22,37.93-8.87,54.81-1.8,3.67-4.16,7.03-7,9.96-2.86,2.77-6.41,4.72-10.28,5.65-3.59.94-7.37,1.49-10.67,3.28-3.39,1.91-5.8,5.18-6.63,8.98-1.14,4.66-.55,9.45.2,14.11.83,5.18,1.77,10.54.22,15.68-.19.62.79.88.98.26,2.71-8.94-1.82-17.96-.9-27,.43-4.22,2.13-8.33,5.82-10.68,3.23-2.05,7.13-2.62,10.77-3.54,3.79-.85,7.31-2.62,10.26-5.15,2.98-2.78,5.47-6.04,7.36-9.66,4.38-8.07,7.46-16.77,9.14-25.79,1.97-10.29,2.16-20.84.57-31.19-.1-.64-1.07-.37-.97.27h0Z" style="fill: #fff; stroke-width: 0px;"/>
  <path d="M761.69,363.4c6.26,2.2,13.19-.46,16.37-6.28.31-.57-.56-1.08-.87-.51-2.95,5.43-9.42,7.89-15.24,5.81-.61-.22-.87.76-.26.98h0Z" style="fill: #fff; stroke-width: 0px;"/>
  <path d="M743.19,384.05c-2.89-5.89-3.46-12.66-1.58-18.95.19-.62-.79-.88-.98-.26-1.94,6.55-1.34,13.59,1.69,19.72.29.58,1.16.07.87-.51h0Z" style="fill: #fff; stroke-width: 0px;"/>
  <path d="M768.52,334.79c-2.56-.34-4.77-1.94-5.89-4.27-.28-.59-1.15-.07-.87.51,1.25,2.56,3.69,4.33,6.5,4.73.27.06.54-.1.62-.36.07-.27-.09-.54-.36-.62h0Z" style="fill: #fff; stroke-width: 0px;"/>
  <path d="M734.81,97.1h-143.79v9.25c0,.47.16.93.46,1.3-.29,7.23-.46,16.46-.46,26.49v247.3c0,23.18.93,42.04,2.07,42.04h139.65c1.14,0,2.07-18.86,2.07-42.04v-247.3c0-10.03-.17-19.26-.46-26.49.3-.37.46-.83.46-1.3v-9.25Z" style="fill: #fff; stroke-width: 0px;"/>
  <path d="M732.74,424.48h-139.65c-1.09,0-1.81,0-2.46-13.28-.39-7.97-.61-18.54-.61-29.76v-247.3c0-9.69.16-19.12.46-26.53.19-4.45.4-8.02.63-10.6.46-5.06.9-5.91,1.98-5.91h139.65c1.08,0,1.52.85,1.98,5.91.23,2.59.45,6.16.63,10.6h0c.3,7.41.46,16.83.46,26.53v247.3c0,11.22-.22,21.79-.61,29.76-.65,13.28-1.37,13.28-2.46,13.28ZM593.66,422.48h138.51c.72-2.73,1.64-17.57,1.64-41.04v-247.3c0-9.68-.16-19.07-.46-26.45h0c-.18-4.41-.4-7.94-.63-10.5-.09-1.38-.28-2.74-.56-4.09h-138.49c-.28,1.35-.47,2.72-.56,4.09-.23,2.55-.44,6.08-.63,10.5-.3,7.39-.46,16.78-.46,26.45v247.3c0,23.47.91,38.31,1.64,41.04Z" style="fill: #e4e4e4; stroke-width: 0px;"/>
  <path d="M732.74,90.6h-139.65c-1.14,0-2.07.93-2.07,2.07v12.18c0,.47.16.93.46,1.3.39.49.98.77,1.61.77h139.65c.63,0,1.22-.28,1.61-.77.3-.37.46-.83.46-1.3v-12.18c0-1.14-.93-2.07-2.07-2.07Z" style="fill: #3f3d56; stroke-width: 0px;"/>
  <circle id="b800b2fc-3bcc-4a40-9972-a80335d602c8" cx="603.04" cy="99.67" r="2.94" style="fill: #fff; stroke-width: 0px;"/>
  <circle id="fa63cc97-e384-451c-9b8c-3b6845b8b0f6" cx="614.2" cy="99.67" r="2.94" style="fill: #fff; stroke-width: 0px;"/>
  <circle id="beaeadfc-8efd-4e6c-adaf-945ac9d4d623" cx="625.36" cy="99.67" r="2.94" style="fill: #fff; stroke-width: 0px;"/>
  <path d="M721.81,95.74h-12.85c-.52,0-.95.43-.95.95,0,.14.03.28.1.41.16.33.49.54.85.54h12.85c.37,0,.7-.21.86-.54.06-.13.09-.27.09-.41,0-.52-.42-.95-.95-.95h0Z" style="fill: #fff; stroke-width: 0px;"/>
  <path d="M721.81,99.31h-12.85c-.52,0-.95.43-.95.95,0,.52.42.95.95.95h12.85c.52,0,.95-.42.95-.95,0-.52-.42-.95-.95-.95h0Z" style="fill: #fff; stroke-width: 0px;"/>
  <path d="M721.81,102.88h-12.85c-.52,0-.95.43-.95.95,0,.52.42.95.95.95h12.85c.52,0,.95-.42.95-.95,0-.52-.42-.95-.95-.95h0Z" style="fill: #fff; stroke-width: 0px;"/>
  <path d="M676.81,135.12h-26.44c-2.76,0-5,2.24-5,5v22.9c0,2.76,2.24,5,5,5h26.44c2.76,0,4.99-2.24,5-5v-22.9c0-2.76-2.24-5-5-5Z" style="fill: #1075e2; stroke-width: 0px;"/>
  <path d="M709.66,182.98h-92.15c-1.25,0-2.27,1.02-2.27,2.27s1.02,2.27,2.27,2.27h92.15c1.25,0,2.27-1.02,2.27-2.27s-1.02-2.27-2.27-2.27Z" style="fill: #e4e4e4; stroke-width: 0px;"/>
  <path d="M652.51,193.62h-35c-1.25,0-2.27,1.02-2.27,2.27s1.02,2.27,2.27,2.27h35c1.25,0,2.27-1.02,2.27-2.27s-1.02-2.27-2.27-2.27h0Z" style="fill: #e4e4e4; stroke-width: 0px;"/>
  <path d="M676.81,234.12h-26.44c-2.76,0-5,2.24-5,5v22.9c0,2.76,2.24,5,5,5h26.44c2.76,0,4.99-2.24,5-5v-22.9c0-2.76-2.24-5-5-5Z" style="fill: #1075e2; stroke-width: 0px;"/>
  <path d="M709.66,281.98h-92.15c-1.25,0-2.27,1.02-2.27,2.27s1.02,2.27,2.27,2.27h92.15c1.25,0,2.27-1.02,2.27-2.27s-1.02-2.27-2.27-2.27Z" style="fill: #e4e4e4; stroke-width: 0px;"/>
  <path d="M652.51,292.62h-35c-1.25,0-2.27,1.02-2.27,2.27s1.02,2.27,2.27,2.27h35c1.25,0,2.27-1.02,2.27-2.27s-1.02-2.27-2.27-2.27h0Z" style="fill: #e4e4e4; stroke-width: 0px;"/>
  <path d="M676.81,333.12h-26.44c-2.76,0-5,2.24-5,5v22.9c0,2.76,2.24,5,5,5h26.44c2.76,0,4.99-2.24,5-5v-22.9c0-2.76-2.24-5-5-5Z" style="fill: #1075e2; stroke-width: 0px;"/>
  <path d="M709.66,380.98h-92.15c-1.25,0-2.27,1.01-2.28,2.26s1.01,2.27,2.26,2.28h92.16c1.25,0,2.27-1.01,2.28-2.26s-1.01-2.27-2.26-2.28h-.01Z" style="fill: #e4e4e4; stroke-width: 0px;"/>
  <path d="M652.51,391.62h-35c-1.25,0-2.27,1.01-2.28,2.26s1.01,2.27,2.26,2.28h35.01c1.25,0,2.27-1.01,2.28-2.26s-1.01-2.27-2.26-2.28h-.01Z" style="fill: #e4e4e4; stroke-width: 0px;"/>
  <path d="M551.81,85.17c0-1.14-.93-2.07-2.07-2.07H180.09c-1.14,0-2.07.93-2.07,2.07v12.18c0,.51.19,1,.53,1.37-.33,8.27-.53,19.17-.53,31.11v274.91c0,25.78.93,46.74,2.07,46.74h369.65c1.14,0,2.07-20.96,2.07-46.74V129.83c0-11.94-.2-22.84-.53-31.11.34-.37.53-.86.53-1.37v-12.18Z" style="fill: #fff; stroke-width: 0px;"/>
  <path d="M549.74,452.48H180.09c-1.13,0-1.81,0-2.46-14.66-.39-8.85-.61-20.6-.61-33.08V129.83c0-11.51.19-22.57.53-31.15.66-16.58,1.41-16.58,2.54-16.58h369.65c1.13,0,1.88,0,2.54,16.58h0c.34,8.57.53,19.63.53,31.15v274.91c0,12.48-.22,24.23-.61,33.08-.65,14.66-1.33,14.66-2.46,14.66ZM180.67,450.48h368.48c.82-3.14,1.65-20.74,1.65-45.74V129.83c0-11.49-.19-22.52-.53-31.07h0c-.42-10.5-.9-13.7-1.14-14.66H180.68c-.23.96-.72,4.16-1.14,14.66-.34,8.55-.53,19.59-.53,31.07v274.91c0,25,.84,42.6,1.65,45.74Z" style="fill: #e4e4e4; stroke-width: 0px;"/>
  <path d="M549.74,81.6H180.09c-1.14,0-2.07.93-2.07,2.07v12.18c0,.51.19,1,.53,1.37.39.44.95.7,1.54.7h369.65c.59,0,1.15-.26,1.54-.7.34-.37.53-.86.53-1.37v-12.18c0-1.14-.93-2.07-2.07-2.07Z" style="fill: #3f3d56; stroke-width: 0px;"/>
  <circle id="b7005a6f-2f7f-4001-b097-d8b6c117468f" cx="190.04" cy="90.67" r="2.94" style="fill: #fff; stroke-width: 0px;"/>
  <circle id="a0adf4f5-8105-4330-a35a-c3adb8f4e7bc" cx="201.2" cy="90.67" r="2.94" style="fill: #fff; stroke-width: 0px;"/>
  <circle id="a64b73a5-7207-44c1-bcaf-f99ab7b9c6dc" cx="212.36" cy="90.67" r="2.94" style="fill: #fff; stroke-width: 0px;"/>
  <path d="M538.81,86.74h-12.85c-.52,0-.95.43-.95.95,0,.52.42.95.95.95h12.85c.52,0,.95-.42.95-.95,0-.52-.42-.95-.95-.95h0Z" style="fill: #fff; stroke-width: 0px;"/>
  <path d="M538.81,90.31h-12.85c-.52,0-.95.43-.95.95,0,.52.42.95.95.95h12.85c.52,0,.95-.42.95-.95,0-.52-.42-.95-.95-.95h0Z" style="fill: #fff; stroke-width: 0px;"/>
  <path d="M538.81,93.88h-12.85c-.52,0-.95.43-.95.95,0,.52.42.95.95.95h12.85c.52,0,.95-.42.95-.95,0-.52-.42-.95-.95-.95h0Z" style="fill: #fff; stroke-width: 0px;"/>
  <path d="M299.57,144.12h-43.26c-4.52,0-8.17,3.66-8.18,8.18v37.47c0,4.52,3.66,8.17,8.18,8.18h43.26c4.52,0,8.17-3.66,8.18-8.18v-37.47c0-4.52-3.66-8.17-8.18-8.18Z" style="fill: #1075e2; stroke-width: 0px;"/>
  <path d="M478,158.61h-150.78c-2.05,0-3.71,1.67-3.71,3.72,0,2.05,1.66,3.71,3.71,3.71h150.78c2.05,0,3.71-1.67,3.71-3.72,0-2.05-1.66-3.71-3.71-3.71Z" style="fill: #e4e4e4; stroke-width: 0px;"/>
  <path d="M384.49,176.02h-57.27c-2.05,0-3.71,1.67-3.71,3.72,0,2.05,1.66,3.71,3.71,3.71h57.27c2.05,0,3.71-1.67,3.71-3.72,0-2.05-1.66-3.71-3.71-3.71Z" style="fill: #e4e4e4; stroke-width: 0px;"/>
  <path d="M299.57,244.12h-43.26c-4.52,0-8.17,3.66-8.18,8.18v37.47c0,4.52,3.66,8.17,8.18,8.18h43.26c4.52,0,8.17-3.66,8.18-8.18v-37.47c0-4.52-3.66-8.17-8.18-8.18Z" style="fill: #1075e2; stroke-width: 0px;"/>
  <path d="M478,258.61h-150.78c-2.05,0-3.71,1.67-3.71,3.72,0,2.05,1.66,3.71,3.71,3.71h150.78c2.05,0,3.71-1.67,3.71-3.72,0-2.05-1.66-3.71-3.71-3.71Z" style="fill: #e4e4e4; stroke-width: 0px;"/>
  <path d="M384.49,276.02h-57.27c-2.05,0-3.71,1.67-3.71,3.72,0,2.05,1.66,3.71,3.71,3.71h57.27c2.05,0,3.71-1.67,3.71-3.72,0-2.05-1.66-3.71-3.71-3.71Z" style="fill: #e4e4e4; stroke-width: 0px;"/>
  <path d="M299.57,344.12h-43.26c-4.52,0-8.17,3.66-8.18,8.18v37.47c0,4.52,3.66,8.17,8.18,8.18h43.26c4.52,0,8.17-3.66,8.18-8.18v-37.47c0-4.52-3.66-8.17-8.18-8.18Z" style="fill: #1075e2; stroke-width: 0px;"/>
  <path d="M478,358.61h-150.78c-2.05,0-3.71,1.67-3.71,3.72,0,2.05,1.66,3.71,3.71,3.71h150.78c2.05,0,3.71-1.67,3.71-3.72,0-2.05-1.66-3.71-3.71-3.71Z" style="fill: #e4e4e4; stroke-width: 0px;"/>
  <path d="M384.49,376.02h-57.27c-2.05,0-3.71,1.67-3.71,3.72,0,2.05,1.66,3.71,3.71,3.71h57.27c2.05,0,3.71-1.67,3.71-3.72,0-2.05-1.66-3.71-3.71-3.71Z" style="fill: #e4e4e4; stroke-width: 0px;"/>
  <path d="M615.74,517.48h-247.65c-1.14,0-2.07-17.55-2.07-39.12v-230.13c0-21.57.93-39.12,2.07-39.12h247.65c1.14,0,2.07,17.55,2.07,39.12v230.13c0,21.57-.93,39.12-2.07,39.12Z" style="fill: #fff; stroke-width: 0px;"/>
  <path d="M615.74,518.48h-247.65c-1.05,0-1.8,0-2.46-12.42-.39-7.41-.61-17.25-.61-27.71v-230.13c0-10.45.22-20.29.61-27.7.66-12.42,1.41-12.42,2.46-12.42h247.65c1.05,0,1.8,0,2.46,12.42.39,7.41.61,17.25.61,27.7v230.13c0,10.45-.22,20.29-.61,27.71-.66,12.42-1.41,12.42-2.46,12.42ZM368.65,516.48h246.54c.72-2.59,1.62-16.39,1.62-38.12v-230.13c0-21.73-.91-35.53-1.62-38.12h-246.54c-.72,2.59-1.62,16.39-1.62,38.12v230.13c0,21.73.91,35.53,1.62,38.12Z" style="fill: #e4e4e4; stroke-width: 0px;"/>
  <path d="M615.74,224.42h-247.65c-1.14,0-2.07-.93-2.07-2.07v-12.18c0-1.14.93-2.07,2.07-2.07h247.65c1.14,0,2.07.93,2.07,2.07v12.18c0,1.14-.93,2.07-2.07,2.07Z" style="fill: #3f3d56; stroke-width: 0px;"/>
  <circle id="a9432236-99f6-4733-9920-e312ad95354d" cx="378.04" cy="216.67" r="2.94" style="fill: #fff; stroke-width: 0px;"/>
  <circle id="fc8d1cb9-e477-4d66-a241-a00170356ca4" cx="389.2" cy="216.67" r="2.94" style="fill: #fff; stroke-width: 0px;"/>
  <circle id="bc1189a4-69b8-41a6-80e2-1e52c3b8abfb" cx="400.36" cy="216.67" r="2.94" style="fill: #fff; stroke-width: 0px;"/>
  <path d="M604.81,214.64h-12.85c-.53,0-.95-.43-.95-.95s.43-.95.95-.95h12.85c.53,0,.95.43.95.96,0,.52-.43.95-.95.95Z" style="fill: #fff; stroke-width: 0px;"/>
  <path d="M604.81,218.21h-12.85c-.53,0-.95-.43-.95-.95s.43-.95.95-.95h12.85c.53,0,.95.43.95.95s-.43.95-.95.95h0Z" style="fill: #fff; stroke-width: 0px;"/>
  <path d="M604.81,221.78h-12.85c-.53,0-.95-.43-.95-.95s.43-.95.95-.95h12.85c.53,0,.95.43.95.96,0,.52-.43.95-.95.95Z" style="fill: #fff; stroke-width: 0px;"/>
  <path d="M444.19,301.02h-31.59c-3.3,0-5.97-2.68-5.97-5.97v-27.36c0-3.3,2.68-5.97,5.97-5.97h31.59c3.3,0,5.97,2.68,5.97,5.97v27.36c0,3.3-2.68,5.97-5.97,5.97Z" style="fill: #1075e2; stroke-width: 0px;"/>
  <path d="M574.5,277.72h-110.11c-1.5,0-2.71-1.21-2.71-2.71s1.21-2.71,2.71-2.71h110.11c1.5,0,2.71,1.21,2.71,2.71s-1.21,2.71-2.71,2.71Z" style="fill: #e4e4e4; stroke-width: 0px;"/>
  <path d="M506.21,290.43h-41.82c-1.5,0-2.71-1.21-2.72-2.71,0-1.5,1.21-2.71,2.71-2.72h41.83c1.5,0,2.72,1.21,2.72,2.7,0,1.5-1.21,2.72-2.7,2.72,0,0-.01,0-.02,0h0Z" style="fill: #e4e4e4; stroke-width: 0px;"/>
  <path d="M444.19,382.02h-31.59c-3.3,0-5.97-2.68-5.97-5.97v-27.36c0-3.3,2.68-5.97,5.97-5.97h31.59c3.3,0,5.97,2.68,5.97,5.97v27.36c0,3.3-2.68,5.97-5.97,5.97Z" style="fill: #1075e2; stroke-width: 0px;"/>
  <path d="M574.5,358.72h-110.11c-1.5,0-2.71-1.21-2.71-2.71s1.21-2.71,2.71-2.71h110.11c1.5,0,2.71,1.21,2.71,2.71s-1.21,2.71-2.71,2.71Z" style="fill: #e4e4e4; stroke-width: 0px;"/>
  <path d="M506.21,371.43h-41.82c-1.5,0-2.71-1.21-2.71-2.71s1.21-2.71,2.71-2.71h41.82c1.5,0,2.71,1.21,2.71,2.71s-1.21,2.71-2.71,2.71h0Z" style="fill: #e4e4e4; stroke-width: 0px;"/>
  <path d="M444.19,463.02h-31.59c-3.3,0-5.97-2.68-5.97-5.97v-27.36c0-3.3,2.68-5.97,5.97-5.97h31.59c3.3,0,5.97,2.68,5.97,5.97v27.36c0,3.3-2.68,5.97-5.97,5.97Z" style="fill: #1075e2; stroke-width: 0px;"/>
  <path d="M574.5,439.72h-110.11c-1.5,0-2.71-1.21-2.71-2.71s1.21-2.71,2.71-2.71h110.11c1.5,0,2.71,1.21,2.71,2.71s-1.21,2.71-2.71,2.71Z" style="fill: #e4e4e4; stroke-width: 0px;"/>
  <path d="M506.21,452.43h-41.82c-1.5,0-2.71-1.21-2.71-2.71s1.21-2.71,2.71-2.71h41.82c1.5,0,2.71,1.21,2.71,2.71s-1.21,2.71-2.71,2.71h0Z" style="fill: #e4e4e4; stroke-width: 0px;"/>
</svg>