<?xml version="1.0" encoding="UTF-8"?>
<svg id="Layer_1" data-name="Layer 1" xmlns="http://www.w3.org/2000/svg" width="926.62" height="600.08" viewBox="0 0 926.62 600.08">
  <path d="M511.33,85.57c5.4,11.49-6.04,14.75-19.15,20.91-13.11,6.16-22.92,12.89-28.32,1.4-5.4-11.49-9.78-34.3,8.76-43.01,19.18-9.01,33.3,9.22,38.7,20.71Z" style="fill: #2f2e41; stroke-width: 0px;"/>
  <circle cx="484.58" cy="90.52" r="17.64" style="fill: #ffb8b8; stroke-width: 0px;"/>
  <path d="M572,168.77c-.61-.8-1.22-1.58-1.84-2.34-.8-.99-1.6-1.95-2.41-2.88-9.15-10.55-18.87-17.2-29.58-17.91h-.17s-21.34,20.79-21.34,20.79l-7.26,7.07.16.39,3.92,9.75h68.6c-3.09-5.13-6.45-10.09-10.07-14.86Z" style="fill: #2f2e41; stroke-width: 0px;"/>
  <path d="M465.4,97.62h0l6.32-2.97-.88-9.11,4.22,7.54,3.02-1.42-.51-5.32,2.46,4.4,22.43-10.54h0c-4.39-9.34-15.51-13.35-24.85-8.96l-3.25,1.53c-9.34,4.39-13.35,15.51-8.96,24.85Z" style="fill: #2f2e41; stroke-width: 0px;"/>
  <path d="M611.58,417.91H243.16c-6.54,0-11.85-5.31-11.85-11.85v-221.38c0-4.79,3.89-8.68,8.68-8.68h374.62c4.88,0,8.83,3.96,8.83,8.83v221.23c0,6.54-5.31,11.85-11.85,11.85Z" style="fill: #f2f2f2; stroke-width: 0px;"/>
  <path d="M254.65,406.05h345.44c6.35,0,11.49-5.15,11.49-11.49v-187.9c0-6.35-5.15-11.49-11.49-11.49H254.65c-6.35,0-11.49,5.15-11.49,11.49v187.9c0,6.35,5.15,11.49,11.49,11.49Z" style="fill: #fff; stroke-width: 0px;"/>
  <path d="M623.27,183.99H231.14v-6.03c0-6.57,5.33-11.88,11.9-11.89h368.34c6.57,0,11.89,5.32,11.9,11.89v6.03Z" style="fill: #1075e2; stroke-width: 0px;"/>
  <circle cx="252.76" cy="175.05" r="3.08" style="fill: #fff; stroke-width: 0px;"/>
  <circle cx="264.44" cy="175.05" r="3.08" style="fill: #fff; stroke-width: 0px;"/>
  <circle cx="276.12" cy="175.05" r="3.08" style="fill: #fff; stroke-width: 0px;"/>
  <path d="M438.15,365.3h-30.89c-3.77,0-6.82-3.06-6.82-6.82v-30.89c0-3.77,3.06-6.82,6.82-6.82h30.89c3.77,0,6.82,3.06,6.82,6.82v30.89c0,3.77-3.06,6.82-6.82,6.82ZM407.26,322.2c-2.97,0-5.38,2.41-5.39,5.39v30.89c0,2.97,2.41,5.38,5.39,5.39h30.89c2.97,0,5.38-2.41,5.39-5.39v-30.89c0-2.97-2.41-5.38-5.39-5.39h-30.89Z" style="fill: #ccc; stroke-width: 0px;"/>
  <path d="M432.04,356.68h-18.68c-1.19,0-2.15-.97-2.16-2.16v-22.99c0-1.19.97-2.15,2.16-2.16h13.53c.49,0,.97.17,1.35.48l5.14,4.13c.51.41.81,1.03.81,1.68v18.86c0,1.19-.97,2.15-2.16,2.16ZM413.36,330.82c-.4,0-.72.32-.72.72v22.99c0,.4.32.72.72.72h18.68c.4,0,.72-.32.72-.72v-18.86c0-.22-.1-.42-.27-.56l-5.14-4.13c-.13-.1-.29-.16-.45-.16h-13.53Z" style="fill: #ccc; stroke-width: 0px;"/>
  <path d="M428.45,339.44h-11.49c-.4,0-.72-.32-.72-.72s.32-.72.72-.72h11.49c.4,0,.72.32.72.72s-.32.72-.72.72Z" style="fill: #ccc; stroke-width: 0px;"/>
  <path d="M428.45,343.75h-11.49c-.4,0-.72-.32-.72-.72s.32-.72.72-.72h11.49c.4,0,.72.32.72.72s-.32.72-.72.72Z" style="fill: #ccc; stroke-width: 0px;"/>
  <path d="M428.45,348.06h-11.49c-.4,0-.72-.32-.72-.72s.32-.72.72-.72h11.49c.4,0,.72.32.72.72s-.32.72-.72.72Z" style="fill: #ccc; stroke-width: 0px;"/>
  <path d="M511.43,365.3h-30.89c-3.77,0-6.82-3.06-6.82-6.82v-30.89c0-3.77,3.06-6.82,6.82-6.82h30.89c3.77,0,6.82,3.06,6.82,6.82v30.89c0,3.77-3.06,6.82-6.82,6.82ZM480.53,322.2c-2.97,0-5.38,2.41-5.39,5.39v30.89c0,2.97,2.41,5.38,5.39,5.39h30.89c2.97,0,5.38-2.41,5.39-5.39v-30.89c0-2.97-2.41-5.38-5.39-5.39h-30.89Z" style="fill: #ccc; stroke-width: 0px;"/>
  <path d="M506.04,350.94h-20.12c-1.19,0-2.15-.97-2.16-2.16v-11.49c0-1.19.97-2.15,2.16-2.16h20.12c1.19,0,2.15.97,2.16,2.16v11.49c0,1.19-.97,2.15-2.16,2.16ZM485.92,336.57c-.4,0-.72.32-.72.72v11.49c0,.4.32.72.72.72h20.12c.4,0,.72-.32.72-.72v-11.49c0-.4-.32-.72-.72-.72h-20.12Z" style="fill: #ccc; stroke-width: 0px;"/>
  <path d="M495.98,344.93c-.4,0-.8-.11-1.14-.33l-10.73-6.71c-.34-.21-.44-.65-.23-.99.21-.34.65-.44.99-.23l10.73,6.71c.23.14.53.14.76,0l10.73-6.71c.34-.21.78-.11.99.23.21.34.11.78-.23.99l-10.73,6.71c-.34.21-.74.33-1.14.33Z" style="fill: #ccc; stroke-width: 0px;"/>
  <path d="M364.87,365.3h-30.89c-3.77,0-6.82-3.06-6.82-6.82v-30.89c0-3.77,3.06-6.82,6.82-6.82h30.89c3.77,0,6.82,3.06,6.82,6.82v30.89c0,3.77-3.06,6.82-6.82,6.82ZM333.98,322.2c-2.97,0-5.38,2.41-5.39,5.39v30.89c0,2.97,2.41,5.38,5.39,5.39h30.89c2.97,0,5.38-2.41,5.39-5.39v-30.89c0-2.97-2.41-5.38-5.39-5.39h-30.89Z" style="fill: #ccc; stroke-width: 0px;"/>
  <path d="M359.48,350.94h-20.12c-1.19,0-2.15-.97-2.16-2.16v-11.49c0-1.19.97-2.15,2.16-2.16h20.12c1.19,0,2.15.97,2.16,2.16v11.49c0,1.19-.97,2.15-2.16,2.16ZM339.37,336.57c-.4,0-.72.32-.72.72v11.49c0,.4.32.72.72.72h20.12c.4,0,.72-.32.72-.72v-11.49c0-.4-.32-.72-.72-.72h-20.12Z" style="fill: #ccc; stroke-width: 0px;"/>
  <path d="M356.29,350.94h-14.46c-.79,0-1.44-.64-1.44-1.44,0-.25.07-.5.19-.72l4.35-7.54c.4-.69,1.28-.92,1.96-.53.22.13.4.31.53.53l2.81,4.87,1.63-2.82c.4-.69,1.28-.92,1.96-.53.22.13.4.31.53.53l3.17,5.49c.4.69.16,1.57-.53,1.96-.22.13-.47.19-.72.19h0ZM356.29,349.5h0l-3.17-5.49-2.25,3.9c-.13.22-.37.36-.62.36h0c-.26,0-.49-.14-.62-.36l-3.43-5.95-4.36,7.54h14.46Z" style="fill: #ccc; stroke-width: 0px;"/>
  <circle cx="357.33" cy="339.44" r="1.44" style="fill: #ccc; stroke-width: 0px;"/>
  <polygon points="700.88 528.08 692.07 528.07 687.88 494.1 700.88 494.1 700.88 528.08" style="fill: #ffb8b8; stroke-width: 0px;"/>
  <path d="M703.13,536.61h-28.4v-.36c0-6.1,4.95-11.05,11.05-11.05h17.35s0,11.41,0,11.41Z" style="fill: #2f2e41; stroke-width: 0px;"/>
  <polygon points="736.8 528.08 727.99 528.07 723.8 494.1 736.8 494.1 736.8 528.08" style="fill: #ffb8b8; stroke-width: 0px;"/>
  <path d="M739.05,536.61h-28.4v-.36c0-6.1,4.95-11.05,11.05-11.05h17.35s0,11.41,0,11.41Z" style="fill: #2f2e41; stroke-width: 0px;"/>
  <path d="M734.16,513.35l-8.16-2.48c-1.24-.38-2.14-1.46-2.27-2.75l-7.61-72.08c-.01-.18-.16-.32-.34-.32-.18-.02-.34.11-.37.29l-12.74,69.83c-.32,1.76-2,2.92-3.76,2.6-.02,0-.05,0-.07-.01l-10.43-2.15c-1.58-.33-2.68-1.77-2.57-3.39l7.75-114.45,52.54-5.67-7.81,127.68c-.1,1.7-1.51,3.03-3.22,3.04-.32,0-.64-.05-.95-.14Z" style="fill: #2f2e41; stroke-width: 0px;"/>
  <circle cx="734.11" cy="271.13" r="17.64" style="fill: #ffb8b8; stroke-width: 0px;"/>
  <path d="M693.51,389.11l11.39-71.73c2.36-14.83,16.29-24.95,31.13-22.59,1.14.18,2.26.43,3.36.75h0c13.43,3.88,21.71,17.34,19.11,31.08l-11.92,64.06-53.07-1.57Z" style="fill: #1075e2; stroke-width: 0px;"/>
  <path d="M738.98,401.95c3.33-2.2,4.25-6.68,2.05-10.01-.23-.35-.5-.69-.79-1l11.78-22.81-13.27,1.42-9.15,21.44c-2.72,2.95-2.53,7.55.42,10.26,2.47,2.27,6.17,2.56,8.96.69h0Z" style="fill: #ffb8b8; stroke-width: 0px;"/>
  <path d="M741.51,386.92c-.65-.09-1.26-.38-1.74-.83l-4.51-4.16c-1-.93-1.31-2.38-.78-3.63l9.01-21.35-1.28-42.18c.77-5.7,6.01-9.7,11.71-8.93,5.7.77,9.7,6.01,8.93,11.71,0,0,0,.02,0,.03l2.18,26.52c.66,8.05-1.62,16.06-6.42,22.56l-14.05,18.99c-.55.74-1.38,1.21-2.3,1.3-.25.02-.5.02-.75-.02Z" style="fill: #1075e2; stroke-width: 0px;"/>
  <path d="M632.5,261.51c.73,3.92,4.5,6.51,8.42,5.79.42-.08.83-.19,1.23-.34l16.41,19.74,3.87-12.77-16.18-16.79c-1.66-3.65-5.96-5.27-9.61-3.61-3.06,1.39-4.77,4.69-4.13,7.98Z" style="fill: #ffb8b8; stroke-width: 0px;"/>
  <path d="M645.36,269.7c.34-.56.84-1.01,1.44-1.28l5.59-2.53c1.24-.56,2.7-.28,3.65.69l16.15,16.62,39.34,15.27c4.95,2.93,6.58,9.32,3.65,14.27s-9.32,6.58-14.27,3.65c0,0-.02,0-.02-.01l-25.27-8.33c-7.67-2.53-14.16-7.75-18.27-14.71l-12.01-20.34c-.47-.79-.58-1.74-.3-2.62.08-.24.18-.47.31-.69Z" style="fill: #1075e2; stroke-width: 0px;"/>
  <polygon points="748.42 332.31 747.71 355.3 734.47 378.3 745.52 352.67 748.42 332.31" style="fill: #000; isolation: isolate; opacity: .1; stroke-width: 0px;"/>
  <path d="M732.09,274.44c-2.29.3-4.45-1.15-5.05-3.38-.57-2.53-2.49-4.54-4.99-5.23-3.24-.74-7.19.78-9.56-1.67-1.03-1.14-1.45-2.7-1.13-4.2.44-2.38,2.14-4.18,4-5.62,3.9-3.02,8.63-4.78,13.55-5.07,2.55-.07,5.1.05,7.63.38,2.65.17,5.27.65,7.8,1.43,5.87,2.22,10.21,7.28,11.5,13.42,1.17,6.14-.42,12.48-4.35,17.34-2.33,2.9-5.33,5.18-8.74,6.65-.81.38-1.74.43-2.59.13-2.12-.84-1.78-3.48-.81-5.23,1.04-1.88,2.63-3.7,1.8-5.98-.42-1.06-1.22-1.92-2.25-2.42-2.11-1.08-4.47-.82-6.74-.56h-.06Z" style="fill: #2f2e41; stroke-width: 0px;"/>
  <path d="M626.6,284.41h-218.4c-6.54,0-11.85-5.31-11.85-11.85v-46.7c0-6.54,5.31-11.85,11.85-11.85h218.4c6.54,0,11.85,5.31,11.85,11.85v46.7c0,6.54-5.31,11.85-11.85,11.85Z" style="fill: #fff; stroke-width: 0px;"/>
  <path d="M626.6,284.77h-218.4c-6.74,0-12.21-5.47-12.21-12.21v-46.7c0-6.74,5.47-12.21,12.21-12.21h218.4c6.74,0,12.21,5.47,12.21,12.21v46.7c0,6.74-5.47,12.21-12.21,12.21ZM408.21,215.08c-5.95,0-10.77,4.83-10.78,10.78v46.7c0,5.95,4.83,10.77,10.78,10.78h218.4c5.95,0,10.77-4.83,10.78-10.78v-46.7c0-5.95-4.83-10.77-10.78-10.78h-218.4Z" style="fill: #3f3d56; stroke-width: 0px;"/>
  <path d="M600.02,272.91h-165.23c-6.54,0-11.85-5.31-11.85-11.85v-24.43c0-6.54,5.31-11.85,11.85-11.85h165.23c6.54,0,11.85,5.31,11.85,11.85v24.43c0,6.54-5.31,11.85-11.85,11.85Z" style="fill: #f2f2f2; stroke-width: 0px;"/>
  <circle cx="470.35" cy="245.57" r="14.18" style="fill: #ff6584; stroke-width: 0px;"/>
  <path d="M589.75,271.48l-20.01-16.78-19.66-16.49c-1.07-.9-2.63-.9-3.7,0l-19.6,16.57-4.79,4.05-7.22-6.05-21.94-18.4c-1.07-.9-2.63-.9-3.7,0l-21.87,18.48-22.21,18.77c-.3.26-.34.71-.09,1.01.14.16.34.26.55.25l45.54-.09,14.41-.03-.14.12,42.97-.08,41-.08c.4,0,.72-.32.72-.72,0-.21-.09-.41-.26-.55Z" style="fill: #3f3d56; stroke-width: 0px;"/>
  <path d="M777.35,537.65h-137.93c-.4,0-.72-.32-.72-.72s.32-.72.72-.72h137.93c.4,0,.72.32.72.72s-.32.72-.72.72Z" style="fill: #ccc; stroke-width: 0px;"/>
  <path d="M582.51,157.21c-1.16-1.88-3.04-3.21-5.21-3.66-.39-.08-.79-.13-1.19-.15l-54.74-48.94c-1.08-1.11-2.51-1.79-4.04-1.93-.3-.03-.61-.04-.91-.03-3.59.16-6.37,3.2-6.2,6.79.07,1.63.76,3.18,1.92,4.33l20.96,18.27,34.41,29.99c.03.56.11,1.13.25,1.67.84,3.25,3.61,5.64,6.95,6.01,1.49.17,2.99-.08,4.35-.72,1.07-.5,2.02-1.23,2.79-2.13.08-.09.15-.18.22-.28,2.06-2.68,2.24-6.36.45-9.22h0Z" style="fill: #ffb8b8; stroke-width: 0px;"/>
  <path d="M488.89,204.37l-.51-20.73-.43-17.21-.29-12.04-.58-23.47c-.33-3.57-3.49-6.21-7.06-5.88-1.62.15-3.13.9-4.22,2.11-.2.21-.38.44-.54.69-.88,1.27-1.28,2.81-1.12,4.35l1.28,34.25.64,17.21.82,21.95c-.24.32-.45.66-.64,1.01-1.03,1.96-1.22,4.25-.51,6.35,1.43,4.26,6.03,6.55,10.29,5.12.3-.1.6-.22.89-.36,4.05-1.92,5.79-6.76,3.87-10.81-.45-.96-1.09-1.82-1.87-2.53h0Z" style="fill: #ffb8b8; stroke-width: 0px;"/>
  <path d="M538.17,145.64l-5.08-13.76-8.22-22.29c-1.2-3.28-3.83-5.84-7.15-6.95-.13-.04-.27-.09-.39-.12-3.21-.97-6.68-.5-9.51,1.31l-27.68,17.56c-5.27,3.33-6.94,10.25-3.79,15.63,3.46,5.99,7.23,11.79,11.3,17.38,3.23,4.39,9.23,4.86,10.27,12.04h20.41l20.66-18.55-.83-2.24Z" style="fill: #ccc; stroke-width: 0px;"/>
  <circle cx="221.23" cy="297.13" r="16.65" style="fill: #a0616a; stroke-width: 0px;"/>
  <path d="M262.1,285.67c.16.13.32.27.48.42,3,2.82,3.14,7.54.31,10.54-.19.21-.4.4-.61.58-.19.16-.38.3-.58.44l1.13,38.04c.07,2.56-1.55,4.85-3.98,5.65h-.07s-30.88,3.3-30.88,3.3c-3.51.37-6.66-2.17-7.03-5.68-.37-3.51,2.17-6.66,5.68-7.03.04,0,.08,0,.11-.01l22.02-1.94,3.81-32.94c-.25-.22-.48-.46-.7-.71-2.66-3.15-2.26-7.85.88-10.51,2.71-2.29,6.66-2.35,9.45-.15h0Z" style="fill: #a0616a; stroke-width: 0px;"/>
  <polygon points="248.64 528.81 256.95 528.81 260.91 496.76 248.64 496.76 248.64 528.81" style="fill: #a0616a; stroke-width: 0px;"/>
  <path d="M246.52,526.1h16.36s0,0,0,0c5.76,0,10.43,4.67,10.43,10.43h0v.34h-26.79s0-10.77,0-10.77Z" style="fill: #2f2e41; stroke-width: 0px;"/>
  <polygon points="166.05 517.32 173.19 521.57 192.99 496.06 182.45 489.78 166.05 517.32" style="fill: #a0616a; stroke-width: 0px;"/>
  <path d="M165.62,513.91l14.06,8.37h0c4.95,2.95,6.57,9.35,3.63,14.3,0,0,0,0,0,0l-.17.29-23.02-13.71,5.51-9.25Z" style="fill: #2f2e41; stroke-width: 0px;"/>
  <path d="M258.91,517.49h-9.3c-1.56,0-2.87-1.18-3.03-2.73l-9.38-88.18c-.06-.56-.56-.96-1.12-.9-.36.04-.67.26-.82.59l-16.92,37.47-29.96,48.85c-.8,1.29-2.43,1.8-3.83,1.2l-11.97-5.27c-1.54-.68-2.24-2.48-1.56-4.02.05-.12.11-.23.17-.33l27.54-46.12,8.45-38.86c-2.66-16.85,8.73-41.9,8.85-42.15l.06-.12,31.37-12.26.16.19c12.37,40.6,19.91,84.29,14.34,149.84-.14,1.58-1.46,2.79-3.04,2.79Z" style="fill: #2f2e41; stroke-width: 0px;"/>
  <path d="M214.82,381.03l-.15-.31c-.07-.15-7.05-14.86-12.42-30.58-2.09-6.15-1.51-12.89,1.61-18.59,3.15-5.76,8.58-9.93,14.95-11.5h0c11.31-2.71,22.9,3.27,27.25,14.06,4.27,10.67,2.91,22.05,1.63,31l-.03.18-.16.08-32.68,15.66Z" style="fill: #3f3d56; stroke-width: 0px;"/>
  <path d="M241.41,287.73h-26.43v-11.52c5.8-2.3,11.48-4.27,14.91,0,6.36,0,11.52,5.16,11.52,11.52h0Z" style="fill: #2f2e41; stroke-width: 0px;"/>
  <path d="M213.51,274.17c-15.8,0-20.23,19.81-20.23,30.98,0,6.23,2.82,8.46,7.25,9.21l1.56-8.34,3.66,8.7c1.24,0,2.55-.02,3.91-.04l1.24-2.56,2.77,2.51c11.09.02,20.06,1.63,20.06-9.48,0-11.17-3.88-30.98-20.22-30.98Z" style="fill: #2f2e41; stroke-width: 0px;"/>
  <path d="M287.2,537.65h-137.93c-.4,0-.72-.32-.72-.72s.32-.72.72-.72h137.93c.4,0,.72.32.72.72s-.32.72-.72.72Z" style="fill: #ccc; stroke-width: 0px;"/>
  <path d="M289.8,301.29h-30.89c-3.77,0-6.82-3.06-6.82-6.82v-30.89c0-3.77,3.06-6.82,6.82-6.82h30.89c3.77,0,6.82,3.06,6.82,6.82v30.89c0,3.77-3.06,6.82-6.82,6.82Z" style="fill: #fff; stroke-width: 0px;"/>
  <path d="M289.8,301.29h-30.89c-3.77,0-6.82-3.06-6.82-6.82v-30.89c0-3.77,3.06-6.82,6.82-6.82h30.89c3.77,0,6.82,3.06,6.82,6.82v30.89c0,3.77-3.06,6.82-6.82,6.82ZM258.9,258.19c-2.97,0-5.38,2.41-5.39,5.39v30.89c0,2.97,2.41,5.38,5.39,5.39h30.89c2.97,0,5.38-2.41,5.39-5.39v-30.89c0-2.97-2.41-5.38-5.39-5.39h-30.89Z" style="fill: #3f3d56; stroke-width: 0px;"/>
  <path d="M284.41,288.72h-20.12c-1.19,0-2.15-.97-2.16-2.16v-15.09c0-1.19.97-2.15,2.16-2.16h5.66c.75,0,1.45.39,1.84,1.03l1.58,2.57h11.04c1.19,0,2.15.97,2.16,2.16v11.49c0,1.19-.97,2.15-2.16,2.16Z" style="fill: #1075e2; stroke-width: 0px;"/>
  <path d="M283.75,296.34c.1.18.19.37.28.57,1.67,3.77-.03,8.17-3.8,9.84-.26.11-.52.21-.79.3-.23.07-.47.13-.71.18l-13.72,35.49c-.93,2.38-3.32,3.87-5.86,3.66h-.07s-29.74-8.97-29.74-8.97c-3.38-1.02-5.3-4.58-4.28-7.96,1.02-3.38,4.58-5.3,7.96-4.28.04.01.07.02.11.03l21.04,6.76,16.29-28.88c-.14-.3-.27-.61-.37-.93-1.23-3.93.96-8.11,4.89-9.34,3.39-1.06,7.05.42,8.76,3.53h0Z" style="fill: #a0616a; stroke-width: 0px;"/>
</svg>