<?xml version="1.0" encoding="UTF-8"?>
<svg id="Layer_2" data-name="Layer 2" xmlns="http://www.w3.org/2000/svg" width="120" height="120" xmlns:xlink="http://www.w3.org/1999/xlink" viewBox="0 0 120 120">
  <defs>
    <clipPath id="clippath">
      <rect width="120" height="120" style="fill: none; stroke-width: 0px;"/>
    </clipPath>
  </defs>
  <g id="Layer_1-2" data-name="Layer 1">
    <g style="clip-path: url(#clippath);">
      <g>
        <g>
          <path d="M0,0h109.97v91.64H0V0Z" style="fill: #fefffe; fill-rule: evenodd; stroke-width: 0px;"/>
          <path d="M103.86,67.2c-8.68-7.4-17.59-14.53-26.73-21.38-6.08,3.79-11.93,7.86-17.56,12.22-8.03-5.98-15.67-12.6-22.91-19.86-9.77,8.76-19.95,16.91-30.55,24.44V6.11h97.75v61.1Z" style="fill: #deeffd; fill-rule: evenodd; stroke-width: 0px;"/>
          <path d="M59.57,58.04c8.58,9.09,17.23,18.26,25.97,27.49H6.11v-22.91c10.59-7.53,20.78-15.68,30.55-24.44,7.25,7.26,14.88,13.88,22.91,19.86Z" style="fill: #b6dcfd; fill-rule: evenodd; stroke-width: 0px;"/>
          <path d="M103.86,67.2v18.33h-18.33c-8.73-9.24-17.39-18.4-25.97-27.49,5.63-4.35,11.49-8.43,17.56-12.22,9.14,6.85,18.05,13.98,26.73,21.38Z" style="fill: #98ccfd; fill-rule: evenodd; stroke-width: 0px;"/>
          <circle cx="85.28" cy="24.42" r="8.91" style="fill: #9bcdfd; stroke-width: 0px;"/>
        </g>
        <g>
          <path d="M32.08,117.91c-.43,0-.65-.23-.65-.69,0-.49.22-.74.65-.74,1.54,0,2.62-.22,3.24-.65.62-.43.93-1.16.93-2.18v-26.84c0-.65-.32-.97-.97-.97h-3.01c-1.17,0-2.17.25-2.98.76-.82.51-1.5,1.14-2.04,1.9-.54.76-.99,1.52-1.34,2.29-.35.77-.64,1.42-.86,1.94-.06.22-.16.34-.3.37-.14.03-.33.03-.58,0-.31-.03-.46-.23-.46-.6,0-.12.02-.5.05-1.13s.06-1.37.09-2.2c.03-.83.07-1.6.12-2.31.05-.71.07-1.2.07-1.48.06-.71.46-1.06,1.2-1.06.25,0,1.6.02,4.05.07,2.45.05,5.64.07,9.56.07s7.12-.02,9.6-.07c2.48-.05,3.83-.07,4.05-.07.77,0,1.17.37,1.2,1.11,0,.22.02.68.07,1.39.05.71.08,1.48.12,2.31.03.83.06,1.57.09,2.22.03.65.05,1.03.05,1.16,0,.37-.19.57-.56.6-.15.03-.3.03-.44,0-.14-.03-.27-.15-.39-.37-.25-.52-.54-1.17-.88-1.94-.34-.77-.79-1.53-1.34-2.29-.56-.76-1.23-1.39-2.04-1.9s-1.79-.76-2.96-.76h-3.29c-.31,0-.56.06-.74.19-.19.12-.28.39-.28.79v26.84c0,.93.24,1.63.72,2.11.48.48,1.58.72,3.31.72.22,0,.39.08.51.23.12.15.19.32.19.51,0,.46-.23.69-.69.69-.31,0-.98-.02-2.01-.07-1.03-.05-2.51-.07-4.42-.07s-3.46.02-4.54.07c-1.08.05-1.77.07-2.08.07Z" style="fill: #4788c7; stroke-width: 0px;"/>
          <path d="M65.87,118.46c-3.27,0-5.87-.96-7.8-2.89s-2.89-4.53-2.89-7.8c0-2.04.44-3.92,1.32-5.65.88-1.73,2.1-3.12,3.66-4.17,1.56-1.05,3.36-1.57,5.39-1.57,1.6,0,2.99.32,4.16.97s2.14,1.49,2.89,2.52c.76,1.03,1.32,2.13,1.69,3.29.37,1.16.55,2.26.55,3.31,0,.46-.29.69-.88.69h-13.14c-.46,0-.7.23-.7.69,0,2.1.27,3.75.81,4.95.54,1.2,1.27,2.05,2.2,2.55.93.49,1.99.74,3.19.74,1.61,0,2.98-.38,4.12-1.13,1.14-.76,2.04-1.55,2.69-2.38.34-.4.72-.46,1.16-.19.4.31.46.68.19,1.11-.46.74-1.07,1.49-1.83,2.24-.76.76-1.68,1.4-2.78,1.92s-2.43.79-4,.79ZM61.05,105.37h7.82c.59,0,.88-.28.88-.83,0-1.11-.13-2.17-.39-3.17-.26-1-.71-1.81-1.34-2.43-.63-.62-1.49-.93-2.57-.93-1.39,0-2.49.64-3.31,1.92-.82,1.28-1.4,2.86-1.74,4.74-.09.46.12.69.65.69Z" style="fill: #4788c7; stroke-width: 0px;"/>
          <path d="M78.08,117.91c-.43,0-.65-.26-.65-.79,0-.49.22-.74.65-.74.71,0,1.45-.2,2.22-.6.77-.4,1.56-1.13,2.36-2.18,1.08-1.42,1.9-2.51,2.45-3.26.56-.76,1.03-1.41,1.43-1.97.19-.25.22-.46.09-.65-.16-.19-.46-.59-.9-1.2-.45-.62-.95-1.3-1.5-2.04-.56-.74-1.05-1.4-1.48-1.99-.43-.59-.71-.94-.83-1.06-.68-.89-1.28-1.61-1.8-2.15-.53-.54-1.14-.81-1.85-.81-.46,0-.69-.26-.69-.79,0-.19.06-.35.19-.51.12-.15.29-.23.51-.23.34,0,.88.02,1.62.07s1.5.07,2.27.07,1.6-.02,2.5-.07c.89-.05,1.5-.07,1.8-.07.22,0,.39.08.51.23.12.15.18.32.18.51,0,.52-.23.79-.69.79-.4,0-.64.12-.72.37-.08.25,0,.54.21.88l3.33,4.49c.12.15.28.12.46-.09.15-.19.4-.5.74-.95.34-.45.67-.89,1-1.34.32-.45.52-.72.58-.81.46-.65.62-1.23.49-1.76-.14-.52-.66-.79-1.55-.79-.46,0-.69-.26-.69-.79,0-.19.06-.35.18-.51.12-.15.29-.23.51-.23.34,0,.82.02,1.46.07s1.33.07,2.11.07,1.47-.02,2.11-.07c.63-.05,1.1-.07,1.41-.07.22,0,.39.08.51.23.12.15.18.32.18.51,0,.52-.23.79-.69.79-.68,0-1.41.27-2.2.81-.79.54-1.54,1.3-2.24,2.29-.16.19-.42.54-.79,1.06-.37.52-.76,1.06-1.16,1.6-.4.54-.72.95-.97,1.23-.15.22-.15.43,0,.65s.49.68,1.02,1.39c.52.71,1.09,1.48,1.71,2.31s1.18,1.59,1.69,2.27c.51.68.83,1.1.95,1.25,1.54,2.04,2.79,3.05,3.75,3.05.46,0,.69.25.69.74,0,.52-.23.79-.69.79-.18,0-.54-.02-1.06-.05-.52-.03-1.09-.05-1.69-.07-.6-.02-1.17-.02-1.69-.02-.77,0-1.59.02-2.45.07-.86.05-1.47.07-1.8.07-.46,0-.69-.26-.69-.79,0-.49.23-.74.69-.74.55,0,.88-.18.97-.53.09-.35.02-.72-.23-1.09-.09-.12-.32-.43-.69-.93-.37-.49-.78-1.05-1.23-1.67-.45-.62-.86-1.17-1.23-1.67-.37-.49-.6-.8-.69-.93-.12-.22-.28-.2-.46.05-.12.19-.39.54-.79,1.06-.4.52-.79,1.05-1.18,1.57-.39.52-.64.88-.76,1.06-.59.86-.69,1.59-.3,2.17.38.59.96.88,1.74.88.46,0,.69.25.69.74,0,.52-.23.79-.69.79-.31,0-.89-.02-1.74-.07-.85-.05-1.66-.07-2.43-.07s-1.55.02-2.34.07c-.79.05-1.35.07-1.69.07Z" style="fill: #4788c7; stroke-width: 0px;"/>
          <path d="M111.08,118.46c-.77,0-1.53-.12-2.27-.37s-1.34-.68-1.8-1.3c-.46-.62-.69-1.46-.69-2.55v-15.13c0-.25-.12-.37-.37-.37h-2.68c-.19,0-.35-.07-.49-.21-.14-.14-.21-.3-.21-.49v-.23c0-.19.07-.33.21-.44.14-.11.3-.19.49-.25,1.63-.52,2.88-1.4,3.73-2.61.85-1.22,1.38-2.91,1.6-5.07,0-.19.07-.35.21-.49s.3-.21.49-.21h.74c.19,0,.35.07.51.21s.23.3.23.49v7.13c0,.25.12.37.37.37h4.95c.46,0,.69.23.69.69v.42c0,.46-.23.69-.69.69h-4.95c-.25,0-.37.12-.37.37v13.65c0,1.67.85,2.5,2.55,2.5.8,0,1.5-.25,2.08-.74.59-.49,1.05-1.05,1.39-1.67.15-.25.32-.38.51-.39.19-.02.39.04.6.16.37.25.45.6.23,1.06-.34.77-.81,1.53-1.41,2.27-.6.74-1.37,1.34-2.29,1.81-.93.46-2.04.69-3.33.69Z" style="fill: #4788c7; stroke-width: 0px;"/>
        </g>
      </g>
    </g>
  </g>
</svg>