<?xml version="1.0" encoding="UTF-8"?>
<svg id="Layer_2" data-name="Layer 2" xmlns="http://www.w3.org/2000/svg" width="120" height="120" xmlns:xlink="http://www.w3.org/1999/xlink" viewBox="0 0 120 120">
  <defs>
    <clipPath id="clippath">
      <rect width="120" height="120" style="fill: none; stroke-width: 0px;"/>
    </clipPath>
  </defs>
  <g id="Layer_1-2" data-name="Layer 1">
    <g style="clip-path: url(#clippath);">
      <g>
        <path d="M87.43,32.57l-24.68-2.74-30.17,2.74-2.74,27.43,2.74,27.43,27.43,3.43,27.43-3.43,2.74-28.11-2.74-26.74Z" style="fill: #fff; stroke-width: 0px;"/>
        <path d="M43.83,75.13c-2.05-1.39-3.47-3.41-4.24-6.08l4.76-1.96c.43,1.65,1.19,2.92,2.26,3.83,1.07.91,2.37,1.35,3.89,1.35s2.89-.47,4.01-1.42,1.68-2.15,1.68-3.61-.59-2.72-1.77-3.66-2.66-1.42-4.43-1.42h-2.75v-4.71h2.47c1.52,0,2.8-.41,3.85-1.23,1.04-.82,1.56-1.95,1.56-3.38,0-1.28-.47-2.29-1.4-3.05s-2.11-1.14-3.55-1.14-2.51.37-3.33,1.12-1.42,1.67-1.8,2.75l-4.71-1.96c.62-1.77,1.77-3.33,3.45-4.68,1.68-1.35,3.83-2.03,6.43-2.03,1.93,0,3.66.37,5.2,1.12,1.54.75,2.74,1.78,3.61,3.1.87,1.32,1.3,2.8,1.3,4.45s-.4,3.1-1.21,4.26-1.8,2.06-2.98,2.68v.28c1.56.65,2.82,1.65,3.83,2.98.99,1.34,1.49,2.93,1.49,4.8s-.47,3.53-1.42,4.99-2.26,2.61-3.92,3.45c-1.67.84-3.54,1.26-5.62,1.26-2.41,0-4.63-.69-6.68-2.07Z" style="fill: #1a73e8; stroke-width: 0px;"/>
        <path d="M73.03,51.51l-5.2,3.78-2.61-3.96,9.37-6.76h3.59v31.89h-5.16v-24.94Z" style="fill: #1a73e8; stroke-width: 0px;"/>
        <path d="M87.43,112.11l24.68-24.68-12.34-5.49-12.34,5.49-5.49,12.34,5.49,12.34Z" style="fill: #ea4335; stroke-width: 0px;"/>
        <path d="M27.09,99.77l5.49,12.34h54.85v-24.68h-54.85l-5.49,12.34Z" style="fill: #34a853; stroke-width: 0px;"/>
        <path d="M16.12,7.89c-4.55,0-8.23,3.68-8.23,8.23v71.31l12.34,5.49,12.34-5.49v-54.85h54.85l5.49-12.34-5.48-12.34H16.12Z" style="fill: #4285f4; stroke-width: 0px;"/>
        <path d="M7.89,87.43v16.46c0,4.55,3.68,8.23,8.23,8.23h16.46v-24.68H7.89Z" style="fill: #188038; stroke-width: 0px;"/>
        <path d="M87.43,32.57v54.85h24.68v-54.85l-12.34-5.49-12.34,5.49Z" style="fill: #fbbc04; stroke-width: 0px;"/>
        <path d="M112.11,32.57v-16.46c0-4.55-3.68-8.23-8.23-8.23h-16.46v24.68h24.68Z" style="fill: #1967d2; stroke-width: 0px;"/>
      </g>
    </g>
  </g>
</svg>