<?xml version="1.0" encoding="UTF-8"?>
<svg id="Layer_2" data-name="Layer 2" xmlns="http://www.w3.org/2000/svg" width="120" height="120" xmlns:xlink="http://www.w3.org/1999/xlink" viewBox="0 0 120 120">
  <defs>
    <clipPath id="clippath">
      <rect width="120" height="120" style="fill: none; stroke-width: 0px;"/>
    </clipPath>
  </defs>
  <g id="Layer_1-2" data-name="Layer 1">
    <g style="clip-path: url(#clippath);">
      <g>
        <path d="M72.66,1.94c-3.98-1.26-8.24-1.94-12.65-1.94-12.86,0-24.37,5.8-32.07,14.94l19.78,16.63L72.66,1.94Z" style="fill: #1a73e8; stroke-width: 0px;"/>
        <path d="M27.95,14.94c-6.34,7.53-9.81,17.06-9.8,26.9,0,7.86,1.56,14.26,4.14,19.96l25.44-30.24L27.95,14.94Z" style="fill: #ea4335; stroke-width: 0px;"/>
        <path d="M60.01,25.86c8.85,0,16.01,7.19,16,16.03,0,3.78-1.34,7.44-3.78,10.33l24.91-29.63c-5.11-9.85-13.93-17.27-24.51-20.63l-24.89,29.63c3.04-3.64,7.53-5.74,12.27-5.73" style="fill: #4285f4; stroke-width: 0px;"/>
        <path d="M60.01,57.88c-8.83,0-16.01-7.18-16.01-16.01-.01-3.76,1.32-7.4,3.74-10.28l-25.46,30.24c4.36,9.64,11.58,17.38,19.02,27.14l30.93-36.76c-3.04,3.59-7.51,5.66-12.22,5.66" style="fill: #fbbc04; stroke-width: 0px;"/>
        <path d="M71.62,98.99c13.97-21.84,30.24-31.76,30.24-57.15,0-6.96-1.71-13.52-4.71-19.3l-55.82,66.43c2.37,3.1,4.76,6.39,7.08,10.04,8.48,13.12,6.13,20.98,11.6,20.98s3.13-7.89,11.6-21.01" style="fill: #34a853; stroke-width: 0px;"/>
      </g>
    </g>
  </g>
</svg>