<?xml version="1.0" encoding="UTF-8"?>
<svg id="Layer_2" data-name="Layer 2" xmlns="http://www.w3.org/2000/svg" width="120" height="120" xmlns:xlink="http://www.w3.org/1999/xlink" viewBox="0 0 120 120">
  <defs>
    <linearGradient id="linear-gradient" x1="53.02" y1="50.47" x2="85.66" y2="78.77" gradientUnits="userSpaceOnUse">
      <stop offset="0" stop-color="#1454dd"/>
      <stop offset="1" stop-color="#00c3ee"/>
    </linearGradient>
  </defs>
  <g id="Layer_1-2" data-name="Layer 1">
    <g>
      <rect width="120" height="120" style="fill: #f5f5f7; stroke-width: 0px;"/>
      <g>
        <rect x="19.01" y="19.01" width="81.98" height="81.98" style="fill: #fff; stroke-width: 0px;"/>
        <path d="M57.43,89.69c-3.55,0-6.64-.6-9.26-1.8-2.62-1.2-4.78-2.75-6.48-4.63-1.69-1.89-2.95-3.84-3.77-5.86-.82-2.02-1.23-3.85-1.23-5.49l13.36-4.1c.6,2.68,1.53,4.67,2.79,5.98,1.26,1.31,2.84,1.97,4.75,1.97,1.42,0,2.66-.3,3.73-.9,1.07-.6,1.9-1.52,2.5-2.75.6-1.23.9-2.77.9-4.63V30.99h15.17v40.25c0,2.68-.51,5.15-1.52,7.42-1.01,2.27-2.49,4.22-4.43,5.86-1.94,1.64-4.3,2.91-7.09,3.81s-5.93,1.35-9.43,1.35Z" style="fill: url(#linear-gradient); stroke-width: 0px;"/>
      </g>
    </g>
  </g>
</svg>