<?xml version="1.0" encoding="UTF-8"?>
<svg id="Layer_2" data-name="Layer 2" xmlns="http://www.w3.org/2000/svg" width="120" height="120" xmlns:xlink="http://www.w3.org/1999/xlink" viewBox="0 0 120 120">
  <defs>
    <clipPath id="clippath">
      <rect width="120" height="120" style="fill: none; stroke-width: 0px;"/>
    </clipPath>
    <radialGradient id="radial-gradient" cx="-19.28" cy="519.91" fx="-19.28" fy="519.91" r="47.98" gradientTransform="translate(996.16 77.15) rotate(-90) scale(1.98 -1.84)" gradientUnits="userSpaceOnUse">
      <stop offset="0" stop-color="#fd5"/>
      <stop offset=".1" stop-color="#fd5"/>
      <stop offset=".5" stop-color="#ff543e"/>
      <stop offset="1" stop-color="#c837ab"/>
    </radialGradient>
    <radialGradient id="radial-gradient-2" cx="-546.37" cy="601.51" fx="-546.37" fy="601.51" r="47.98" gradientTransform="translate(-2063.53 924.98) rotate(78.68) scale(.89 -3.65)" gradientUnits="userSpaceOnUse">
      <stop offset="0" stop-color="#3771c8"/>
      <stop offset=".13" stop-color="#3771c8"/>
      <stop offset="1" stop-color="#60f" stop-opacity="0"/>
    </radialGradient>
  </defs>
  <g id="Layer_1-2" data-name="Layer 1">
    <g style="clip-path: url(#clippath);">
      <g>
        <path d="M60.02,12.03c-20.03,0-25.89.02-27.03.12-4.11.34-6.67.99-9.46,2.38-2.15,1.07-3.84,2.3-5.51,4.04-3.04,3.16-4.89,7.05-5.56,11.67-.32,2.24-.42,2.7-.44,14.16,0,3.82,0,8.85,0,15.59,0,20.02.02,25.87.12,27.01.33,4,.96,6.52,2.29,9.27,2.54,5.27,7.39,9.23,13.1,10.7,1.98.51,4.16.79,6.97.92,1.19.05,13.3.09,25.42.09s24.24-.01,25.4-.07c3.25-.15,5.13-.41,7.22-.94,5.75-1.48,10.51-5.38,13.1-10.72,1.3-2.69,1.96-5.3,2.26-9.09.06-.83.09-14.01.09-27.17s-.03-26.32-.09-27.15c-.3-3.85-.96-6.44-2.31-9.18-1.1-2.24-2.33-3.92-4.11-5.63-3.17-3.03-7.06-4.88-11.68-5.54-2.24-.32-2.69-.42-14.16-.44h-15.62Z" style="fill: url(#radial-gradient); stroke-width: 0px;"/>
        <path d="M60.02,12.03c-20.03,0-25.89.02-27.03.12-4.11.34-6.67.99-9.46,2.38-2.15,1.07-3.84,2.3-5.51,4.04-3.04,3.16-4.89,7.05-5.56,11.67-.32,2.24-.42,2.7-.44,14.16,0,3.82,0,8.85,0,15.59,0,20.02.02,25.87.12,27.01.33,4,.96,6.52,2.29,9.27,2.54,5.27,7.39,9.23,13.1,10.7,1.98.51,4.16.79,6.97.92,1.19.05,13.3.09,25.42.09s24.24-.01,25.4-.07c3.25-.15,5.13-.41,7.22-.94,5.75-1.48,10.51-5.38,13.1-10.72,1.3-2.69,1.96-5.3,2.26-9.09.06-.83.09-14.01.09-27.17s-.03-26.32-.09-27.15c-.3-3.85-.96-6.44-2.31-9.18-1.1-2.24-2.33-3.92-4.11-5.63-3.17-3.03-7.06-4.88-11.68-5.54-2.24-.32-2.69-.42-14.16-.44h-15.62Z" style="fill: url(#radial-gradient-2); stroke-width: 0px;"/>
        <path d="M59.99,24.57c-9.62,0-10.83.04-14.61.21-3.77.17-6.35.77-8.6,1.65-2.33.9-4.31,2.12-6.28,4.09-1.97,1.97-3.18,3.95-4.09,6.28-.88,2.25-1.48,4.83-1.65,8.6-.17,3.78-.21,4.99-.21,14.61s.04,10.83.21,14.61c.17,3.77.77,6.35,1.65,8.6.91,2.33,2.12,4.31,4.09,6.28,1.97,1.97,3.95,3.18,6.27,4.09,2.25.88,4.83,1.47,8.6,1.65,3.78.17,4.99.21,14.61.21s10.83-.04,14.61-.21c3.77-.17,6.35-.77,8.6-1.65,2.33-.9,4.3-2.12,6.27-4.09,1.97-1.97,3.18-3.95,4.09-6.28.87-2.25,1.47-4.83,1.65-8.6.17-3.78.21-4.98.21-14.61s-.04-10.83-.21-14.61c-.18-3.77-.78-6.35-1.65-8.6-.91-2.33-2.12-4.31-4.09-6.28-1.97-1.97-3.94-3.18-6.27-4.09-2.26-.88-4.83-1.47-8.61-1.65-3.78-.17-4.98-.21-14.61-.21h.01ZM56.82,30.96c.94,0,2,0,3.18,0,9.46,0,10.58.03,14.32.2,3.45.16,5.33.74,6.58,1.22,1.65.64,2.83,1.41,4.07,2.65,1.24,1.24,2.01,2.42,2.65,4.07.48,1.25,1.06,3.12,1.22,6.58.17,3.73.21,4.86.21,14.31s-.04,10.58-.21,14.31c-.16,3.45-.74,5.33-1.22,6.58-.64,1.65-1.41,2.83-2.65,4.07-1.24,1.24-2.42,2.01-4.07,2.65-1.25.49-3.12,1.06-6.58,1.22-3.73.17-4.86.21-14.32.21s-10.58-.04-14.32-.21c-3.45-.16-5.33-.74-6.58-1.22-1.65-.64-2.83-1.41-4.07-2.65-1.24-1.24-2.01-2.42-2.65-4.07-.48-1.25-1.06-3.12-1.22-6.58-.17-3.73-.2-4.86-.2-14.32s.03-10.58.2-14.31c.16-3.45.74-5.33,1.22-6.58.64-1.65,1.41-2.83,2.65-4.07,1.24-1.24,2.42-2.01,4.07-2.65,1.25-.49,3.12-1.06,6.58-1.22,3.27-.15,4.53-.19,11.14-.2h0ZM78.91,36.84c-2.35,0-4.25,1.9-4.25,4.25s1.9,4.25,4.25,4.25,4.25-1.9,4.25-4.25-1.9-4.25-4.25-4.25h0ZM59.99,41.81c-10.05,0-18.19,8.15-18.19,18.19s8.15,18.19,18.19,18.19c10.05,0,18.19-8.14,18.19-18.19s-8.14-18.19-18.19-18.19h0ZM59.99,48.19c6.52,0,11.81,5.29,11.81,11.81s-5.29,11.81-11.81,11.81-11.81-5.29-11.81-11.81,5.29-11.81,11.81-11.81Z" style="fill: #fff; stroke-width: 0px;"/>
      </g>
    </g>
  </g>
</svg>