<?xml version="1.0" encoding="UTF-8"?>
<svg id="Layer_2" data-name="Layer 2" xmlns="http://www.w3.org/2000/svg" width="120" height="120" xmlns:xlink="http://www.w3.org/1999/xlink" viewBox="0 0 120 120">
  <defs>
    <clipPath id="clippath">
      <rect width="120" height="120" style="fill: none; stroke-width: 0px;"/>
    </clipPath>
  </defs>
  <g id="Layer_1-2" data-name="Layer 1">
    <g style="clip-path: url(#clippath);">
      <g>
        <path d="M120,10.42v82.3c0,3.96-3.21,7.18-7.18,7.18H7.18c-3.96,0-7.18-3.22-7.18-7.18V10.42c0-2.91,2.36-5.26,5.27-5.26h109.47c2.91,0,5.26,2.35,5.26,5.26Z" style="fill: #458cf5; fill-rule: evenodd; stroke-width: 0px;"/>
        <path d="M120,27.8v64.93c0,3.96-3.21,7.18-7.18,7.18H7.18c-3.96,0-7.18-3.22-7.18-7.18V27.8h120Z" style="fill: #f5f5f7; stroke-width: 0px;"/>
        <path d="M12.37,10.95c2.47,0,4.47,2,4.47,4.47s-2,4.47-4.47,4.47-4.47-2-4.47-4.47,2-4.47,4.47-4.47ZM25.53,10.95c2.47,0,4.47,2,4.47,4.47s-2,4.47-4.47,4.47-4.47-2-4.47-4.47,2-4.47,4.47-4.47Z" style="fill: #e6e7e8; fill-rule: evenodd; stroke-width: 0px;"/>
        <g>
          <path d="M80.34,49.34h-27.78v7.94h-11.91v3.97h11.91v3.97h-11.91v3.97h11.91v3.97h-11.91v3.97h11.91v3.97h-11.91v3.97h11.91v3.97h-11.91v3.97h11.91v11.91h-21.83V39.42h49.61v9.92Z" style="fill: #98ccfd; fill-rule: evenodd; stroke-width: 0px;"/>
          <path d="M80.34,49.34h21.83v65.49h-49.61V49.34h27.78Z" style="fill: #b6dcfd; fill-rule: evenodd; stroke-width: 0px;"/>
          <path d="M52.55,57.28v3.97h-11.91v-3.97h11.91Z" style="fill: #3377af; fill-rule: evenodd; stroke-width: 0px;"/>
          <path d="M52.55,65.22v3.97h-11.91v-3.97h11.91Z" style="fill: #3377af; fill-rule: evenodd; stroke-width: 0px;"/>
          <path d="M62.48,67.2h25.8v3.97h-25.8v-3.97Z" style="fill: #4788c7; fill-rule: evenodd; stroke-width: 0px;"/>
          <path d="M52.55,73.16v3.97h-11.91v-3.97h11.91Z" style="fill: #3377af; fill-rule: evenodd; stroke-width: 0px;"/>
          <path d="M62.48,75.14h29.77v3.97h-29.77v-3.97Z" style="fill: #4788c7; fill-rule: evenodd; stroke-width: 0px;"/>
          <path d="M52.55,81.1v3.97h-11.91v-3.97h11.91Z" style="fill: #3377af; fill-rule: evenodd; stroke-width: 0px;"/>
          <path d="M62.48,83.08h21.83v3.97h-21.83v-3.97Z" style="fill: #4788c7; fill-rule: evenodd; stroke-width: 0px;"/>
          <path d="M52.55,89.03v3.97h-11.91v-3.97h11.91Z" style="fill: #3377af; fill-rule: evenodd; stroke-width: 0px;"/>
          <path d="M62.48,91.02h29.77v3.97h-29.77v-3.97Z" style="fill: #4788c7; fill-rule: evenodd; stroke-width: 0px;"/>
          <path d="M62.48,98.96h21.83v3.97h-21.83v-3.97Z" style="fill: #4788c7; fill-rule: evenodd; stroke-width: 0px;"/>
        </g>
      </g>
    </g>
  </g>
</svg>