<?xml version="1.0" encoding="UTF-8"?>
<svg id="Layer_2" data-name="Layer 2" xmlns="http://www.w3.org/2000/svg" width="120" height="120" xmlns:xlink="http://www.w3.org/1999/xlink" viewBox="0 0 120 120">
  <defs>
    <clipPath id="clippath">
      <rect width="120" height="120" style="fill: none; stroke-width: 0px;"/>
    </clipPath>
  </defs>
  <g id="Layer_1-2" data-name="Layer 1">
    <g style="clip-path: url(#clippath);">
      <path d="M50.72,5.34c-.32.17-.73.58-.9.92-.45.88-1.1,4.23-1.74,9.04-.3,2.3-.58,4.38-.64,4.62-.06.3-.52.58-1.55.95-.79.3-2.26.9-3.24,1.33l-1.78.84-5.03-3.93c-2.77-2.15-5.44-4.06-5.93-4.23-.84-.32-.9-.3-2.02.32-1.7.95-4.9,3.87-8.53,7.71-4.58,4.88-5.11,5.76-4.36,7.24.21.41,1.18,1.7,2.15,2.88s2.69,3.39,3.82,4.92l2.06,2.75-.56,1.22c-.75,1.61-1.93,4.49-2.06,4.98-.11.43.43.32-7.73,1.57-4.83.73-6.27,1.03-6.62,1.33-1.03.95-1.05,1.05-1.05,9.97s.04,9.47,1.14,10.21c.34.21,2.88.69,7.28,1.33l6.77.99.6,1.74c.32.97.92,2.36,1.29,3.14.39.77.75,1.61.84,1.85.11.37-.58,1.4-3.46,5.16-4.4,5.74-4.36,5.67-4.36,6.7s.73,2.17,3.16,4.79c2.69,2.92,9.07,8.94,9.9,9.35,1.31.62,1.85.34,7.5-3.93l5.29-4,.88.34c2.54,1.01,5.5,2.23,5.59,2.32.04.04.54,3.07,1.1,6.75s1.16,6.94,1.33,7.26c.6,1.18.97,1.22,10.27,1.22s9.52.02,10.21-1.57c.41-.95,1.25-5.61,1.83-10.25.19-1.48.39-2.88.43-3.12.06-.3.49-.58,1.55-.95.79-.3,2.26-.9,3.24-1.33l1.78-.82,5.07,3.95c3.27,2.56,5.37,4.06,5.93,4.23.79.24.95.21,2-.37,1.59-.9,4.9-3.89,8.19-7.35,4.68-4.98,5.35-5.99,4.81-7.39-.11-.32-1.16-1.76-2.32-3.22-1.18-1.46-2.96-3.78-4.02-5.18l-1.87-2.49.58-1.16c.32-.62.95-2.06,1.4-3.18.73-1.91.84-2.06,1.5-2.21.41-.09,3.52-.58,6.92-1.1,4.83-.73,6.27-1.03,6.62-1.33,1.03-.95,1.05-1.05,1.05-9.97s-.04-9.47-1.14-10.18c-.32-.24-2.96-.73-7.26-1.38l-6.75-1.03-.77-2.04c-.43-1.1-1.01-2.51-1.31-3.09-.99-1.96-1.16-1.53,2.77-6.68,2-2.6,3.78-4.96,4-5.29.43-.67.47-1.91.11-2.6-.6-1.16-3.05-3.82-7.46-8.14-5.09-5.01-5.69-5.44-7.09-4.94-.37.13-2.96,1.98-5.8,4.1-2.81,2.15-5.24,3.89-5.35,3.89-.13,0-1.1-.37-2.13-.84-1.03-.45-2.41-.99-3.01-1.18-.62-.21-1.18-.45-1.22-.52-.04-.09-.54-3.16-1.1-6.81-.56-3.67-1.16-6.94-1.33-7.26-.6-1.18-.97-1.22-10.31-1.22-7.15.02-8.66.06-9.13.34ZM65.11,42.36c5.95,1.74,10.81,6.62,12.55,12.63.41,1.42.49,2.19.49,5.01s-.09,3.59-.49,5.01c-1.74,6.06-6.6,10.91-12.65,12.65-1.42.41-2.19.49-5.01.49s-3.59-.09-5.01-.49c-6.06-1.74-10.91-6.6-12.65-12.65-.41-1.42-.49-2.19-.49-5.01s.09-3.59.49-5.01c1.74-6.02,6.75-11.04,12.55-12.59,2.34-.62,2.41-.64,5.65-.56,2.28.04,3.39.17,4.58.52Z" style="fill: #b9bfc1; stroke-width: 0px;"/>
    </g>
  </g>
</svg>