<?xml version="1.0" encoding="UTF-8"?>
<svg id="Layer_2" data-name="Layer 2" xmlns="http://www.w3.org/2000/svg" width="120" height="120" xmlns:xlink="http://www.w3.org/1999/xlink" viewBox="0 0 120 120">
  <defs>
    <clipPath id="clippath">
      <rect width="120" height="120" style="fill: none; stroke-width: 0px;"/>
    </clipPath>
  </defs>
  <g id="Layer_1-2" data-name="Layer 1">
    <g style="clip-path: url(#clippath);">
      <g id="_108-analytics_google_analytics_google" data-name="108-analytics, google analytics, google">
        <g>
          <path d="M75.5,41.35h-31c-1.71,0-3.1,1.39-3.1,3.11v62.17c0,1.72,1.39,3.11,3.1,3.11h31c1.71,0,3.1-1.39,3.1-3.11v-62.17c0-1.72-1.39-3.11-3.1-3.11h0Z" style="fill: #ffc107; stroke-width: 0px;"/>
          <path d="M44.5,72.43H13.5c-1.71,0-3.1,1.39-3.1,3.11v31.08c0,1.72,1.39,3.11,3.1,3.11h31c1.71,0,3.1-1.39,3.1-3.11v-31.08c0-1.72-1.39-3.11-3.1-3.11h0Z" style="fill: #ffc107; stroke-width: 0px;"/>
          <path d="M106.5,10.27h-31c-1.71,0-3.1,1.39-3.1,3.11v93.25c0,1.72,1.39,3.11,3.1,3.11h31c1.71,0,3.1-1.39,3.1-3.11V13.37c0-1.72-1.39-3.11-3.1-3.11h0Z" style="fill: #ffa000; stroke-width: 0px;"/>
        </g>
      </g>
    </g>
  </g>
</svg>