<?xml version="1.0" encoding="UTF-8"?>
<svg id="Layer_2" data-name="Layer 2" xmlns="http://www.w3.org/2000/svg" width="120" height="120" xmlns:xlink="http://www.w3.org/1999/xlink" viewBox="0 0 120 120">
  <defs>
    <clipPath id="clippath">
      <rect width="120" height="120" style="fill: none; stroke-width: 0px;"/>
    </clipPath>
  </defs>
  <g id="Layer_1-2" data-name="Layer 1">
    <g style="clip-path: url(#clippath);">
      <g>
        <path d="M89.44,22.82c-3.39,1.08-5.65,4.19-5.65,7.74,0,1.85.37,3.17,1.29,4.6,1.7,2.65,5.11,4.15,8.14,3.58,4.62-.86,7.44-4.7,6.83-9.3-.66-4.98-5.78-8.17-10.61-6.62" style="fill: #1075e2; fill-rule: evenodd; opacity: .2; stroke-width: 0px;"/>
        <path d="M101.69,44.14c-1.31.31-3.15,1.4-4.3,2.55-4.47,4.49-3.14,11.82,2.66,14.68,1.35.67,1.78.78,3.42.85,4.19.2,7.39-1.67,9.21-5.39.63-1.29.66-1.48.66-3.75s-.03-2.47-.67-3.77c-1.71-3.49-4.81-5.44-8.58-5.39-.88.01-1.96.11-2.41.21" style="fill: #1075e2; fill-rule: evenodd; opacity: .3; stroke-width: 0px;"/>
        <path d="M99.27,68.96c-2.93.49-5.87,2.74-7.21,5.52-2.87,5.97.79,12.98,7.37,14.11,6.86,1.18,12.96-5.47,11.21-12.2-1.32-5.07-6.23-8.28-11.37-7.43" style="fill: #1075e2; fill-rule: evenodd; opacity: .4; stroke-width: 0px;"/>
        <path d="M78.88,88.67c-3.24.87-6.05,3.47-7.12,6.58-1.64,4.79.54,10.05,5.12,12.34,6.98,3.48,15.28-1.41,15.29-9.02,0-4.64-3.16-8.69-7.74-9.91-1.41-.38-4.12-.37-5.55.02" style="fill: #1075e2; fill-rule: evenodd; opacity: .5; stroke-width: 0px;"/>
        <path d="M59.84,6.9c-5.88,1.54-10.02,6.89-10.01,12.91,0,3.85,1.18,6.72,3.85,9.4,7.17,7.2,18.82,4.43,22.25-5.27.61-1.72.75-5.12.3-7.05-.58-2.45-1.66-4.37-3.56-6.28-2.84-2.87-5.67-4.06-9.6-4.03-1.15,0-2.61.15-3.24.31" style="fill: #1075e2; fill-rule: evenodd; stroke-width: 0px;"/>
        <path d="M28.69,19.21c-3.31.8-6.71,3.46-8.14,6.36-1.03,2.09-1.38,3.5-1.38,5.63,0,3.52,1.07,6.08,3.65,8.65,2.64,2.64,5.32,3.74,9.08,3.73,2.61,0,4.81-.63,6.8-1.92,8-5.2,7.66-16.57-.63-21.21-2.58-1.44-6.42-1.95-9.37-1.24" style="fill: #1075e2; fill-rule: evenodd; opacity: .9; stroke-width: 0px;"/>
        <path d="M16.35,47.54c-3.87.9-6.83,3.09-8.44,6.26-.9,1.78-1.26,3.28-1.26,5.34,0,3.3,1.07,5.88,3.42,8.23,3.13,3.14,7.44,4.33,11.68,3.25,2.29-.59,3.96-1.54,5.65-3.24,3.7-3.7,4.51-9.03,2.08-13.65-.98-1.87-2.13-3.15-3.81-4.27-2.71-1.8-6.48-2.58-9.32-1.92" style="fill: #1075e2; fill-rule: evenodd; opacity: .8; stroke-width: 0px;"/>
        <path d="M26.04,76.04c-4.65.71-8.39,4.17-9.47,8.77-1.31,5.58,1.84,11.36,7.29,13.37,1.04.38,1.69.46,3.86.47,2.26,0,2.78-.06,3.86-.49,4.06-1.6,6.85-5.02,7.45-9.15,1.09-7.5-5.53-14.12-12.99-12.97" style="fill: #1075e2; fill-rule: evenodd; opacity: .7; stroke-width: 0px;"/>
        <path d="M50.8,92.22c-2.53.61-5.13,2.42-6.59,4.57-4.09,6.06-.82,14.39,6.39,16.27,4.88,1.27,10.27-1.02,12.57-5.33.92-1.73,1.26-3.09,1.26-5.11,0-2.98-.95-5.26-3.11-7.41-2.8-2.8-6.7-3.91-10.52-2.98" style="fill: #1075e2; fill-rule: evenodd; opacity: .6; stroke-width: 0px;"/>
      </g>
    </g>
  </g>
</svg>