<?xml version="1.0" encoding="UTF-8"?>
<svg id="Layer_2" data-name="Layer 2" xmlns="http://www.w3.org/2000/svg" width="120" height="120" xmlns:xlink="http://www.w3.org/1999/xlink" viewBox="0 0 120 120">
  <defs>
    <clipPath id="clippath">
      <rect width="120" height="120" style="fill: none; stroke-width: 0px;"/>
    </clipPath>
  </defs>
  <g id="Layer_1-2" data-name="Layer 1">
    <g style="clip-path: url(#clippath);">
      <g>
        <path d="M2.9,0h71.82v18.51h18.74v26.99c-.11.22-.22.44-.33.67-13.54,13.5-27.03,27.03-40.48,40.59-.68,1.35-1.27,2.77-1.78,4.24-.86,2.5-1.75,4.99-2.68,7.47.07.11.15.22.22.33,2.52-.94,5.04-1.83,7.58-2.68,1.38-.56,2.72-1.15,4.01-1.78.14.02.25.1.33.22,11.01-11.05,22.05-22.05,33.12-33.01v58.44H2.9V0Z" style="fill: #e1e1e1; fill-rule: evenodd; isolation: isolate; opacity: 1; stroke-width: 0px;"/>
        <path d="M74.72,0h.45c6.1,6.17,12.19,12.34,18.29,18.51h-18.74V0Z" style="fill: #c6c6c6; fill-rule: evenodd; stroke-width: 0px;"/>
        <path d="M20.3,16.73v3.57h-4.01v-3.57h4.01Z" style="fill: #525c6b; fill-rule: evenodd; stroke-width: 0px;"/>
        <path d="M27.21,16.73h28.55v3.57h-28.55v-3.57Z" style="fill: #515c6a; fill-rule: evenodd; stroke-width: 0px;"/>
        <path d="M20.3,16.73c.22,1.22.29,2.49.22,3.79-1.45.07-2.87,0-4.24-.22h4.01v-3.57Z" style="fill: #a3a7ae; fill-rule: evenodd; stroke-width: 0px;"/>
        <path d="M27.21,16.73c9.55-.22,19.14-.3,28.77-.22v4.01c-9.63.07-19.22,0-28.77-.22h28.55v-3.57h-28.55Z" style="fill: #a5aab0; fill-rule: evenodd; stroke-width: 0px;"/>
        <path d="M117.1,34.8v2.45c-1.39,1.98-3.02,3.77-4.91,5.35-1.4-1.1-2.74-2.29-4.01-3.57-1.26-1.41-2.6-2.75-4.01-4.01,1.22-1.63,2.63-3.08,4.24-4.35,1.54-1.15,3.1-1.23,4.68-.22,1.47,1.36,2.81,2.81,4.01,4.35Z" style="fill: #f8766f; fill-rule: evenodd; isolation: isolate; opacity: .99; stroke-width: 0px;"/>
        <path d="M16.28,32.79h4.01v3.57h-4.01v-3.57Z" style="fill: #525c6b; fill-rule: evenodd; stroke-width: 0px;"/>
        <path d="M16.28,32.79c1.37-.22,2.78-.3,4.24-.22.07,1.31,0,2.57-.22,3.79v-3.57h-4.01Z" style="fill: #a0a4ac; fill-rule: evenodd; stroke-width: 0px;"/>
        <path d="M27.21,32.79h45.28v3.57H27.21v-3.57Z" style="fill: #525c6b; fill-rule: evenodd; stroke-width: 0px;"/>
        <path d="M104.16,35.02c1.41,1.26,2.75,2.6,4.01,4.01-17.25,17.17-34.5,34.35-51.75,51.52-1.34-1.19-2.6-2.45-3.79-3.79,13.45-13.56,26.94-27.09,40.48-40.59.11-.23.23-.45.33-.67,3.57-3.49,7.14-6.99,10.71-10.48Z" style="fill: #febd66; fill-rule: evenodd; isolation: isolate; opacity: 1; stroke-width: 0px;"/>
        <path d="M108.18,39.03c1.28,1.28,2.61,2.47,4.01,3.57-6.09,6.46-12.33,12.78-18.74,18.96-11.07,10.96-22.11,21.96-33.12,33.01-.09-.12-.2-.2-.33-.22-1.19-1.26-2.38-2.53-3.57-3.79,17.25-17.17,34.5-34.35,51.75-51.52Z" style="fill: #fcdb85; fill-rule: evenodd; stroke-width: 0px;"/>
        <path d="M20.3,48.85v3.57h-4.01v-3.57h4.01Z" style="fill: #525c6b; fill-rule: evenodd; stroke-width: 0px;"/>
        <path d="M27.21,48.85h45.28v3.79H27.21v-3.79Z" style="fill: #555f6e; fill-rule: evenodd; stroke-width: 0px;"/>
        <path d="M20.3,48.85c.22,1.22.29,2.49.22,3.79-1.45.07-2.87,0-4.24-.22h4.01v-3.57Z" style="fill: #989da5; fill-rule: evenodd; stroke-width: 0px;"/>
        <path d="M16.28,64.91h4.01v3.57h-4.01v-3.57Z" style="fill: #525c6b; fill-rule: evenodd; stroke-width: 0px;"/>
        <path d="M16.28,64.91c1.37-.22,2.78-.3,4.24-.22v4.01c-1.45.07-2.87,0-4.24-.22h4.01v-3.57h-4.01Z" style="fill: #a0a5ac; fill-rule: evenodd; stroke-width: 0px;"/>
        <path d="M27.21,64.91h32.12v3.79H27.21v-3.79Z" style="fill: #555f6d; fill-rule: evenodd; stroke-width: 0px;"/>
        <path d="M20.3,80.97v3.57h-4.01v-3.57h4.01Z" style="fill: #525c6b; fill-rule: evenodd; stroke-width: 0px;"/>
        <path d="M27.21,80.97h17.4v3.79h-17.4v-3.79Z" style="fill: #555e6d; fill-rule: evenodd; stroke-width: 0px;"/>
        <path d="M20.3,80.97c.22,1.22.29,2.49.22,3.79-1.45.07-2.87,0-4.24-.22h4.01v-3.57Z" style="fill: #8d939c; fill-rule: evenodd; stroke-width: 0px;"/>
        <path d="M52.64,86.77c1.19,1.34,2.45,2.6,3.79,3.79,1.19,1.26,2.38,2.53,3.57,3.79-1.3.63-2.63,1.23-4.01,1.78-1.62-1.77-3.34-3.48-5.13-5.13.51-1.47,1.11-2.89,1.78-4.24Z" style="fill: #7c8f9a; fill-rule: evenodd; stroke-width: 0px;"/>
        <path d="M50.86,91c1.8,1.65,3.51,3.36,5.13,5.13-2.54.85-5.07,1.74-7.58,2.68-.07-.11-.15-.22-.22-.33.93-2.48,1.82-4.97,2.68-7.47Z" style="fill: #545e6d; fill-rule: evenodd; stroke-width: 0px;"/>
        <path d="M20.3,97.03v3.57h-4.01v-3.57h4.01Z" style="fill: #525c6b; fill-rule: evenodd; stroke-width: 0px;"/>
        <path d="M27.21,97.03h17.17v3.79h-17.17v-3.79Z" style="fill: #545e6d; fill-rule: evenodd; stroke-width: 0px;"/>
        <path d="M20.3,97.03c.22,1.22.29,2.49.22,3.79-1.45.07-2.87,0-4.24-.22h4.01v-3.57Z" style="fill: #8a9199; fill-rule: evenodd; stroke-width: 0px;"/>
      </g>
    </g>
  </g>
</svg>