<?xml version="1.0" encoding="UTF-8"?>
<svg id="Layer_2" data-name="Layer 2" xmlns="http://www.w3.org/2000/svg" width="120" height="120" xmlns:xlink="http://www.w3.org/1999/xlink" viewBox="0 0 120 120">
  <defs>
    <clipPath id="clippath">
      <rect width="120" height="120" style="fill: none; stroke-width: 0px;"/>
    </clipPath>
  </defs>
  <g id="Layer_1-2" data-name="Layer 1">
    <g style="clip-path: url(#clippath);">
      <g>
        <path d="M64.61,76.51h30.47c1.84,0,3.34,1.25,3.34,2.8v17.52c0,1.55-1.5,2.8-3.34,2.8H24.92c-1.84,0-3.34-1.25-3.34-2.8v-17.52h0c0-1.55,1.5-2.8,3.34-2.8h39.69Z" style="fill: #b6dcfd; fill-rule: evenodd; stroke-width: 0px;"/>
        <path d="M64.61,48.44h30.47c1.84,0,3.34,1.25,3.34,2.8v17.52c0,1.55-1.5,2.8-3.34,2.8H24.92c-1.84,0-3.34-1.25-3.34-2.8v-17.52h0c0-1.55,1.5-2.8,3.34-2.8h39.69Z" style="fill: #98ccfd; fill-rule: evenodd; stroke-width: 0px;"/>
        <path d="M64.61,20.37h30.47c1.84,0,3.34,1.25,3.34,2.8v17.52c0,1.55-1.5,2.8-3.34,2.8H24.92c-1.84,0-3.34-1.25-3.34-2.8v-17.52h0c0-1.55,1.5-2.8,3.34-2.8h39.69Z" style="fill: #98ccfd; fill-rule: evenodd; stroke-width: 0px;"/>
      </g>
    </g>
  </g>
</svg>