<?xml version="1.0" encoding="UTF-8"?>
<svg id="Layer_2" data-name="Layer 2" xmlns="http://www.w3.org/2000/svg" width="190" height="40" viewBox="0 0 190 40">
  <g id="Layer_1-2" data-name="Layer 1">
    <g>
      <path d="M61.88,7.67c-.94-1.15-2.39-1.73-4.36-1.73-1.05,0-1.99.27-2.84.8-.84.54-1.52,1.32-2.03,2.35-.41-1.07-1.04-1.86-1.89-2.38-.85-.51-1.94-.77-3.28-.77-.89,0-1.71.2-2.46.58-.75.39-1.38.97-1.89,1.71l-.22-1.92h-5.45v15.76h5.77v-8.38c0-.86.2-1.49.61-1.89.4-.39,1.01-.58,1.82-.53.41.02.74.14,1.01.34.27.21.47.51.61.9.14.39.2.89.2,1.5v8.07h5.77v-8.38c0-.86.21-1.49.61-1.89.41-.39,1.02-.58,1.83-.53.4.02.74.14,1,.34.27.21.47.51.61.9.14.39.21.89.21,1.5v8.07h5.77v-9.02c0-2.43-.47-4.24-1.41-5.39ZM33.77,9.4c-.64-1.09-1.57-1.94-2.79-2.55-1.22-.61-2.69-.92-4.4-.92-1.11,0-2.12.17-3.03.52-.91.34-1.7.83-2.37,1.46-.67.63-1.23,1.38-1.68,2.25l5.03,1.58c.24-.33.53-.63.87-.89.34-.26.78-.37,1.31-.37.77,0,1.32.17,1.66.5.34.33.56.8.64,1.39.02.14.03.3.05.43h-4.03c-1.85,0-3.31.39-4.34,1.18-1.04.79-1.55,2.01-1.55,3.65s.51,2.75,1.55,3.58c1.03.84,2.48,1.25,4.34,1.25s3.16-.56,4.14-1.67c.03-.03.04-.07.07-.1l.06,1.39h5.42v-8.86c0-1.45-.32-2.72-.96-3.81ZM28.83,17.33c-.21.36-.51.65-.89.85-.39.2-.85.3-1.38.3-.49,0-.88-.08-1.15-.25-.28-.17-.42-.41-.42-.73,0-.46.2-.82.61-1.07.4-.25.98-.37,1.73-.37h1.82c0,.48-.11.91-.32,1.28ZM10.97,0v14.03c0,.72-.12,1.31-.35,1.78-.24.47-.56.83-.98,1.05-.42.24-.9.34-1.46.34-.74,0-1.36-.25-1.85-.75-.49-.51-.86-1.27-1.09-2.31l-5.23,1.58c0,.63.16,1.34.48,2.11.32.78.81,1.54,1.48,2.26.66.73,1.5,1.32,2.52,1.78,1.03.46,2.23.69,3.63.69s2.6-.17,3.69-.51c1.09-.35,2.01-.84,2.78-1.47.75-.63,1.33-1.38,1.72-2.26.4-.87.6-1.82.6-2.86V0h-5.93Z" style="fill: #fff; stroke-width: 0px;"/>
      <g>
        <path d="M73.87,22.07V0h15.36v5.36h-9.43v3.22h7.37v5.36h-7.37v8.13h-5.93Z" style="fill: #fff; stroke-width: 0px;"/>
        <path d="M96.25,22.45c-1.86,0-3.31-.41-4.34-1.25s-1.55-2.02-1.55-3.58c0-1.64.52-2.85,1.55-3.64s2.48-1.18,4.34-1.18h4.71v3.25h-2.44c-.75,0-1.33.13-1.73.38s-.61.61-.61,1.07c0,.32.14.56.42.73s.66.25,1.15.25c.53,0,.99-.1,1.38-.3.38-.2.68-.48.9-.85.21-.37.32-.79.32-1.28h1.51c0,2.04-.49,3.62-1.48,4.73-.98,1.11-2.36,1.67-4.14,1.67ZM100.52,22.07l-.16-3.63v-4.1c0-.74-.04-1.4-.13-1.99-.09-.59-.3-1.05-.64-1.39-.34-.34-.9-.5-1.67-.5-.53,0-.97.13-1.31.38s-.63.55-.87.88l-5.03-1.58c.45-.86,1.01-1.61,1.68-2.24.67-.63,1.46-1.12,2.37-1.47.91-.35,1.92-.52,3.03-.52,1.71,0,3.17.3,4.39.91,1.22.61,2.15,1.46,2.79,2.55s.96,2.36.96,3.81v8.86h-5.42Z" style="fill: #fff; stroke-width: 0px;"/>
        <path d="M116.9,22.45c-1.75,0-3.31-.35-4.68-1.06-1.37-.7-2.44-1.68-3.21-2.93-.77-1.25-1.15-2.67-1.15-4.27s.38-3.05,1.15-4.29c.77-1.24,1.83-2.21,3.17-2.92,1.35-.7,2.9-1.06,4.65-1.06s3.24.43,4.65,1.29c1.41.86,2.41,2.11,3.01,3.75l-5.51,1.77c-.17-.42-.49-.77-.95-1.04-.46-.27-.97-.41-1.52-.41s-1,.12-1.41.36c-.41.24-.73.58-.96,1.02-.24.44-.35.95-.35,1.51s.12,1.07.35,1.5c.23.43.57.77.99,1.02s.91.38,1.44.38,1.03-.14,1.47-.41c.45-.27.77-.62.96-1.04l5.51,1.73c-.6,1.64-1.6,2.9-3,3.77-1.4.87-2.94,1.31-4.63,1.31Z" style="fill: #fff; stroke-width: 0px;"/>
        <path d="M125.17,11.04v-4.73h11.48v4.73h-11.48ZM133.44,22.45c-1.99,0-3.46-.46-4.42-1.39-.96-.92-1.44-2.25-1.44-3.97V1.39h5.77v14.16c0,.59.09,1.01.26,1.26.17.25.46.38.87.38.17,0,.38-.05.64-.16.26-.1.46-.21.61-.32l1.96,4.1c-.49.42-1.13.8-1.92,1.13-.79.34-1.56.5-2.31.5Z" style="fill: #fff; stroke-width: 0px;"/>
        <path d="M147.39,22.45c-1.71,0-3.22-.35-4.54-1.06s-2.35-1.68-3.09-2.92-1.12-2.67-1.12-4.29.37-3.05,1.11-4.29c.74-1.24,1.76-2.21,3.08-2.92,1.31-.7,2.82-1.06,4.5-1.06s3.22.35,4.54,1.06c1.31.7,2.34,1.68,3.08,2.92.74,1.24,1.11,2.67,1.11,4.29s-.37,3.05-1.11,4.29c-.74,1.24-1.76,2.21-3.06,2.92s-2.8,1.06-4.49,1.06ZM147.39,17.22c.53,0,1-.13,1.41-.39.41-.26.73-.62.96-1.07.23-.45.35-.97.35-1.56s-.12-1.11-.35-1.56c-.24-.45-.56-.81-.98-1.07-.42-.26-.9-.39-1.46-.39s-1.01.13-1.43.39c-.42.26-.74.62-.98,1.07-.24.45-.35.97-.35,1.56s.12,1.11.35,1.56c.23.45.57.81.99,1.07.43.26.92.39,1.48.39Z" style="fill: #fff; stroke-width: 0px;"/>
        <path d="M158.13,22.07V6.31h5.77v15.76h-5.77ZM162.56,14.03c0-1.7.35-3.13,1.04-4.29.69-1.16,1.58-2.03,2.65-2.62,1.07-.59,2.18-.88,3.33-.88v5.55c-1,0-1.94.09-2.81.27-.87.18-1.56.45-2.08.8-.52.36-.79.79-.79,1.29l-1.35-.13Z" style="fill: #fff; stroke-width: 0px;"/>
        <path d="M177.75,22.07l-7.7-15.76h6.41l4.78,11.67,1.96,4.1h-5.45ZM176.34,28.76c-.75,0-1.54-.14-2.37-.43s-1.5-.58-1.99-.9l2.15-4.57c.23.19.49.34.75.46.27.11.52.17.75.17.34,0,.67-.08.98-.25.31-.17.55-.45.72-.85l1.92-4.41,4.33-11.67h6.41l-6.89,16.33c-.49,1.18-1,2.23-1.54,3.15-.53.92-1.2,1.65-2,2.18-.8.53-1.88.79-3.22.79Z" style="fill: #fff; stroke-width: 0px;"/>
      </g>
      <g>
        <path d="M3.87,36.32c-.93-.46-1.93-.85-3.01-1.18l.49-1.23c.5.15,1.02.33,1.56.54s1.04.43,1.49.66l-.54,1.21ZM1.38,38.27c1.16-.16,2.14-.44,2.96-.82.81-.38,1.52-.92,2.1-1.6.59-.68,1.11-1.55,1.56-2.62l1.24.79c-.48,1.11-1.06,2.05-1.72,2.81-.67.76-1.47,1.38-2.41,1.85-.94.47-2.06.8-3.36,1l-.37-1.41ZM4.61,33.82c-.84-.44-1.81-.83-2.92-1.16l.5-1.2c1.05.31,2.04.71,2.99,1.19l-.57,1.17ZM7.76,33.25c-.36-.64-.69-1.17-.98-1.59l.75-.36c.43.63.76,1.16.99,1.59l-.76.36ZM8.95,32.69c-.36-.64-.69-1.17-.99-1.59l.75-.37c.39.55.71,1.08.97,1.59l-.73.37Z" style="fill: #fff; stroke-width: 0px;"/>
        <path d="M18.69,33.7l.27,1.06c-.15.58-.4,1.1-.75,1.57s-.82.92-1.42,1.35l-.77-.92c.45-.29.82-.57,1.1-.85.28-.28.49-.57.62-.88l-2.61.56.82,4.12-1.16.25-.81-4.12-1.93.41-.24-1.14,1.95-.4-.33-1.68,1.15-.22.33,1.67,3.78-.78Z" style="fill: #fff; stroke-width: 0px;"/>
        <path d="M28.65,39.51c-.12-.33-.25-.67-.39-1.01-2.02.24-4.31.44-6.84.6l-.1-1.29c.21,0,.54-.02.98-.05.91-2.08,1.68-4.19,2.3-6.34l1.33.36c-.67,2.2-1.35,4.15-2.04,5.86,1.21-.08,2.49-.2,3.84-.36-.43-.9-.85-1.66-1.24-2.29l1.21-.57c.4.65.79,1.36,1.17,2.13.38.77.72,1.55,1.03,2.34l-1.24.59Z" style="fill: #fff; stroke-width: 0px;"/>
        <path d="M39.05,31.95c.01,1.43-.16,2.64-.51,3.65-.35,1.01-.92,1.84-1.71,2.49-.79.65-1.82,1.13-3.11,1.44l-.62-1.27c1.05-.24,1.89-.58,2.53-1.01s1.11-.98,1.42-1.63.5-1.45.58-2.39h-5.96v-1.28h7.38Z" style="fill: #fff; stroke-width: 0px;"/>
        <path d="M42.16,33.57h6.69v1.03c-.2.51-.51,1-.94,1.45-.43.46-.95.87-1.56,1.23l-.59-.86v.14c0,.81-.21,1.49-.63,2.04s-1.08,1.02-1.98,1.4l-.63-1.08c.51-.2.91-.4,1.2-.62.29-.21.51-.46.65-.75.14-.29.21-.64.21-1.06v-1.22h1.19v.99c.46-.24.84-.48,1.14-.73.3-.25.53-.53.71-.82h-5.44v-1.12Z" style="fill: #fff; stroke-width: 0px;"/>
        <path d="M58.94,32.49c-.05,1.22-.31,2.31-.79,3.28-.48.97-1.16,1.79-2.03,2.46-.88.67-1.92,1.16-3.14,1.48l-.63-1.26c1.47-.37,2.61-.96,3.43-1.75.82-.79,1.36-1.78,1.64-2.97h-3.14c-.29.43-.62.82-.97,1.17-.35.35-.79.72-1.32,1.1l-.86-1.07c.71-.49,1.31-1.04,1.79-1.66.48-.62.87-1.31,1.16-2.07l1.32.36c-.14.35-.28.66-.43.94h3.97Z" style="fill: #fff; stroke-width: 0px;"/>
        <path d="M67.85,37.22c-.65-.35-1.34-.67-2.06-.98-.72-.31-1.35-.55-1.9-.74v4.14h-1.38v-8.23h1.38v2.64c.62.22,1.35.5,2.18.86s1.63.73,2.4,1.11l-.62,1.2Z" style="fill: #fff; stroke-width: 0px;"/>
        <path d="M72.47,36.06h-1.39v-4.51h1.39v4.51ZM72.34,38.32c.92-.2,1.62-.45,2.12-.74s.85-.67,1.06-1.14.32-1.11.33-1.9v-3.03h1.39v3.02c0,1.02-.14,1.86-.42,2.51-.28.66-.73,1.19-1.36,1.61-.63.41-1.48.75-2.56,1.01l-.56-1.33Z" style="fill: #fff; stroke-width: 0px;"/>
        <path d="M88.81,36.19h-8.02v-1.38h8.02v1.38Z" style="fill: #fff; stroke-width: 0px;"/>
      </g>
    </g>
  </g>
</svg>