<?xml version="1.0" encoding="UTF-8"?>
<svg id="Layer_2" xmlns="http://www.w3.org/2000/svg" width="231.54" height="67.56" viewBox="0 0 231.54 67.56">
  <g id="Layer_1-2" data-name="Layer_1">
    <g>
      <path d="M231.54,2.73v62.11c0,1.5-1.23,2.72-2.73,2.72h-39.99c0-2.12-1.72-3.84-3.84-3.84s-3.85,1.72-3.85,3.84h-38.86c0-2.13-1.73-3.85-3.85-3.85s-3.85,1.72-3.85,3.85H2.73c-1.5,0-2.73-1.22-2.73-2.72V2.73C0,1.23,1.23,0,2.73,0h131.84c0,2.13,1.72,3.85,3.85,3.85s3.85-1.72,3.85-3.85h38.86c0,2.13,1.72,3.85,3.85,3.85s3.84-1.72,3.84-3.85h39.99c1.5,0,2.73,1.23,2.73,2.73Z" style="fill: #e65d83;"/>
      <g>
        <line x1="184.98" y1="3.85" x2="184.98" y2="5.35" style="fill: none; stroke: #fff; stroke-miterlimit: 10;"/>
        <line x1="184.98" y1="7.35" x2="184.98" y2="61.22" style="fill: none; stroke: #fff; stroke-dasharray: 2.99 2; stroke-miterlimit: 10;"/>
        <line x1="184.98" y1="62.22" x2="184.98" y2="63.72" style="fill: none; stroke: #fff; stroke-miterlimit: 10;"/>
      </g>
      <g>
        <line x1="138.41" y1="3.85" x2="138.41" y2="5.35" style="fill: none; stroke: #fff; stroke-miterlimit: 10;"/>
        <line x1="138.41" y1="7.35" x2="138.41" y2="61.22" style="fill: none; stroke: #fff; stroke-dasharray: 2.99 2; stroke-miterlimit: 10;"/>
        <line x1="138.41" y1="62.22" x2="138.41" y2="63.72" style="fill: none; stroke: #fff; stroke-miterlimit: 10;"/>
      </g>
      <text transform="translate(13.84 28.38)" style="fill: #fff; font-family: NotoSansJP-Black-83pv-RKSJ-H, &apos;Noto Sans JP Black&apos;; font-size: 11px; font-weight: 800;"><tspan x="0" y="0" style="letter-spacing: .07em;">モ</tspan><tspan x="11.73" y="0" style="letter-spacing: .04em;">ニ</tspan><tspan x="23.11" y="0" style="letter-spacing: 0em;">タ</tspan><tspan x="34.17" y="0" style="letter-spacing: .05em;">ー</tspan><tspan x="45.68" y="0" style="letter-spacing: -.05em;">キ</tspan><tspan x="56.08" y="0" style="letter-spacing: -.04em;">ャ</tspan><tspan x="66.58" y="0" style="letter-spacing: .03em;">ン</tspan><tspan x="77.89" y="0" style="letter-spacing: .06em;">ペ</tspan><tspan x="89.55" y="0" style="letter-spacing: -.03em;">ー</tspan><tspan x="100.19" y="0" style="letter-spacing: .04em;">ン</tspan></text>
      <text transform="translate(37.65 44.71)" style="fill: #fff; font-family: NotoSansJP-Black-83pv-RKSJ-H, &apos;Noto Sans JP Black&apos;; font-size: 8px; font-weight: 800;"><tspan x="0" y="0" style="letter-spacing: .08em;">新着5名様限</tspan><tspan x="48.71" y="0" style="letter-spacing: -.17em;">定！</tspan></text>
      <text transform="translate(193.69 21.55)" style="fill: #fff; font-family: NotoSansJP-Black-83pv-RKSJ-H, &apos;Noto Sans JP Black&apos;; font-size: 5px; font-weight: 800;"><tspan x="0" y="0" style="letter-spacing: .05em;">全</tspan><tspan x="5.25" y="0" style="letter-spacing: -.03em;">プ</tspan><tspan x="10.12" y="0" style="letter-spacing: 0em;">ラ</tspan><tspan x="15.17" y="0" style="letter-spacing: .04em;">ン</tspan><tspan x="20.36" y="0" style="letter-spacing: .08em;">料金</tspan></text>
      <text transform="translate(143.65 21.55)" style="fill: #fff; font-family: NotoSansJP-Black-83pv-RKSJ-H, &apos;Noto Sans JP Black&apos;; font-size: 5px; font-weight: 800;"><tspan x="0" y="0" style="letter-spacing: .08em;">追</tspan><tspan x="5.4" y="0" style="letter-spacing: .07em;">加</tspan><tspan x="10.73" y="0" style="letter-spacing: .01em;">オ</tspan><tspan x="15.8" y="0" style="letter-spacing: .02em;">プ</tspan><tspan x="20.89" y="0" style="letter-spacing: -.07em;">シ</tspan><tspan x="25.54" y="0" style="letter-spacing: -.06em;">ョ</tspan><tspan x="30.23" y="0" style="letter-spacing: .04em;">ン</tspan></text>
      <text transform="translate(147.04 42.07)" style="fill: #fff; font-family: NotoSansJP-Black-83pv-RKSJ-H, &apos;Noto Sans JP Black&apos;; font-size: 8px; font-weight: 800;"><tspan style="letter-spacing: .08em;"><tspan x="0" y="0">3万円分</tspan></tspan><tspan style="letter-spacing: .08em;"><tspan x="7.08" y="9.6">無料</tspan></tspan></text>
      <text transform="translate(199.24 49.12)" style="fill: #fff; font-family: NotoSansJP-Black-83pv-RKSJ-H, &apos;Noto Sans JP Black&apos;; font-size: 8px; font-weight: 800; letter-spacing: .08em;"><tspan x="0" y="0">半額</tspan></text>
    </g>
  </g>
</svg>